<svg id="Layer_1" data-name="Layer 1" xmlns="http://www.w3.org/2000/svg" viewBox="0 0 2740.38 783.14"><circle cx="1895.22" cy="505.01" r="82.71" style="fill:#e6e6e6"/><path d="M1435.88,659.54l20.34,12.61V586.93l-22.8-14.13a8.8,8.8,0,0,1-3.86-5.14h0a8.88,8.88,0,0,1,6.32,1.17l20.34,12.61V548.39a78.19,78.19,0,0,1,2.33-19,78.2,78.2,0,0,1,2.34,19v53.94l30-18.6a14.73,14.73,0,0,1,8-2.2,14.72,14.72,0,0,1-5.53,6.17l-32.47,20.12V809.35h-4.67V677.64l-22.8-14.13a8.8,8.8,0,0,1-3.86-5.14h0A8.88,8.88,0,0,1,1435.88,659.54Z" transform="translate(-6 -33.76)" style="fill:#ccc"/><circle cx="1772.72" cy="512.03" r="82.71" style="fill:#e6e6e6"/><path d="M1780.72,809.8V684.66l22.81-14.13a8.88,8.88,0,0,0,3.86-5.14h0a8.86,8.86,0,0,0-6.32,1.17l-20.35,12.61V594l22.81-14.13a8.88,8.88,0,0,0,3.86-5.14h0a8.91,8.91,0,0,0-6.32,1.17l-20.35,12.61v-33a78.27,78.27,0,0,0-2.33-19,78.27,78.27,0,0,0-2.33,19v53.93l-30-18.6a14.7,14.7,0,0,0-8-2.2,14.79,14.79,0,0,0,5.53,6.17l32.48,20.12v195" transform="translate(-6 -33.76)" style="fill:#ccc"/><circle cx="1832.8" cy="339.4" r="142.4" style="fill:#e6e6e6"/><circle cx="1832.8" cy="150.4" r="142.4" style="fill:#e6e6e6"/><path d="M1842.25,810.11V612.26l39.26-24.33a15.21,15.21,0,0,0,6.64-8.85h0a15.22,15.22,0,0,0-10.88,2l-35,21.71V456.08l39.26-24.33a15.21,15.21,0,0,0,6.64-8.85h0a15.23,15.23,0,0,0-10.88,2l-35,21.7V389.73a134.59,134.59,0,0,0-4-32.65,134.59,134.59,0,0,0-4,32.65v92.86l-51.68-32a25.28,25.28,0,0,0-13.75-3.8,25.34,25.34,0,0,0,9.52,10.63l55.91,34.65V810.11" transform="translate(-6 -33.76)" style="fill:#ccc"/><path d="M1839.25,600.11V402.26l39.26-24.33a15.21,15.21,0,0,0,6.64-8.85h0a15.22,15.22,0,0,0-10.88,2l-35,21.71V246.08l39.26-24.33a15.21,15.21,0,0,0,6.64-8.85h0a15.23,15.23,0,0,0-10.88,2l-35,21.7V179.73a134.59,134.59,0,0,0-4-32.65,134.59,134.59,0,0,0-4,32.65v92.86l-51.68-32a25.28,25.28,0,0,0-13.75-3.8,25.34,25.34,0,0,0,9.52,10.63l55.91,34.65V600.11" transform="translate(-6 -33.76)" style="fill:#ccc"/><circle cx="433.8" cy="331.4" r="142.4" style="fill:#dcff7f"/><circle cx="433.8" cy="142.4" r="142.4" style="fill:#d5ff9f"/><path d="M443.25,802.11V604.26l39.26-24.33a15.21,15.21,0,0,0,6.64-8.85h0a15.22,15.22,0,0,0-10.88,2l-35,21.71V448.08l39.26-24.33a15.21,15.21,0,0,0,6.64-8.85h0a15.23,15.23,0,0,0-10.88,2l-35,21.7V381.73a134.59,134.59,0,0,0-4-32.65,134.59,134.59,0,0,0-4,32.65v92.86l-51.68-32a25.28,25.28,0,0,0-13.75-3.8,25.34,25.34,0,0,0,9.52,10.63l55.91,34.65V802.11" transform="translate(-6 -33.76)" style="fill:#ccc"/><path d="M440.25,592.11V394.26l39.26-24.33a15.21,15.21,0,0,0,6.64-8.85h0a15.22,15.22,0,0,0-10.88,2l-35,21.71V238.08l39.26-24.33a15.21,15.21,0,0,0,6.64-8.85h0a15.23,15.23,0,0,0-10.88,2l-35,21.7V171.73a134.59,134.59,0,0,0-4-32.65,134.59,134.59,0,0,0-4,32.65v92.86l-51.68-32a25.28,25.28,0,0,0-13.75-3.8,25.34,25.34,0,0,0,9.52,10.63l55.91,34.65V592.11" transform="translate(-6 -33.76)" style="fill:#ccc"/><rect y="359.24" width="328" height="420" style="fill:#e6e6e6"/><rect x="13.73" y="384.52" width="283.77" height="179.66" style="fill:#fff"/><rect x="13.73" y="556.81" width="283.78" height="192.56" style="fill:#fff"/><rect x="148.25" y="383.6" width="14.74" height="180.58" style="fill:#3f3d56"/><rect x="282.76" y="383.6" width="14.74" height="180.58" style="fill:#3f3d56"/><rect x="13.73" y="549.44" width="283.77" height="14.74" style="fill:#3f3d56"/><polygon points="53.83 481.26 28.47 498.31 28.47 512.41 66.89 481.26 53.83 481.26" style="fill:#fff"/><polygon points="95.62 481.26 28.47 533.83 28.47 545.84 115.99 481.26 95.62 481.26" style="fill:#e6e6e6"/><rect x="13.73" y="383.6" width="14.74" height="180.58" style="fill:#3f3d56"/><polygon points="256.5 398.34 199.84 470.2 217.35 472.05 266.18 395.57 256.5 398.34" style="fill:#e6e6e6"/><rect x="13.73" y="383.6" width="283.77" height="14.74" style="fill:#3f3d56"/><rect x="13.73" y="466.52" width="283.77" height="14.74" style="fill:#3f3d56"/><rect x="528.96" y="359.19" width="328" height="420" style="fill:#e6e6e6"/><rect x="550.71" y="383.99" width="283.77" height="179.66" style="fill:#fff"/><rect x="550.71" y="556.28" width="283.77" height="192.56" style="fill:#fff"/><rect x="685.22" y="383.07" width="14.74" height="180.58" style="fill:#3f3d56"/><rect x="819.74" y="383.07" width="14.74" height="180.58" style="fill:#3f3d56"/><rect x="550.71" y="548.91" width="283.77" height="14.74" style="fill:#3f3d56"/><polygon points="590.81 480.73 565.45 497.78 565.45 511.88 603.87 480.73 590.81 480.73" style="fill:#e6e6e6"/><polygon points="632.6 480.73 565.45 533.3 565.45 545.31 652.97 480.73 632.6 480.73" style="fill:#e6e6e6"/><rect x="550.71" y="383.07" width="14.74" height="180.58" style="fill:#3f3d56"/><polygon points="793.48 397.81 736.82 469.68 754.32 471.52 803.15 395.05 793.48 397.81" style="fill:#e6e6e6"/><rect x="550.71" y="383.07" width="283.77" height="14.74" style="fill:#3f3d56"/><rect x="550.71" y="465.99" width="283.77" height="14.74" style="fill:#3f3d56"/><circle cx="516.08" cy="456.58" r="17.31" style="fill:#f2f2f2"/><rect x="553.23" y="641.02" width="3.87" height="2.02" rx="1.01" style="fill:#fff"/><rect x="574.31" y="641.02" width="3.87" height="2.02" rx="1.01" style="fill:#fff"/><rect x="580.28" y="641.02" width="3.87" height="2.02" rx="1.01" style="fill:#fff"/><rect x="558.96" y="640.85" width="13.48" height="2.02" rx="1.01" style="fill:#fff"/><rect x="558.85" y="645.58" width="3.87" height="2.02" rx="1.01" style="fill:#fff"/><rect x="579.93" y="645.58" width="3.87" height="2.02" rx="1.01" style="fill:#fff"/><rect x="585.9" y="645.58" width="3.87" height="2.02" rx="1.01" style="fill:#fff"/><rect x="564.58" y="645.42" width="13.48" height="2.02" rx="1.01" style="fill:#fff"/><rect x="564.47" y="650.15" width="3.87" height="2.02" rx="1.01" style="fill:#fff"/><rect x="585.55" y="650.15" width="3.87" height="2.02" rx="1.01" style="fill:#fff"/><rect x="570.21" y="649.98" width="13.48" height="2.02" rx="1.01" style="fill:#fff"/><rect x="570.09" y="654.72" width="3.87" height="2.02" rx="1.01" style="fill:#fff"/><rect x="575.83" y="654.55" width="13.48" height="2.02" rx="1.01" style="fill:#fff"/><rect x="558.85" y="668.31" width="3.87" height="2.02" rx="1.01" style="fill:#fff"/><rect x="579.93" y="668.31" width="3.87" height="2.02" rx="1.01" style="fill:#fff"/><rect x="585.9" y="668.31" width="3.87" height="2.02" rx="1.01" style="fill:#fff"/><rect x="564.58" y="668.48" width="13.48" height="2.02" rx="1.01" style="fill:#fff"/><rect x="564.47" y="663.75" width="3.87" height="2.02" rx="1.01" style="fill:#fff"/><rect x="585.55" y="663.75" width="3.87" height="2.02" rx="1.01" style="fill:#fff"/><rect x="570.21" y="663.91" width="13.48" height="2.02" rx="1.01" style="fill:#fff"/><rect x="570.09" y="659.18" width="3.87" height="2.02" rx="1.01" style="fill:#fff"/><rect x="575.83" y="659.35" width="13.48" height="2.02" rx="1.01" style="fill:#fff"/><ellipse cx="294.24" cy="533.16" rx="3.86" ry="3.94" style="fill:#3f3d56"/><path d="M631.24,788.8l.52-11.63a37.48,37.48,0,0,1,17.53-4.44c-8.42,6.88-7.37,20.15-13.08,29.41a22.59,22.59,0,0,1-16.57,10.44l-7,4.31a37.87,37.87,0,0,1,8-30.69A36.53,36.53,0,0,1,627.3,780C629,784.4,631.24,788.8,631.24,788.8Z" transform="translate(-6 -33.76)" style="fill:#f2f2f2"/><path d="M253.25,776.05l-17-5.15a57.27,57.27,0,0,1,.05-27.57c7,15,27,18.47,38.53,30.39a34.49,34.49,0,0,1,9.2,28.44l3.72,12a57.74,57.74,0,0,1-42.36-23.36,55.93,55.93,0,0,1-6.7-12.29C245.9,777.72,253.25,776.05,253.25,776.05Z" transform="translate(-6 -33.76)" style="fill:#f2f2f2"/><path d="M618,815a1.33,1.33,0,0,1-.39.94,1.31,1.31,0,0,1-.93.39h-5.32A1.33,1.33,0,0,1,610,815h0V654c0-3.54-1.19-6.42-2.65-6.43H208.52c-1.47,0-2.66,2.89-2.66,6.43V814a1.32,1.32,0,0,1-1.2,1.31c-1.07.11-2.15.2-3.21.29h-.08c-.59.06-1.17.1-1.75.14h0c-.3-.55-.59-1.11-.89-1.67a1.32,1.32,0,0,1-.15-.62V645.68c0-1,0-2,.11-2.94a35.65,35.65,0,0,1,.5-4c1.11-6.15,3.64-10.31,6.52-10.33H610.2a3.22,3.22,0,0,1,1.22.26,4.9,4.9,0,0,1,1.5,1.05,9.71,9.71,0,0,1,1.48,2,26.77,26.77,0,0,1,2.79,10.55v.12c.09,1.07.14,2.16.13,3.26l.1,14.18.06,8.46.18,26.55.06,9.43Z" transform="translate(-6 -33.76)" style="fill:#e6e6e6"/><path d="M426.62,581.39H394.29a1.73,1.73,0,0,0-1.73,1.73V634.2h35.79V583.12a1.74,1.74,0,0,0-1.73-1.73Zm-16.06,29a3.84,3.84,0,0,1-3.82-3.81v-5.89a3.82,3.82,0,1,1,7.64,0v5.89a3.83,3.83,0,0,1-3.82,3.81Z" transform="translate(-6 -33.76)" style="fill:#2f2e41"/><path d="M480.16,501.68H342a4.49,4.49,0,0,0-4.48,4.48v93.27a4.49,4.49,0,0,0,4.48,4.48H480.16a4.49,4.49,0,0,0,4.48-4.48V506.16A4.5,4.5,0,0,0,480.16,501.68Z" transform="translate(-6 -33.76)" style="fill:#3f3d56"/><path d="M479,504.92H343.1a2.39,2.39,0,0,0-2.39,2.4v90.95a2.4,2.4,0,0,0,2.39,2.4H479a2.41,2.41,0,0,0,2.4-2.4V507.32A2.39,2.39,0,0,0,479,504.92Z" transform="translate(-6 -33.76)" style="fill:#fff"/><path d="M392.45,632.56v4.93a1,1,0,0,0,1,1h34.07a1,1,0,0,0,1-1v-4.93Z" transform="translate(-6 -33.76)" style="fill:#3f3d56"/><path d="M452.53,640.17H371.68a1.49,1.49,0,0,1-1.49-1.49,1.15,1.15,0,0,1,0-.31l1.25-6a1.49,1.49,0,0,1,1.45-1.18h78.35a1.5,1.5,0,0,1,1.46,1.18l1.25,6a1.5,1.5,0,0,1-1.15,1.77A1.55,1.55,0,0,1,452.53,640.17Z" transform="translate(-6 -33.76)" style="fill:#2f2e41"/><rect x="367.51" y="598.55" width="2.49" height="1.49" rx="0.32" style="fill:#3f3d56"/><rect x="372.49" y="598.55" width="2.49" height="1.49" rx="0.32" style="fill:#3f3d56"/><rect x="377.47" y="598.55" width="2.49" height="1.49" rx="0.32" style="fill:#3f3d56"/><rect x="382.45" y="598.55" width="2.49" height="1.49" rx="0.32" style="fill:#3f3d56"/><rect x="387.43" y="598.55" width="2.49" height="1.49" rx="0.32" style="fill:#3f3d56"/><rect x="392.41" y="598.55" width="2.49" height="1.49" rx="0.32" style="fill:#3f3d56"/><rect x="397.39" y="598.55" width="2.49" height="1.49" rx="0.32" style="fill:#3f3d56"/><rect x="402.37" y="598.55" width="2.49" height="1.49" rx="0.32" style="fill:#3f3d56"/><rect x="407.35" y="598.55" width="2.49" height="1.49" rx="0.32" style="fill:#3f3d56"/><rect x="412.33" y="598.55" width="2.49" height="1.49" rx="0.32" style="fill:#3f3d56"/><rect x="417.31" y="598.55" width="2.49" height="1.49" rx="0.32" style="fill:#3f3d56"/><rect x="422.29" y="598.55" width="2.49" height="1.49" rx="0.32" style="fill:#3f3d56"/><rect x="427.27" y="598.55" width="2.49" height="1.49" rx="0.32" style="fill:#3f3d56"/><rect x="432.25" y="598.55" width="2.49" height="1.49" rx="0.32" style="fill:#3f3d56"/><rect x="437.24" y="598.55" width="2.49" height="1.49" rx="0.32" style="fill:#3f3d56"/><rect x="442.22" y="598.55" width="2.49" height="1.49" rx="0.32" style="fill:#3f3d56"/><rect x="367.45" y="601.04" width="2.49" height="1.49" rx="0.32" style="fill:#3f3d56"/><rect x="372.43" y="601.04" width="2.49" height="1.49" rx="0.32" style="fill:#3f3d56"/><rect x="377.41" y="601.04" width="2.49" height="1.49" rx="0.32" style="fill:#3f3d56"/><rect x="382.39" y="601.04" width="2.49" height="1.49" rx="0.32" style="fill:#3f3d56"/><rect x="387.37" y="601.04" width="2.49" height="1.49" rx="0.32" style="fill:#3f3d56"/><rect x="392.35" y="601.04" width="2.49" height="1.49" rx="0.32" style="fill:#3f3d56"/><rect x="397.33" y="601.04" width="2.49" height="1.49" rx="0.32" style="fill:#3f3d56"/><rect x="402.31" y="601.04" width="2.49" height="1.49" rx="0.32" style="fill:#3f3d56"/><rect x="407.29" y="601.04" width="2.49" height="1.49" rx="0.32" style="fill:#3f3d56"/><rect x="412.27" y="601.04" width="2.49" height="1.49" rx="0.32" style="fill:#3f3d56"/><rect x="417.25" y="601.04" width="2.49" height="1.49" rx="0.32" style="fill:#3f3d56"/><rect x="422.24" y="601.04" width="2.49" height="1.49" rx="0.32" style="fill:#3f3d56"/><rect x="427.22" y="601.04" width="2.49" height="1.49" rx="0.32" style="fill:#3f3d56"/><rect x="432.2" y="601.04" width="2.49" height="1.49" rx="0.32" style="fill:#3f3d56"/><rect x="437.18" y="601.04" width="2.49" height="1.49" rx="0.32" style="fill:#3f3d56"/><rect x="442.16" y="601.04" width="2.49" height="1.49" rx="0.32" style="fill:#3f3d56"/><rect x="391.36" y="604.03" width="19.92" height="1.49" rx="0.32" style="fill:#3f3d56"/><path d="M472.17,517.45H345a.5.5,0,0,1-.49-.52.49.49,0,0,1,.49-.49H472.17a.51.51,0,0,1,0,1Z" transform="translate(-6 -33.76)" style="fill:#cacaca"/><ellipse cx="347.67" cy="477.07" rx="2.96" ry="3.03" style="fill:#3f3d56"/><ellipse cx="357.91" cy="477.07" rx="2.96" ry="3.03" style="fill:#3f3d56"/><ellipse cx="368.14" cy="477.07" rx="2.96" ry="3.03" style="fill:#3f3d56"/><path d="M466,508.55h-7.27a.55.55,0,0,0,0,1.1H466a.55.55,0,0,0,.54-.56A.54.54,0,0,0,466,508.55Z" transform="translate(-6 -33.76)" style="fill:#3f3d56"/><path d="M466,510.62h-7.27a.54.54,0,0,0-.54.56.55.55,0,0,0,.54.54H466a.55.55,0,0,0,.54-.56A.54.54,0,0,0,466,510.62Z" transform="translate(-6 -33.76)" style="fill:#3f3d56"/><path d="M466,512.68h-7.27a.55.55,0,0,0-.54.56.54.54,0,0,0,.54.54H466a.55.55,0,0,0,0-1.1Z" transform="translate(-6 -33.76)" style="fill:#3f3d56"/><rect x="394.7" y="513.24" width="20.21" height="4.32" rx="2.16" style="fill:#6c63ff"/><rect x="384.44" y="521.88" width="40.74" height="4.32" rx="2.16" style="fill:#e6e6e6"/><rect x="384.44" y="530.52" width="40.74" height="4.32" rx="2.16" style="fill:#e6e6e6"/><path d="M346.25,646.67H306.53a5.3,5.3,0,0,0,0,10.59H321.1v41h10.59v-41h14.56a5.3,5.3,0,1,0,0-10.59Z" transform="translate(-6 -33.76)" style="fill:#3f3d56"/><path d="M372.47,721H266.23a42.91,42.91,0,0,1-42.32-36.83l-3.76-13.84A310.39,310.39,0,0,0,184.94,589c-7.11-11.56-10.78-22.74-2.46-33.51l.21-.27c6.67-8.69,39.88-10.57,50.7-10.93.43,0,.86,0,1.29,0h66.09c.43,0,.86,0,1.28,0a32.34,32.34,0,0,1,28,17.82,33.3,33.3,0,0,1-1.89,34.12c-23.21,34.87-30.32,56.73-23,70.89,7,13.7,28.61,20.7,67.9,22,10.55.36,15.4,8.58,15.43,16.06,0,7.29-4.62,15.34-14.93,15.79Z" transform="translate(-6 -33.76)" style="fill:#3f3d56"/><path d="M284.27,815.38H324a5.3,5.3,0,0,0,0-10.59H309.43V715.41H298.84v89.38H284.27a5.3,5.3,0,0,0,0,10.59Z" transform="translate(-6 -33.76)" style="fill:#3f3d56"/><path d="M281.1,547.59l.83,5.06c.4,2.46,1.83,19.79.77,21.86-.09-3.86-7.28-9.93-11.94-8.55l-7.31,1.63-4.54,1-3.69.81-10.73,2.34c0-.12,0-.26-.05-.38l-.09-.47a9.18,9.18,0,0,0-1.08-2.86,7,7,0,0,1-1,3.36l0,.09a7.82,7.82,0,0,1-.63.88l0,0s-2.2-35.15-2-35.47l.51-.68c.18-.22.35-.44.54-.66l.06-.07a21,21,0,0,1,1.64-1.76l.52-.49a24.43,24.43,0,0,1,9.39-5.41c.39-.13.8-.24,1.22-.35l1.25-.29.14,0,.61-.11.76-.11a24.6,24.6,0,0,1,9.74.54h0a25,25,0,0,1,7.46,3.32c4,2.62,5.51,6.88,6.6,11.67C280.43,544.16,280.75,545.87,281.1,547.59Z" transform="translate(-6 -33.76)" style="fill:#2f2e41"/><polygon points="314.23 745.59 321.07 749.31 339.18 724.26 329.08 718.78 314.23 745.59" style="fill:#ffb6b6"/><path d="M323.52,770.42l12.42,3.89-2,5.21,8.51,12.36a3.48,3.48,0,0,1-4.09,5.23l-14.47-5.5-.53-6.09-2.93,4.77L315,788.22Z" transform="translate(-6 -33.76)" style="fill:#2f2e41"/><path d="M359,667.32a7.72,7.72,0,0,1-9.5-7l-58.36-21L301.84,630l55.4,22.06A7.73,7.73,0,0,1,359,667.32Z" transform="translate(-6 -33.76)" style="fill:#ffb6b6"/><path d="M274.82,587.32s-9.83.21-10.7,11.44,20.57,39,23.9,43.56,40.23,10.21,40.23,10.21l12.55-9.11c-13.18-8.54-25.22-15.1-33.29-14.8Z" transform="translate(-6 -33.76)" style="fill:#6c63ff"/><path d="M262.77,636.84l2.39,10.29s0,9.49,1.71,11.24,38.36-1.76,38.36-1.76-3.89-15.29-3.83-26.86Z" transform="translate(-6 -33.76)" style="fill:#ffb6b6"/><path d="M340.3,768.48l-13.25-7.28c-.25-17.23,10.12-40.54,22.41-65C322,701,296,702.48,273.6,696.76a14.51,14.51,0,0,1-10.37-17.52c.09-.36.19-.72.31-1.08,2.68-8.19-3.34-13.32,2.2-22.33,14.56-5,28.39-6.38,41-2l7.93,17.53L354,666.28A14.5,14.5,0,0,1,370.1,679v.11c.06.42.09.85.11,1.28C362.27,717.58,353.37,751.09,340.3,768.48Z" transform="translate(-6 -33.76)" style="fill:#2f2e41"/><circle cx="255.29" cy="515.87" r="16.42" style="fill:#ffb6b6"/><path d="M257.43,571.68l15.14-.9a3.09,3.09,0,0,1,3,1.9l4.28,10.37,17.77,14.69s7,9,7.06,20.52,2.49,38.34,2.49,38.34S296.92,642.14,290.58,646c-1.08.65-1.46,2-2.59,2.67-.56.33-1.86,0-2.43.34-8.74,5.19-17.85,10.26-18.7,9.37-1.67-1.75-3.7-10.66-3.7-10.66l-13.85-50.9A18.86,18.86,0,0,1,252,580.94c1-1.36,2-2.37,2.92-2.54C257,578,255.9,573.21,257.43,571.68Z" transform="translate(-6 -33.76)" style="fill:#6c63ff"/><polygon points="380.18 767.15 386.57 762.71 372.1 735.41 362.67 741.96 380.18 767.15" style="fill:#ffb6b6"/><path d="M387.14,782.59l-10,8.95c-15.92-17.74-27.95-42.62-38.15-70.87-26.73-7.83-46.88-20.45-64.47-35.44-6-5.05-10.45-11.54-5.36-17.69q.36-.43.75-.84c6-6.17,21.25-5,30.18-10.65L320,677.36l-1.25,5.72,37.45,12.68a14.48,14.48,0,0,1,8.87,18.44l0,.11c-.14.41-.3.81-.47,1.2Z" transform="translate(-6 -33.76)" style="fill:#2f2e41"/><path d="M382.45,799.11l10.23-8.05,3.18,4.57,15,0a3.48,3.48,0,0,1,2,6.33l-12.7,8.83-5.34-3,2.29,5.12-4.79,3.33Z" transform="translate(-6 -33.76)" style="fill:#2f2e41"/><path d="M279.78,700a7.69,7.69,0,0,1-3.43-11.28L242.08,637l14.16-1.07,31.25,50.78A7.73,7.73,0,0,1,279.78,700Z" transform="translate(-6 -33.76)" style="fill:#ffb6b6"/><path d="M260.08,585.52s-8-5.7-15.42,2.78-6.78,43.55-6.85,49.21c0,1.77,2.53,5.59,6.06,10,1.58,2,3.36,4.09,5.18,6.18,1.06,1.2.15,3.72,1.21,4.9s4.08,1,5.08,2.08c4.77,5.14,8.63,9.06,8.63,9.06l15.51.19c.17-11.52-7.72-21.81-17.86-31.75Z" transform="translate(-6 -33.76)" style="fill:#6c63ff"/><path d="M281.82,541.65c-.61.3-1.2.59-1.78.86a54.59,54.59,0,0,1-7.18,2.93,9,9,0,0,0-1.84-3,7.19,7.19,0,0,1-.31,3.59,20.24,20.24,0,0,1-11.28-.43c2.39,4.41,4.15,13.71,4,22-.06,4.38-.65,8.48-1.95,11.43L259.84,574a32.38,32.38,0,0,0-.93-5.35c-1.12-4.93-2.16-1.64-3.69.81l-10.73,2.34c0-.12,0-.26-.05-.38l-.09-.47a9.18,9.18,0,0,0-1.08-2.86,7,7,0,0,1-1,3.36l0,.09a7.82,7.82,0,0,1-.63.88l0,0c-6.93.93-11.78-34.8-2-35.47.28,0,.34-.45.51-.68s.35-.44.54-.66l.06-.07c.52-.61,1.06-1.19,1.64-1.76l.52-.49a24.84,24.84,0,0,1,9.39-5.41c.39-.12.8-.24,1.22-.35l1.25-.29.14,0,.61-.11.76-.11a6.14,6.14,0,0,1,2.34,2l6.86-1.4a4.85,4.85,0,0,1,.55-.09h0C274.54,526.08,280,533,281.82,541.65Z" transform="translate(-6 -33.76)" style="fill:#2f2e41"/><path d="M244.45,535.33a11.44,11.44,0,0,1-4.8,2.42c-1.79.26-3.89-.61-4.38-2.35-.61-2.13,1.31-4.07,3-5.45l5.48-4.39a13.24,13.24,0,0,1,3.36-2.17,4.45,4.45,0,0,1,3.87.13,4.16,4.16,0,0,1,1.83,3.63,7.62,7.62,0,0,1-1.35,4,14,14,0,0,1-9.07,6.17" transform="translate(-6 -33.76)" style="fill:#2f2e41"/><path d="M286,649.32H246.29a5.3,5.3,0,1,0,0,10.59h14.56V701h10.59V659.91H286a5.3,5.3,0,0,0,0-10.59Z" transform="translate(-6 -33.76)" style="fill:#3f3d56"/><polygon points="511.29 695.61 517.75 702.66 548.01 681.07 538.47 670.67 511.29 695.61" style="fill:#a0616a"/><path d="M530.67,739.34h0l-.66-7-.29-.14-1.74-.83-8.22-3.89-.17-.18-1.65-1.8-9.13,8.38,12.37,13.48,8.48,9.24.28-.26a12,12,0,0,0,.74-16.95Z" transform="translate(-6 -33.76)" style="fill:#2f2e41"/><polygon points="477.79 765.91 486.94 768.69 502.01 734.71 488.51 730.61 477.79 765.91" style="fill:#a0616a"/><path d="M507.48,807.27a11.89,11.89,0,0,0-7.1-5.82l-4.15-5.73-.32,0-11,1-.25-.07-2.33-.71-3.6,11.86,29.51,9,.11-.37A12,12,0,0,0,507.48,807.27Z" transform="translate(-6 -33.76)" style="fill:#2f2e41"/><path id="b2eb929e-713e-4b71-a146-193a455bcc79-96" d="M559.24,621.78s58.43,56.41,21.49,73.87H569.32A75.44,75.44,0,0,0,558,673.19c-1.08-1.41-5.12-1.13-6.24-2.5-6.85-8.4-14.28-15.62-19.41-15.33l1.23,39,2,13.9c1,7.19-28.39,69.94-28.39,69.94l-18.5-7.27s19.27-51.69,19.5-59.14l-15.45-81.93Z" transform="translate(-6 -33.76)" style="fill:#2f2e41"/><path d="M564.12,624.56a3.54,3.54,0,0,1-1.14,1,7.91,7.91,0,0,1-2.39.88c-13.16,3-56.13,9.18-67.28,6.23-1.38-.36-2.27-.86-2.56-1.53-.93-2.09-.81-10.93-.27-21.6.1-2,2.31-4.16,2.44-6.25.09-1.57-1.89-3.05-1.78-4.65.73-10.79,1.67-21.78,2.3-28.73.39-4.47.67-7.27.67-7.27l-6.79-42.78.32-.53.36-.18,21.88-10.83,1.19-3a4.7,4.7,0,0,1,4.36-3l14.41-.06a4.71,4.71,0,0,1,3.84,2l3.9,5.41,25.82,16.55-.1.3-12.11,36.87-.06,2.88h0l-.45,23.11,1.25,3.13-1.41,5.14a23.36,23.36,0,0,0,4.12,10.46c3.15,4,7.17,8.28,9,11.71h0C564.63,621.68,565,623.32,564.12,624.56Z" transform="translate(-6 -33.76)" style="fill:#6c63ff"/><path id="e9cec503-1de8-4692-84d1-4d2e854ea0bd-97" d="M583.54,692.3l-3.12,4s-28.72,20.09-29.71,22l-4.54,4.29-11-11.74,5.71-7.15a44.8,44.8,0,0,1,17.2-13.17h0l8.75-7.77Z" transform="translate(-6 -33.76)" style="fill:#2f2e41"/><path d="M565.29,635.9l-5.23-50.62-1.38-20.84,14.64-2.64s-.58,14.89,1.34,23.3.25,49.69.13,50.8a7.12,7.12,0,1,1-10.06.56c.18-.19.36-.38.56-.56Z" transform="translate(-6 -33.76)" style="fill:#a0616a"/><path d="M579.57,595.77l-18.82,3.89-1.64-6.55-1.92-2L553.36,571l-5.5-11.76L549.29,519l14,7.41h0c2.14,2.32,3.61,5.64,6.06,9,7.71,10.49,8.56,36,8.33,50,0,.23.23.47.5.73a7.73,7.73,0,0,1,1.41,9.68Z" transform="translate(-6 -33.76)" style="fill:#6c63ff"/><path d="M480.08,637.89l5.23-50.62,1.38-20.84-14.64-2.65s.58,14.9-1.33,23.31-.25,49.69-.14,50.8a7.12,7.12,0,1,0,10.06.56,7.4,7.4,0,0,0-.56-.56Z" transform="translate(-6 -33.76)" style="fill:#a0616a"/><path d="M497.52,561.22,493.44,570,492,573l-3.83,20.08-1.91,2-1.65,6.56-.78-.16-14-2.89-4.08-.84a7.75,7.75,0,0,1,1.41-9.69c.28-.25.51-.49.5-.73-.23-14,.62-39.45,8.34-50,2.45-3.33,3.92-6.64,6.05-9h0l5.2-8.52.32-.53.36-.18Z" transform="translate(-6 -33.76)" style="fill:#6c63ff"/><circle id="e944ea38-edcc-43c9-bf24-dbaf21228ba4" cx="516.22" cy="445.24" r="19.18" style="fill:#a0616a"/><path d="M543.78,470.58c-.07-3.27-.44-7.45-2.73-10.79-1.93-2.81-5.83-5-9.47-3.92a3.93,3.93,0,0,0-2-3.63,10.33,10.33,0,0,0-4.49-1.13c-3.69-.34-7.51-.7-11.24,0-4.19.79-7.62,2.95-9.4,5.92l0,.1-.37,1.76a1.68,1.68,0,0,1-.82,1.12,1.64,1.64,0,0,1-1.4.1,1.51,1.51,0,0,0-1.95.89,1.48,1.48,0,0,0-.08.75l.1.7-1.06-.19a1.5,1.5,0,0,0-1.77,1.19,1.57,1.57,0,0,0,.07.83l.29.8a1.61,1.61,0,0,0-1.16.51,1.48,1.48,0,0,0-.19,1.73,13.85,13.85,0,0,0,4.85,4.89,11.4,11.4,0,0,0,2.9,1.23c.21.06.43.12.65.16a68.1,68.1,0,0,0,24.73.74,14.16,14.16,0,0,0-.55,5,5.28,5.28,0,0,0,3.16,4.44,6.41,6.41,0,0,0,1.15.27,6.91,6.91,0,0,1,1.11.27,3.23,3.23,0,0,1,1.91,4.14,3.16,3.16,0,0,1-1,1.37s1.73,1.44,2,1.37a4.45,4.45,0,0,0,2-1.82C542.34,484.65,543.94,478.32,543.78,470.58Z" transform="translate(-6 -33.76)" style="fill:#2f2e41"/><path d="M109.07,584.43H25.25A27.44,27.44,0,0,1,52.69,557c15.27-4.76,35.19-3.23,56.38,0Z" transform="translate(-6 -33.76)" style="fill:#ff6584"/><path d="M97.09,578.44h39.42a2.5,2.5,0,0,1,2.49,2.5h0a2.49,2.49,0,0,1-2.49,2.49H97.09v-5Z" transform="translate(-6 -33.76)" style="fill:#3f3d56"/><path d="M103.92,533.51l10.56-12.81a2.78,2.78,0,0,1,5.17.44l4.17,14.71Z" transform="translate(-6 -33.76)" style="fill:#3f3d56"/><path d="M91.1,540l4-16.12a2.77,2.77,0,0,1,4.85-1.83l10.11,11.46Z" transform="translate(-6 -33.76)" style="fill:#ff6584"/><path d="M25.25,584.43h8v17a8,8,0,0,1-8,8h0v-25Z" transform="translate(-6 -33.76)" style="fill:#ff6584"/><path d="M95.59,579.44H135a2.49,2.49,0,0,1,2.49,2.5h0a2.49,2.49,0,0,1-2.49,2.49H95.59v-5Z" transform="translate(-6 -33.76)" style="fill:#ff6584"/><circle cx="103.07" cy="523.73" r="26.94" style="fill:#ff6584"/><ellipse cx="129.01" cy="525.73" rx="2.99" ry="6.98" style="fill:#3f3d56"/><ellipse cx="121.77" cy="518.49" rx="0.75" ry="1.75" style="fill:#3f3d56"/><ellipse cx="127.26" cy="515" rx="0.75" ry="1.75" style="fill:#3f3d56"/><path d="M106.8,530.25s-1.49-2.61-1.49-4.19" transform="translate(-6 -33.76)" style="fill:#3f3d56"/><path d="M107.46,528.56s.82-2.89,2-4" transform="translate(-6 -33.76)" style="fill:#3f3d56"/><circle cx="1453.46" cy="532.54" r="46.5" style="fill:#ff6584"/><ellipse cx="1472.9" cy="628.11" rx="58.89" ry="73.71" style="fill:#f2f2f2"/><ellipse cx="1399.9" cy="572.11" rx="58.89" ry="73.71" style="fill:#f2f2f2"/><ellipse cx="1165.9" cy="559.11" rx="58.89" ry="73.71" style="fill:#f2f2f2"/><polygon points="1473.06 613.29 1473.22 613.29 1476.14 780.25 1469.99 780.25 1473.06 613.29" style="fill:#ccc"/><path d="M1489.11,757.58h0a1.47,1.47,0,0,1-.61,2l-8.45,4.44-1.36-2.57,8.45-4.45A1.47,1.47,0,0,1,1489.11,757.58Z" transform="translate(-6 -33.76)" style="fill:#ccc"/><ellipse cx="1067.6" cy="616.11" rx="58.89" ry="73.71" style="fill:#f2f2f2"/><path d="M1083.8,744.34h0a1.45,1.45,0,0,0-2-.61l-5.9,3.11-2-115.79h-.16l-3.08,167h6.15L1076,750.1l7.19-3.79A1.46,1.46,0,0,0,1083.8,744.34Z" transform="translate(-6 -33.76)" style="fill:#ccc"/><path d="M1178.8,744.34h0a1.45,1.45,0,0,0-2-.61l-5.9,3.11-2-115.79h-.16l-3.08,167h6.15L1171,750.1l7.19-3.79A1.46,1.46,0,0,0,1178.8,744.34Z" transform="translate(-6 -33.76)" style="fill:#ccc"/><path d="M1694,485c41.21,0,74.71,77.65,74.71,129.23s-33.41,93.4-74.62,93.4-74.62-41.81-74.62-93.4S1652.83,485,1694,485Z" transform="translate(-6 -33.76)" style="fill:#6c63ff"/><path d="M1407.06,746a1.85,1.85,0,0,0-2.49-.78h0l-7.47,3.94-2.56-146.72h-.2L1390.44,814h7.79l-1.06-60.71,9.12-4.8a1.84,1.84,0,0,0,.77-2.49Z" transform="translate(-6 -33.76)" style="fill:#3f3d56"/><rect x="2129.57" y="496.72" width="38.52" height="38.52" transform="translate(23.9 1109.79) rotate(-30)" style="fill:#ff6584"/><path d="M2156.31,549.24l-20.11-34.83L2171,494.29l20.11,34.84ZM2138.52,515l18.41,31.89,31.89-18.41-18.41-31.89Z" transform="translate(-6 -33.76)" style="fill:#2f2e41"/><circle cx="2119.1" cy="592.93" r="16.17" style="fill:#d0cde1"/><path d="M2137,643.7a17,17,0,1,1,17-17A17,17,0,0,1,2137,643.7Zm0-32.33a15.32,15.32,0,1,0,15.32,15.32A15.31,15.31,0,0,0,2137,611.37Z" transform="translate(-6 -33.76)" style="fill:#2f2e41"/><path d="M2070.53,815.22a7.24,7.24,0,0,1-7.24-7.23V662.49a7.24,7.24,0,0,1,7.24-7.23h156.56a7.24,7.24,0,0,1,7.23,7.23V808a7.24,7.24,0,0,1-7.23,7.23" transform="translate(-6 -33.76)" style="fill:#6c63ff"/><path d="M2130.51,813.1V658.17a7.24,7.24,0,0,1,7.23-7.23h22.13a7.24,7.24,0,0,1,7.23,7.23V813.1" transform="translate(-6 -33.76)" style="fill:#3f3d56"/><path d="M2268.68,640.85c-.91,15-21.19,26-21.19,26s-18.79-13.36-17.88-28.37,21.19-26,21.19-26S2269.6,625.85,2268.68,640.85Z" transform="translate(-6 -33.76)" style="fill:#3f3d56"/><path d="M2269.6,687.69c-15-.87-26-21.11-26-21.11s13.3-18.84,28.31-18,26,21.11,26,21.11S2284.61,688.55,2269.6,687.69Z" transform="translate(-6 -33.76)" style="fill:#3f3d56"/><polygon points="2227.89 639.3 2227.89 694.85 2172.65 621.92 2214.73 621.92 2227.89 639.3" style="opacity:0.10000000149011612;isolation:isolate"/><path d="M2280.79,768.14a7.26,7.26,0,0,1-5.77-2.86l-115.1-151.92a7.23,7.23,0,0,1,1.4-10.13h0l16.95-12.85a7.23,7.23,0,0,1,10.13,1.4h0L2303.51,743.7a7.24,7.24,0,0,1-1.4,10.13h0l-17,12.84A7.14,7.14,0,0,1,2280.79,768.14Z" transform="translate(-6 -33.76)" style="fill:#6c63ff"/><rect x="2212.9" y="657.43" width="36.59" height="36.59" transform="translate(38.73 1450.8) rotate(-37.15)" style="fill:#3f3d56"/><rect x="2079.06" y="543.29" width="38.52" height="38.52" transform="translate(1005.85 2410.02) rotate(-75)" style="fill:#d0cde1"/><path d="M2096.16,591.71l-38.85-10.41,10.41-38.86,38.85,10.41Zm-36.77-11.62,35.57,9.53,9.53-35.56-35.57-9.53Z" transform="translate(-6 -33.76)" style="fill:#2f2e41"/><path d="M1766.5,678a9.7,9.7,0,0,0,.29-13.7,9.26,9.26,0,0,0-1.29-1.12l-15.62-126-20.19,6,21.8,122.57a9.74,9.74,0,0,0,15,12.2Z" transform="translate(-6 -33.76)" style="fill:#ffb8b8"/><polygon points="1779.21 764.65 1791.02 764.65 1796.64 719.11 1779.21 719.11 1779.21 764.65" style="fill:#ffb8b8"/><path d="M1782.68,809.37V795h24.08a13,13,0,0,1,13,13" transform="translate(-6 -33.76)" style="fill:#2f2e41"/><polygon points="1697.56 746.26 1708.62 750.38 1729.77 709.65 1713.43 703.57 1697.56 746.26" style="fill:#ffb8b8"/><path d="M1732.14,802.35l-34.78-12.94h0l5-13.44h0l22.57,8.4a13,13,0,0,1,7.67,16.75h0l-.46,1.23Z" transform="translate(-6 -33.76)" style="fill:#2f2e41"/><circle cx="1758.03" cy="448.46" r="22.33" style="fill:#ffb8b8"/><path d="M1729.11,539.52c-.7-20.56,20.91-34.83,39.09-25.2,2.32,1.23,26.24,21.55,27.15,34.17s2.7,33.36,2.7,33.36l25.24,188.42-54.09-2.71,6.53-55-35.16,55.89L1698,754.94l52.29-150.55S1730.17,570.69,1729.11,539.52Z" transform="translate(-6 -33.76)" style="fill:#2f2e41"/><path d="M1729.53,546.68l3.48,45.16a1.88,1.88,0,0,0,1.87,1.73h15.28a1.88,1.88,0,0,0,1.88-1.88,1.79,1.79,0,0,0-.15-.72l-18.75-45.15a1.88,1.88,0,0,0-3.61.86Z" transform="translate(-6 -33.76)" style="fill:#2f2e41"/><path d="M1808,670.19a9.69,9.69,0,0,0-1.31-13.63,9.79,9.79,0,0,0-1.41-1L1775,532.33l-19.35,8.33,36,119.18A9.74,9.74,0,0,0,1808,670.19Z" transform="translate(-6 -33.76)" style="fill:#ffb8b8"/><path d="M1758.38,521.45s-6.31,12.62,0,35.16,10.82,41.47,10.82,41.47,14.43-9,20.74-6.31-10-60.09-10-60.09S1770.1,510.63,1758.38,521.45Z" transform="translate(-6 -33.76)" style="fill:#2f2e41"/><path d="M1769.27,485.71c.3-4.64,6.14-4.79,10.78-4.84s10.2.12,12.82-3.7c1.74-2.53,1.41-6.05,0-8.76s-3.79-4.8-6.11-6.8c-6-5.18-12.17-10.32-19.36-13.64s-15.62-4.66-23.08-2c-9.17,3.27-21.55,20.1-22.62,29.77s2.79,19.53,9.31,26.76,21.42,4.31,30.81,6.88c-5.71-8.08-2-22.75,7.19-26.52Z" transform="translate(-6 -33.76)" style="fill:#2f2e41"/><rect x="1864" y="725.67" width="86.41" height="1.23" style="fill:#f2f2f2"/><rect x="1925.1" y="714.56" width="1.23" height="11.42" style="fill:#f2f2f2"/><rect x="1935.59" y="527.55" width="86.41" height="1.23" style="fill:#f2f2f2"/><rect x="1959.05" y="516.44" width="1.23" height="11.42" style="fill:#f2f2f2"/><rect x="1996.7" y="516.44" width="1.23" height="11.42" style="fill:#f2f2f2"/><rect x="1928.8" y="441.15" width="86.41" height="1.23" style="fill:#f2f2f2"/><rect x="1990.52" y="442.07" width="1.23" height="11.42" style="fill:#f2f2f2"/><rect x="1952.88" y="442.07" width="1.23" height="11.42" style="fill:#f2f2f2"/><path d="M1968.29,524.65l-2.47,58-15.43,58s-16.05,28.39-3.7,28.39,16-26.54,16-26.54l19.75-54.31,3.71-50Z" transform="translate(-6 -33.76)" style="fill:#ffb8b8"/><path d="M1933.11,741.28l1.23,44.44h12.35l4.93-28.39s4.32-11.73,4.32-12.35S1933.11,741.28,1933.11,741.28Z" transform="translate(-6 -33.76)" style="fill:#ffb8b8"/><path d="M1948.54,783.25h-15.43s-6.17,9.25-7.41,9.25-19.13.62-8,8.65,21.6,4.32,21.6,4.32v7.4s12.34,6.17,13,0c0-.06,0-.12,0-.18a44,44,0,0,0-2.71-19.61C1948.08,789.15,1946.87,784.58,1948.54,783.25Z" transform="translate(-6 -33.76)" style="fill:#2f2e41"/><path d="M1972.91,737.91l14.2,42.13,11.8-3.62-3.59-28.59s.69-12.48.51-13.07S1972.91,737.91,1972.91,737.91Z" transform="translate(-6 -33.76)" style="fill:#ffb8b8"/><path d="M2000,773.52,1985.21,778s-3.19,10.66-4.37,11-18.12,6.19-5.14,10.61,21.92-2.2,21.92-2.2l2.17,7.08s13.61,2.29,12.39-3.79c0-.06,0-.12,0-.18a44,44,0,0,0-8.33-18C2001.26,779.29,1998.76,775.28,2000,773.52Z" transform="translate(-6 -33.76)" style="fill:#2f2e41"/><circle cx="1940.38" cy="457.87" r="17.9" style="fill:#ffb8b8"/><path d="M1943,504.28s11.11,15.43,8.64,19.13,26.54-3.08,26.54-3.08-17.9-20.37-17.28-24.08S1943,504.28,1943,504.28Z" transform="translate(-6 -33.76)" style="fill:#ffb8b8"/><path d="M1966.44,514.77s-14.82,0-19.75,6.17-10.5,19.14-10.5,19.14-5.25,2-7.13,12.36a35.66,35.66,0,0,0,3.19,22c3.11,6.4,6.75,15.49,3.64,17.83-4.94,3.7-19.14,33.94-19.14,84.55,0,28.21-8.14,47.69-15.36,59.41a13.31,13.31,0,0,0,13.77,20l.67-.13c22.22-4.32,87-12.34,87-12.34L1985,699.93s-8.64-14.2-3.08-36.42-9.88-63-9.88-63,20.68-46.6,17-57.09-8.33-31.79-12.65-31.17A69.49,69.49,0,0,0,1966.44,514.77Z" transform="translate(-6 -33.76)" style="fill:#2f2e41"/><path d="M1946.69,524.65l-2.47,58-15.43,58s-16,28.39-3.71,28.39,16.05-26.54,16.05-26.54l19.75-54.31,3.7-50Z" transform="translate(-6 -33.76)" style="fill:#ffb8b8"/><path d="M1957.8,518.47s-13.58,0-15.43,6.18-2.22,7.06-2.22,7.06,5.3-7.06,12.09,3.43,15.43,13,15.43,13S1969.52,523.41,1957.8,518.47Z" transform="translate(-6 -33.76)" style="fill:#2f2e41"/><circle cx="1952.72" cy="447.38" r="24.69" style="fill:#2f2e41"/><path d="M1954.83,501.25a24.67,24.67,0,0,1-17.17-29.11c-.17.48-.34,1-.48,1.47a24.69,24.69,0,0,0,47.4,13.82c.15-.5.27-1,.38-1.5A24.68,24.68,0,0,1,1954.83,501.25Z" transform="translate(-6 -33.76)" style="fill:#2f2e41"/><ellipse cx="1934.21" cy="460.95" rx="1.85" ry="3.09" style="fill:#ffb8b8"/><circle cx="1961.98" cy="422.69" r="8.64" style="fill:#2f2e41"/><path d="M1957.49,454.59a8.63,8.63,0,0,1,7.71-8.58,8.64,8.64,0,1,0-1.87,17.17,8.35,8.35,0,0,0,1.87,0A8.63,8.63,0,0,1,1957.49,454.59Z" transform="translate(-6 -33.76)" style="fill:#2f2e41"/><path d="M1938.35,471.26a11.1,11.1,0,0,0-11.1,11.11h22.21A11.1,11.1,0,0,0,1938.35,471.26Z" transform="translate(-6 -33.76)" style="fill:#2f2e41"/><circle cx="1638.19" cy="736.18" r="25.57" style="fill:#2f2e41"/><polygon points="1619.97 767.67 1612.9 764.44 1619.25 749.59 1626.31 752.82 1619.97 767.67" style="fill:#2f2e41"/><rect x="1633.06" y="793.86" width="13.92" height="7.77" transform="translate(226.9 1924.19) rotate(-65.45)" style="fill:#2f2e41"/><ellipse cx="1638" cy="806.07" rx="2.43" ry="6.47" transform="translate(-169.89 1065.56) rotate(-35.45)" style="fill:#2f2e41"/><ellipse cx="1623.6" cy="801.95" rx="2.43" ry="6.47" transform="translate(-170.17 1056.44) rotate(-35.45)" style="fill:#2f2e41"/><circle cx="1641.47" cy="730.56" r="8.74" style="fill:#fff"/><circle cx="1638.31" cy="726.63" r="2.91" style="fill:#3f3d56"/><path d="M1631.51,738c2-9.27,11.85-15,22.08-12.86s16.93,11.44,15,20.71-9.54,9.56-19.77,7.39S1629.54,747.26,1631.51,738Z" transform="translate(-6 -33.76)" style="fill:#cfcce0"/><ellipse cx="1668.22" cy="771.25" rx="4.01" ry="12.79" transform="translate(850.92 2386.61) rotate(-88.62)" style="fill:#2f2e41"/><ellipse cx="1617.51" cy="766.95" rx="4.01" ry="12.79" transform="translate(805.75 2331.72) rotate(-88.62)" style="fill:#2f2e41"/><path d="M1634.89,778a5.83,5.83,0,1,0,10.6,4.84h0c1.34-2.93-.76-4.62-3.68-6S1636.23,775,1634.89,778Z" transform="translate(-6 -33.76)" style="fill:#fff"/><path d="M1638.19,746.77c0,47.91-28.45,64.65-63.58,64.66-.82,0-1.63,0-2.44,0-1.63,0-3.24-.11-4.83-.22-31.71-2.23-56.35-19.8-56.37-64.36,0-46.1,58.88-104.32,63.29-108.62h0l.25-.24S1638.16,698.87,1638.19,746.77Z" transform="translate(-6 -33.76)" style="fill:#6c63ff"/><path d="M1572.29,804.11l23.25-32.52-23.31,36.09-.06,3.73c-1.63,0-3.24-.11-4.83-.22l2.48-47.93,0-.37,0-.07.23-4.53-23.4-36.15,23.47,32.76.06,1,1.88-36.21-20-37.36,20.28,31,1.93-75.07v0l-.3,59.21,19.91-23.48-20,28.58-.51,32.42L1592,703.81l-18.66,35.89-.29,18,27-43.33L1572.92,764Z" transform="translate(-6 -33.76)" style="fill:#3f3d56"/><circle cx="1577.9" cy="628.12" r="1.48" style="fill:#cfcce0"/><circle cx="1640.42" cy="675.53" r="1.48" style="fill:#cfcce0"/><circle cx="1601.6" cy="709.32" r="1.48" style="fill:#cfcce0"/><circle cx="1517.44" cy="720.28" r="1.48" style="fill:#cfcce0"/><circle cx="1547.37" cy="740.13" r="3.26" style="fill:#cfcce0"/><circle cx="1622.05" cy="624.56" r="3.26" style="fill:#cfcce0"/><circle cx="1530.19" cy="672.27" r="3.26" style="fill:#cfcce0"/><circle cx="2454.61" cy="573.86" r="58.01" style="fill:#fff"/><circle cx="2460.87" cy="695.14" r="79.67" style="fill:#fff"/><path d="M2511.93,648.35l-95.85,4.94a2.67,2.67,0,0,0-2.53,2.81l.28,5.47a2.68,2.68,0,0,0,2.81,2.54l16.29-.84,1.77,1.52-10.94,74.71,10.2,12L2445,673.68l49.86,42.93,13.79-3-59.21-51.16,63-3.25a2.67,2.67,0,0,0,2.53-2.81h0l-.28-5.47a2.68,2.68,0,0,0-2.81-2.53Z" transform="translate(-6 -33.76)" style="fill:#6c63ff"/><path d="M2427.72,580.66s24.18-13.69,24-18.12-10.67-17.23-28.39-16.31c0,0-4.85-7.75-9.85-1.27s3.21,10.5,3.21,10.5-8.93,16.46,5.76,25.48Z" transform="translate(-6 -33.76)" style="fill:#6c63ff"/><circle cx="2432.39" cy="563.39" r="4.64" style="fill:#3f3d56"/><circle cx="2475.65" cy="561.16" r="4.64" style="fill:#3f3d56"/><rect x="2456.96" y="606.06" width="8.51" height="26.3" transform="translate(-34.63 93.83) rotate(-2.95)" style="fill:#ff6584"/><circle cx="2460.94" cy="666.48" r="4.64" style="fill:#3f3d56"/><circle cx="2461.82" cy="683.47" r="4.64" style="fill:#3f3d56"/><circle cx="2462.69" cy="700.47" r="4.64" style="fill:#3f3d56"/><path d="M2462.39,642a46.16,46.16,0,0,1-22.3-4.75l.66-1.39c14.5,6.85,28.81,6.11,42.53-2.2l.8,1.33A46.24,46.24,0,0,1,2462.39,642Z" transform="translate(-6 -33.76)" style="fill:#3f3d56"/><circle cx="2488.72" cy="574.43" r="3.87" style="fill:#ff6584"/><circle cx="2420.75" cy="577.93" r="3.87" style="fill:#ff6584"/><polygon points="2716.33 652.27 2716.33 698.47 2704.11 723.11 2704.11 723.11 2703.73 723.89 2671.4 721.76 2658.96 720.93 2630.12 719.03 2630.12 663.77 2658.96 664.58 2671.87 664.94 2704.5 665.87 2716.33 652.27" style="fill:#ff6f61"/><polygon points="2716.33 655 2716.33 698.47 2713.34 704.49 2713.34 704.49 2710.28 710.66 2710.28 710.66 2704.11 723.11 2704.8 676.91 2704.94 667.59 2710.81 661.1 2710.81 661.1 2713.37 658.27 2716.33 655" style="opacity:0.10000000149011612;isolation:isolate"/><polygon points="2717.99 640 2717.99 656.14 2716.33 658.78 2713.37 663.5 2710.74 667.68 2704.94 676.92 2704.8 676.91 2627.58 672.94 2627.58 657.02 2627.77 656.81 2636.99 646.83 2640.33 643.22 2646.37 636.69 2717.99 640" style="fill:#ff6f61"/><polygon points="2704.94 661 2704.94 676.92 2627.58 672.94 2627.58 657.02 2627.77 656.81 2704.94 661" style="opacity:0.10000000149011612;isolation:isolate"/><polygon points="2717.99 640 2717.99 656.14 2704.94 676.92 2704.94 661 2717.99 640" style="opacity:0.15000000596046448;isolation:isolate"/><polygon points="2713.37 647.43 2713.37 658.27 2713.37 663.5 2713.34 704.49 2713.34 704.49 2710.28 710.66 2710.74 667.68 2710.81 661.1 2710.81 661.1 2710.91 651.39 2636.99 646.83 2640.33 643.22 2713.37 647.43" style="fill:#3f3d56"/><polygon points="2677.09 647.96 2671.91 659.21 2671.87 664.94 2671.4 721.76 2658.96 720.93 2658.96 658.46 2665.6 647.96 2677.09 647.96" style="fill:#3f3d56"/><path d="M2666,682.48a16.4,16.4,0,0,1-9.26.33,3.87,3.87,0,0,1-1.63-.76,4.26,4.26,0,0,1-1-2,15.79,15.79,0,0,1-.89-4.77,5.35,5.35,0,0,1,2-4.25,3.87,3.87,0,0,0,.76-.57,3,3,0,0,0,.58-1.18c.9-2.7,2.66-5.55,5.48-6,2.59-.4,5,1.42,7,3.12l4.39,3.74a6.94,6.94,0,0,1,12.93-.17,24.69,24.69,0,0,1,9.78-6.71,3,3,0,0,1,2.56-.1,2.9,2.9,0,0,1,1,1.37,21,21,0,0,1,1.9,8.33,1.47,1.47,0,0,1,1.7.58,3.88,3.88,0,0,1,.56,1.84,23.21,23.21,0,0,1,.17,3,4.5,4.5,0,0,1-.79,3c-.9,1-2.45,1.16-3.82,1.19a1.55,1.55,0,0,1-.24,2.17l-.16.1a4.32,4.32,0,0,1-2.57.5c-3.42,0-7.05-.13-9.9-2-1.12-.75-2.06-1.74-3.19-2.49-2.75-1.82-6.22-1.91-9.41-1.76C2671.07,679.17,2668.78,681.56,2666,682.48Z" transform="translate(-6 -33.76)" style="fill:#3f3d56"/><path d="M2665.38,681.72s-28.52,4-32.5,21.22l6-.88,4.2,7.52s4.42-16.8,17.46-20.78,17.69-4.64,17.69-4.64,9.06,2.21,17.24,28.51l4.64-6.41,8.18,1.77s-6-20.56-22.1-26.31Z" transform="translate(-6 -33.76)" style="fill:#3f3d56"/><polygon points="2676.48 670.34 2676.48 732.75 2659.98 766.03 2659.98 766.03 2659.46 767.08 2615.78 764.2 2598.99 763.09 2560.03 760.51 2560.03 685.87 2598.99 686.96 2616.42 687.46 2660.51 688.7 2676.48 670.34" style="fill:#6c63ff"/><polygon points="2676.48 674.02 2676.48 732.75 2672.45 740.88 2672.45 740.88 2668.32 749.21 2668.32 749.22 2659.98 766.03 2660.91 703.62 2661.1 691.03 2669.03 682.27 2669.03 682.26 2672.48 678.44 2676.48 674.02" style="opacity:0.10000000149011612;isolation:isolate"/><polygon points="2678.72 653.77 2678.72 675.56 2676.48 679.13 2672.48 685.51 2668.93 691.15 2661.1 703.63 2660.91 703.62 2556.59 698.26 2556.59 676.76 2556.86 676.47 2569.31 662.99 2573.82 658.11 2581.97 649.29 2678.72 653.77" style="fill:#6c63ff"/><polygon points="2661.1 682.13 2661.1 703.63 2556.59 698.26 2556.59 676.76 2556.86 676.47 2661.1 682.13" style="opacity:0.10000000149011612;isolation:isolate"/><polygon points="2678.72 653.77 2678.72 675.56 2661.1 703.63 2661.1 682.13 2678.72 653.77" style="opacity:0.15000000596046448;isolation:isolate"/><polygon points="2672.49 663.8 2672.48 678.44 2672.48 685.51 2672.45 740.88 2672.45 740.88 2668.32 749.21 2668.93 691.15 2669.03 682.27 2669.03 682.26 2669.17 669.15 2569.31 662.99 2573.82 658.11 2672.49 663.8" style="fill:#3f3d56"/><polygon points="2623.48 664.51 2616.48 679.71 2616.42 687.46 2615.78 764.2 2598.99 763.09 2598.99 678.7 2607.95 664.51 2623.48 664.51" style="fill:#3f3d56"/><path d="M2606.44,699.3a22.23,22.23,0,0,1-12.52.44,5,5,0,0,1-2.19-1,5.84,5.84,0,0,1-1.36-2.69,21.39,21.39,0,0,1-1.2-6.44,7.23,7.23,0,0,1,2.68-5.75,5.73,5.73,0,0,0,1-.76,4.19,4.19,0,0,0,.78-1.6c1.23-3.65,3.6-7.5,7.4-8.08,3.51-.54,6.71,1.91,9.41,4.21l5.93,5a9.37,9.37,0,0,1,17.47-.24,33.29,33.29,0,0,1,13.2-9.06c1.12-.42,2.44-.76,3.47-.13a3.85,3.85,0,0,1,1.38,1.85,28.44,28.44,0,0,1,2.57,11.25,2,2,0,0,1,2.29.79,5.18,5.18,0,0,1,.76,2.48,34.93,34.93,0,0,1,.24,4.09,6.12,6.12,0,0,1-1.07,4.09c-1.22,1.41-3.31,1.56-5.17,1.6.9.8.46,2.4-.53,3.07a5.89,5.89,0,0,1-3.47.67c-4.62,0-9.53-.17-13.37-2.74-1.52-1-2.79-2.36-4.31-3.36-3.73-2.47-8.41-2.59-12.72-2.38C2613.24,694.82,2610.14,698.1,2606.44,699.3Z" transform="translate(-6 -33.76)" style="fill:#3f3d56"/><path d="M2605.59,698.28s-38.52,5.37-43.89,28.66l8.06-1.19,5.67,10.15s6-22.69,23.59-28.07,23.89-6.27,23.89-6.27,12.24,3,23.29,38.52l6.27-8.66,11,2.39s-8.06-27.77-29.86-35.53Z" transform="translate(-6 -33.76)" style="fill:#3f3d56"/><polygon points="2738.99 701.34 2738.99 739.96 2728.78 760.56 2728.78 760.56 2728.46 761.22 2701.43 759.43 2691.03 758.74 2666.92 757.15 2666.92 710.95 2691.03 711.63 2701.82 711.93 2729.11 712.7 2738.99 701.34" style="fill:#3f3d56"/><polygon points="2738.99 703.62 2738.99 739.96 2736.5 745 2736.5 745 2733.94 750.15 2733.94 750.16 2728.78 760.56 2729.36 721.94 2729.48 714.15 2734.38 708.72 2734.38 708.72 2736.52 706.35 2738.99 703.62" style="opacity:0.10000000149011612;isolation:isolate"/><polygon points="2740.38 691.08 2740.38 704.57 2738.99 706.78 2736.52 710.73 2734.32 714.22 2729.48 721.94 2729.36 721.94 2664.79 718.62 2664.79 705.31 2664.95 705.14 2672.66 696.79 2675.45 693.77 2680.5 688.31 2740.38 691.08" style="fill:#3f3d56"/><polygon points="2729.48 708.64 2729.48 721.94 2664.79 718.62 2664.79 705.31 2664.95 705.14 2729.48 708.64" style="opacity:0.10000000149011612;isolation:isolate"/><polygon points="2740.38 691.08 2740.38 704.57 2729.48 721.94 2729.48 708.64 2740.38 691.08" style="opacity:0.15000000596046448;isolation:isolate"/><polygon points="2736.53 697.29 2736.52 706.35 2736.52 710.73 2736.5 745 2736.5 745 2733.94 750.15 2734.32 714.22 2734.38 708.72 2734.38 708.72 2734.47 700.6 2672.66 696.79 2675.45 693.77 2736.53 697.29" style="fill:#6c63ff"/><polygon points="2706.19 697.73 2701.86 707.14 2701.82 711.93 2701.43 759.43 2691.03 758.74 2691.03 706.51 2696.58 697.73 2706.19 697.73" style="fill:#6c63ff"/><path d="M2697.93,732.1a13.72,13.72,0,0,1-7.75.27,3.2,3.2,0,0,1-1.36-.63,3.63,3.63,0,0,1-.84-1.67,13.28,13.28,0,0,1-.74-4,4.47,4.47,0,0,1,1.66-3.56,3.23,3.23,0,0,0,.63-.47,2.6,2.6,0,0,0,.49-1c.75-2.26,2.22-4.64,4.58-5,2.17-.33,4.14,1.19,5.82,2.61l3.67,3.13a5.8,5.8,0,0,1,10.81-.15,20.62,20.62,0,0,1,8.17-5.61,2.49,2.49,0,0,1,2.15-.08,2.44,2.44,0,0,1,.85,1.15,17.47,17.47,0,0,1,1.6,7,1.21,1.21,0,0,1,1.41.49,3.09,3.09,0,0,1,.47,1.53,21.47,21.47,0,0,1,.15,2.53,3.73,3.73,0,0,1-.66,2.53,4,4,0,0,1-3.2,1,1.29,1.29,0,0,1-.2,1.81.38.38,0,0,1-.13.09,3.73,3.73,0,0,1-2.15.41c-2.86,0-5.9-.1-8.28-1.69-.93-.63-1.72-1.46-2.66-2.08-2.31-1.53-5.2-1.6-7.87-1.48C2702.14,729.36,2700.22,731.36,2697.93,732.1Z" transform="translate(-6 -33.76)" style="fill:#6c63ff"/><path d="M2697.38,731.49s-23.84,3.33-27.16,17.75l5-.74,3.51,6.28s3.7-14,14.6-17.37,14.78-3.88,14.78-3.88,7.58,1.85,14.42,23.84l3.88-5.36,6.84,1.48s-5-17.19-18.48-22Z" transform="translate(-6 -33.76)" style="fill:#6c63ff"/></svg>