<svg id="Layer_1" data-name="Layer 1" xmlns="http://www.w3.org/2000/svg" viewBox="0 0 1292.37 1715.14"><path d="M485.9-629c87.31,0,158.27,563.86,158.27,938.44S573.39,987.67,486.09,987.67,328,684,328,309.44,398.59-629,485.9-629Z" transform="translate(-280.44 629)" style="fill:#6c63ff"/><path d="M494.67,1086.14V888.29L533.93,864a15.23,15.23,0,0,0,6.65-8.85h0a15.27,15.27,0,0,0-10.88,2l-35,21.7V732.11l39.26-24.33a15.23,15.23,0,0,0,6.65-8.84h0a15.21,15.21,0,0,0-10.88,2l-35,21.71v-56.9a134.59,134.59,0,0,0-4-32.65,134.59,134.59,0,0,0-4,32.65v92.86L435,726.6a25.27,25.27,0,0,0-13.75-3.79,25.26,25.26,0,0,0,9.52,10.62l55.91,34.65v318.06" transform="translate(-280.44 629)" style="fill:#ccc"/><circle cx="205.2" cy="1445.8" r="82.71" style="fill:#e6e6e6"/><circle cx="82.71" cy="1452.83" r="82.71" style="fill:#e6e6e6"/><path d="M608.15,1073.83V948.7L631,934.57a8.87,8.87,0,0,0,3.86-5.14h0a8.82,8.82,0,0,0-6.32,1.17l-20.34,12.6V858L631,843.86a8.87,8.87,0,0,0,3.86-5.14h0a8.82,8.82,0,0,0-6.32,1.17l-20.34,12.6v-33a78.2,78.2,0,0,0-2.34-19,78.19,78.19,0,0,0-2.33,19v53.93l-30-18.59a14.7,14.7,0,0,0-8-2.21,14.73,14.73,0,0,0,5.52,6.18l32.48,20.12v194.95" transform="translate(-280.44 629)" style="fill:#ccc"/><circle cx="143.78" cy="1263.19" r="142.4" style="fill:#e6e6e6"/><circle cx="143.78" cy="1074.19" r="142.4" style="fill:#e6e6e6"/><path d="M427.67,1071.14V873.29L466.93,849a15.23,15.23,0,0,0,6.65-8.85h0a15.27,15.27,0,0,0-10.88,2l-35,21.7V717.11l39.26-24.33a15.23,15.23,0,0,0,6.65-8.84h0a15.21,15.21,0,0,0-10.88,2l-35,21.71v-56.9a134.59,134.59,0,0,0-4-32.65,134.59,134.59,0,0,0-4,32.65v92.86L368,711.6a25.27,25.27,0,0,0-13.75-3.79,25.26,25.26,0,0,0,9.52,10.62l55.91,34.65v318.06" transform="translate(-280.44 629)" style="fill:#ccc"/><path d="M494.67,1082.14V884.29L533.93,860a15.23,15.23,0,0,0,6.65-8.85h0a15.27,15.27,0,0,0-10.88,2l-35,21.7V728.11l39.26-24.33a15.23,15.23,0,0,0,6.65-8.84h0a15.21,15.21,0,0,0-10.88,2l-35,21.71v-56.9a134.59,134.59,0,0,0-4-32.65,134.59,134.59,0,0,0-4,32.65v92.86L435,722.6a25.27,25.27,0,0,0-13.75-3.79,25.26,25.26,0,0,0,9.52,10.62l55.91,34.65v318.06" transform="translate(-280.44 629)" style="fill:#ccc"/><path d="M424.67,861.14V663.29L463.93,639a15.23,15.23,0,0,0,6.65-8.85h0a15.27,15.27,0,0,0-10.88,2l-35,21.7V507.11l39.26-24.33a15.23,15.23,0,0,0,6.65-8.84h0a15.21,15.21,0,0,0-10.88,2l-35,21.71v-56.9a134.59,134.59,0,0,0-4-32.65,134.59,134.59,0,0,0-4,32.65v92.86L365,501.6a25.27,25.27,0,0,0-13.75-3.79,25.26,25.26,0,0,0,9.52,10.62l55.91,34.65V861.14" transform="translate(-280.44 629)" style="fill:#ccc"/><circle cx="143.78" cy="833.19" r="142.4" style="fill:#e6e6e6"/><path d="M424.67,620.14V422.29L463.93,398a15.23,15.23,0,0,0,6.65-8.85h0a15.27,15.27,0,0,0-10.88,2l-35,21.7V266.11l39.26-24.33a15.23,15.23,0,0,0,6.65-8.84h0a15.21,15.21,0,0,0-10.88,2l-35,21.71v-56.9a134.59,134.59,0,0,0-4-32.65,134.59,134.59,0,0,0-4,32.65v92.86L365,260.6a25.27,25.27,0,0,0-13.75-3.79,25.26,25.26,0,0,0,9.52,10.62l55.91,34.65V620.14" transform="translate(-280.44 629)" style="fill:#ccc"/><circle cx="143.78" cy="573.19" r="142.4" style="fill:#e6e6e6"/><path d="M424.67,360.14V162.29L463.93,138a15.23,15.23,0,0,0,6.65-8.85h0a15.27,15.27,0,0,0-10.88,2l-35,21.7V6.11l39.26-24.33a15.23,15.23,0,0,0,6.65-8.84h0a15.21,15.21,0,0,0-10.88,2l-35,21.71v-56.9a134.59,134.59,0,0,0-4-32.65,134.59,134.59,0,0,0-4,32.65V32.62L365,.6A25.27,25.27,0,0,0,351.2-3.19a25.26,25.26,0,0,0,9.52,10.62l55.91,34.65V360.14" transform="translate(-280.44 629)" style="fill:#ccc"/><rect x="957" y="760.75" width="38.52" height="38.52" transform="translate(-539.65 1221.63) rotate(-30)" style="fill:#ff6584"/><path d="M983.73,813.28l-20.11-34.84,34.83-20.11,20.12,34.83Zm-17.79-34.22L984.35,811l31.89-18.41-18.41-31.89Z" transform="translate(-280.44 629)" style="fill:#2f2e41"/><circle cx="672.08" cy="1519.72" r="16.17" style="fill:#d0cde1"/><path d="M964.43,907.74a17,17,0,1,1,17-17A17,17,0,0,1,964.43,907.74Zm0-32.34a15.32,15.32,0,1,0,15.32,15.32A15.31,15.31,0,0,0,964.43,875.4Z" transform="translate(-280.44 629)" style="fill:#2f2e41"/><path d="M898,1079.26a7.24,7.24,0,0,1-7.23-7.24V926.52a7.24,7.24,0,0,1,7.23-7.23h156.56a7.24,7.24,0,0,1,7.23,7.23V1072a7.24,7.24,0,0,1-7.23,7.24" transform="translate(-280.44 629)" style="fill:#6c63ff"/><path d="M957.93,1077.13V922.2a7.24,7.24,0,0,1,7.24-7.23h22.12a7.23,7.23,0,0,1,7.23,7.23v154.93" transform="translate(-280.44 629)" style="fill:#3f3d56"/><path d="M1096.1,904.89c-.91,15-21.19,26-21.19,26s-18.79-13.36-17.87-28.37,21.19-26,21.19-26S1097,889.88,1096.1,904.89Z" transform="translate(-280.44 629)" style="fill:#3f3d56"/><path d="M1097,951.72c-15-.87-26-21.11-26-21.11s13.3-18.83,28.31-18,26,21.1,26,21.1S1112,952.59,1097,951.72Z" transform="translate(-280.44 629)" style="fill:#3f3d56"/><polygon points="780.88 1566.09 780.88 1621.64 725.63 1548.72 767.71 1548.72 780.88 1566.09" style="opacity:0.100000001490116;isolation:isolate"/><path d="M1108.22,1032.17a7.21,7.21,0,0,1-5.78-2.86L987.34,877.4a7.25,7.25,0,0,1,1.4-10.14h0l17-12.84a7.24,7.24,0,0,1,10.14,1.39h0l115.1,151.92a7.24,7.24,0,0,1-1.4,10.13h0l-17,12.85A7.24,7.24,0,0,1,1108.22,1032.17Z" transform="translate(-280.44 629)" style="fill:#6c63ff"/><rect x="1040.32" y="921.46" width="36.59" height="36.59" transform="translate(-633.13 1459.02) rotate(-37.15)" style="fill:#3f3d56"/><rect x="906.49" y="807.33" width="38.52" height="38.52" transform="translate(-392.72 2135.86) rotate(-75)" style="fill:#d0cde1"/><path d="M923.58,855.74l-38.85-10.41,10.41-38.85L934,816.89Zm-36.77-11.61,35.57,9.53,9.53-35.57-35.57-9.53Z" transform="translate(-280.44 629)" style="fill:#2f2e41"/><path d="M593.92,942.05a9.68,9.68,0,0,0,.29-13.69,9.85,9.85,0,0,0-1.28-1.13l-15.63-126-20.19,6,21.8,122.58a9.74,9.74,0,0,0,15,12.19Z" transform="translate(-280.44 629)" style="fill:#ffb8b8"/><polygon points="332.19 1691.44 344 1691.44 349.62 1645.9 332.19 1645.9 332.19 1691.44" style="fill:#ffb8b8"/><path d="M610.1,1073.41v-14.34h24.08a13,13,0,0,1,13,13" transform="translate(-280.44 629)" style="fill:#2f2e41"/><polygon points="250.54 1673.05 261.61 1677.17 282.75 1636.44 266.42 1630.36 250.54 1673.05" style="fill:#ffb8b8"/><path d="M559.57,1066.38l-34.78-12.94h0l5-13.43h0l22.58,8.39a13,13,0,0,1,7.66,16.75h0l-.45,1.23Z" transform="translate(-280.44 629)" style="fill:#2f2e41"/><circle cx="311.01" cy="1375.26" r="22.33" style="fill:#ffb8b8"/><path d="M556.53,803.56c-.7-20.57,20.91-34.83,39.1-25.21,2.31,1.23,26.24,21.55,27.14,34.18s2.7,33.35,2.7,33.35l25.24,188.42-54.09-2.7,6.54-55L568,1032.53,525.4,1019l52.29-150.56S557.59,834.72,556.53,803.56Z" transform="translate(-280.44 629)" style="fill:#2f2e41"/><path d="M557,810.71l3.48,45.16a1.87,1.87,0,0,0,1.87,1.73h15.28a1.88,1.88,0,0,0,1.88-1.87,1.92,1.92,0,0,0-.14-.72l-18.76-45.16a1.88,1.88,0,0,0-3.61.86Z" transform="translate(-280.44 629)" style="fill:#2f2e41"/><path d="M635.44,934.23a9.66,9.66,0,0,0-2.72-14.6L602.46,796.37l-19.34,8.32,36,119.18a9.74,9.74,0,0,0,16.33,10.36Z" transform="translate(-280.44 629)" style="fill:#ffb8b8"/><path d="M585.8,785.48s-6.31,12.62,0,35.16,10.82,41.47,10.82,41.47,14.43-9,20.74-6.31-10-60.08-10-60.08S597.52,774.66,585.8,785.48Z" transform="translate(-280.44 629)" style="fill:#2f2e41"/><path d="M596.69,749.74c.3-4.63,6.14-4.79,10.79-4.83s10.19.12,12.82-3.71c1.73-2.53,1.4-6,0-8.75s-3.8-4.8-6.12-6.81c-6-5.18-12.16-10.32-19.36-13.64s-15.62-4.65-23.08-2c-9.16,3.27-21.55,20.1-22.62,29.77s2.79,19.53,9.31,26.76,21.43,4.31,30.81,6.88c-5.71-8.07-2-22.74,7.19-26.51Z" transform="translate(-280.44 629)" style="fill:#2f2e41"/><rect x="416.98" y="1652.46" width="86.41" height="1.23" style="fill:#f2f2f2"/><rect x="478.08" y="1641.35" width="1.23" height="11.42" style="fill:#f2f2f2"/><rect x="488.58" y="1454.35" width="86.41" height="1.23" style="fill:#f2f2f2"/><rect x="512.03" y="1443.24" width="1.23" height="11.42" style="fill:#f2f2f2"/><rect x="549.68" y="1443.24" width="1.23" height="11.42" style="fill:#f2f2f2"/><rect x="481.79" y="1367.94" width="86.41" height="1.23" style="fill:#f2f2f2"/><rect x="543.51" y="1368.86" width="1.23" height="11.42" style="fill:#f2f2f2"/><rect x="505.86" y="1368.86" width="1.23" height="11.42" style="fill:#f2f2f2"/><path d="M795.71,788.68l-2.47,58-15.43,58s-16,28.39-3.7,28.39,16-26.54,16-26.54l19.75-54.31,3.7-50Z" transform="translate(-280.44 629)" style="fill:#ffb8b8"/><path d="M760.53,1005.31l1.23,44.44h12.35l4.94-28.39s4.32-11.73,4.32-12.34S760.53,1005.31,760.53,1005.31Z" transform="translate(-280.44 629)" style="fill:#ffb8b8"/><path d="M776,1047.28H760.53s-6.17,9.26-7.41,9.26-19.13.62-8,8.64,21.6,4.32,21.6,4.32v7.41s12.35,6.17,13,0a1.37,1.37,0,0,0,0-.19,44,44,0,0,0-2.71-19.61C775.51,1053.18,774.29,1048.61,776,1047.28Z" transform="translate(-280.44 629)" style="fill:#2f2e41"/><path d="M800.34,1001.94l14.19,42.13,11.8-3.62-3.59-28.59s.7-12.48.51-13.07S800.34,1001.94,800.34,1001.94Z" transform="translate(-280.44 629)" style="fill:#ffb8b8"/><path d="M827.38,1037.55l-14.75,4.52s-3.19,10.66-4.37,11-18.11,6.2-5.14,10.61,21.92-2.19,21.92-2.19l2.17,7.08s13.61,2.28,12.39-3.8a1.16,1.16,0,0,0,0-.18,44.15,44.15,0,0,0-8.33-18C828.68,1043.33,826.18,1039.31,827.38,1037.55Z" transform="translate(-280.44 629)" style="fill:#2f2e41"/><circle cx="493.36" cy="1384.66" r="17.9" style="fill:#ffb8b8"/><path d="M770.41,768.31s11.1,15.43,8.64,19.13,26.54-3.08,26.54-3.08S787.69,764,788.3,760.29,770.41,768.31,770.41,768.31Z" transform="translate(-280.44 629)" style="fill:#ffb8b8"/><path d="M793.86,778.8s-14.81,0-19.75,6.18-10.49,19.13-10.49,19.13-5.25,2-7.14,12.37a35.68,35.68,0,0,0,3.19,22c3.11,6.39,6.75,15.48,3.64,17.82-4.94,3.7-19.13,34-19.13,84.56,0,28.2-8.15,47.68-15.36,59.4a13.3,13.3,0,0,0,13.76,20l.67-.13c22.22-4.32,87-12.34,87-12.34L812.37,964s-8.64-14.19-3.08-36.41-9.88-63-9.88-63,20.68-46.59,17-57.09-8.34-31.78-12.66-31.16A68.79,68.79,0,0,0,793.86,778.8Z" transform="translate(-280.44 629)" style="fill:#2f2e41"/><path d="M774.11,788.68l-2.47,58-15.43,58s-16.05,28.39-3.7,28.39,16-26.54,16-26.54l19.75-54.31,3.71-50Z" transform="translate(-280.44 629)" style="fill:#ffb8b8"/><path d="M785.22,782.51s-13.58,0-15.43,6.17-2.22,7.07-2.22,7.07,5.3-7.07,12.09,3.42,15.43,13,15.43,13S796.94,787.44,785.22,782.51Z" transform="translate(-280.44 629)" style="fill:#2f2e41"/><circle cx="505.7" cy="1374.17" r="24.69" style="fill:#2f2e41"/><path d="M782.26,765.29a24.69,24.69,0,0,1-17.18-29.12c-.17.49-.33,1-.48,1.47A24.69,24.69,0,0,0,812,751.46c.15-.5.27-1,.38-1.5A24.68,24.68,0,0,1,782.26,765.29Z" transform="translate(-280.44 629)" style="fill:#2f2e41"/><ellipse cx="487.19" cy="1387.75" rx="1.85" ry="3.09" style="fill:#ffb8b8"/><circle cx="514.96" cy="1349.48" r="8.64" style="fill:#2f2e41"/><path d="M784.91,718.63a8.64,8.64,0,0,1,7.71-8.59,8.64,8.64,0,0,0-1.87,17.18,8.35,8.35,0,0,0,1.87,0A8.64,8.64,0,0,1,784.91,718.63Z" transform="translate(-280.44 629)" style="fill:#2f2e41"/><path d="M765.78,735.29a11.11,11.11,0,0,0-11.11,11.11h22.22A11.12,11.12,0,0,0,765.78,735.29Z" transform="translate(-280.44 629)" style="fill:#2f2e41"/><circle cx="191.17" cy="1662.97" r="25.57" style="fill:#2f2e41"/><polygon points="172.95 1694.46 165.89 1691.23 172.23 1676.38 179.3 1679.61 172.95 1694.46" style="fill:#2f2e41"/><rect x="460.48" y="1057.9" width="13.92" height="7.77" transform="translate(-973.01 1674.72) rotate(-65.45)" style="fill:#2f2e41"/><ellipse cx="465.42" cy="1070.11" rx="2.43" ry="6.47" transform="translate(-814.77 1097.24) rotate(-35.45)" style="fill:#2f2e41"/><ellipse cx="451.02" cy="1065.98" rx="2.43" ry="6.47" transform="translate(-815.05 1088.12) rotate(-35.45)" style="fill:#2f2e41"/><circle cx="194.45" cy="1657.35" r="8.74" style="fill:#fff"/><circle cx="191.29" cy="1653.42" r="2.91" style="fill:#3f3d56"/><path d="M458.93,1002c2-9.27,11.85-15,22.08-12.86s16.93,11.44,15,20.71-9.54,9.56-19.77,7.39S457,1011.3,458.93,1002Z" transform="translate(-280.44 629)" style="fill:#cfcce0"/><ellipse cx="495.64" cy="1035.28" rx="4.01" ry="12.79" transform="translate(-831.75 2134.79) rotate(-88.62)" style="fill:#2f2e41"/><ellipse cx="444.94" cy="1030.98" rx="4.01" ry="12.79" transform="translate(-876.92 2079.9) rotate(-88.62)" style="fill:#2f2e41"/><path d="M462.32,1042a5.82,5.82,0,0,0,10.59,4.85h0c1.34-2.93-.75-4.62-3.68-5.95S463.65,1039.07,462.32,1042Z" transform="translate(-280.44 629)" style="fill:#fff"/><path d="M465.61,1010.8c0,47.91-28.45,64.65-63.58,64.67-.82,0-1.63,0-2.44,0-1.62,0-3.23-.11-4.83-.22-31.7-2.23-56.35-19.8-56.37-64.35,0-46.11,58.88-104.32,63.3-108.63h0L402,902S465.59,962.9,465.61,1010.8Z" transform="translate(-280.44 629)" style="fill:#6c63ff"/><path d="M399.71,1068.14,423,1035.62l-23.3,36.09-.07,3.73c-1.62,0-3.23-.11-4.83-.22l2.48-47.93,0-.37,0-.07.23-4.53-23.4-36.15,23.47,32.76.06,1,1.88-36.21-20-37.36,20.28,31,1.94-75.08v0l-.3,59.2L421.3,938l-20,28.58L400.8,999l18.59-31.12-18.66,35.89-.29,18,27-43.32-27.09,49.61Z" transform="translate(-280.44 629)" style="fill:#3f3d56"/><circle cx="130.88" cy="1554.91" r="1.48" style="fill:#cfcce0"/><circle cx="193.4" cy="1602.32" r="1.48" style="fill:#cfcce0"/><circle cx="154.58" cy="1636.11" r="1.48" style="fill:#cfcce0"/><circle cx="100.36" cy="1666.93" r="3.26" style="fill:#cfcce0"/><circle cx="175.03" cy="1551.35" r="3.26" style="fill:#cfcce0"/><circle cx="996.6" cy="1505.66" r="58.01" style="fill:#fff"/><circle cx="1002.85" cy="1626.93" r="79.67" style="fill:#fff"/><path d="M1328.35,917.38l-95.85,4.94a2.68,2.68,0,0,0-2.53,2.81l.28,5.48a2.67,2.67,0,0,0,2.81,2.53l16.29-.84,1.77,1.52-10.94,74.71,10.2,12,11.07-77.82,49.86,42.92,13.79-3-59.21-51.16,63-3.25a2.68,2.68,0,0,0,2.53-2.81h0l-.28-5.48a2.68,2.68,0,0,0-2.81-2.53Z" transform="translate(-280.44 629)" style="fill:#6c63ff"/><path d="M1244.14,849.7s24.18-13.69,23.95-18.13-10.66-17.22-28.39-16.31c0,0-4.85-7.75-9.84-1.27s3.2,10.5,3.2,10.5-8.92,16.46,5.76,25.48Z" transform="translate(-280.44 629)" style="fill:#6c63ff"/><circle cx="974.37" cy="1495.18" r="4.64" style="fill:#3f3d56"/><circle cx="1017.63" cy="1492.95" r="4.64" style="fill:#3f3d56"/><rect x="1273.38" y="875.09" width="8.51" height="26.3" transform="translate(-324.5 695.99) rotate(-2.95)" style="fill:#ff6584"/><circle cx="1002.92" cy="1598.27" r="4.64" style="fill:#3f3d56"/><circle cx="1003.8" cy="1615.26" r="4.64" style="fill:#3f3d56"/><circle cx="1004.68" cy="1632.26" r="4.64" style="fill:#3f3d56"/><path d="M1278.81,911a46.16,46.16,0,0,1-22.3-4.74l.66-1.4c14.5,6.85,28.81,6.11,42.53-2.19l.8,1.32A46.24,46.24,0,0,1,1278.81,911Z" transform="translate(-280.44 629)" style="fill:#3f3d56"/><circle cx="1030.7" cy="1506.22" r="3.87" style="fill:#ff6584"/><circle cx="962.73" cy="1509.73" r="3.87" style="fill:#ff6584"/><polygon points="1268.32 1595.07 1268.32 1641.27 1256.1 1665.9 1256.1 1665.9 1255.71 1666.68 1223.38 1664.56 1210.94 1663.72 1182.11 1661.83 1182.11 1606.57 1210.94 1607.38 1223.86 1607.73 1256.48 1608.66 1268.32 1595.07" style="fill:#ff6f61"/><polygon points="1268.32 1597.8 1268.32 1641.27 1265.33 1647.29 1265.33 1647.29 1262.27 1653.45 1262.27 1653.45 1256.1 1665.9 1256.79 1619.7 1256.92 1610.38 1262.8 1603.89 1262.8 1603.89 1265.36 1601.07 1268.32 1597.8" style="opacity:0.100000001490116;isolation:isolate"/><polygon points="1269.97 1582.8 1269.97 1598.93 1268.32 1601.58 1265.36 1606.3 1262.72 1610.47 1256.92 1619.71 1256.79 1619.7 1179.57 1615.73 1179.57 1599.82 1179.76 1599.61 1188.97 1589.63 1192.32 1586.02 1198.36 1579.48 1269.97 1582.8" style="fill:#ff6f61"/><polygon points="1256.92 1603.8 1256.92 1619.71 1179.57 1615.73 1179.57 1599.82 1179.76 1599.61 1256.92 1603.8" style="opacity:0.100000001490116;isolation:isolate"/><polygon points="1269.97 1582.8 1269.97 1598.93 1256.92 1619.71 1256.92 1603.8 1269.97 1582.8" style="opacity:0.150000005960464;isolation:isolate"/><polygon points="1265.36 1590.22 1265.36 1601.07 1265.36 1606.3 1265.33 1647.29 1265.33 1647.29 1262.27 1653.45 1262.72 1610.47 1262.8 1603.89 1262.8 1603.89 1262.89 1594.18 1188.97 1589.63 1192.32 1586.02 1265.36 1590.22" style="fill:#3f3d56"/><polygon points="1229.08 1590.76 1223.89 1602.01 1223.86 1607.73 1223.38 1664.56 1210.94 1663.72 1210.94 1601.26 1217.59 1590.76 1229.08 1590.76" style="fill:#3f3d56"/><path d="M1492.46,962.52a16.49,16.49,0,0,1-9.26.33,4,4,0,0,1-1.63-.76,4.17,4.17,0,0,1-1-2,15.31,15.31,0,0,1-.89-4.77,5.32,5.32,0,0,1,2-4.25,6,6,0,0,0,.76-.57,3.26,3.26,0,0,0,.58-1.18c.9-2.7,2.66-5.55,5.48-6,2.59-.4,5,1.42,7,3.12l4.39,3.74a6.94,6.94,0,0,1,12.93-.17,24.41,24.41,0,0,1,9.78-6.71,3,3,0,0,1,2.56-.1,2.87,2.87,0,0,1,1,1.37,21.34,21.34,0,0,1,1.9,8.33,1.46,1.46,0,0,1,1.7.58,4.08,4.08,0,0,1,.56,1.84,24.91,24.91,0,0,1,.17,3,4.63,4.63,0,0,1-.79,3c-.9,1-2.45,1.16-3.82,1.19a1.55,1.55,0,0,1-.25,2.16l-.15.11a4.51,4.51,0,0,1-2.57.5c-3.42,0-7.05-.13-9.9-2-1.12-.75-2.06-1.74-3.19-2.49-2.75-1.82-6.22-1.91-9.41-1.76C1497.5,959.21,1495.21,961.6,1492.46,962.52Z" transform="translate(-280.44 629)" style="fill:#3f3d56"/><path d="M1491.81,961.76s-28.52,4-32.5,21.22l6-.88,4.2,7.52s4.42-16.8,17.46-20.78,17.69-4.64,17.69-4.64,9.06,2.21,17.24,28.51l4.64-6.41,8.18,1.77s-6-20.56-22.1-26.31Z" transform="translate(-280.44 629)" style="fill:#3f3d56"/><polygon points="1228.46 1613.13 1228.46 1675.55 1211.96 1708.83 1211.96 1708.83 1211.44 1709.88 1167.77 1706.99 1150.97 1705.88 1112.02 1703.31 1112.02 1628.66 1150.97 1629.76 1168.4 1630.26 1212.49 1631.49 1228.46 1613.13" style="fill:#6c63ff"/><polygon points="1228.46 1616.82 1228.46 1675.55 1224.43 1683.67 1224.43 1683.67 1220.31 1692.01 1220.31 1692.02 1211.96 1708.83 1212.89 1646.41 1213.09 1633.83 1221.02 1625.07 1221.02 1625.06 1224.46 1621.23 1228.46 1616.82" style="opacity:0.100000001490116;isolation:isolate"/><polygon points="1230.7 1596.57 1230.7 1618.36 1228.46 1621.92 1224.46 1628.31 1220.91 1633.94 1213.09 1646.42 1212.89 1646.41 1108.58 1641.06 1108.58 1619.56 1108.85 1619.27 1121.3 1605.79 1125.81 1600.9 1133.95 1592.09 1230.7 1596.57" style="fill:#6c63ff"/><polygon points="1213.09 1624.92 1213.09 1646.42 1108.58 1641.06 1108.58 1619.56 1108.85 1619.27 1213.09 1624.92" style="opacity:0.100000001490116;isolation:isolate"/><polygon points="1230.7 1596.57 1230.7 1618.36 1213.09 1646.42 1213.09 1624.92 1230.7 1596.57" style="opacity:0.150000005960464;isolation:isolate"/><polygon points="1224.47 1606.6 1224.46 1621.23 1224.46 1628.31 1224.43 1683.67 1224.43 1683.67 1220.31 1692.01 1220.91 1633.94 1221.02 1625.07 1221.02 1625.06 1221.15 1611.94 1121.3 1605.79 1125.81 1600.9 1224.47 1606.6" style="fill:#3f3d56"/><polygon points="1175.46 1607.31 1168.46 1622.51 1168.4 1630.26 1167.77 1706.99 1150.97 1705.88 1150.97 1621.49 1159.93 1607.31 1175.46 1607.31" style="fill:#3f3d56"/><path d="M1432.87,979.34a22.33,22.33,0,0,1-12.52.44,5,5,0,0,1-2.19-1,5.65,5.65,0,0,1-1.36-2.69,21.2,21.2,0,0,1-1.2-6.44,7.16,7.16,0,0,1,2.68-5.75,6.75,6.75,0,0,0,1-.76,4.58,4.58,0,0,0,.78-1.6c1.23-3.65,3.6-7.5,7.4-8.08,3.51-.54,6.71,1.91,9.41,4.21l5.93,5a9.37,9.37,0,0,1,17.47-.24,33,33,0,0,1,13.2-9.06c1.12-.42,2.44-.76,3.47-.13a3.93,3.93,0,0,1,1.38,1.85,28.71,28.71,0,0,1,2.57,11.25,2,2,0,0,1,2.29.79,5.26,5.26,0,0,1,.76,2.48,34.81,34.81,0,0,1,.24,4.09,6.26,6.26,0,0,1-1.07,4.09c-1.22,1.41-3.31,1.56-5.17,1.6.9.8.46,2.4-.53,3.07a6,6,0,0,1-3.47.67c-4.62,0-9.53-.17-13.37-2.74-1.52-1-2.79-2.36-4.31-3.36-3.73-2.47-8.41-2.59-12.72-2.38C1439.67,974.86,1436.57,978.14,1432.87,979.34Z" transform="translate(-280.44 629)" style="fill:#3f3d56"/><path d="M1432,978.32s-38.52,5.37-43.89,28.66l8.06-1.19,5.67,10.15s6-22.69,23.59-28.07,23.89-6.27,23.89-6.27,12.24,3,23.29,38.52l6.27-8.66,11,2.39s-8.06-27.77-29.86-35.53Z" transform="translate(-280.44 629)" style="fill:#3f3d56"/><polygon points="1290.97 1644.13 1290.97 1682.76 1280.77 1703.36 1280.77 1703.36 1280.44 1704.02 1253.41 1702.22 1243.02 1701.54 1218.9 1699.94 1218.9 1653.74 1243.02 1654.42 1253.81 1654.72 1281.1 1655.49 1290.97 1644.13" style="fill:#3f3d56"/><polygon points="1290.97 1646.41 1290.97 1682.76 1288.48 1687.8 1288.48 1687.8 1285.92 1692.94 1285.92 1692.95 1280.77 1703.36 1281.35 1664.73 1281.46 1656.94 1286.37 1651.52 1286.37 1651.52 1288.51 1649.14 1290.97 1646.41" style="opacity:0.100000001490116;isolation:isolate"/><polygon points="1292.37 1633.88 1292.37 1647.37 1290.97 1649.58 1288.51 1653.53 1286.31 1657.02 1281.46 1664.73 1281.35 1664.73 1216.78 1661.41 1216.78 1648.11 1216.93 1647.93 1224.64 1639.59 1227.43 1636.57 1232.48 1631.11 1292.37 1633.88" style="fill:#3f3d56"/><polygon points="1281.46 1651.43 1281.46 1664.73 1216.78 1661.41 1216.78 1648.11 1216.93 1647.93 1281.46 1651.43" style="opacity:0.100000001490116;isolation:isolate"/><polygon points="1292.37 1633.88 1292.37 1647.37 1281.46 1664.73 1281.46 1651.43 1292.37 1633.88" style="opacity:0.150000005960464;isolation:isolate"/><polygon points="1288.52 1640.09 1288.51 1649.14 1288.51 1653.53 1288.48 1687.8 1288.48 1687.8 1285.92 1692.94 1286.31 1657.02 1286.37 1651.52 1286.37 1651.52 1286.45 1643.39 1224.64 1639.59 1227.43 1636.57 1288.52 1640.09" style="fill:#6c63ff"/><polygon points="1258.17 1640.53 1253.85 1649.93 1253.81 1654.72 1253.41 1702.22 1243.02 1701.54 1243.02 1649.31 1248.57 1640.53 1258.17 1640.53" style="fill:#6c63ff"/><path d="M1524.36,1012.14a13.82,13.82,0,0,1-7.75.27,3.21,3.21,0,0,1-1.36-.63,3.49,3.49,0,0,1-.84-1.67,13,13,0,0,1-.74-4,4.43,4.43,0,0,1,1.66-3.56,5.73,5.73,0,0,0,.63-.47,2.91,2.91,0,0,0,.49-1c.75-2.26,2.22-4.64,4.58-5,2.17-.33,4.14,1.19,5.82,2.61l3.67,3.13a5.8,5.8,0,0,1,10.81-.15,20.45,20.45,0,0,1,8.17-5.61,1.93,1.93,0,0,1,3,1.07,17.77,17.77,0,0,1,1.6,7,1.19,1.19,0,0,1,1.41.49,3.27,3.27,0,0,1,.47,1.53,21.34,21.34,0,0,1,.15,2.53,3.86,3.86,0,0,1-.66,2.53,4,4,0,0,1-3.2,1,1.29,1.29,0,0,1-.21,1.81l-.12.09a3.82,3.82,0,0,1-2.15.41c-2.86,0-5.9-.1-8.28-1.69-.93-.63-1.72-1.46-2.66-2.08-2.31-1.53-5.2-1.6-7.87-1.48C1528.57,1009.4,1526.65,1011.4,1524.36,1012.14Z" transform="translate(-280.44 629)" style="fill:#6c63ff"/><path d="M1523.81,1011.53s-23.84,3.33-27.16,17.75l5-.74,3.51,6.28s3.7-14,14.6-17.37,14.78-3.88,14.78-3.88,7.58,1.85,14.42,23.84l3.88-5.36,6.84,1.48s-5-17.19-18.48-22Z" transform="translate(-280.44 629)" style="fill:#6c63ff"/></svg>