<svg id="Layer_1" data-name="Layer 1" xmlns="http://www.w3.org/2000/svg" viewBox="0 0 2484.14 1715.14"><path d="M205.46,0c87.31,0,158.27,563.86,158.27,938.44S293,1616.67,205.65,1616.67,47.56,1313,47.56,938.44,118.15,0,205.46,0Z" style="fill:#6c63ff"/><path d="M214.23,1715.14V1517.29L253.49,1493a15.23,15.23,0,0,0,6.65-8.85h0a15.27,15.27,0,0,0-10.88,2l-35,21.7V1361.11l39.26-24.33a15.2,15.2,0,0,0,6.65-8.84h0a15.22,15.22,0,0,0-10.88,2l-35,21.71v-56.9a134.57,134.57,0,0,0-4-32.65,134.57,134.57,0,0,0-4,32.65v92.86l-51.73-32a25.27,25.27,0,0,0-13.75-3.79,25.26,25.26,0,0,0,9.52,10.62l55.91,34.65v318.06" style="fill:#ccc"/><circle cx="205.2" cy="1445.8" r="82.71" style="fill:#e6e6e6"/><circle cx="82.71" cy="1452.83" r="82.71" style="fill:#e6e6e6"/><path d="M327.71,1702.83V1577.7l22.85-14.13a8.88,8.88,0,0,0,3.86-5.14h0a8.81,8.81,0,0,0-6.32,1.17l-20.34,12.6V1487l22.8-14.14a8.88,8.88,0,0,0,3.86-5.14h0a8.81,8.81,0,0,0-6.32,1.17l-20.34,12.6v-33a78,78,0,0,0-2.34-19,78.51,78.51,0,0,0-2.33,19v53.93l-30-18.59a14.68,14.68,0,0,0-8-2.21,14.73,14.73,0,0,0,5.52,6.18l32.48,20.12v194.95" style="fill:#ccc"/><circle cx="143.78" cy="1263.19" r="142.4" style="fill:#e6e6e6"/><circle cx="143.78" cy="1074.19" r="142.4" style="fill:#e6e6e6"/><path d="M147.23,1700.14V1502.29L186.49,1478a15.23,15.23,0,0,0,6.65-8.85h0a15.27,15.27,0,0,0-10.88,2l-35,21.7V1346.11l39.26-24.33a15.2,15.2,0,0,0,6.65-8.84h0a15.22,15.22,0,0,0-10.88,2l-35,21.71v-56.9a134.57,134.57,0,0,0-4-32.65,134.57,134.57,0,0,0-4,32.65v92.86l-51.73-32a25.27,25.27,0,0,0-13.75-3.79,25.26,25.26,0,0,0,9.52,10.62l55.91,34.65v318.06" style="fill:#ccc"/><path d="M214.23,1711.14V1513.29L253.49,1489a15.23,15.23,0,0,0,6.65-8.85h0a15.27,15.27,0,0,0-10.88,2l-35,21.7V1357.11l39.26-24.33a15.2,15.2,0,0,0,6.65-8.84h0a15.22,15.22,0,0,0-10.88,2l-35,21.71v-56.9a134.57,134.57,0,0,0-4-32.65,134.57,134.57,0,0,0-4,32.65v92.86l-51.73-32a25.27,25.27,0,0,0-13.75-3.79,25.26,25.26,0,0,0,9.52,10.62l55.91,34.65v318.06" style="fill:#ccc"/><path d="M144.23,1490.14V1292.29L183.49,1268a15.23,15.23,0,0,0,6.65-8.85h0a15.27,15.27,0,0,0-10.88,2l-35,21.7V1136.11l39.26-24.33a15.2,15.2,0,0,0,6.65-8.84h0a15.22,15.22,0,0,0-10.88,2l-35,21.71v-56.9a134.57,134.57,0,0,0-4-32.65,134.57,134.57,0,0,0-4,32.65v92.86l-51.73-32a25.27,25.27,0,0,0-13.75-3.79,25.26,25.26,0,0,0,9.52,10.62l55.91,34.65v318.06" style="fill:#ccc"/><circle cx="143.78" cy="833.19" r="142.4" style="fill:#e6e6e6"/><path d="M144.23,1249.14V1051.29L183.49,1027a15.23,15.23,0,0,0,6.65-8.85h0a15.27,15.27,0,0,0-10.88,2l-35,21.7V895.11l39.26-24.33a15.2,15.2,0,0,0,6.65-8.84h0a15.22,15.22,0,0,0-10.88,2l-35,21.71v-56.9a134.57,134.57,0,0,0-4-32.65,134.57,134.57,0,0,0-4,32.65v92.86l-51.73-32a25.27,25.27,0,0,0-13.75-3.79,25.26,25.26,0,0,0,9.52,10.62l55.91,34.65v318.06" style="fill:#ccc"/><circle cx="143.78" cy="573.19" r="142.4" style="fill:#e6e6e6"/><path d="M144.23,989.14V791.29L183.49,767a15.23,15.23,0,0,0,6.65-8.85h0a15.27,15.27,0,0,0-10.88,2l-35,21.7V635.11l39.26-24.33a15.2,15.2,0,0,0,6.65-8.84h0a15.22,15.22,0,0,0-10.88,2l-35,21.71v-56.9a134.57,134.57,0,0,0-4-32.65,134.57,134.57,0,0,0-4,32.65v92.87l-51.73-32a25.27,25.27,0,0,0-13.8-3.79,25.26,25.26,0,0,0,9.52,10.62l55.91,34.65V989.14" style="fill:#ccc"/><rect x="676.56" y="1389.75" width="38.52" height="38.52" transform="translate(-611.28 536.68) rotate(-30)" style="fill:#ff6584"/><path d="M703.29,1442.28l-20.11-34.84L718,1387.33l20.12,34.83Zm-17.79-34.22L703.91,1440l31.89-18.41-18.41-31.89Z" style="fill:#2f2e41"/><circle cx="672.08" cy="1519.72" r="16.17" style="fill:#d0cde1"/><path d="M684,1536.74a17,17,0,1,1,17-17h0A17,17,0,0,1,684,1536.74Zm0-32.34a15.32,15.32,0,1,0,15.32,15.32A15.32,15.32,0,0,0,684,1504.4Z" style="fill:#2f2e41"/><path d="M617.56,1708.26a7.25,7.25,0,0,1-7.23-7.24v-145.5a7.25,7.25,0,0,1,7.23-7.23H774.12a7.25,7.25,0,0,1,7.23,7.23V1701a7.25,7.25,0,0,1-7.23,7.24" style="fill:#6c63ff"/><path d="M677.49,1706.13V1551.2a7.25,7.25,0,0,1,7.24-7.23h22.12a7.23,7.23,0,0,1,7.23,7.23v154.93" style="fill:#3f3d56"/><path d="M815.66,1533.89c-.91,15-21.19,26-21.19,26s-18.79-13.36-17.87-28.37,21.19-26,21.19-26S816.56,1518.88,815.66,1533.89Z" style="fill:#3f3d56"/><path d="M816.56,1580.72c-15-.87-26-21.11-26-21.11s13.3-18.83,28.31-18,26,21.1,26,21.1S831.56,1581.59,816.56,1580.72Z" style="fill:#3f3d56"/><polygon points="780.88 1566.09 780.88 1621.64 725.63 1548.72 767.71 1548.72 780.88 1566.09" style="opacity:0.10000000149011612;isolation:isolate"/><path d="M827.78,1661.17a7.21,7.21,0,0,1-5.78-2.86L706.9,1506.4a7.25,7.25,0,0,1,1.4-10.14h0l17-12.84a7.25,7.25,0,0,1,10.14,1.39h0l115.1,151.92a7.23,7.23,0,0,1-1.4,10.13h0l-17,12.85A7.24,7.24,0,0,1,827.78,1661.17Z" style="fill:#6c63ff"/><rect x="759.87" y="1550.46" width="36.59" height="36.59" transform="translate(-789.45 788.31) rotate(-37.15)" style="fill:#3f3d56"/><rect x="626.05" y="1436.33" width="38.52" height="38.52" transform="translate(-927.7 1702.17) rotate(-75)" style="fill:#d0cde1"/><path d="M643.14,1484.74l-38.85-10.41,10.41-38.85,38.86,10.41Zm-36.77-11.61,35.57,9.53,9.53-35.57-35.57-9.53Z" style="fill:#2f2e41"/><path d="M313.48,1571.05a9.68,9.68,0,0,0,.29-13.69h0a9.85,9.85,0,0,0-1.28-1.13l-15.63-126-20.19,6,21.8,122.58a9.74,9.74,0,0,0,15,12.19Z" style="fill:#ffb8b8"/><polygon points="332.19 1691.44 344 1691.44 349.62 1645.9 332.19 1645.9 332.19 1691.44" style="fill:#ffb8b8"/><path d="M329.66,1702.41v-14.34h24.08a13,13,0,0,1,13,13h0" style="fill:#2f2e41"/><polygon points="250.54 1673.05 261.61 1677.17 282.75 1636.44 266.42 1630.36 250.54 1673.05" style="fill:#ffb8b8"/><path d="M279.13,1695.38l-34.78-12.94h0l5-13.43h0l22.58,8.39a13,13,0,0,1,7.68,16.71l0,0h0l-.45,1.23Z" style="fill:#2f2e41"/><circle cx="311.01" cy="1375.26" r="22.33" style="fill:#ffb8b8"/><path d="M276.09,1432.56c-.7-20.57,20.91-34.83,39.1-25.21,2.31,1.23,26.24,21.55,27.14,34.18s2.7,33.35,2.7,33.35l25.24,188.42-54.09-2.7,6.54-55-35.16,55.93L245,1648l52.29-150.56S277.15,1463.72,276.09,1432.56Z" style="fill:#2f2e41"/><path d="M276.56,1439.71l3.48,45.16a1.87,1.87,0,0,0,1.87,1.73h15.28a1.89,1.89,0,0,0,1.88-1.87,2,2,0,0,0-.14-.72l-18.76-45.16a1.88,1.88,0,0,0-3.61.86Z" style="fill:#2f2e41"/><path d="M355,1563.23a9.68,9.68,0,0,0-2.72-14.6L322,1425.37l-19.34,8.32,36,119.18A9.74,9.74,0,0,0,355,1563.23Z" style="fill:#ffb8b8"/><path d="M305.36,1414.48s-6.31,12.62,0,35.16,10.82,41.47,10.82,41.47,14.43-9,20.74-6.31-10-60.08-10-60.08S317.08,1403.66,305.36,1414.48Z" style="fill:#2f2e41"/><path d="M316.25,1378.74c.3-4.63,6.14-4.79,10.79-4.83s10.19.12,12.82-3.71c1.73-2.53,1.4-6,0-8.75s-3.8-4.8-6.12-6.81c-6-5.18-12.16-10.32-19.36-13.64s-15.62-4.65-23.08-2c-9.16,3.27-21.55,20.1-22.62,29.77s2.79,19.53,9.31,26.76,21.43,4.31,30.81,6.88c-5.71-8.07-2-22.74,7.19-26.51Z" style="fill:#2f2e41"/><rect x="416.98" y="1652.46" width="86.41" height="1.23" style="fill:#f2f2f2"/><rect x="478.08" y="1641.35" width="1.23" height="11.42" style="fill:#f2f2f2"/><rect x="488.58" y="1454.35" width="86.41" height="1.23" style="fill:#f2f2f2"/><rect x="512.03" y="1443.24" width="1.23" height="11.42" style="fill:#f2f2f2"/><rect x="549.68" y="1443.24" width="1.23" height="11.42" style="fill:#f2f2f2"/><rect x="481.79" y="1367.94" width="86.41" height="1.23" style="fill:#f2f2f2"/><rect x="543.51" y="1368.86" width="1.23" height="11.42" style="fill:#f2f2f2"/><rect x="505.86" y="1368.86" width="1.23" height="11.42" style="fill:#f2f2f2"/><path d="M515.27,1417.68l-2.47,58-15.43,58s-16,28.39-3.7,28.39,16-26.54,16-26.54l19.75-54.31,3.7-50Z" style="fill:#ffb8b8"/><path d="M480.09,1634.31l1.23,44.44h12.35l4.94-28.39s4.32-11.73,4.32-12.34S480.09,1634.31,480.09,1634.31Z" style="fill:#ffb8b8"/><path d="M495.56,1676.28H480.09s-6.17,9.26-7.41,9.26-19.13.62-8,8.64,21.6,4.32,21.6,4.32v7.41s12.35,6.17,13,0v-.19a44,44,0,0,0-2.71-19.61C495.07,1682.18,493.85,1677.61,495.56,1676.28Z" style="fill:#2f2e41"/><path d="M519.9,1630.94l14.19,42.13,11.8-3.62-3.59-28.59s.7-12.48.51-13.07S519.9,1630.94,519.9,1630.94Z" style="fill:#ffb8b8"/><path d="M546.94,1666.55l-14.75,4.52s-3.19,10.66-4.37,11-18.11,6.2-5.14,10.61,21.92-2.19,21.92-2.19l2.17,7.08s13.61,2.28,12.39-3.8v-.18a44.18,44.18,0,0,0-8.33-18C548.24,1672.33,545.74,1668.31,546.94,1666.55Z" style="fill:#2f2e41"/><circle cx="493.36" cy="1384.66" r="17.9" style="fill:#ffb8b8"/><path d="M490,1397.31s11.1,15.43,8.64,19.13,26.54-3.08,26.54-3.08-17.9-20.36-17.29-24.07S490,1397.31,490,1397.31Z" style="fill:#ffb8b8"/><path d="M513.42,1407.8s-14.81,0-19.75,6.18-10.49,19.13-10.49,19.13-5.25,2-7.14,12.37a35.65,35.65,0,0,0,3.19,22c3.11,6.39,6.75,15.48,3.64,17.82-4.94,3.7-19.13,34-19.13,84.56,0,28.2-8.15,47.68-15.36,59.4a13.3,13.3,0,0,0,13.76,20l.67-.13c22.22-4.32,87-12.34,87-12.34L531.93,1593s-8.64-14.19-3.08-36.41-9.88-63-9.88-63,20.68-46.59,17-57.09-8.34-31.78-12.66-31.16A68.72,68.72,0,0,0,513.42,1407.8Z" style="fill:#2f2e41"/><path d="M493.67,1417.68l-2.47,58-15.43,58s-16,28.39-3.7,28.39,16-26.54,16-26.54l19.75-54.31,3.71-50Z" style="fill:#ffb8b8"/><path d="M504.78,1411.51s-13.58,0-15.43,6.17-2.22,7.07-2.22,7.07,5.3-7.07,12.09,3.42,15.43,13,15.43,13S516.5,1416.44,504.78,1411.51Z" style="fill:#2f2e41"/><circle cx="505.7" cy="1374.17" r="24.69" style="fill:#2f2e41"/><path d="M501.82,1394.29a24.69,24.69,0,0,1-17.18-29.12c-.17.49-.33,1-.48,1.47a24.69,24.69,0,0,0,47.4,13.82c.15-.5.27-1,.38-1.5A24.69,24.69,0,0,1,501.82,1394.29Z" style="fill:#2f2e41"/><ellipse cx="487.19" cy="1387.75" rx="1.85" ry="3.09" style="fill:#ffb8b8"/><circle cx="514.96" cy="1349.48" r="8.64" style="fill:#2f2e41"/><path d="M504.47,1347.63a8.63,8.63,0,0,1,7.71-8.59,8.64,8.64,0,1,0-1.87,17.18,8.35,8.35,0,0,0,1.87,0A8.63,8.63,0,0,1,504.47,1347.63Z" style="fill:#2f2e41"/><path d="M485.34,1364.29a11.1,11.1,0,0,0-11.11,11.11h22.22A11.13,11.13,0,0,0,485.34,1364.29Z" style="fill:#2f2e41"/><circle cx="191.17" cy="1662.97" r="25.57" style="fill:#2f2e41"/><polygon points="172.95 1694.46 165.89 1691.23 172.23 1676.38 179.3 1679.61 172.95 1694.46" style="fill:#2f2e41"/><rect x="180.04" y="1686.81" width="13.92" height="7.77" transform="translate(-1428.55 1158.33) rotate(-65.45)" style="fill:#2f2e41"/><ellipse cx="185.03" cy="1699.04" rx="2.43" ry="6.47" transform="translate(-951.13 422.28) rotate(-35.45)" style="fill:#2f2e41"/><ellipse cx="170.62" cy="1694.9" rx="2.43" ry="6.47" transform="translate(-951.4 413.16) rotate(-35.45)" style="fill:#2f2e41"/><circle cx="194.45" cy="1657.35" r="8.74" style="fill:#fff"/><circle cx="191.29" cy="1653.42" r="2.91" style="fill:#3f3d56"/><path d="M178.49,1631c2-9.27,11.85-15,22.08-12.86s16.93,11.44,15,20.71-9.54,9.56-19.77,7.39S176.56,1640.3,178.49,1631Z" style="fill:#cfcce0"/><ellipse cx="215.17" cy="1664.23" rx="4.01" ry="12.79" transform="translate(-1453.76 1839.25) rotate(-88.62)" style="fill:#2f2e41"/><ellipse cx="164.48" cy="1659.92" rx="4.01" ry="12.79" transform="translate(-1498.92 1784.37) rotate(-88.62)" style="fill:#2f2e41"/><path d="M181.88,1671a5.82,5.82,0,0,0,10.59,4.85h0c1.34-2.93-.75-4.62-3.68-5.95S183.21,1668.07,181.88,1671Z" style="fill:#fff"/><path d="M185.17,1639.8c0,47.91-28.45,64.65-63.58,64.67h-2.44c-1.62,0-3.23-.11-4.83-.22C82.62,1702,58,1684.45,58,1639.9c0-46.11,58.88-104.32,63.3-108.63h0l.31-.27S185.15,1591.9,185.17,1639.8Z" style="fill:#6c63ff"/><path d="M119.27,1697.14l23.29-32.52-23.3,36.09-.07,3.73c-1.62,0-3.23-.11-4.83-.22l2.48-47.93v-.44l.23-4.53-23.4-36.15,23.47,32.76.06,1,1.88-36.21-20-37.36,20.28,31,1.94-75.08h0l-.3,59.2L140.86,1567l-20,28.58-.5,32.42L139,1596.88l-18.66,35.89-.29,18,27-43.32-27.09,49.61Z" style="fill:#3f3d56"/><circle cx="130.88" cy="1554.91" r="1.48" style="fill:#cfcce0"/><circle cx="193.4" cy="1602.32" r="1.48" style="fill:#cfcce0"/><circle cx="154.58" cy="1636.11" r="1.48" style="fill:#cfcce0"/><circle cx="100.36" cy="1666.93" r="3.26" style="fill:#cfcce0"/><circle cx="175.03" cy="1551.35" r="3.26" style="fill:#cfcce0"/><circle cx="996.6" cy="1505.66" r="58.01" style="fill:#fff"/><circle cx="1002.85" cy="1626.93" r="79.67" transform="translate(-856.69 1185.64) rotate(-45)" style="fill:#fff"/><path d="M1047.91,1546.38l-95.85,4.94a2.69,2.69,0,0,0-2.53,2.81l.28,5.48a2.67,2.67,0,0,0,2.8,2.53h0l16.29-.84,1.77,1.52-10.94,74.71,10.2,12L981,1571.71l49.86,42.92,13.79-3-59.21-51.16,63-3.25a2.69,2.69,0,0,0,2.53-2.81h0l-.28-5.48a2.69,2.69,0,0,0-2.81-2.53Z" style="fill:#6c63ff"/><path d="M963.7,1478.7s24.18-13.69,23.95-18.13-10.66-17.22-28.39-16.31c0,0-4.85-7.75-9.84-1.27s3.2,10.5,3.2,10.5S943.7,1470,958.38,1479Z" style="fill:#6c63ff"/><circle cx="974.37" cy="1495.18" r="4.64" style="fill:#3f3d56"/><circle cx="1017.63" cy="1492.95" r="4.64" style="fill:#3f3d56"/><rect x="992.9" y="1504.15" width="8.51" height="26.3" transform="translate(-76.77 53.33) rotate(-2.95)" style="fill:#ff6584"/><circle cx="1002.92" cy="1598.27" r="4.64" style="fill:#3f3d56"/><circle cx="1003.8" cy="1615.26" r="4.64" style="fill:#3f3d56"/><circle cx="1004.68" cy="1632.26" r="4.64" style="fill:#3f3d56"/><path d="M998.37,1540a46.16,46.16,0,0,1-22.3-4.74l.66-1.4c14.5,6.85,28.81,6.11,42.53-2.19l.8,1.32A46.24,46.24,0,0,1,998.37,1540Z" style="fill:#3f3d56"/><circle cx="1030.7" cy="1506.22" r="3.87" style="fill:#ff6584"/><circle cx="962.73" cy="1509.73" r="3.87" style="fill:#ff6584"/><polygon points="1268.32 1595.07 1268.32 1641.27 1256.1 1665.9 1256.1 1665.9 1255.71 1666.68 1223.38 1664.56 1210.94 1663.72 1182.11 1661.83 1182.11 1606.57 1210.94 1607.38 1223.86 1607.73 1256.48 1608.66 1268.32 1595.07" style="fill:#ff6f61"/><polygon points="1268.32 1597.8 1268.32 1641.27 1265.33 1647.29 1265.33 1647.29 1262.27 1653.45 1262.27 1653.45 1256.1 1665.9 1256.79 1619.7 1256.92 1610.38 1262.8 1603.89 1262.8 1603.89 1265.36 1601.07 1268.32 1597.8" style="opacity:0.10000000149011612;isolation:isolate"/><polygon points="1269.97 1582.8 1269.97 1598.93 1268.32 1601.58 1265.36 1606.3 1262.72 1610.47 1256.92 1619.71 1256.79 1619.7 1179.57 1615.73 1179.57 1599.82 1179.76 1599.61 1188.97 1589.63 1192.32 1586.02 1198.36 1579.48 1269.97 1582.8" style="fill:#ff6f61"/><polygon points="1256.92 1603.8 1256.92 1619.71 1179.57 1615.73 1179.57 1599.82 1179.76 1599.61 1256.92 1603.8" style="opacity:0.10000000149011612;isolation:isolate"/><polygon points="1269.97 1582.8 1269.97 1598.93 1256.92 1619.71 1256.92 1603.8 1269.97 1582.8" style="opacity:0.15000000596046448;isolation:isolate"/><polygon points="1265.36 1590.22 1265.36 1601.07 1265.36 1606.3 1265.33 1647.29 1265.33 1647.29 1262.27 1653.45 1262.72 1610.47 1262.8 1603.89 1262.8 1603.89 1262.89 1594.18 1188.97 1589.63 1192.32 1586.02 1265.36 1590.22" style="fill:#3f3d56"/><polygon points="1229.08 1590.76 1223.89 1602.01 1223.86 1607.73 1223.38 1664.56 1210.94 1663.72 1210.94 1601.26 1217.59 1590.76 1229.08 1590.76" style="fill:#3f3d56"/><path d="M1212,1591.52a16.49,16.49,0,0,1-9.26.33,4.13,4.13,0,0,1-1.63-.76,4.09,4.09,0,0,1-1-2,15.2,15.2,0,0,1-.89-4.77,5.32,5.32,0,0,1,2-4.25,6,6,0,0,0,.76-.57,3.26,3.26,0,0,0,.58-1.18c.9-2.7,2.66-5.55,5.48-6,2.59-.4,5,1.42,7,3.12l4.39,3.74a6.94,6.94,0,0,1,12.93-.17,24.41,24.41,0,0,1,9.78-6.71,3,3,0,0,1,2.56-.1,2.92,2.92,0,0,1,1,1.37,21.38,21.38,0,0,1,1.9,8.33,1.46,1.46,0,0,1,1.7.58,4.12,4.12,0,0,1,.56,1.84,25.14,25.14,0,0,1,.17,3,4.63,4.63,0,0,1-.79,3c-.9,1-2.45,1.16-3.82,1.19a1.55,1.55,0,0,1-.25,2.16l-.15.11a4.49,4.49,0,0,1-2.57.5c-3.42,0-7-.13-9.9-2-1.12-.75-2.06-1.74-3.19-2.49-2.75-1.82-6.22-1.91-9.41-1.76C1217.06,1588.21,1214.77,1590.6,1212,1591.52Z" style="fill:#3f3d56"/><path d="M1211.37,1590.76s-28.52,4-32.5,21.22l6-.88,4.2,7.52s4.42-16.8,17.46-20.78,17.69-4.64,17.69-4.64,9.06,2.21,17.24,28.51l4.64-6.41,8.18,1.77s-6-20.56-22.1-26.31Z" style="fill:#3f3d56"/><polygon points="1228.46 1613.13 1228.46 1675.55 1211.96 1708.83 1211.96 1708.83 1211.44 1709.88 1167.77 1706.99 1150.97 1705.88 1112.02 1703.31 1112.02 1628.66 1150.97 1629.76 1168.4 1630.26 1212.49 1631.49 1228.46 1613.13" style="fill:#6c63ff"/><polygon points="1228.46 1616.82 1228.46 1675.55 1224.43 1683.67 1224.43 1683.67 1220.31 1692.01 1220.31 1692.02 1211.96 1708.83 1212.89 1646.41 1213.09 1633.83 1221.02 1625.07 1221.02 1625.06 1224.46 1621.23 1228.46 1616.82" style="opacity:0.10000000149011612;isolation:isolate"/><polygon points="1230.7 1596.57 1230.7 1618.36 1228.46 1621.92 1224.46 1628.31 1220.91 1633.94 1213.09 1646.42 1212.89 1646.41 1108.58 1641.06 1108.58 1619.56 1108.85 1619.27 1121.3 1605.79 1125.81 1600.9 1133.95 1592.09 1230.7 1596.57" style="fill:#6c63ff"/><polygon points="1213.09 1624.92 1213.09 1646.42 1108.58 1641.06 1108.58 1619.56 1108.85 1619.27 1213.09 1624.92" style="opacity:0.10000000149011612;isolation:isolate"/><polygon points="1230.7 1596.57 1230.7 1618.36 1213.09 1646.42 1213.09 1624.92 1230.7 1596.57" style="opacity:0.15000000596046448;isolation:isolate"/><polygon points="1224.47 1606.6 1224.46 1621.23 1224.46 1628.31 1224.43 1683.67 1224.43 1683.67 1220.31 1692.01 1220.91 1633.94 1221.02 1625.07 1221.02 1625.06 1221.15 1611.94 1121.3 1605.79 1125.81 1600.9 1224.47 1606.6" style="fill:#3f3d56"/><polygon points="1175.46 1607.31 1168.46 1622.51 1168.4 1630.26 1167.77 1706.99 1150.97 1705.88 1150.97 1621.49 1159.93 1607.31 1175.46 1607.31" style="fill:#3f3d56"/><path d="M1152.43,1608.34a22.33,22.33,0,0,1-12.52.44,5,5,0,0,1-2.19-1,5.65,5.65,0,0,1-1.36-2.69,21.09,21.09,0,0,1-1.2-6.44,7.16,7.16,0,0,1,2.68-5.75,6.75,6.75,0,0,0,1-.76,4.58,4.58,0,0,0,.78-1.6c1.23-3.65,3.6-7.5,7.4-8.08,3.51-.54,6.71,1.91,9.41,4.21l5.93,5a9.37,9.37,0,0,1,17.47-.24,33,33,0,0,1,13.2-9.06c1.12-.42,2.44-.76,3.47-.13a3.91,3.91,0,0,1,1.38,1.85,28.75,28.75,0,0,1,2.57,11.25,2,2,0,0,1,2.29.79,5.18,5.18,0,0,1,.76,2.48,34.93,34.93,0,0,1,.24,4.09,6.25,6.25,0,0,1-1.07,4.09c-1.22,1.41-3.31,1.56-5.17,1.6.9.8.46,2.4-.53,3.07a6,6,0,0,1-3.47.67c-4.62,0-9.53-.17-13.37-2.74-1.52-1-2.79-2.36-4.31-3.36-3.73-2.47-8.41-2.59-12.72-2.38C1159.23,1603.86,1156.13,1607.14,1152.43,1608.34Z" style="fill:#3f3d56"/><path d="M1151.56,1607.32s-38.52,5.37-43.89,28.66l8.06-1.19,5.67,10.15s6-22.69,23.59-28.07,23.89-6.27,23.89-6.27,12.24,3,23.29,38.52l6.27-8.66,11,2.39s-8.06-27.77-29.86-35.53Z" style="fill:#3f3d56"/><polygon points="1290.97 1644.13 1290.97 1682.76 1280.77 1703.36 1280.77 1703.36 1280.44 1704.02 1253.41 1702.22 1243.02 1701.54 1218.9 1699.94 1218.9 1653.74 1243.02 1654.42 1253.81 1654.72 1281.1 1655.49 1290.97 1644.13" style="fill:#3f3d56"/><polygon points="1290.97 1646.41 1290.97 1682.76 1288.48 1687.8 1288.48 1687.8 1285.92 1692.94 1285.92 1692.95 1280.77 1703.36 1281.35 1664.73 1281.46 1656.94 1286.37 1651.52 1286.37 1651.52 1288.51 1649.14 1290.97 1646.41" style="opacity:0.10000000149011612;isolation:isolate"/><polygon points="1292.37 1633.88 1292.37 1647.37 1290.97 1649.58 1288.51 1653.53 1286.31 1657.02 1281.46 1664.73 1281.35 1664.73 1216.78 1661.41 1216.78 1648.11 1216.93 1647.93 1224.64 1639.59 1227.43 1636.57 1232.48 1631.11 1292.37 1633.88" style="fill:#3f3d56"/><polygon points="1281.46 1651.43 1281.46 1664.73 1216.78 1661.41 1216.78 1648.11 1216.93 1647.93 1281.46 1651.43" style="opacity:0.10000000149011612;isolation:isolate"/><polygon points="1292.37 1633.88 1292.37 1647.37 1281.46 1664.73 1281.46 1651.43 1292.37 1633.88" style="opacity:0.15000000596046448;isolation:isolate"/><polygon points="1288.52 1640.09 1288.51 1649.14 1288.51 1653.53 1288.48 1687.8 1288.48 1687.8 1285.92 1692.94 1286.31 1657.02 1286.37 1651.52 1286.37 1651.52 1286.45 1643.39 1224.64 1639.59 1227.43 1636.57 1288.52 1640.09" style="fill:#6c63ff"/><polygon points="1258.17 1640.53 1253.85 1649.93 1253.81 1654.72 1253.41 1702.22 1243.02 1701.54 1243.02 1649.31 1248.57 1640.53 1258.17 1640.53" style="fill:#6c63ff"/><path d="M1243.92,1641.14a13.81,13.81,0,0,1-7.75.27,3.26,3.26,0,0,1-1.36-.63,3.45,3.45,0,0,1-.84-1.67,13,13,0,0,1-.74-4,4.43,4.43,0,0,1,1.66-3.56,5.73,5.73,0,0,0,.63-.47,2.91,2.91,0,0,0,.49-1c.75-2.26,2.22-4.64,4.58-5,2.17-.33,4.14,1.19,5.82,2.61l3.67,3.13a5.8,5.8,0,0,1,10.81-.15,20.45,20.45,0,0,1,8.17-5.61,1.94,1.94,0,0,1,2.7.43,1.88,1.88,0,0,1,.3.64,17.81,17.81,0,0,1,1.6,7,1.19,1.19,0,0,1,1.41.49,3.3,3.3,0,0,1,.47,1.53,21.34,21.34,0,0,1,.15,2.53,3.86,3.86,0,0,1-.66,2.53,4,4,0,0,1-3.2,1,1.29,1.29,0,0,1-.21,1.81l-.12.09a3.82,3.82,0,0,1-2.15.41c-2.86,0-5.9-.1-8.28-1.69-.93-.63-1.72-1.46-2.66-2.08-2.31-1.53-5.2-1.6-7.87-1.48C1248.13,1638.4,1246.21,1640.4,1243.92,1641.14Z" style="fill:#6c63ff"/><path d="M1243.37,1640.53s-23.84,3.33-27.16,17.75l5-.74,3.51,6.28s3.7-14,14.6-17.37,14.78-3.88,14.78-3.88,7.58,1.85,14.42,23.84l3.88-5.36,6.84,1.48s-5-17.19-18.48-22Z" style="fill:#6c63ff"/><circle cx="1744.97" cy="1245.52" r="142.4" style="fill:#dcff7f"/><circle cx="1744.97" cy="1056.52" r="142.4" style="fill:#d5ff9f"/><path d="M1748.41,1682.47V1484.62l39.26-24.33a15.23,15.23,0,0,0,6.65-8.84h0a15.22,15.22,0,0,0-10.88,2l-35,21.7V1328.44l39.26-24.33a15.2,15.2,0,0,0,6.65-8.84h0a15.22,15.22,0,0,0-10.88,2l-35,21.71v-56.9a134.65,134.65,0,0,0-4-32.65,134.65,134.65,0,0,0-4,32.65V1355l-51.67-32a25.39,25.39,0,0,0-13.76-3.79,25.41,25.41,0,0,0,9.52,10.63l55.91,34.64v318.06" style="fill:#ccc"/><path d="M1745.41,1472.47V1274.62l39.26-24.33a15.23,15.23,0,0,0,6.65-8.84h0a15.22,15.22,0,0,0-10.88,2l-35,21.7V1118.44l39.26-24.33a15.2,15.2,0,0,0,6.65-8.84h0a15.22,15.22,0,0,0-10.88,2l-35,21.71v-56.9a134.65,134.65,0,0,0-4-32.65,134.65,134.65,0,0,0-4,32.65V1145l-51.67-32a25.39,25.39,0,0,0-13.76-3.79,25.41,25.41,0,0,0,9.52,10.63l55.91,34.64v318.06" style="fill:#ccc"/><rect x="1311.17" y="1273.37" width="328" height="420" style="fill:#e6e6e6"/><rect x="1324.89" y="1298.64" width="283.77" height="179.66" style="fill:#fff"/><rect x="1324.89" y="1470.94" width="283.78" height="192.56" style="fill:#fff"/><rect x="1459.41" y="1297.72" width="14.74" height="180.58" style="fill:#3f3d56"/><rect x="1593.93" y="1297.72" width="14.74" height="180.58" style="fill:#3f3d56"/><rect x="1324.89" y="1463.56" width="283.77" height="14.74" style="fill:#3f3d56"/><polygon points="1365 1395.38 1339.64 1412.43 1339.64 1426.54 1378.06 1395.38 1365 1395.38" style="fill:#fff"/><polygon points="1406.79 1395.38 1339.64 1447.95 1339.64 1459.96 1427.16 1395.38 1406.79 1395.38" style="fill:#e6e6e6"/><rect x="1324.89" y="1297.72" width="14.74" height="180.58" style="fill:#3f3d56"/><polygon points="1567.67 1312.46 1511.01 1384.33 1528.51 1386.17 1577.34 1309.7 1567.67 1312.46" style="fill:#e6e6e6"/><rect x="1324.89" y="1297.72" width="283.77" height="14.74" style="fill:#3f3d56"/><rect x="1324.89" y="1380.64" width="283.77" height="14.74" style="fill:#3f3d56"/><rect x="1840.12" y="1273.32" width="328" height="420" style="fill:#e6e6e6"/><rect x="1861.87" y="1298.11" width="283.77" height="179.66" style="fill:#fff"/><rect x="1861.87" y="1470.41" width="283.77" height="192.56" style="fill:#fff"/><rect x="1996.39" y="1297.19" width="14.74" height="180.58" style="fill:#3f3d56"/><rect x="2130.9" y="1297.19" width="14.74" height="180.58" style="fill:#3f3d56"/><rect x="1861.87" y="1463.03" width="283.77" height="14.74" style="fill:#3f3d56"/><polygon points="1901.98 1394.86 1876.61 1411.9 1876.61 1426.01 1915.03 1394.86 1901.98 1394.86" style="fill:#e6e6e6"/><polygon points="1943.76 1394.86 1876.61 1447.42 1876.61 1459.44 1964.13 1394.86 1943.76 1394.86" style="fill:#e6e6e6"/><rect x="1861.87" y="1297.19" width="14.74" height="180.58" style="fill:#3f3d56"/><polygon points="2104.64 1311.93 2047.98 1383.8 2065.49 1385.64 2114.32 1309.17 2104.64 1311.93" style="fill:#e6e6e6"/><rect x="1861.87" y="1297.19" width="283.77" height="14.74" style="fill:#3f3d56"/><rect x="1861.87" y="1380.11" width="283.77" height="14.74" style="fill:#3f3d56"/><circle cx="1827.25" cy="1370.71" r="17.31" style="fill:#f2f2f2"/><rect x="1864.4" y="1555.14" width="3.87" height="2.02" rx="1.01" style="fill:#fff"/><rect x="1885.48" y="1555.14" width="3.87" height="2.02" rx="1.01" style="fill:#fff"/><rect x="1891.45" y="1555.14" width="3.87" height="2.02" rx="1.01" style="fill:#fff"/><rect x="1870.13" y="1554.97" width="13.48" height="2.02" rx="1.01" style="fill:#fff"/><rect x="1870.02" y="1559.71" width="3.87" height="2.02" rx="1.01" style="fill:#fff"/><rect x="1891.1" y="1559.71" width="3.87" height="2.02" rx="1.01" style="fill:#fff"/><rect x="1897.07" y="1559.71" width="3.87" height="2.02" rx="1.01" style="fill:#fff"/><rect x="1875.75" y="1559.54" width="13.48" height="2.02" rx="1.01" style="fill:#fff"/><rect x="1875.64" y="1564.28" width="3.87" height="2.02" rx="1.01" style="fill:#fff"/><rect x="1896.72" y="1564.28" width="3.87" height="2.02" rx="1.01" style="fill:#fff"/><rect x="1881.37" y="1564.11" width="13.48" height="2.02" rx="1.01" style="fill:#fff"/><rect x="1881.26" y="1568.84" width="3.87" height="2.02" rx="1.01" style="fill:#fff"/><rect x="1886.99" y="1568.67" width="13.48" height="2.02" rx="1.01" style="fill:#fff"/><rect x="1870.02" y="1582.44" width="3.87" height="2.02" rx="1.01" style="fill:#fff"/><rect x="1891.1" y="1582.44" width="3.87" height="2.02" rx="1.01" style="fill:#fff"/><rect x="1897.07" y="1582.44" width="3.87" height="2.02" rx="1.01" style="fill:#fff"/><rect x="1875.75" y="1582.61" width="13.48" height="2.02" rx="1.01" style="fill:#fff"/><rect x="1875.64" y="1577.87" width="3.87" height="2.02" rx="1.01" style="fill:#fff"/><rect x="1896.72" y="1577.87" width="3.87" height="2.02" rx="1.01" style="fill:#fff"/><rect x="1881.37" y="1578.04" width="13.48" height="2.02" rx="1.01" style="fill:#fff"/><rect x="1881.26" y="1573.3" width="3.87" height="2.02" rx="1.01" style="fill:#fff"/><rect x="1886.99" y="1573.47" width="13.48" height="2.02" rx="1.01" style="fill:#fff"/><ellipse cx="1605.41" cy="1447.28" rx="3.86" ry="3.94" style="fill:#3f3d56"/><path d="M1936.41,1669.17l.52-11.64a37.59,37.59,0,0,1,17.52-4.44c-8.41,6.89-7.36,20.15-13.07,29.41A22.6,22.6,0,0,1,1924.8,1693l-7,4.31a37.86,37.86,0,0,1,8-30.69,36.27,36.27,0,0,1,6.73-6.25C1934.15,1664.77,1936.41,1669.17,1936.41,1669.17Z" style="fill:#f2f2f2"/><path d="M1558.42,1656.42l-17-5.15a57.31,57.31,0,0,1,0-27.58c7,15,27,18.48,38.54,30.4a34.48,34.48,0,0,1,9.19,28.43l3.72,12a57.77,57.77,0,0,1-42.35-23.36,55.93,55.93,0,0,1-6.7-12.29C1551.07,1658.09,1558.42,1656.42,1558.42,1656.42Z" style="fill:#f2f2f2"/><path d="M1923.18,1695.36a1.33,1.33,0,0,1-.39.94,1.37,1.37,0,0,1-.94.38h-5.32a1.31,1.31,0,0,1-1.32-1.31h0v-161c0-3.55-1.19-6.43-2.66-6.43H1513.68c-1.47,0-2.65,2.88-2.66,6.43v160a1.33,1.33,0,0,1-1.2,1.32c-1.07.1-2.14.2-3.21.28h-.08l-1.74.14h0c-.31-.55-.6-1.11-.89-1.68a1.31,1.31,0,0,1-.15-.61V1526c0-1,0-2,.11-2.94a38.27,38.27,0,0,1,.49-4c1.12-6.15,3.65-10.32,6.52-10.33h404.51a3,3,0,0,1,1.22.26,4.9,4.9,0,0,1,1.5,1,8.86,8.86,0,0,1,1.47,2,26.6,26.6,0,0,1,2.79,10.55s0,.08,0,.11c.09,1.08.14,2.17.13,3.26l.09,14.19.06,8.46.18,26.55.07,9.43Z" style="fill:#e6e6e6"/><path d="M1731.79,1461.76h-32.34a1.72,1.72,0,0,0-1.72,1.73v51.07h35.78v-51.07a1.72,1.72,0,0,0-1.72-1.73Zm-16.06,29a3.83,3.83,0,0,1-3.82-3.82v-5.89a3.82,3.82,0,0,1,7.64,0V1487a3.84,3.84,0,0,1-3.82,3.82Z" style="fill:#2f2e41"/><path d="M1785.33,1382.05H1647.12a4.48,4.48,0,0,0-4.48,4.48v93.26a4.47,4.47,0,0,0,4.48,4.48h138.21a4.47,4.47,0,0,0,4.47-4.48v-93.26A4.48,4.48,0,0,0,1785.33,1382.05Z" style="fill:#3f3d56"/><path d="M1784.17,1385.28h-135.9a2.41,2.41,0,0,0-2.4,2.4v91a2.4,2.4,0,0,0,2.4,2.39h135.9a2.39,2.39,0,0,0,2.39-2.39v-91A2.4,2.4,0,0,0,1784.17,1385.28Z" style="fill:#fff"/><path d="M1697.62,1512.93v4.93a1,1,0,0,0,1,1h34.08a1,1,0,0,0,1-1v-4.93Z" style="fill:#3f3d56"/><path d="M1757.7,1520.53h-80.85a1.49,1.49,0,0,1-1.49-1.48,1.55,1.55,0,0,1,0-.31l1.26-6a1.49,1.49,0,0,1,1.45-1.18h78.35a1.5,1.5,0,0,1,1.45,1.18l1.26,6a1.49,1.49,0,0,1-1.15,1.76A1.63,1.63,0,0,1,1757.7,1520.53Z" style="fill:#2f2e41"/><rect x="1678.68" y="1512.67" width="2.49" height="1.49" rx="0.32" style="fill:#3f3d56"/><rect x="1683.66" y="1512.67" width="2.49" height="1.49" rx="0.32" style="fill:#3f3d56"/><rect x="1688.64" y="1512.67" width="2.49" height="1.49" rx="0.32" style="fill:#3f3d56"/><rect x="1693.62" y="1512.67" width="2.49" height="1.49" rx="0.32" style="fill:#3f3d56"/><rect x="1698.6" y="1512.67" width="2.49" height="1.49" rx="0.32" style="fill:#3f3d56"/><rect x="1703.58" y="1512.67" width="2.49" height="1.49" rx="0.32" style="fill:#3f3d56"/><rect x="1708.56" y="1512.67" width="2.49" height="1.49" rx="0.32" style="fill:#3f3d56"/><rect x="1713.54" y="1512.67" width="2.49" height="1.49" rx="0.32" style="fill:#3f3d56"/><rect x="1718.52" y="1512.67" width="2.49" height="1.49" rx="0.32" style="fill:#3f3d56"/><rect x="1723.5" y="1512.67" width="2.49" height="1.49" rx="0.32" style="fill:#3f3d56"/><rect x="1728.48" y="1512.67" width="2.49" height="1.49" rx="0.32" style="fill:#3f3d56"/><rect x="1733.46" y="1512.67" width="2.49" height="1.49" rx="0.32" style="fill:#3f3d56"/><rect x="1738.44" y="1512.67" width="2.49" height="1.49" rx="0.32" style="fill:#3f3d56"/><rect x="1743.42" y="1512.67" width="2.49" height="1.49" rx="0.32" style="fill:#3f3d56"/><rect x="1748.4" y="1512.67" width="2.49" height="1.49" rx="0.32" style="fill:#3f3d56"/><rect x="1753.38" y="1512.67" width="2.49" height="1.49" rx="0.32" style="fill:#3f3d56"/><rect x="1678.62" y="1515.16" width="2.49" height="1.49" rx="0.32" style="fill:#3f3d56"/><rect x="1683.6" y="1515.16" width="2.49" height="1.49" rx="0.32" style="fill:#3f3d56"/><rect x="1688.58" y="1515.16" width="2.49" height="1.49" rx="0.32" style="fill:#3f3d56"/><rect x="1693.56" y="1515.16" width="2.49" height="1.49" rx="0.32" style="fill:#3f3d56"/><rect x="1698.54" y="1515.16" width="2.49" height="1.49" rx="0.32" style="fill:#3f3d56"/><rect x="1703.52" y="1515.16" width="2.49" height="1.49" rx="0.32" style="fill:#3f3d56"/><rect x="1708.5" y="1515.16" width="2.49" height="1.49" rx="0.32" style="fill:#3f3d56"/><rect x="1713.48" y="1515.16" width="2.49" height="1.49" rx="0.32" style="fill:#3f3d56"/><rect x="1718.46" y="1515.16" width="2.49" height="1.49" rx="0.32" style="fill:#3f3d56"/><rect x="1723.44" y="1515.16" width="2.49" height="1.49" rx="0.32" style="fill:#3f3d56"/><rect x="1728.42" y="1515.16" width="2.49" height="1.49" rx="0.32" style="fill:#3f3d56"/><rect x="1733.4" y="1515.16" width="2.49" height="1.49" rx="0.32" style="fill:#3f3d56"/><rect x="1738.38" y="1515.16" width="2.49" height="1.49" rx="0.32" style="fill:#3f3d56"/><rect x="1743.36" y="1515.16" width="2.49" height="1.49" rx="0.32" style="fill:#3f3d56"/><rect x="1748.34" y="1515.16" width="2.49" height="1.49" rx="0.32" style="fill:#3f3d56"/><rect x="1753.32" y="1515.16" width="2.49" height="1.49" rx="0.32" style="fill:#3f3d56"/><rect x="1702.52" y="1518.15" width="19.92" height="1.49" rx="0.32" style="fill:#3f3d56"/><path d="M1777.34,1397.82H1650.18a.51.51,0,0,1,0-1h127.16a.51.51,0,0,1,0,1Z" style="fill:#cacaca"/><ellipse cx="1658.83" cy="1391.19" rx="2.96" ry="3.03" style="fill:#3f3d56"/><ellipse cx="1669.07" cy="1391.19" rx="2.96" ry="3.03" style="fill:#3f3d56"/><ellipse cx="1679.31" cy="1391.19" rx="2.96" ry="3.03" style="fill:#3f3d56"/><path d="M1771.18,1388.91h-7.28a.56.56,0,0,0,0,1.11h7.28a.56.56,0,0,0,0-1.11Z" style="fill:#3f3d56"/><path d="M1771.18,1391h-7.28a.56.56,0,0,0-.54.56.55.55,0,0,0,.54.54h7.28a.55.55,0,0,0,.54-.56A.57.57,0,0,0,1771.18,1391Z" style="fill:#3f3d56"/><path d="M1771.18,1393.05h-7.28a.55.55,0,0,0-.54.56.57.57,0,0,0,.54.54h7.28a.56.56,0,0,0,.54-.56A.55.55,0,0,0,1771.18,1393.05Z" style="fill:#3f3d56"/><rect x="1705.87" y="1427.36" width="20.21" height="4.32" rx="2.16" style="fill:#6c63ff"/><rect x="1695.6" y="1436" width="40.74" height="4.32" rx="2.16" style="fill:#e6e6e6"/><rect x="1695.6" y="1444.65" width="40.74" height="4.32" rx="2.16" style="fill:#e6e6e6"/><path d="M1651.42,1527H1611.7a5.3,5.3,0,1,0,0,10.59h14.56v41h10.6v-41h14.56a5.3,5.3,0,1,0,0-10.59Z" style="fill:#3f3d56"/><path d="M1677.64,1601.41H1571.39a42.9,42.9,0,0,1-42.31-36.84l-3.76-13.83a310.64,310.64,0,0,0-35.21-81.37c-7.12-11.55-10.78-22.74-2.46-33.51l.21-.27c6.67-8.68,39.87-10.56,50.7-10.93l1.29,0h66.08l1.29,0a32.35,32.35,0,0,1,28,17.83,33.31,33.31,0,0,1-1.89,34.11c-23.21,34.87-30.32,56.74-23,70.9,7,13.69,28.61,20.69,67.89,22,10.56.36,15.41,8.58,15.44,16.07,0,7.29-4.63,15.34-14.93,15.78C1678.31,1601.4,1678,1601.41,1677.64,1601.41Z" style="fill:#3f3d56"/><path d="M1589.44,1695.75h39.72a5.3,5.3,0,0,0,0-10.6H1614.6v-89.37H1604v89.37h-14.57a5.3,5.3,0,1,0,0,10.6Z" style="fill:#3f3d56"/><path d="M1586.27,1428l.83,5.06c.39,2.45,1.82,19.79.76,21.85-.09-3.86-7.28-9.93-11.94-8.54l-7.31,1.62-4.53,1-3.7.81-10.73,2.35c0-.13,0-.26-.05-.38s0-.32-.08-.47a9.49,9.49,0,0,0-1.08-2.87,7.17,7.17,0,0,1-1,3.37l0,.08c-.2.31-.41.61-.63.89l0,0s-2.21-35.14-2-35.47.34-.45.52-.67l.53-.66a.16.16,0,0,0,.06-.08c.52-.61,1.07-1.19,1.64-1.75l.53-.49a24.36,24.36,0,0,1,9.38-5.42l1.22-.34c.41-.11.83-.21,1.25-.29l.15,0,.61-.11c.25,0,.51-.09.76-.12a24.61,24.61,0,0,1,9.74.55h0a25.26,25.26,0,0,1,7.46,3.33c4,2.61,5.5,6.88,6.6,11.67C1585.59,1424.52,1585.92,1426.23,1586.27,1428Z" style="fill:#2f2e41"/><polygon points="1625.39 1659.71 1632.24 1663.43 1650.35 1638.39 1640.25 1632.9 1625.39 1659.71" style="fill:#ffb6b6"/><path d="M1628.69,1650.79l12.42,3.89-2,5.2,8.52,12.37a3.48,3.48,0,0,1-4.1,5.22l-14.46-5.49-.54-6.1-2.93,4.78-5.45-2.07Z" style="fill:#2f2e41"/><path d="M1664.15,1547.69a7.69,7.69,0,0,1-9.29-5.65,8.67,8.67,0,0,1-.2-1.34l-58.37-21,10.71-9.32,55.4,22.06a7.73,7.73,0,0,1,1.75,15.25Z" style="fill:#ffb6b6"/><path d="M1580,1467.68s-9.83.22-10.71,11.44,20.58,39,23.9,43.56,40.24,10.21,40.24,10.21l12.55-9.11c-13.19-8.54-25.22-15.09-33.3-14.8Z" style="fill:#6c63ff"/><path d="M1567.93,1517.2l2.4,10.29s0,9.49,1.7,11.24,38.37-1.75,38.37-1.75-3.89-15.29-3.84-26.87Z" style="fill:#ffb6b6"/><path d="M1645.46,1648.85l-13.24-7.28c-.25-17.23,10.11-40.55,22.4-65-27.49,4.73-53.42,6.24-75.85.52a14.5,14.5,0,0,1-10.37-17.51c.09-.37.19-.72.3-1.08,2.69-8.19-3.33-13.33,2.2-22.33,14.57-5,28.4-6.38,41-2l7.93,17.52,39.28-5.08a14.49,14.49,0,0,1,16.11,12.67v.1c0,.43.09.86.1,1.29C1667.44,1598,1658.53,1631.46,1645.46,1648.85Z" style="fill:#2f2e41"/><circle cx="1566.46" cy="1429.99" r="16.42" style="fill:#ffb6b6"/><path d="M1562.6,1452l15.13-.89a3.08,3.08,0,0,1,3,1.89l4.27,10.37,17.78,14.69s7,9,7,20.53,2.5,38.34,2.5,38.34-10.27-14.46-16.61-10.62c-1.08.66-1.46,2-2.59,2.67-.56.34-1.86,0-2.43.35-8.74,5.18-17.85,10.25-18.7,9.36-1.67-1.74-3.7-10.65-3.7-10.65l-13.86-50.91a18.85,18.85,0,0,1,2.69-15.86c1-1.36,2-2.38,2.92-2.54C1562.2,1458.32,1561.07,1453.57,1562.6,1452Z" style="fill:#6c63ff"/><polygon points="1691.35 1681.28 1697.73 1676.84 1683.26 1649.53 1673.83 1656.09 1691.35 1681.28" style="fill:#ffb6b6"/><path d="M1692.31,1663l-10,8.94c-15.92-17.73-28-42.61-38.16-70.87-26.72-7.82-46.87-20.45-64.47-35.43-6-5-10.44-11.54-5.35-17.69q.36-.44.75-.84c6-6.18,21.25-5,30.17-10.66l20,21.32-1.26,5.71,37.46,12.69a14.47,14.47,0,0,1,8.87,18.44l0,.11q-.21.6-.48,1.2Z" style="fill:#2f2e41"/><path d="M1687.62,1679.48l10.23-8.06L1701,1676l15,0a3.47,3.47,0,0,1,2,6.33l-12.7,8.83-5.33-3,2.29,5.12-4.79,3.33Z" style="fill:#2f2e41"/><path d="M1585,1580.32a7.69,7.69,0,0,1-4.08-10.08,8.49,8.49,0,0,1,.64-1.19l-34.26-51.71,14.16-1.08,31.25,50.79a7.73,7.73,0,0,1-7.71,13.27Z" style="fill:#ffb6b6"/><path d="M1565.25,1465.88s-8-5.7-15.42,2.78-6.79,43.56-6.86,49.21c0,1.77,2.54,5.6,6.06,10,1.59,2,3.36,4.08,5.19,6.17,1,1.21.14,3.73,1.2,4.9s4.09,1,5.09,2.08c4.76,5.15,8.63,9.07,8.63,9.07l15.51.19c.17-11.53-7.72-21.82-17.86-31.76Z" style="fill:#6c63ff"/><path d="M1587,1422c-.6.3-1.19.59-1.77.86a55.23,55.23,0,0,1-7.19,2.92,9.08,9.08,0,0,0-1.84-3,7.21,7.21,0,0,1-.3,3.6,20.32,20.32,0,0,1-11.28-.44c2.38,4.42,4.14,13.71,4,22a30.76,30.76,0,0,1-1.94,11.44l-1.67-5.07a31.46,31.46,0,0,0-.92-5.36c-1.12-4.93-2.16-1.63-3.7.81l-10.73,2.35c0-.13,0-.26-.05-.38s0-.32-.08-.47a9.49,9.49,0,0,0-1.08-2.87,7.17,7.17,0,0,1-1,3.37l0,.08c-.2.31-.41.61-.63.89l0,0c-6.93.93-11.79-34.8-2-35.46.29,0,.34-.46.52-.68l.53-.66a.16.16,0,0,0,.06-.08c.53-.6,1.07-1.19,1.64-1.75l.53-.49a24.67,24.67,0,0,1,9.38-5.41l1.22-.35c.41-.11.83-.21,1.25-.29l.15,0,.61-.11c.25,0,.51-.09.76-.12a6.33,6.33,0,0,1,2.34,2.05l6.85-1.4.55-.09h0C1579.7,1406.45,1585.21,1413.33,1587,1422Z" style="fill:#2f2e41"/><path d="M1549.62,1415.7a11.36,11.36,0,0,1-4.8,2.41c-1.8.27-3.89-.6-4.39-2.34-.6-2.13,1.32-4.07,3-5.45l5.48-4.39a13.19,13.19,0,0,1,3.35-2.17,4.48,4.48,0,0,1,3.88.13,4.16,4.16,0,0,1,1.83,3.62,7.75,7.75,0,0,1-1.36,4,14,14,0,0,1-9.06,6.16" style="fill:#2f2e41"/><path d="M1591.17,1529.68h-39.72a5.3,5.3,0,0,0,0,10.6H1566v41h10.59v-41h14.56a5.3,5.3,0,0,0,0-10.6Z" style="fill:#3f3d56"/><polygon points="1822.45 1609.73 1828.92 1616.78 1859.18 1595.19 1849.63 1584.79 1822.45 1609.73" style="fill:#a0616a"/><path d="M1835.84,1619.71h0l-.66-7-.3-.14-1.74-.82-8.21-3.89-.18-.19-1.64-1.8-9.13,8.39,12.36,13.47,8.48,9.25.29-.27a12,12,0,0,0,.74-16.94Z" style="fill:#2f2e41"/><polygon points="1788.95 1680.03 1798.1 1682.81 1813.18 1648.84 1799.67 1644.73 1788.95 1680.03" style="fill:#a0616a"/><path d="M1812.65,1687.64a11.9,11.9,0,0,0-7.1-5.83l-4.15-5.72-.33,0-11,1-.24-.07-2.33-.71-3.6,11.85,29.5,9,.12-.38A12,12,0,0,0,1812.65,1687.64Z" style="fill:#2f2e41"/><path id="b2eb929e-713e-4b71-a146-193a455bcc79-96" d="M1864.41,1502.15s58.43,56.41,21.49,73.87h-11.42a75.67,75.67,0,0,0-11.28-22.47c-1.08-1.41-5.12-1.12-6.24-2.5-6.85-8.4-14.28-15.61-19.41-15.32l1.23,39,2,13.9c1,7.19-28.39,69.94-28.39,69.94l-18.5-7.27s19.28-51.68,19.5-59.13l-15.44-81.93Z" style="fill:#2f2e41"/><path d="M1869.28,1504.93a3.41,3.41,0,0,1-1.14,1,8.1,8.1,0,0,1-2.39.89c-13.15,3-56.12,9.18-67.28,6.22-1.37-.35-2.26-.86-2.55-1.52-.94-2.09-.82-10.93-.27-21.6.1-2,2.3-4.17,2.44-6.26.09-1.57-1.89-3-1.78-4.64.72-10.79,1.66-21.79,2.29-28.74.4-4.47.67-7.26.67-7.26l-6.78-42.79.31-.52.36-.18,21.88-10.83,1.19-3a4.73,4.73,0,0,1,4.37-3l14.41-.06a4.71,4.71,0,0,1,3.83,1.94l3.91,5.41,25.82,16.55-.1.31-12.12,36.87-.06,2.87h0l-.45,23.1,1.25,3.13-1.41,5.14a23.32,23.32,0,0,0,4.13,10.47c3.15,4,7.16,8.27,9,11.7h0C1869.79,1502,1870.13,1503.69,1869.28,1504.93Z" style="fill:#6c63ff"/><path id="e9cec503-1de8-4692-84d1-4d2e854ea0bd-97" d="M1888.71,1572.67l-3.13,3.94s-28.72,20.1-29.7,22l-4.54,4.29-11-11.74,5.71-7.16a45,45,0,0,1,17.2-13.17h0l8.76-7.76Z" style="fill:#2f2e41"/><path d="M1870.46,1516.27l-5.23-50.63-1.38-20.83,14.63-2.65s-.58,14.9,1.34,23.31.25,49.69.14,50.8a7.12,7.12,0,1,1-10.06.56,5.92,5.92,0,0,1,.56-.56Z" style="fill:#a0616a"/><path d="M1884.74,1476.14l-18.82,3.89-1.65-6.56-1.91-2-3.84-20.08L1853,1439.6l1.42-40.21,14,7.4,0,0c2.13,2.32,3.6,5.63,6,9,7.71,10.5,8.57,36,8.34,50,0,.23.22.47.5.72a7.76,7.76,0,0,1,1.41,9.69Z" style="fill:#6c63ff"/><path d="M1785.25,1518.26l5.23-50.63,1.38-20.84-14.64-2.64s.58,14.9-1.34,23.3-.25,49.7-.13,50.8a7.12,7.12,0,1,0,10.06.56c-.18-.19-.37-.38-.56-.55Z" style="fill:#a0616a"/><path d="M1802.68,1441.59l-4.08,8.72-1.42,3-3.83,20.07-1.92,2-1.64,6.56-.78-.16-14-2.9-4.07-.84a7.74,7.74,0,0,1,1.4-9.68c.28-.25.51-.5.51-.73-.23-14,.62-39.46,8.33-50,2.45-3.33,3.92-6.65,6.06-9v0l5.21-8.52.31-.52.36-.18Z" style="fill:#6c63ff"/><circle id="e944ea38-edcc-43c9-bf24-dbaf21228ba4" cx="1827.39" cy="1359.36" r="19.18" style="fill:#a0616a"/><path d="M1848.94,1351c-.06-3.27-.43-7.46-2.72-10.79-1.94-2.81-5.84-5-9.47-3.92a3.93,3.93,0,0,0-2-3.63,10.36,10.36,0,0,0-4.49-1.13c-3.69-.35-7.51-.71-11.25,0-4.19.8-7.62,3-9.4,5.93l0,.09-.36,1.76a1.67,1.67,0,0,1-2.23,1.23,1.51,1.51,0,0,0-2,1.64l.1.7-1-.2a1.51,1.51,0,0,0-1.77,1.2,1.44,1.44,0,0,0,.07.82l.29.8a1.64,1.64,0,0,0-1.16.51,1.48,1.48,0,0,0-.2,1.74,13.77,13.77,0,0,0,4.86,4.88,11.36,11.36,0,0,0,2.89,1.24l.66.16a68.32,68.32,0,0,0,24.73.74,13.91,13.91,0,0,0-.55,5,5.24,5.24,0,0,0,3.15,4.43,6.76,6.76,0,0,0,1.16.28,7.06,7.06,0,0,1,1.1.27,3.22,3.22,0,0,1,1.92,4.13,3.3,3.3,0,0,1-1,1.38s1.74,1.44,2,1.36a4.4,4.4,0,0,0,2-1.81C1847.51,1365,1849.1,1358.69,1848.94,1351Z" style="fill:#2f2e41"/><path d="M1414.23,1464.8h-83.82a27.44,27.44,0,0,1,27.44-27.44c15.28-4.76,35.2-3.24,56.38,0Z" style="fill:#ff6584"/><path d="M1402.26,1458.81h39.41a2.5,2.5,0,0,1,2.5,2.5h0a2.5,2.5,0,0,1-2.5,2.49h-39.41v-5Z" style="fill:#3f3d56"/><path d="M1409.08,1413.87l10.57-12.8a2.77,2.77,0,0,1,5.17.44l4.16,14.71Z" style="fill:#3f3d56"/><path d="M1396.27,1420.39l4-16.11a2.78,2.78,0,0,1,4.85-1.84l10.12,11.47Z" style="fill:#ff6584"/><path d="M1330.41,1464.8h8v17a8,8,0,0,1-8,8h0V1464.8Z" style="fill:#ff6584"/><path d="M1400.76,1459.81h39.41a2.5,2.5,0,0,1,2.5,2.49h0a2.5,2.5,0,0,1-2.5,2.5h-39.41v-5Z" style="fill:#ff6584"/><circle cx="1414.23" cy="1437.86" r="26.94" style="fill:#ff6584"/><ellipse cx="1440.17" cy="1439.85" rx="2.99" ry="6.98" style="fill:#3f3d56"/><ellipse cx="1432.94" cy="1432.62" rx="0.75" ry="1.75" style="fill:#3f3d56"/><ellipse cx="1438.43" cy="1429.13" rx="0.75" ry="1.75" style="fill:#3f3d56"/><path d="M1412,1410.61s-1.5-2.6-1.5-4.19" style="fill:#3f3d56"/><path d="M1412.63,1408.93s.82-2.89,1.95-4" style="fill:#3f3d56"/><ellipse cx="2378.76" cy="1530.24" rx="58.89" ry="73.71" style="fill:#f2f2f2"/><path d="M2389,1624.71h0a1.46,1.46,0,0,0-2-.61l-5.89,3.1-2-115.79h-.17l-3.07,167H2382l-.84-47.91,7.2-3.79A1.45,1.45,0,0,0,2389,1624.71Z" style="fill:#ccc"/><path d="M2484,1624.71h0a1.46,1.46,0,0,0-2-.61l-5.89,3.1-2-115.79h-.17l-3.07,167H2477l-.84-47.91,7.2-3.79A1.45,1.45,0,0,0,2484,1624.71Z" style="fill:#ccc"/><circle cx="2274.7" cy="1486.28" r="142.4" style="fill:#dcff7f"/><circle cx="2274.7" cy="1297.28" r="142.4" style="fill:#d5ff9f"/><path d="M2275.15,1713.23V1515.38l39.26-24.33a15.17,15.17,0,0,0,6.64-8.85h0a15.19,15.19,0,0,0-10.87,2l-35,21.7V1359.2l39.26-24.33a15.18,15.18,0,0,0,6.64-8.84h0a15.24,15.24,0,0,0-10.87,2l-35,21.7v-56.89a134.59,134.59,0,0,0-4-32.65,134.59,134.59,0,0,0-4,32.65v92.86l-51.68-32a25.27,25.27,0,0,0-13.75-3.79,25.26,25.26,0,0,0,9.52,10.62l55.91,34.65v318.06" style="fill:#ccc"/></svg>