<svg id="Layer_1" data-name="Layer 1" xmlns="http://www.w3.org/2000/svg" viewBox="0 0 856.96 783.14"><circle cx="433.8" cy="331.4" r="142.4" style="fill:#dcff7f"/><circle cx="433.8" cy="142.4" r="142.4" style="fill:#d5ff9f"/><path d="M443.25,802.11V604.26l39.26-24.33a15.21,15.21,0,0,0,6.64-8.85h0a15.22,15.22,0,0,0-10.88,2l-35,21.71V448.08l39.26-24.33a15.21,15.21,0,0,0,6.64-8.85h0a15.23,15.23,0,0,0-10.88,2l-35,21.7V381.73a134.59,134.59,0,0,0-4-32.65,134.59,134.59,0,0,0-4,32.65v92.86l-51.68-32a25.28,25.28,0,0,0-13.75-3.8,25.34,25.34,0,0,0,9.52,10.63l55.91,34.65V802.11" transform="translate(-6 -33.76)" style="fill:#ccc"/><path d="M440.25,592.11V394.26l39.26-24.33a15.21,15.21,0,0,0,6.64-8.85h0a15.22,15.22,0,0,0-10.88,2l-35,21.71V238.08l39.26-24.33a15.21,15.21,0,0,0,6.64-8.85h0a15.23,15.23,0,0,0-10.88,2l-35,21.7V171.73a134.59,134.59,0,0,0-4-32.65,134.59,134.59,0,0,0-4,32.65v92.86l-51.68-32a25.28,25.28,0,0,0-13.75-3.8,25.34,25.34,0,0,0,9.52,10.63l55.91,34.65V592.11" transform="translate(-6 -33.76)" style="fill:#ccc"/><rect y="359.24" width="328" height="420" style="fill:#e6e6e6"/><rect x="13.73" y="384.52" width="283.77" height="179.66" style="fill:#fff"/><rect x="13.73" y="556.81" width="283.78" height="192.56" style="fill:#fff"/><rect x="148.25" y="383.6" width="14.74" height="180.58" style="fill:#3f3d56"/><rect x="282.76" y="383.6" width="14.74" height="180.58" style="fill:#3f3d56"/><rect x="13.73" y="549.44" width="283.77" height="14.74" style="fill:#3f3d56"/><polygon points="53.83 481.26 28.47 498.31 28.47 512.41 66.89 481.26 53.83 481.26" style="fill:#fff"/><polygon points="95.62 481.26 28.47 533.83 28.47 545.84 115.99 481.26 95.62 481.26" style="fill:#e6e6e6"/><rect x="13.73" y="383.6" width="14.74" height="180.58" style="fill:#3f3d56"/><polygon points="256.5 398.34 199.84 470.2 217.35 472.05 266.18 395.57 256.5 398.34" style="fill:#e6e6e6"/><rect x="13.73" y="383.6" width="283.77" height="14.74" style="fill:#3f3d56"/><rect x="13.73" y="466.52" width="283.77" height="14.74" style="fill:#3f3d56"/><rect x="528.96" y="359.19" width="328" height="420" style="fill:#e6e6e6"/><rect x="550.71" y="383.99" width="283.77" height="179.66" style="fill:#fff"/><rect x="550.71" y="556.28" width="283.77" height="192.56" style="fill:#fff"/><rect x="685.22" y="383.07" width="14.74" height="180.58" style="fill:#3f3d56"/><rect x="819.74" y="383.07" width="14.74" height="180.58" style="fill:#3f3d56"/><rect x="550.71" y="548.91" width="283.77" height="14.74" style="fill:#3f3d56"/><polygon points="590.81 480.73 565.45 497.78 565.45 511.88 603.87 480.73 590.81 480.73" style="fill:#e6e6e6"/><polygon points="632.6 480.73 565.45 533.3 565.45 545.31 652.97 480.73 632.6 480.73" style="fill:#e6e6e6"/><rect x="550.71" y="383.07" width="14.74" height="180.58" style="fill:#3f3d56"/><polygon points="793.48 397.81 736.82 469.68 754.32 471.52 803.15 395.05 793.48 397.81" style="fill:#e6e6e6"/><rect x="550.71" y="383.07" width="283.77" height="14.74" style="fill:#3f3d56"/><rect x="550.71" y="465.99" width="283.77" height="14.74" style="fill:#3f3d56"/><circle cx="516.08" cy="456.58" r="17.31" style="fill:#f2f2f2"/><rect x="553.23" y="641.02" width="3.87" height="2.02" rx="1.01" style="fill:#fff"/><rect x="574.31" y="641.02" width="3.87" height="2.02" rx="1.01" style="fill:#fff"/><rect x="580.28" y="641.02" width="3.87" height="2.02" rx="1.01" style="fill:#fff"/><rect x="558.96" y="640.85" width="13.48" height="2.02" rx="1.01" style="fill:#fff"/><rect x="558.85" y="645.58" width="3.87" height="2.02" rx="1.01" style="fill:#fff"/><rect x="579.93" y="645.58" width="3.87" height="2.02" rx="1.01" style="fill:#fff"/><rect x="585.9" y="645.58" width="3.87" height="2.02" rx="1.01" style="fill:#fff"/><rect x="564.58" y="645.42" width="13.48" height="2.02" rx="1.01" style="fill:#fff"/><rect x="564.47" y="650.15" width="3.87" height="2.02" rx="1.01" style="fill:#fff"/><rect x="585.55" y="650.15" width="3.87" height="2.02" rx="1.01" style="fill:#fff"/><rect x="570.21" y="649.98" width="13.48" height="2.02" rx="1.01" style="fill:#fff"/><rect x="570.09" y="654.72" width="3.87" height="2.02" rx="1.01" style="fill:#fff"/><rect x="575.83" y="654.55" width="13.48" height="2.02" rx="1.01" style="fill:#fff"/><rect x="558.85" y="668.31" width="3.87" height="2.02" rx="1.01" style="fill:#fff"/><rect x="579.93" y="668.31" width="3.87" height="2.02" rx="1.01" style="fill:#fff"/><rect x="585.9" y="668.31" width="3.87" height="2.02" rx="1.01" style="fill:#fff"/><rect x="564.58" y="668.48" width="13.48" height="2.02" rx="1.01" style="fill:#fff"/><rect x="564.47" y="663.75" width="3.87" height="2.02" rx="1.01" style="fill:#fff"/><rect x="585.55" y="663.75" width="3.87" height="2.02" rx="1.01" style="fill:#fff"/><rect x="570.21" y="663.91" width="13.48" height="2.02" rx="1.01" style="fill:#fff"/><rect x="570.09" y="659.18" width="3.87" height="2.02" rx="1.01" style="fill:#fff"/><rect x="575.83" y="659.35" width="13.48" height="2.02" rx="1.01" style="fill:#fff"/><ellipse cx="294.24" cy="533.16" rx="3.86" ry="3.94" style="fill:#3f3d56"/><path d="M631.24,788.8l.52-11.63a37.48,37.48,0,0,1,17.53-4.44c-8.42,6.88-7.37,20.15-13.08,29.41a22.59,22.59,0,0,1-16.57,10.44l-7,4.31a37.87,37.87,0,0,1,8-30.69A36.53,36.53,0,0,1,627.3,780C629,784.4,631.24,788.8,631.24,788.8Z" transform="translate(-6 -33.76)" style="fill:#f2f2f2"/><path d="M253.25,776.05l-17-5.15a57.27,57.27,0,0,1,.05-27.57c7,15,27,18.47,38.53,30.39a34.49,34.49,0,0,1,9.2,28.44l3.72,12a57.74,57.74,0,0,1-42.36-23.36,55.93,55.93,0,0,1-6.7-12.29C245.9,777.72,253.25,776.05,253.25,776.05Z" transform="translate(-6 -33.76)" style="fill:#f2f2f2"/><path d="M618,815a1.33,1.33,0,0,1-.39.94,1.31,1.31,0,0,1-.93.39h-5.32A1.33,1.33,0,0,1,610,815h0V654c0-3.54-1.19-6.42-2.65-6.43H208.52c-1.47,0-2.66,2.89-2.66,6.43V814a1.32,1.32,0,0,1-1.2,1.31c-1.07.11-2.15.2-3.21.29h-.08c-.59.06-1.17.1-1.75.14h0c-.3-.55-.59-1.11-.89-1.67a1.32,1.32,0,0,1-.15-.62V645.68c0-1,0-2,.11-2.94a35.65,35.65,0,0,1,.5-4c1.11-6.15,3.64-10.31,6.52-10.33H610.2a3.22,3.22,0,0,1,1.22.26,4.9,4.9,0,0,1,1.5,1.05,9.71,9.71,0,0,1,1.48,2,26.77,26.77,0,0,1,2.79,10.55v.12c.09,1.07.14,2.16.13,3.26l.1,14.18.06,8.46.18,26.55.06,9.43Z" transform="translate(-6 -33.76)" style="fill:#e6e6e6"/><path d="M426.62,581.39H394.29a1.73,1.73,0,0,0-1.73,1.73V634.2h35.79V583.12a1.74,1.74,0,0,0-1.73-1.73Zm-16.06,29a3.84,3.84,0,0,1-3.82-3.81v-5.89a3.82,3.82,0,1,1,7.64,0v5.89a3.83,3.83,0,0,1-3.82,3.81Z" transform="translate(-6 -33.76)" style="fill:#2f2e41"/><path d="M480.16,501.68H342a4.49,4.49,0,0,0-4.48,4.48v93.27a4.49,4.49,0,0,0,4.48,4.48H480.16a4.49,4.49,0,0,0,4.48-4.48V506.16A4.5,4.5,0,0,0,480.16,501.68Z" transform="translate(-6 -33.76)" style="fill:#3f3d56"/><path d="M479,504.92H343.1a2.39,2.39,0,0,0-2.39,2.4v90.95a2.4,2.4,0,0,0,2.39,2.4H479a2.41,2.41,0,0,0,2.4-2.4V507.32A2.39,2.39,0,0,0,479,504.92Z" transform="translate(-6 -33.76)" style="fill:#fff"/><path d="M392.45,632.56v4.93a1,1,0,0,0,1,1h34.07a1,1,0,0,0,1-1v-4.93Z" transform="translate(-6 -33.76)" style="fill:#3f3d56"/><path d="M452.53,640.17H371.68a1.49,1.49,0,0,1-1.49-1.49,1.15,1.15,0,0,1,0-.31l1.25-6a1.49,1.49,0,0,1,1.45-1.18h78.35a1.5,1.5,0,0,1,1.46,1.18l1.25,6a1.5,1.5,0,0,1-1.15,1.77A1.55,1.55,0,0,1,452.53,640.17Z" transform="translate(-6 -33.76)" style="fill:#2f2e41"/><rect x="367.51" y="598.55" width="2.49" height="1.49" rx="0.32" style="fill:#3f3d56"/><rect x="372.49" y="598.55" width="2.49" height="1.49" rx="0.32" style="fill:#3f3d56"/><rect x="377.47" y="598.55" width="2.49" height="1.49" rx="0.32" style="fill:#3f3d56"/><rect x="382.45" y="598.55" width="2.49" height="1.49" rx="0.32" style="fill:#3f3d56"/><rect x="387.43" y="598.55" width="2.49" height="1.49" rx="0.32" style="fill:#3f3d56"/><rect x="392.41" y="598.55" width="2.49" height="1.49" rx="0.32" style="fill:#3f3d56"/><rect x="397.39" y="598.55" width="2.49" height="1.49" rx="0.32" style="fill:#3f3d56"/><rect x="402.37" y="598.55" width="2.49" height="1.49" rx="0.32" style="fill:#3f3d56"/><rect x="407.35" y="598.55" width="2.49" height="1.49" rx="0.32" style="fill:#3f3d56"/><rect x="412.33" y="598.55" width="2.49" height="1.49" rx="0.32" style="fill:#3f3d56"/><rect x="417.31" y="598.55" width="2.49" height="1.49" rx="0.32" style="fill:#3f3d56"/><rect x="422.29" y="598.55" width="2.49" height="1.49" rx="0.32" style="fill:#3f3d56"/><rect x="427.27" y="598.55" width="2.49" height="1.49" rx="0.32" style="fill:#3f3d56"/><rect x="432.25" y="598.55" width="2.49" height="1.49" rx="0.32" style="fill:#3f3d56"/><rect x="437.24" y="598.55" width="2.49" height="1.49" rx="0.32" style="fill:#3f3d56"/><rect x="442.22" y="598.55" width="2.49" height="1.49" rx="0.32" style="fill:#3f3d56"/><rect x="367.45" y="601.04" width="2.49" height="1.49" rx="0.32" style="fill:#3f3d56"/><rect x="372.43" y="601.04" width="2.49" height="1.49" rx="0.32" style="fill:#3f3d56"/><rect x="377.41" y="601.04" width="2.49" height="1.49" rx="0.32" style="fill:#3f3d56"/><rect x="382.39" y="601.04" width="2.49" height="1.49" rx="0.32" style="fill:#3f3d56"/><rect x="387.37" y="601.04" width="2.49" height="1.49" rx="0.32" style="fill:#3f3d56"/><rect x="392.35" y="601.04" width="2.49" height="1.49" rx="0.32" style="fill:#3f3d56"/><rect x="397.33" y="601.04" width="2.49" height="1.49" rx="0.32" style="fill:#3f3d56"/><rect x="402.31" y="601.04" width="2.49" height="1.49" rx="0.32" style="fill:#3f3d56"/><rect x="407.29" y="601.04" width="2.49" height="1.49" rx="0.32" style="fill:#3f3d56"/><rect x="412.27" y="601.04" width="2.49" height="1.49" rx="0.32" style="fill:#3f3d56"/><rect x="417.25" y="601.04" width="2.49" height="1.49" rx="0.32" style="fill:#3f3d56"/><rect x="422.24" y="601.04" width="2.49" height="1.49" rx="0.32" style="fill:#3f3d56"/><rect x="427.22" y="601.04" width="2.49" height="1.49" rx="0.32" style="fill:#3f3d56"/><rect x="432.2" y="601.04" width="2.49" height="1.49" rx="0.32" style="fill:#3f3d56"/><rect x="437.18" y="601.04" width="2.49" height="1.49" rx="0.32" style="fill:#3f3d56"/><rect x="442.16" y="601.04" width="2.49" height="1.49" rx="0.32" style="fill:#3f3d56"/><rect x="391.36" y="604.03" width="19.92" height="1.49" rx="0.32" style="fill:#3f3d56"/><path d="M472.17,517.45H345a.5.5,0,0,1-.49-.52.49.49,0,0,1,.49-.49H472.17a.51.51,0,0,1,0,1Z" transform="translate(-6 -33.76)" style="fill:#cacaca"/><ellipse cx="347.67" cy="477.07" rx="2.96" ry="3.03" style="fill:#3f3d56"/><ellipse cx="357.91" cy="477.07" rx="2.96" ry="3.03" style="fill:#3f3d56"/><ellipse cx="368.14" cy="477.07" rx="2.96" ry="3.03" style="fill:#3f3d56"/><path d="M466,508.55h-7.27a.55.55,0,0,0,0,1.1H466a.55.55,0,0,0,.54-.56A.54.54,0,0,0,466,508.55Z" transform="translate(-6 -33.76)" style="fill:#3f3d56"/><path d="M466,510.62h-7.27a.54.54,0,0,0-.54.56.55.55,0,0,0,.54.54H466a.55.55,0,0,0,.54-.56A.54.54,0,0,0,466,510.62Z" transform="translate(-6 -33.76)" style="fill:#3f3d56"/><path d="M466,512.68h-7.27a.55.55,0,0,0-.54.56.54.54,0,0,0,.54.54H466a.55.55,0,0,0,0-1.1Z" transform="translate(-6 -33.76)" style="fill:#3f3d56"/><rect x="394.7" y="513.24" width="20.21" height="4.32" rx="2.16" style="fill:#6c63ff"/><rect x="384.44" y="521.88" width="40.74" height="4.32" rx="2.16" style="fill:#e6e6e6"/><rect x="384.44" y="530.52" width="40.74" height="4.32" rx="2.16" style="fill:#e6e6e6"/><path d="M346.25,646.67H306.53a5.3,5.3,0,0,0,0,10.59H321.1v41h10.59v-41h14.56a5.3,5.3,0,1,0,0-10.59Z" transform="translate(-6 -33.76)" style="fill:#3f3d56"/><path d="M372.47,721H266.23a42.91,42.91,0,0,1-42.32-36.83l-3.76-13.84A310.39,310.39,0,0,0,184.94,589c-7.11-11.56-10.78-22.74-2.46-33.51l.21-.27c6.67-8.69,39.88-10.57,50.7-10.93.43,0,.86,0,1.29,0h66.09c.43,0,.86,0,1.28,0a32.34,32.34,0,0,1,28,17.82,33.3,33.3,0,0,1-1.89,34.12c-23.21,34.87-30.32,56.73-23,70.89,7,13.7,28.61,20.7,67.9,22,10.55.36,15.4,8.58,15.43,16.06,0,7.29-4.62,15.34-14.93,15.79Z" transform="translate(-6 -33.76)" style="fill:#3f3d56"/><path d="M284.27,815.38H324a5.3,5.3,0,0,0,0-10.59H309.43V715.41H298.84v89.38H284.27a5.3,5.3,0,0,0,0,10.59Z" transform="translate(-6 -33.76)" style="fill:#3f3d56"/><path d="M281.1,547.59l.83,5.06c.4,2.46,1.83,19.79.77,21.86-.09-3.86-7.28-9.93-11.94-8.55l-7.31,1.63-4.54,1-3.69.81-10.73,2.34c0-.12,0-.26-.05-.38l-.09-.47a9.18,9.18,0,0,0-1.08-2.86,7,7,0,0,1-1,3.36l0,.09a7.82,7.82,0,0,1-.63.88l0,0s-2.2-35.15-2-35.47l.51-.68c.18-.22.35-.44.54-.66l.06-.07a21,21,0,0,1,1.64-1.76l.52-.49a24.43,24.43,0,0,1,9.39-5.41c.39-.13.8-.24,1.22-.35l1.25-.29.14,0,.61-.11.76-.11a24.6,24.6,0,0,1,9.74.54h0a25,25,0,0,1,7.46,3.32c4,2.62,5.51,6.88,6.6,11.67C280.43,544.16,280.75,545.87,281.1,547.59Z" transform="translate(-6 -33.76)" style="fill:#2f2e41"/><polygon points="314.23 745.59 321.07 749.31 339.18 724.26 329.08 718.78 314.23 745.59" style="fill:#ffb6b6"/><path d="M323.52,770.42l12.42,3.89-2,5.21,8.51,12.36a3.48,3.48,0,0,1-4.09,5.23l-14.47-5.5-.53-6.09-2.93,4.77L315,788.22Z" transform="translate(-6 -33.76)" style="fill:#2f2e41"/><path d="M359,667.32a7.72,7.72,0,0,1-9.5-7l-58.36-21L301.84,630l55.4,22.06A7.73,7.73,0,0,1,359,667.32Z" transform="translate(-6 -33.76)" style="fill:#ffb6b6"/><path d="M274.82,587.32s-9.83.21-10.7,11.44,20.57,39,23.9,43.56,40.23,10.21,40.23,10.21l12.55-9.11c-13.18-8.54-25.22-15.1-33.29-14.8Z" transform="translate(-6 -33.76)" style="fill:#6c63ff"/><path d="M262.77,636.84l2.39,10.29s0,9.49,1.71,11.24,38.36-1.76,38.36-1.76-3.89-15.29-3.83-26.86Z" transform="translate(-6 -33.76)" style="fill:#ffb6b6"/><path d="M340.3,768.48l-13.25-7.28c-.25-17.23,10.12-40.54,22.41-65C322,701,296,702.48,273.6,696.76a14.51,14.51,0,0,1-10.37-17.52c.09-.36.19-.72.31-1.08,2.68-8.19-3.34-13.32,2.2-22.33,14.56-5,28.39-6.38,41-2l7.93,17.53L354,666.28A14.5,14.5,0,0,1,370.1,679v.11c.06.42.09.85.11,1.28C362.27,717.58,353.37,751.09,340.3,768.48Z" transform="translate(-6 -33.76)" style="fill:#2f2e41"/><circle cx="255.29" cy="515.87" r="16.42" style="fill:#ffb6b6"/><path d="M257.43,571.68l15.14-.9a3.09,3.09,0,0,1,3,1.9l4.28,10.37,17.77,14.69s7,9,7.06,20.52,2.49,38.34,2.49,38.34S296.92,642.14,290.58,646c-1.08.65-1.46,2-2.59,2.67-.56.33-1.86,0-2.43.34-8.74,5.19-17.85,10.26-18.7,9.37-1.67-1.75-3.7-10.66-3.7-10.66l-13.85-50.9A18.86,18.86,0,0,1,252,580.94c1-1.36,2-2.37,2.92-2.54C257,578,255.9,573.21,257.43,571.68Z" transform="translate(-6 -33.76)" style="fill:#6c63ff"/><polygon points="380.18 767.15 386.57 762.71 372.1 735.41 362.67 741.96 380.18 767.15" style="fill:#ffb6b6"/><path d="M387.14,782.59l-10,8.95c-15.92-17.74-27.95-42.62-38.15-70.87-26.73-7.83-46.88-20.45-64.47-35.44-6-5.05-10.45-11.54-5.36-17.69q.36-.43.75-.84c6-6.17,21.25-5,30.18-10.65L320,677.36l-1.25,5.72,37.45,12.68a14.48,14.48,0,0,1,8.87,18.44l0,.11c-.14.41-.3.81-.47,1.2Z" transform="translate(-6 -33.76)" style="fill:#2f2e41"/><path d="M382.45,799.11l10.23-8.05,3.18,4.57,15,0a3.48,3.48,0,0,1,2,6.33l-12.7,8.83-5.34-3,2.29,5.12-4.79,3.33Z" transform="translate(-6 -33.76)" style="fill:#2f2e41"/><path d="M279.78,700a7.69,7.69,0,0,1-3.43-11.28L242.08,637l14.16-1.07,31.25,50.78A7.73,7.73,0,0,1,279.78,700Z" transform="translate(-6 -33.76)" style="fill:#ffb6b6"/><path d="M260.08,585.52s-8-5.7-15.42,2.78-6.78,43.55-6.85,49.21c0,1.77,2.53,5.59,6.06,10,1.58,2,3.36,4.09,5.18,6.18,1.06,1.2.15,3.72,1.21,4.9s4.08,1,5.08,2.08c4.77,5.14,8.63,9.06,8.63,9.06l15.51.19c.17-11.52-7.72-21.81-17.86-31.75Z" transform="translate(-6 -33.76)" style="fill:#6c63ff"/><path d="M281.82,541.65c-.61.3-1.2.59-1.78.86a54.59,54.59,0,0,1-7.18,2.93,9,9,0,0,0-1.84-3,7.19,7.19,0,0,1-.31,3.59,20.24,20.24,0,0,1-11.28-.43c2.39,4.41,4.15,13.71,4,22-.06,4.38-.65,8.48-1.95,11.43L259.84,574a32.38,32.38,0,0,0-.93-5.35c-1.12-4.93-2.16-1.64-3.69.81l-10.73,2.34c0-.12,0-.26-.05-.38l-.09-.47a9.18,9.18,0,0,0-1.08-2.86,7,7,0,0,1-1,3.36l0,.09a7.82,7.82,0,0,1-.63.88l0,0c-6.93.93-11.78-34.8-2-35.47.28,0,.34-.45.51-.68s.35-.44.54-.66l.06-.07c.52-.61,1.06-1.19,1.64-1.76l.52-.49a24.84,24.84,0,0,1,9.39-5.41c.39-.12.8-.24,1.22-.35l1.25-.29.14,0,.61-.11.76-.11a6.14,6.14,0,0,1,2.34,2l6.86-1.4a4.85,4.85,0,0,1,.55-.09h0C274.54,526.08,280,533,281.82,541.65Z" transform="translate(-6 -33.76)" style="fill:#2f2e41"/><path d="M244.45,535.33a11.44,11.44,0,0,1-4.8,2.42c-1.79.26-3.89-.61-4.38-2.35-.61-2.13,1.31-4.07,3-5.45l5.48-4.39a13.24,13.24,0,0,1,3.36-2.17,4.45,4.45,0,0,1,3.87.13,4.16,4.16,0,0,1,1.83,3.63,7.62,7.62,0,0,1-1.35,4,14,14,0,0,1-9.07,6.17" transform="translate(-6 -33.76)" style="fill:#2f2e41"/><path d="M286,649.32H246.29a5.3,5.3,0,1,0,0,10.59h14.56V701h10.59V659.91H286a5.3,5.3,0,0,0,0-10.59Z" transform="translate(-6 -33.76)" style="fill:#3f3d56"/><polygon points="511.29 695.61 517.75 702.66 548.01 681.07 538.47 670.67 511.29 695.61" style="fill:#a0616a"/><path d="M530.67,739.34h0l-.66-7-.29-.14-1.74-.83-8.22-3.89-.17-.18-1.65-1.8-9.13,8.38,12.37,13.48,8.48,9.24.28-.26a12,12,0,0,0,.74-16.95Z" transform="translate(-6 -33.76)" style="fill:#2f2e41"/><polygon points="477.79 765.91 486.94 768.69 502.01 734.71 488.51 730.61 477.79 765.91" style="fill:#a0616a"/><path d="M507.48,807.27a11.89,11.89,0,0,0-7.1-5.82l-4.15-5.73-.32,0-11,1-.25-.07-2.33-.71-3.6,11.86,29.51,9,.11-.37A12,12,0,0,0,507.48,807.27Z" transform="translate(-6 -33.76)" style="fill:#2f2e41"/><path id="b2eb929e-713e-4b71-a146-193a455bcc79-96" d="M559.24,621.78s58.43,56.41,21.49,73.87H569.32A75.44,75.44,0,0,0,558,673.19c-1.08-1.41-5.12-1.13-6.24-2.5-6.85-8.4-14.28-15.62-19.41-15.33l1.23,39,2,13.9c1,7.19-28.39,69.94-28.39,69.94l-18.5-7.27s19.27-51.69,19.5-59.14l-15.45-81.93Z" transform="translate(-6 -33.76)" style="fill:#2f2e41"/><path d="M564.12,624.56a3.54,3.54,0,0,1-1.14,1,7.91,7.91,0,0,1-2.39.88c-13.16,3-56.13,9.18-67.28,6.23-1.38-.36-2.27-.86-2.56-1.53-.93-2.09-.81-10.93-.27-21.6.1-2,2.31-4.16,2.44-6.25.09-1.57-1.89-3.05-1.78-4.65.73-10.79,1.67-21.78,2.3-28.73.39-4.47.67-7.27.67-7.27l-6.79-42.78.32-.53.36-.18,21.88-10.83,1.19-3a4.7,4.7,0,0,1,4.36-3l14.41-.06a4.71,4.71,0,0,1,3.84,2l3.9,5.41,25.82,16.55-.1.3-12.11,36.87-.06,2.88h0l-.45,23.11,1.25,3.13-1.41,5.14a23.36,23.36,0,0,0,4.12,10.46c3.15,4,7.17,8.28,9,11.71h0C564.63,621.68,565,623.32,564.12,624.56Z" transform="translate(-6 -33.76)" style="fill:#6c63ff"/><path id="e9cec503-1de8-4692-84d1-4d2e854ea0bd-97" d="M583.54,692.3l-3.12,4s-28.72,20.09-29.71,22l-4.54,4.29-11-11.74,5.71-7.15a44.8,44.8,0,0,1,17.2-13.17h0l8.75-7.77Z" transform="translate(-6 -33.76)" style="fill:#2f2e41"/><path d="M565.29,635.9l-5.23-50.62-1.38-20.84,14.64-2.64s-.58,14.89,1.34,23.3.25,49.69.13,50.8a7.12,7.12,0,1,1-10.06.56c.18-.19.36-.38.56-.56Z" transform="translate(-6 -33.76)" style="fill:#a0616a"/><path d="M579.57,595.77l-18.82,3.89-1.64-6.55-1.92-2L553.36,571l-5.5-11.76L549.29,519l14,7.41h0c2.14,2.32,3.61,5.64,6.06,9,7.71,10.49,8.56,36,8.33,50,0,.23.23.47.5.73a7.73,7.73,0,0,1,1.41,9.68Z" transform="translate(-6 -33.76)" style="fill:#6c63ff"/><path d="M480.08,637.89l5.23-50.62,1.38-20.84-14.64-2.65s.58,14.9-1.33,23.31-.25,49.69-.14,50.8a7.12,7.12,0,1,0,10.06.56,7.4,7.4,0,0,0-.56-.56Z" transform="translate(-6 -33.76)" style="fill:#a0616a"/><path d="M497.52,561.22,493.44,570,492,573l-3.83,20.08-1.91,2-1.65,6.56-.78-.16-14-2.89-4.08-.84a7.75,7.75,0,0,1,1.41-9.69c.28-.25.51-.49.5-.73-.23-14,.62-39.45,8.34-50,2.45-3.33,3.92-6.64,6.05-9h0l5.2-8.52.32-.53.36-.18Z" transform="translate(-6 -33.76)" style="fill:#6c63ff"/><circle id="e944ea38-edcc-43c9-bf24-dbaf21228ba4" cx="516.22" cy="445.24" r="19.18" style="fill:#a0616a"/><path d="M543.78,470.58c-.07-3.27-.44-7.45-2.73-10.79-1.93-2.81-5.83-5-9.47-3.92a3.93,3.93,0,0,0-2-3.63,10.33,10.33,0,0,0-4.49-1.13c-3.69-.34-7.51-.7-11.24,0-4.19.79-7.62,2.95-9.4,5.92l0,.1-.37,1.76a1.68,1.68,0,0,1-.82,1.12,1.64,1.64,0,0,1-1.4.1,1.51,1.51,0,0,0-1.95.89,1.48,1.48,0,0,0-.08.75l.1.7-1.06-.19a1.5,1.5,0,0,0-1.77,1.19,1.57,1.57,0,0,0,.07.83l.29.8a1.61,1.61,0,0,0-1.16.51,1.48,1.48,0,0,0-.19,1.73,13.85,13.85,0,0,0,4.85,4.89,11.4,11.4,0,0,0,2.9,1.23c.21.06.43.12.65.16a68.1,68.1,0,0,0,24.73.74,14.16,14.16,0,0,0-.55,5,5.28,5.28,0,0,0,3.16,4.44,6.41,6.41,0,0,0,1.15.27,6.91,6.91,0,0,1,1.11.27,3.23,3.23,0,0,1,1.91,4.14,3.16,3.16,0,0,1-1,1.37s1.73,1.44,2,1.37a4.45,4.45,0,0,0,2-1.82C542.34,484.65,543.94,478.32,543.78,470.58Z" transform="translate(-6 -33.76)" style="fill:#2f2e41"/><path d="M109.07,584.43H25.25A27.44,27.44,0,0,1,52.69,557c15.27-4.76,35.19-3.23,56.38,0Z" transform="translate(-6 -33.76)" style="fill:#ff6584"/><path d="M97.09,578.44h39.42a2.5,2.5,0,0,1,2.49,2.5h0a2.49,2.49,0,0,1-2.49,2.49H97.09v-5Z" transform="translate(-6 -33.76)" style="fill:#3f3d56"/><path d="M103.92,533.51l10.56-12.81a2.78,2.78,0,0,1,5.17.44l4.17,14.71Z" transform="translate(-6 -33.76)" style="fill:#3f3d56"/><path d="M91.1,540l4-16.12a2.77,2.77,0,0,1,4.85-1.83l10.11,11.46Z" transform="translate(-6 -33.76)" style="fill:#ff6584"/><path d="M25.25,584.43h8v17a8,8,0,0,1-8,8h0v-25Z" transform="translate(-6 -33.76)" style="fill:#ff6584"/><path d="M95.59,579.44H135a2.49,2.49,0,0,1,2.49,2.5h0a2.49,2.49,0,0,1-2.49,2.49H95.59v-5Z" transform="translate(-6 -33.76)" style="fill:#ff6584"/><circle cx="103.07" cy="523.73" r="26.94" style="fill:#ff6584"/><ellipse cx="129.01" cy="525.73" rx="2.99" ry="6.98" style="fill:#3f3d56"/><ellipse cx="121.77" cy="518.49" rx="0.75" ry="1.75" style="fill:#3f3d56"/><ellipse cx="127.26" cy="515" rx="0.75" ry="1.75" style="fill:#3f3d56"/><path d="M106.8,530.25s-1.49-2.61-1.49-4.19" transform="translate(-6 -33.76)" style="fill:#3f3d56"/><path d="M107.46,528.56s.82-2.89,2-4" transform="translate(-6 -33.76)" style="fill:#3f3d56"/></svg>