<svg id="Layer_1" data-name="Layer 1" xmlns="http://www.w3.org/2000/svg" xmlns:xlink="http://www.w3.org/1999/xlink" viewBox="0 0 233.52 233.52"><defs><linearGradient id="linear-gradient" x1="5.03" y1="1078.42" x2="5.59" y2="1078.89" gradientTransform="matrix(162.86, 0, 0, -162.86, -79.61, 176120.73)" gradientUnits="userSpaceOnUse"><stop offset="0" stop-color="#04f1d2"/><stop offset="1" stop-color="#28f806"/></linearGradient><linearGradient id="linear-gradient-2" x1="5.39" y1="1076.69" x2="6.03" y2="1077.21" xlink:href="#linear-gradient"/><linearGradient id="linear-gradient-3" x1="6.83" y1="1077.66" x2="7.55" y2="1078.25" xlink:href="#linear-gradient"/></defs><path d="M844.89,557.78A111.76,111.76,0,0,1,956.65,446" transform="translate(-839.89 -441.02)" style="fill:none;stroke-width:10px;stroke:url(#linear-gradient)"/><path d="M956.65,669.54A111.76,111.76,0,0,1,844.89,557.78" transform="translate(-839.89 -441.02)" style="fill:none;stroke-width:10px;stroke:url(#linear-gradient-2)"/><path d="M956.65,446a111.76,111.76,0,1,1,0,223.52" transform="translate(-839.89 -441.02)" style="fill:none;stroke-width:10px;stroke:url(#linear-gradient-3)"/><path d="M895.05,508.56h119.51A3.44,3.44,0,0,1,1018,512v10.38h-5V517a3,3,0,0,0-3-3H899.66a3,3,0,0,0-3,3v33.84a30.88,30.88,0,0,0-5,1.32V512A3.44,3.44,0,0,1,895.05,508.56Zm-1.73,68.93h.44v-1.36a8.4,8.4,0,0,1,2.33-5.83,7.76,7.76,0,0,1,11.32,0,8.4,8.4,0,0,1,2.33,5.83v1.36h.44a1.31,1.31,0,0,1,1.31,1.3v12.9a1.31,1.31,0,0,1-1.31,1.3H893.32a1.3,1.3,0,0,1-1.3-1.3v-12.9a1.3,1.3,0,0,1,1.3-1.3Zm7.4,8.33-1.36,3.56h4.78l-1.26-3.61a2.48,2.48,0,1,0-2.16.05Zm-4.49-8.33h11v-1.36a5.93,5.93,0,0,0-1.64-4.12,5.32,5.32,0,0,0-7.78,0,6,6,0,0,0-1.63,4.12ZM902.14,557a24.86,24.86,0,1,1-24.86,24.85A24.85,24.85,0,0,1,902.14,557Zm96.6-27.64h33.37a4.31,4.31,0,0,1,4.3,4.3v77.06a4.31,4.31,0,0,1-4.3,4.3H998.74a4.31,4.31,0,0,1-4.3-4.3V533.7A4.31,4.31,0,0,1,998.74,529.4Zm26.93,18.15h4V549h-4Zm-10.25,49.7a4.68,4.68,0,1,1-4.68,4.67A4.68,4.68,0,0,1,1015.42,597.25Zm-15.15-53.78h30.31a.89.89,0,0,1,.9.89v5.53a.9.9,0,0,1-.9.9h-30.31a.9.9,0,0,1-.9-.9v-5.53A.89.89,0,0,1,1000.27,543.47Zm-13,53.48H929.84a31.22,31.22,0,0,0,3.8-13.61h53.61V597Zm-48,4.74h31.17c.08,5.39,2.3,10.22,8.31,14H930.91c4.81-3.49,8.33-7.73,8.31-14Z" transform="translate(-839.89 -441.02)" style="fill-rule:evenodd"/></svg>