<svg id="Layer_1" data-name="Layer 1" xmlns="http://www.w3.org/2000/svg" xmlns:xlink="http://www.w3.org/1999/xlink" viewBox="0 0 233.39 233.39"><defs><linearGradient id="linear-gradient" x1="6.05" y1="1077.5" x2="6.64" y2="1078.45" gradientTransform="matrix(162.86, 0, 0, -162.86, -919.57, 175679.64)" gradientUnits="userSpaceOnUse"><stop offset="0" stop-color="#6861c4"/><stop offset="1" stop-color="#b204f1"/></linearGradient></defs><circle cx="116.69" cy="116.69" r="111.69" style="fill:none;stroke-width:10px;stroke:url(#linear-gradient)"/><path d="M954.74,473.36A19.37,19.37,0,0,1,966.39,477c4.55,2.9,9.66,8.59,16,12.22,9,5.1,25.37-1.92,33.79,10.62,4.92,7.32,5.14,13,5.51,18.71.4,6.11,1.48,11.73,7.72,20,10.36,13.69,12.51,22.8,7.17,32.31-3.62,6.46-11.29,10.06-13,14.17-3.78,8.73.4,15.31-4.78,25.47a27.12,27.12,0,0,1-16.54,14.08c-6.21,2-12.41-.88-17.42,1.2-8.74,3.68-15.17,12.21-22.14,14.37a27,27,0,0,1-16,0c-6.9-2.16-13.41-10.69-22.15-14.37-5-2.08-11.21.81-17.42-1.2a27.15,27.15,0,0,1-16.34-14.08c-5.19-10.16-1-16.74-4.79-25.47-1.77-4.14-9.44-7.71-13.13-14.17-5.34-9.51-3.17-18.62,7.18-32.31,6.25-8.28,7.32-13.9,7.72-20,.36-5.67.6-11.39,5.52-18.71,8.45-12.54,24.93-5.52,33.82-10.61,6.43-3.62,11.52-9.32,16.08-12.21A19.38,19.38,0,0,1,954.74,473.36Z" transform="translate(-839.96 -441.09)" style="fill:#10a64a;fill-rule:evenodd"/><path d="M1023.08,526.9a37.18,37.18,0,0,0,6.33,11.67c10.36,13.69,12.51,22.8,7.17,32.31-3.63,6.46-11.29,10.06-13.06,14.17-3.78,8.73.4,15.31-4.77,25.47a27.15,27.15,0,0,1-16.55,14.08c-6.2,2-12.41-.88-17.41,1.2-8.74,3.68-15.17,12.2-22.15,14.37a27,27,0,0,1-16,0c-6.89-2.17-13.4-10.69-22.14-14.37-5-2.08-11.21.8-17.42-1.2a27.16,27.16,0,0,1-16.33-14.08A25,25,0,0,1,888,601Z" transform="translate(-839.96 -441.09)" style="fill:#0bb34b;fill-rule:evenodd"/><path d="M954.49,508.52a50.15,50.15,0,1,1-50.15,50.15h0A50.15,50.15,0,0,1,954.49,508.52Z" transform="translate(-839.96 -441.09)" style="fill:#fff;fill-rule:evenodd"/><path d="M940.91,548.66l9.82,9.25,19.69-20c1.94-2,3.17-3.56,5.52-1.09l7.81,8c2.55,2.53,2.42,4,0,6.38L955.17,579.3c-5.09,5-4.14,5.31-9.38.17l-18-17.86a2.28,2.28,0,0,1-.23-3.21,2,2,0,0,1,.4-.36l9.1-9.39c1.37-1.38,2.46-1.38,3.87,0Z" transform="translate(-839.96 -441.09)" style="fill:#303030;fill-rule:evenodd"/></svg>