<svg id="Layer_1" data-name="Layer 1" xmlns="http://www.w3.org/2000/svg" xmlns:xlink="http://www.w3.org/1999/xlink" viewBox="0 0 235.39 235.39"><defs><linearGradient id="linear-gradient" x1="5.17" y1="1077.76" x2="5.89" y2="1078.34" gradientTransform="matrix(162.86, 0, 0, -162.86, -79.61, 176120.73)" gradientUnits="userSpaceOnUse"><stop offset="0" stop-color="#06b3f8"/><stop offset="1" stop-color="#04f1d2"/></linearGradient><linearGradient id="linear-gradient-2" x1="7.14" y1="1077.11" x2="7.7" y2="1077.57" xlink:href="#linear-gradient"/><linearGradient id="linear-gradient-3" x1="6.71" y1="1078.8" x2="7.34" y2="1079.32" xlink:href="#linear-gradient"/></defs><path d="M956.65,670.48a112.7,112.7,0,0,1,0-225.39" transform="translate(-838.96 -440.09)" style="fill:none;stroke-width:10px;stroke:url(#linear-gradient)"/><path d="M1069.35,557.78a112.7,112.7,0,0,1-112.7,112.7" transform="translate(-838.96 -440.09)" style="fill:none;stroke-width:10px;stroke:url(#linear-gradient-2)"/><path d="M956.65,445.09a112.69,112.69,0,0,1,112.7,112.69" transform="translate(-838.96 -440.09)" style="fill:none;stroke-width:10px;stroke:url(#linear-gradient-3)"/><path d="M918.45,566.74a2.33,2.33,0,0,1,0-4.65h3.37a10.74,10.74,0,0,1,5.64,1.47,8.86,8.86,0,0,1,3.77,5.35.19.19,0,0,0,0,.18l.58,2.42h1.33V562a2.34,2.34,0,0,1,2.33-2.33H947.8a2.34,2.34,0,0,1,2.33,2.33v5.67a10.52,10.52,0,0,1,11.09-2.48,12.66,12.66,0,0,1,21.67,6.36h.56a2.3,2.3,0,0,1,2.29,2.3,2.76,2.76,0,0,1-.11.7l-6,24.18a2.26,2.26,0,0,1-2.23,1.77h-37.7c.82,3,1.65,4.67,2.73,5.42,1.35.88,3.71.94,7.65.88h26.71a2.3,2.3,0,1,1,0,4.59h-26.6c-4.83,0-7.89,0-10.3-1.65s-3.77-4.48-5.07-9.6h0l-7.9-29.83v-.11a4.15,4.15,0,0,0-1.77-2.65,6.05,6.05,0,0,0-3.28-.77Zm100.78-13.31v64.09a7.88,7.88,0,0,1-7.87,7.87H898.64a7.86,7.86,0,0,1-5.56-2.32h0a7.83,7.83,0,0,1-2.31-5.56v-64a33.66,33.66,0,0,0,7.09.42v63a1.33,1.33,0,0,0,.4,1h0a1.3,1.3,0,0,0,1,.39H939.6a5.67,5.67,0,0,1,5.46-4.21h0a5.67,5.67,0,0,1,5.48,4.21h13.85a5.66,5.66,0,0,1,5.46-4.21h0a5.67,5.67,0,0,1,5.48,4.21h35.45a1.36,1.36,0,0,0,1.37-1.36V553.64a32.23,32.23,0,0,0,7.08-.19Zm-55.32,27.46a1.64,1.64,0,0,1,3.21,0v8.89a1.64,1.64,0,0,1-3.21,0Zm-9.6,0a1.64,1.64,0,0,1,3.21,0v8.89a1.64,1.64,0,0,1-3.21,0Zm-9.59,0a1.64,1.64,0,0,1,3.21,0v8.89a1.64,1.64,0,0,1-3.21,0Zm19.86-13.71a11.23,11.23,0,0,1,3,4.32h11.23a8.68,8.68,0,0,0-14.23-4.32Zm3.76,8.91H933.18l5.23,19.73h37.16l4.84-19.73Zm-20.88-4.64a1.33,1.33,0,0,1,.2-.48v-7.33A1.69,1.69,0,0,0,946,562h-8.43a1.69,1.69,0,0,0-1.69,1.69h0v7.81ZM1009,545.9c-1.51-.71-5.23-1.68-6.41-2.84a14.82,14.82,0,0,1-2.56-3.48,14.82,14.82,0,0,1-2.56,3.48c-2.59,2.58-8.47,4.18-12.45,4.18s-9.85-1.6-12.4-4.18a14.86,14.86,0,0,1-2.57-3.48,14.55,14.55,0,0,1-2.56,3.48c-2.59,2.58-8.46,4.18-12.44,4.18s-9.86-1.6-12.44-4.18a14.67,14.67,0,0,1-2.64-3.48,14.82,14.82,0,0,1-2.56,3.48c-2.59,2.58-8.47,4.18-12.44,4.18s-9.86-1.6-12.45-4.18a14.82,14.82,0,0,1-2.56-3.48,14.82,14.82,0,0,1-2.56,3.48c-1.71,1.69-6.19,3-8.56,3.63-4.78.58-10.42-.11-14-3.63A14.23,14.23,0,0,1,880.71,533v-5.61h0a1.83,1.83,0,0,1,.21-.8L891,494.34c.82-2.64,2.84-4.35,6.75-4.54h113.76c3.51.37,5.8,1.85,6.74,4.52l10.88,32.19a1.57,1.57,0,0,1,.23.76h0a.49.49,0,0,1,0,.17V533a14.24,14.24,0,0,1-4.19,10.08c-4.21,4.21-10.62,4.1-16.11,2.84Z" transform="translate(-838.96 -440.09)"/></svg>