<svg id="Layer_1" data-name="Layer 1" xmlns="http://www.w3.org/2000/svg" xmlns:xlink="http://www.w3.org/1999/xlink" viewBox="0 0 231.39 231.39"><defs><linearGradient id="linear-gradient" x1="5.58" y1="1078.65" x2="6.02" y2="1079.36" gradientTransform="matrix(162.86, 0, 0, -162.86, -79.61, 176120.73)" gradientUnits="userSpaceOnUse"><stop offset="0" stop-color="#b204f1"/><stop offset="1" stop-color="#067bf8"/></linearGradient><linearGradient id="linear-gradient-2" x1="5.08" y1="1077.04" x2="5.57" y2="1077.82" xlink:href="#linear-gradient"/><linearGradient id="linear-gradient-3" x1="6.84" y1="1077.57" x2="7.38" y2="1078.45" xlink:href="#linear-gradient"/></defs><path d="M846,557.78A110.69,110.69,0,0,1,956.65,447.09" transform="translate(-840.96 -442.09)" style="fill:none;stroke-width:10px;stroke:url(#linear-gradient)"/><path d="M956.65,668.48A110.7,110.7,0,0,1,846,557.78" transform="translate(-840.96 -442.09)" style="fill:none;stroke-width:10px;stroke:url(#linear-gradient-2)"/><path d="M956.65,447.09a110.7,110.7,0,1,1,0,221.39" transform="translate(-840.96 -442.09)" style="fill:none;stroke-width:10px;stroke:url(#linear-gradient-3)"/><path d="M914.08,622.49l20.56-19.72a4.64,4.64,0,0,1,3.23-1.3h20.35a18.77,18.77,0,0,0-9.06,9.35h-9.43l-26.85,25.76a4.69,4.69,0,0,1-8.16-3.13V610.81H890.86a11.4,11.4,0,0,1-11.34-11.35v-84a11.44,11.44,0,0,1,11.34-11.35H997.25a11.39,11.39,0,0,1,11.34,11.35v28.85a22.66,22.66,0,0,0-9.35-3.93V515.51a2,2,0,0,0-2-2H890.86a2.09,2.09,0,0,0-2,2v84a2,2,0,0,0,.6,1.4,2,2,0,0,0,1.39.59H909.4a4.69,4.69,0,0,1,4.68,4.68v16.36ZM957.75,628a1.18,1.18,0,0,1-1.18-1.18,4.22,4.22,0,0,1,.13-1c1.88-15,8.49-15.21,16.81-17.39,2.48-.64,7-2,9.66-4.34a5,5,0,0,0,2-4.72,10.83,10.83,0,0,1-3.9-7.71H981a3.23,3.23,0,0,1-1.6-.41,4.64,4.64,0,0,1-2-3.22c-.35-1.65-.77-6.36,1.47-7.3h0c-.28-5.19.6-13.41-4.73-15,10.52-13,22.66-20.09,31.77-8.52,10.15.54,14.68,15.5,8.38,23.55H1014c2.24.94,1.82,5.65,1.47,7.3a4.64,4.64,0,0,1-2,3.22,3.22,3.22,0,0,1-1.59.41h-.24a10.83,10.83,0,0,1-3.91,7.71,5,5,0,0,0,2,4.72c2.64,2.31,7.18,3.7,9.66,4.34,8.32,2.18,14.93,2.44,16.82,17.39a4.22,4.22,0,0,1,.13,1,1.18,1.18,0,0,1-1.18,1.18Zm-46.13-81.79a4.68,4.68,0,0,1,0-9.35h63.75a4.68,4.68,0,1,1,0,9.35Zm0,27.69a4.68,4.68,0,1,1,0-9.35h43.42a4.68,4.68,0,1,1,0,9.35Z" transform="translate(-840.96 -442.09)"/></svg>