<svg xmlns="http://www.w3.org/2000/svg" xmlns:xlink="http://www.w3.org/1999/xlink" viewBox="0 0 2026.43 1594"><defs><linearGradient id="linear-gradient" x1="5.99" y1="1080.2" x2="6.79" y2="1080.86" gradientTransform="matrix(162.86, 0, 0, -162.86, -43.58, 176345.23)" gradientUnits="userSpaceOnUse"><stop offset="0" stop-color="#04f1d2"/><stop offset="1" stop-color="#28f806"/></linearGradient><linearGradient id="linear-gradient-2" x1="5.99" y1="1078.47" x2="6.79" y2="1079.13" gradientTransform="matrix(162.86, 0, 0, -162.86, -43.58, 176345.23)" gradientUnits="userSpaceOnUse"><stop offset="0" stop-color="#06b3f8"/><stop offset="1" stop-color="#04f1d2"/></linearGradient><linearGradient id="linear-gradient-3" x1="6.08" y1="1076.58" x2="6.67" y2="1077.52" gradientTransform="matrix(162.86, 0, 0, -162.86, -43.58, 176345.23)" gradientUnits="userSpaceOnUse"><stop offset="0" stop-color="#b204f1"/><stop offset="1" stop-color="#067bf8"/></linearGradient><linearGradient id="linear-gradient-4" x1="6.07" y1="1074.86" x2="6.66" y2="1075.81" gradientTransform="matrix(162.86, 0, 0, -162.86, -43.58, 176345.23)" gradientUnits="userSpaceOnUse"><stop offset="0" stop-color="#6861c4"/><stop offset="1" stop-color="#b204f1"/></linearGradient><linearGradient id="linear-gradient-5" x1="964" y1="1369.5" x2="964" y2="-224.5" gradientUnits="userSpaceOnUse"><stop offset="0" stop-color="#6562c4"/><stop offset="0.28" stop-color="#b250bd"/><stop offset="0.53" stop-color="#4fa3f2"/><stop offset="0.76" stop-color="#01cafa"/><stop offset="1" stop-color="#21e865"/></linearGradient></defs><g id="Layer_1" data-name="Layer 1"><circle cx="996.28" cy="370.52" r="111.76" style="fill:none;stroke-width:10px;stroke:url(#linear-gradient)"/><circle cx="996.34" cy="652.11" r="112.69" style="fill:none;stroke-width:10px;stroke:url(#linear-gradient-2)"/><circle cx="996.34" cy="932.81" r="110.69" style="fill:none;stroke-width:10px;stroke:url(#linear-gradient-3)"/><circle cx="995.78" cy="1212.81" r="111.69" style="fill:none;stroke-width:10px;stroke:url(#linear-gradient-4)"/><path d="M898.64,96.8h119.51a3.44,3.44,0,0,1,3.43,3.44v10.39h-5v-5.38a3,3,0,0,0-3-3H903.25a3,3,0,0,0-3,3v33.83a30.88,30.88,0,0,0-5,1.32V100.24A3.44,3.44,0,0,1,898.64,96.8Zm-1.73,68.93h.44v-1.36a8.42,8.42,0,0,1,2.33-5.83,7.76,7.76,0,0,1,11.32,0,8.42,8.42,0,0,1,2.33,5.83v1.36h.44a1.31,1.31,0,0,1,1.31,1.3v12.9a1.31,1.31,0,0,1-1.31,1.3H896.91a1.31,1.31,0,0,1-1.31-1.3V167a1.31,1.31,0,0,1,1.31-1.3Zm7.4,8.34L903,177.62h4.78l-1.26-3.6a2.48,2.48,0,1,0-2.16,0Zm-4.49-8.34h11v-1.36a5.93,5.93,0,0,0-1.64-4.12,5.32,5.32,0,0,0-7.78,0,6,6,0,0,0-1.63,4.12Zm5.91-20.45a24.86,24.86,0,1,1-24.86,24.85A24.86,24.86,0,0,1,905.73,145.28Zm96.6-27.64h33.37a4.31,4.31,0,0,1,4.3,4.3V199a4.31,4.31,0,0,1-4.3,4.3h-33.37A4.31,4.31,0,0,1,998,199V121.94A4.31,4.31,0,0,1,1002.33,117.64Zm26.93,18.15h4v1.44h-4ZM1019,185.49a4.68,4.68,0,1,1-4.68,4.68A4.69,4.69,0,0,1,1019,185.49Zm-15.15-53.78h30.31a.9.9,0,0,1,.9.9v5.52a.9.9,0,0,1-.9.9h-30.31a.9.9,0,0,1-.9-.9v-5.52A.9.9,0,0,1,1003.86,131.71Zm-13,53.48H933.43a31.36,31.36,0,0,0,3.8-13.61h53.61v13.61Zm-48,4.74H974c.08,5.39,2.3,10.22,8.31,14H934.5c4.81-3.49,8.33-7.73,8.31-14Z" transform="translate(36.04 224.5)" style="fill-rule:evenodd"/><path d="M922.1,436.56a2.32,2.32,0,0,1,0-4.64h3.38a10.81,10.81,0,0,1,5.63,1.46,8.89,8.89,0,0,1,3.78,5.36.19.19,0,0,0,0,.18l.58,2.42h1.33v-9.55a2.34,2.34,0,0,1,2.33-2.34h12.32a2.34,2.34,0,0,1,2.33,2.34v5.67a10.53,10.53,0,0,1,7.46-3.12,10.21,10.21,0,0,1,3.63.64,12.66,12.66,0,0,1,21.67,6.36h.57a2.3,2.3,0,0,1,2.28,2.3,2.82,2.82,0,0,1-.1.7l-6,24.18a2.28,2.28,0,0,1-2.24,1.77H943.3c.82,3,1.66,4.66,2.73,5.41,1.36.89,3.72.95,7.66.89H980.4a2.3,2.3,0,1,1,0,4.59H953.8c-4.84,0-7.9,0-10.31-1.66s-3.77-4.47-5.06-9.6h0l-7.91-29.83V440a4.11,4.11,0,0,0-1.77-2.65,6,6,0,0,0-3.27-.78Zm100.79-13.3v64.09a7.89,7.89,0,0,1-7.87,7.87H902.3a7.84,7.84,0,0,1-5.56-2.32h0a7.85,7.85,0,0,1-2.31-5.56v-64a34.25,34.25,0,0,0,7.08.42v63a1.33,1.33,0,0,0,.4,1h0a1.32,1.32,0,0,0,1,.39h40.37a5.66,5.66,0,0,1,5.47-4.21h0a5.68,5.68,0,0,1,5.48,4.21H968a5.66,5.66,0,0,1,5.47-4.21h0a5.67,5.67,0,0,1,5.47,4.21h35.46a1.36,1.36,0,0,0,1.36-1.37V423.47a33,33,0,0,0,7.09-.19Zm-55.32,27.46a1.63,1.63,0,0,1,3.2,0v8.89a1.63,1.63,0,0,1-1.91,1.29,1.65,1.65,0,0,1-1.29-1.29Zm-9.6,0a1.63,1.63,0,0,1,3.2,0v8.89a1.63,1.63,0,0,1-1.91,1.29,1.65,1.65,0,0,1-1.29-1.29Zm-9.59,0a1.63,1.63,0,0,1,3.2,0v8.89a1.63,1.63,0,0,1-1.91,1.29,1.65,1.65,0,0,1-1.29-1.29ZM968.23,437a11.13,11.13,0,0,1,3,4.32h11.24A8.69,8.69,0,0,0,968.23,437Zm3.76,8.91H936.83l5.24,19.72h37.15l4.84-19.72Zm-20.88-4.64c0-.16.14-.33.21-.48v-7.33a1.69,1.69,0,0,0-1.7-1.69H941.2a1.69,1.69,0,0,0-1.7,1.69h0v7.81Zm61.54-25.55c-1.52-.71-5.24-1.68-6.41-2.84a14.86,14.86,0,0,1-2.57-3.48,14.82,14.82,0,0,1-2.56,3.48c-2.59,2.57-8.46,4.18-12.44,4.18s-9.86-1.61-12.41-4.18a14.82,14.82,0,0,1-2.56-3.48,14.82,14.82,0,0,1-2.56,3.48c-2.59,2.57-8.47,4.18-12.45,4.18s-9.85-1.61-12.44-4.18a15.11,15.11,0,0,1-2.63-3.48,14.86,14.86,0,0,1-2.57,3.48c-2.59,2.57-8.46,4.18-12.44,4.18s-9.85-1.61-12.44-4.18a14.86,14.86,0,0,1-2.57-3.48,14.82,14.82,0,0,1-2.56,3.48c-1.7,1.69-6.19,3-8.56,3.63-4.78.58-10.41-.11-14-3.63a14.25,14.25,0,0,1-4.16-10.09v-5.61h0a1.68,1.68,0,0,1,.2-.79l10.06-32.23c.82-2.65,2.84-4.35,6.75-4.54h113.77c3.51.37,5.79,1.85,6.73,4.52l10.89,32.19a1.82,1.82,0,0,1,.23.76h0v5.7a14.29,14.29,0,0,1-4.2,10.09c-4.21,4.21-10.62,4.1-16.11,2.84Z" transform="translate(36.04 224.5)"/><path d="M917.73,773l20.56-19.72a4.66,4.66,0,0,1,3.23-1.3h20.35a18.73,18.73,0,0,0-9,9.34h-9.43l-26.86,25.76a4.67,4.67,0,0,1-8.15-3.13V761.33H894.52A11.4,11.4,0,0,1,883.17,750V666a11.44,11.44,0,0,1,11.35-11.35H1000.9A11.42,11.42,0,0,1,1012.25,666v28.85a22.6,22.6,0,0,0-9.36-3.92V666a2,2,0,0,0-2-2H894.52a2.05,2.05,0,0,0-2,2v84a2,2,0,0,0,.6,1.41,2,2,0,0,0,1.39.59h18.53a4.67,4.67,0,0,1,4.68,4.67V773Zm43.67,5.52a1.18,1.18,0,0,1-1.18-1.18,4.2,4.2,0,0,1,.13-1c1.89-15,8.5-15.22,16.82-17.39,2.48-.65,7-2,9.66-4.35a4.94,4.94,0,0,0,2-4.71,10.88,10.88,0,0,1-3.91-7.72h-.24a3.41,3.41,0,0,1-1.6-.42,4.62,4.62,0,0,1-2-3.22c-.35-1.64-.77-6.36,1.47-7.3h0c-.28-5.19.6-13.41-4.74-15,10.53-13,22.66-20.08,31.78-8.51,10.15.53,14.68,15.49,8.37,23.54h-.26c2.24.94,1.81,5.66,1.47,7.3a4.63,4.63,0,0,1-2,3.22,3.35,3.35,0,0,1-1.6.42h-.24a10.87,10.87,0,0,1-3.9,7.72,4.92,4.92,0,0,0,2,4.71c2.64,2.32,7.17,3.7,9.66,4.35,8.31,2.17,14.92,2.43,16.81,17.39a4.2,4.2,0,0,1,.13,1,1.18,1.18,0,0,1-1.18,1.18Zm-46.12-81.78a4.68,4.68,0,0,1,0-9.36H979a4.68,4.68,0,1,1,0,9.36Zm0,27.68a4.68,4.68,0,1,1,0-9.35h43.43a4.68,4.68,0,0,1,0,9.35Z" transform="translate(36.04 224.5)"/><path d="M957.83,903.88a19.32,19.32,0,0,1,11.65,3.66c4.55,2.89,9.65,8.59,16,12.21,9,5.11,25.37-1.91,33.78,10.62,4.93,7.32,5.15,13,5.52,18.71.4,6.11,1.48,11.74,7.72,20,10.36,13.69,12.51,22.81,7.17,32.31-3.62,6.47-11.29,10.07-13.06,14.17-3.77,8.73.4,15.31-4.77,25.47a27.09,27.09,0,0,1-16.54,14.08c-6.21,2-12.41-.88-17.42,1.2-8.74,3.68-15.17,12.22-22.14,14.37a26.83,26.83,0,0,1-16.06,0c-6.89-2.15-13.4-10.69-22.14-14.37-5-2.08-11.21.81-17.42-1.2A27.12,27.12,0,0,1,893.79,1041c-5.19-10.16-1-16.74-4.79-25.47-1.77-4.13-9.44-7.7-13.13-14.17-5.34-9.5-3.17-18.62,7.18-32.31,6.25-8.27,7.32-13.9,7.72-20,.36-5.66.6-11.39,5.52-18.71,8.45-12.53,24.93-5.51,33.82-10.6,6.43-3.63,11.52-9.32,16.08-12.22A19.45,19.45,0,0,1,957.83,903.88Z" transform="translate(36.04 224.5)" style="fill:#10a64a;fill-rule:evenodd"/><path d="M1026.17,957.43a37.24,37.24,0,0,0,6.33,11.66c10.35,13.69,12.51,22.81,7.17,32.31-3.63,6.47-11.29,10.07-13.06,14.17-3.78,8.73.4,15.31-4.77,25.47a27.08,27.08,0,0,1-16.55,14.08c-6.2,2-12.41-.88-17.41,1.2-8.75,3.68-15.17,12.2-22.15,14.37a26.79,26.79,0,0,1-16.05,0c-6.89-2.17-13.4-10.69-22.14-14.37-5-2.08-11.21.8-17.42-1.2A27.13,27.13,0,0,1,893.79,1041a25,25,0,0,1-2.75-9.53Z" transform="translate(36.04 224.5)" style="fill:#0bb34b;fill-rule:evenodd"/><path d="M957.58,939a50.16,50.16,0,1,1-50.15,50.16h0A50.15,50.15,0,0,1,957.58,939Z" transform="translate(36.04 224.5)" style="fill:#fff;fill-rule:evenodd"/><path d="M944,979.18l9.82,9.26,19.69-20c1.94-2,3.17-3.56,5.51-1.09l7.82,8c2.55,2.54,2.42,4,0,6.38l-28.58,28.13c-5.09,5-4.14,5.31-9.38.17l-18-17.86a2.27,2.27,0,0,1-.23-3.21,2.69,2.69,0,0,1,.39-.36l9.11-9.39c1.37-1.38,2.46-1.38,3.87,0Z" transform="translate(36.04 224.5)" style="fill:#303030;fill-rule:evenodd"/></g><g id="Layer_2" data-name="Layer 2"><path d="M853.5,1369.5v-115c0-77.87,37.13-120,115-120a141,141,0,0,0,0-282,141,141,0,0,1-141-141c0-77.87,58.63-141,136.5-141s136.5-63.13,136.5-141a141,141,0,0,0-141-141,141,141,0,0,1-141-141c0-77.87,63.63-141,141.5-141s127.5-8.13,127.5-86,1-83,1-145" transform="translate(36.04 224.5)" style="fill:none;stroke-miterlimit:10;stroke-width:10px;stroke:url(#linear-gradient-5)"/></g><g id="Layer_3" data-name="Layer 3"><path id="b10fb2cf-c586-4c5f-9fbf-e678f5ffa3db-120" d="M1960.56,201.28a99.5,99.5,0,0,1-21.7,17.51l-.55.32-13-11.48.45-.43c9.67-9.18,57.68-73.38,60.87-89C1986.43,119.49,1989.54,170.56,1960.56,201.28Z" transform="translate(36.04 224.5)" style="fill:#f0f0f0"/><path id="a32c10c7-75df-4179-a648-6a8d2a687209-121" d="M1941.37,221l-.75.17-9.73-8.62.66-.24c4.18-1.47,16.62-5.94,29-11,13.3-5.46,26.54-11.64,29.39-15.6C1989.34,186.6,1970.52,214.48,1941.37,221Z" transform="translate(36.04 224.5)" style="fill:#f0f0f0"/><path d="M1960.38,31.36H1959v-38a22,22,0,0,0-22-22h-80.48a22,22,0,0,0-22,22v208.4a22,22,0,0,0,22,22H1937a22,22,0,0,0,22-22V58.4h1.39Z" transform="translate(36.04 224.5)" style="fill:#3f3d56"/><path d="M1954.31-6.47V201.61A16.42,16.42,0,0,1,1937.9,218H1857a16.42,16.42,0,0,1-16.42-16.41h0V-6.47A16.42,16.42,0,0,1,1857-22.89h9.82a7.79,7.79,0,0,0,4.29,10.17,7.76,7.76,0,0,0,2.93.57h46.11a7.79,7.79,0,0,0,7.8-7.78,7.88,7.88,0,0,0-.58-3h10.5a16.41,16.41,0,0,1,16.42,16.41Z" transform="translate(36.04 224.5)" style="fill:#fff"/><path d="M1929.16,101.66h-71.08a4.71,4.71,0,0,1-4.7-4.7V94.63a4.71,4.71,0,0,1,4.7-4.7h71.08a4.69,4.69,0,0,1,4.69,4.7V97A4.69,4.69,0,0,1,1929.16,101.66Z" transform="translate(36.04 224.5)" style="fill:#f0f0f0"/><path d="M1929.16,121.81h-71.08a4.71,4.71,0,0,1-4.7-4.7v-2.34a4.71,4.71,0,0,1,4.7-4.69h71.08a4.69,4.69,0,0,1,4.69,4.69v2.34A4.7,4.7,0,0,1,1929.16,121.81Z" transform="translate(36.04 224.5)" style="fill:#f0f0f0"/><path d="M1932.71,97.15h-71.08a4.94,4.94,0,0,1-4.93-4.93V89.89a4.93,4.93,0,0,1,4.93-4.93h71.08a4.93,4.93,0,0,1,4.93,4.93v2.33A4.93,4.93,0,0,1,1932.71,97.15Zm-71.08-11.26a4,4,0,0,0-4,4v2.33a4,4,0,0,0,4,4h71.08a4,4,0,0,0,4-4V89.89a4,4,0,0,0-4-4Z" transform="translate(36.04 224.5)" style="fill:#3f3d56"/><path d="M1932.71,117.3h-71.08a4.94,4.94,0,0,1-4.93-4.93V110a5,5,0,0,1,4.93-4.93h71.08a4.94,4.94,0,0,1,4.93,4.93v2.34A4.93,4.93,0,0,1,1932.71,117.3ZM1861.63,106a4,4,0,0,0-4,4v2.34a4,4,0,0,0,4,4h71.08a4,4,0,0,0,4-4V110a4,4,0,0,0-4-4Z" transform="translate(36.04 224.5)" style="fill:#3f3d56"/><path d="M1954.31-6.47V38.79a48.62,48.62,0,0,1-59.39-34.65,48.53,48.53,0,0,1-1.6-12.34c0-1.33,0-2.65.16-3.94h26.69a7.81,7.81,0,0,0,7.8-7.79,7.88,7.88,0,0,0-.58-3h10.5a16.41,16.41,0,0,1,16.42,16.41Z" transform="translate(36.04 224.5)" style="fill:#f0f0f0"/><path d="M1881.47,215.2c0,1,0,1.9-.11,2.83H1857a16.42,16.42,0,0,1-16.42-16.41h0V179.36a36.19,36.19,0,0,1,40.56,31.22,35.72,35.72,0,0,1,.3,4.62Z" transform="translate(36.04 224.5)" style="fill:#6c63ff"/><path d="M1685.23,176.15a2.82,2.82,0,0,0,3.71-1.44L1710.86,125a6.28,6.28,0,0,0-8-8.39h0a6.19,6.19,0,0,0-3.17,2.71c-.11.2-.21.4-.31.61l-21.92,49.68a2.82,2.82,0,0,0,1.44,3.71h0Z" transform="translate(36.04 224.5)" style="fill:#6c63ff"/><path d="M1710,145.43l-21.68-4.82,5.36-14.2a15,15,0,0,1,16.11-11.09l.21,0Z" transform="translate(36.04 224.5)" style="fill:#2f2e41"/><path d="M1753.75,176.86a3.3,3.3,0,0,1-3-2l-21.92-49.68a6.75,6.75,0,0,1,12-6.1h0c.12.21.23.43.33.65l21.92,49.68a3.28,3.28,0,0,1-1.68,4.33l-6.56,2.89h0A3.5,3.5,0,0,1,1753.75,176.86Z" transform="translate(36.04 224.5)" style="fill:#6c63ff"/><path d="M1723.43,159.8a2.83,2.83,0,0,0-2.82,2.82v57.76a2.83,2.83,0,0,0,2.82,2.82h6.93a2.82,2.82,0,0,0,2.82-2.82V162.62a2.82,2.82,0,0,0-2.82-2.82Z" transform="translate(36.04 224.5)" style="fill:#6c63ff"/><path d="M1709.72,159.8a2.81,2.81,0,0,0-2.81,2.82v57.76a2.81,2.81,0,0,0,2.81,2.82h6.93a2.82,2.82,0,0,0,2.82-2.82V162.62a2.82,2.82,0,0,0-2.82-2.82Z" transform="translate(36.04 224.5)" style="fill:#6c63ff"/><circle cx="1755.87" cy="299.83" r="23.95" style="fill:#6c63ff"/><path d="M1727.81,85.39c1.55,0,3.48-.1,5-1.19a3.78,3.78,0,0,0,1.5-2.85,2.57,2.57,0,0,0-.87-2.11,3.31,3.31,0,0,0-3.14-.45l1.27-9.26-.93-.13-1.49,10.89.78-.36a2.84,2.84,0,0,1,2.9,0,1.65,1.65,0,0,1,.54,1.36,2.83,2.83,0,0,1-1.12,2.12c-1.15.85-2.69,1-4.44,1Z" transform="translate(36.04 224.5)" style="fill:#2f2e41"/><rect x="1772.18" y="294.83" width="5.06" height="0.94" style="fill:#2f2e41"/><rect x="1756.21" y="294.83" width="5.06" height="0.94" style="fill:#2f2e41"/><path d="M1743.57,177.15,1735,114.23a2.83,2.83,0,0,0-2.8-2.44h-6.5a2.42,2.42,0,0,0,0-.47V109a2.82,2.82,0,0,0-2.82-2.82h-5.63a2.82,2.82,0,0,0-2.82,2.82v2.34a3.57,3.57,0,0,0,0,.47H1708a2.81,2.81,0,0,0-2.79,2.44l-8.62,62.92a2.8,2.8,0,0,0,2.4,3.17,2.56,2.56,0,0,0,.39,0h41.43a2.82,2.82,0,0,0,2.82-2.82C1743.59,177.4,1743.58,177.28,1743.57,177.15Z" transform="translate(36.04 224.5)" style="fill:#2f2e41"/><path d="M1730.15,145.43V115.34l.21,0a15,15,0,0,1,16.11,11.12l5.36,14.17Z" transform="translate(36.04 224.5)" style="fill:#2f2e41"/><path d="M1718.63,100l-16.56-6.43c-2.71-1-5.44-2.07-8.13-3.16a9.34,9.34,0,0,1-3.13-1.84,6.23,6.23,0,0,1-1.56-3,31.35,31.35,0,0,1-.43-7.56,57.84,57.84,0,0,1,.67-8.1,39,39,0,0,1,5-14.26c4.65-7.63,12.65-13.36,21.86-12.9a18.72,18.72,0,0,1,11.71,4.65,7.09,7.09,0,0,0,1.11,1.08,1.55,1.55,0,0,0,.88,0l1.16,0a23.48,23.48,0,0,1,4,.17,12.8,12.8,0,0,1,6.64,2.75,8.08,8.08,0,0,1,3,5.42,6.41,6.41,0,0,1-2.17,5.24c-2,1.66-4.79,1.08-7.16,1l-8.69-.46-4.4-.23c-.9,0-.9,1.36,0,1.41l11.7.62a51.56,51.56,0,0,0,5.69.23,6.38,6.38,0,0,0,3.92-1.58,7.81,7.81,0,0,0,2.36-7.32,10.47,10.47,0,0,0-5.26-6.69c-3.42-1.93-7.51-2.11-11.34-1.83l.5.21c-4.33-4.65-11-6.61-17.19-5.92a25.74,25.74,0,0,0-16.63,9.4A38.86,38.86,0,0,0,1688,70.6a66.09,66.09,0,0,0-.5,11.68,14.5,14.5,0,0,0,.87,5,7.16,7.16,0,0,0,3.39,3.64,50.24,50.24,0,0,0,5.38,2.21l6.11,2.37,12,4.65,3.06,1.19C1719.1,101.72,1719.47,100.35,1718.63,100Z" transform="translate(36.04 224.5)" style="fill:#2f2e41"/><path d="M1692.59,52.16a7.28,7.28,0,1,1,7.27-7.28h0A7.29,7.29,0,0,1,1692.59,52.16Zm0-13.15a5.87,5.87,0,1,0,5.87,5.87A5.87,5.87,0,0,0,1692.59,39Z" transform="translate(36.04 224.5)" style="fill:#2f2e41"/><rect x="1790.44" y="89.2" width="19.83" height="19.83" transform="translate(663.93 1693.44) rotate(-52.59)" style="fill:#f0f0f0"/><path d="M1725.22-10.3A16,16,0,0,1,1738-3.86l9.2-12L1719.63-37,1698.52-9.4l11.89,9.1A16,16,0,0,1,1725.22-10.3Z" transform="translate(36.04 224.5)" style="fill:#f0f0f0"/><path d="M1989.92,224H1658.4a.47.47,0,0,1,0-.94h331.52a.47.47,0,1,1,0,.94Z" transform="translate(36.04 224.5)" style="fill:#3f3d56"/><path d="M1909,146.1h-33.75a4.69,4.69,0,0,1-4.69-4.69v-2.34a4.69,4.69,0,0,1,4.69-4.69H1909a4.69,4.69,0,0,1,4.69,4.69v2.34A4.69,4.69,0,0,1,1909,146.1Z" transform="translate(36.04 224.5)" style="fill:#6c63ff"/><path d="M1912.56,141.6h-33.74a4.93,4.93,0,0,1-4.93-4.93v-2.34a4.93,4.93,0,0,1,4.93-4.93h33.74a4.93,4.93,0,0,1,4.93,4.93v2.34A4.93,4.93,0,0,1,1912.56,141.6Zm-33.74-11.26a4,4,0,0,0-4,4v2.34a4,4,0,0,0,4,4h33.74a4,4,0,0,0,4-4v-2.34a4,4,0,0,0-4-4Z" transform="translate(36.04 224.5)" style="fill:#3f3d56"/><path d="M269.54,348.13a31.79,31.79,0,0,0,2.73-3.49l-17.34-4.05L273.88,342a32.07,32.07,0,0,0,2.31-25.29L249.86,328.2l24.63-15.67a32,32,0,1,0-55.2,32.24,31.6,31.6,0,0,0-4,5.58l22,13.35-23.73-9.77a32.09,32.09,0,0,0,3.15,30.37,32.05,32.05,0,0,0,15.79,52.48,11,11,0,0,0-.88,3.67,10.61,10.61,0,0,0,1,5.43,11,11,0,0,0-.72,10.68,10.94,10.94,0,0,0-.71,10.68,11,11,0,0,0-.72,10.67,10.63,10.63,0,0,0-1.75,5.25c-.32,4.83,2.4,8.94,6.09,9.18s6.93-3.46,7.26-8.28a10.63,10.63,0,0,0-1-5.44,11,11,0,0,0,.72-10.68,10.92,10.92,0,0,0,.71-10.67,10.94,10.94,0,0,0,.72-10.68,10.63,10.63,0,0,0,1.75-5.25,10.91,10.91,0,0,0-.4-3.81,32,32,0,0,0,22.39-49.86,32,32,0,0,0,2.65-39.54Z" transform="translate(36.04 224.5)" style="fill:#f2f2f2"/><path d="M304.54,489.42c0,4.73-33.31,20.92-73,20.92s-70.72-16.19-70.72-20.92,31,3.81,70.72,3.81S304.54,484.7,304.54,489.42Z" transform="translate(36.04 224.5)" style="fill:#3f3d56"/><path d="M304.54,489.42c0,4.73-33.31,20.92-73,20.92s-70.72-16.19-70.72-20.92,31,3.81,70.72,3.81S304.54,484.7,304.54,489.42Z" transform="translate(36.04 224.5)" style="opacity:0.10000000149011612;isolation:isolate"/><ellipse cx="268.72" cy="713.92" rx="71.86" ry="8.55" style="fill:#3f3d56"/><ellipse cx="270.42" cy="715.03" rx="24.37" ry="6.96" style="opacity:0.10000000149011612;isolation:isolate"/><path d="M239.73,444.29a10.66,10.66,0,0,0,1.4-5.35c0-4.84-3-8.76-6.69-8.76s-6.69,3.92-6.69,8.76a10.55,10.55,0,0,0,1.39,5.35,11,11,0,0,0,0,10.7,11,11,0,0,0,0,10.71,11,11,0,0,0,0,10.7,10.55,10.55,0,0,0-1.39,5.35c0,4.84,3,8.76,6.69,8.76s6.69-3.92,6.69-8.76a10.66,10.66,0,0,0-1.4-5.35,11,11,0,0,0,0-10.7,11,11,0,0,0,0-10.71A11,11,0,0,0,239.73,444.29Z" transform="translate(36.04 224.5)" style="fill:#3f3d56"/><ellipse cx="270.47" cy="652.74" rx="6.69" ry="8.76" style="fill:#3f3d56"/><ellipse cx="270.47" cy="642.03" rx="6.69" ry="8.76" style="fill:#3f3d56"/><path d="M259.48,344.29a33.68,33.68,0,0,0,2.49-3.66l-17.58-2.89,19,.14a32.06,32.06,0,0,0,.61-25.39l-25.5,13.23L262,308.43a32,32,0,0,0-55.47,32.1,31,31,0,0,0,2.55,3.76,31.84,31.84,0,0,0-3.65,5.85L228.27,362l-24.33-8.16a32.06,32.06,0,0,0,5.17,30.08,32,32,0,1,0,50.37,0A32.05,32.05,0,0,0,259.48,344.29Z" transform="translate(36.04 224.5)" style="fill:#6c63ff"/><path d="M202.25,364.1a31.91,31.91,0,0,0,6.86,19.81,32,32,0,1,0,50.37,0C263.77,378.46,202.25,360.51,202.25,364.1Z" transform="translate(36.04 224.5)" style="opacity:0.10000000149011612;isolation:isolate"/><path d="M348.53,395.61l7.22-6.43c-14.33-2.67-28.7,9.93-32.46,28.28l-.37.1-8.13-26.69a46.4,46.4,0,0,0-.8,9.63l-6.34-12.33c-2.57,13.79,3.54,26.6,13.79,29.67a18.26,18.26,0,0,1-2.56-.18h-.07a8.71,8.71,0,0,0,.06,2,1.82,1.82,0,0,0,.47,1,8.67,8.67,0,0,0,2.35,1.07l.27.09c.74.25,1.57.5,2.43.73,1.07.29,2.18.54,3.2.72a2,2,0,0,0,.31,0h.36l.14,0,.07,0,.12,0,.05,0,.1-.07,0,0a.41.41,0,0,0,.09-.1v0a.53.53,0,0,0,.08-.15h0a.83.83,0,0,0,0-.15h0c.19-1.23-1.54-3.84-1.56-4.57s-1.75-.9-3.16-.8l26.55-21.44A19.8,19.8,0,0,0,348.53,395.61Z" transform="translate(36.04 224.5)" style="fill:#f2f2f2"/><path d="M369.39,421.31c0,3.2-22.59,14.18-49.5,14.18s-47.95-11-47.95-14.18,21,2.57,47.95,2.57S369.39,418.1,369.39,421.31Z" transform="translate(36.04 224.5)" style="fill:#3f3d56"/><path d="M369.39,421.31c0,3.2-22.59,14.18-49.5,14.18s-47.95-11-47.95-14.18,21,2.57,47.95,2.57S369.39,418.1,369.39,421.31Z" transform="translate(36.04 224.5)" style="opacity:0.10000000149011612;isolation:isolate"/><ellipse cx="356.7" cy="645.81" rx="48.72" ry="5.8" style="fill:#3f3d56"/><ellipse cx="356.68" cy="645.79" rx="10.44" ry="3.48" style="opacity:0.10000000149011612;isolation:isolate"/><path d="M298.93,392.43c0,14.78,9.27,26.74,20.74,26.74" transform="translate(36.04 224.5)" style="fill:#3f3d56"/><path d="M319.67,419.17c0-14.94,10.34-27,23.13-27" transform="translate(36.04 224.5)" style="fill:#6c63ff"/><path d="M306.44,393.77c0,14,5.92,25.4,13.23,25.4" transform="translate(36.04 224.5)" style="fill:#6c63ff"/><path d="M319.67,419.17c0-19.1,12-34.55,26.74-34.55" transform="translate(36.04 224.5)" style="fill:#3f3d56"/><path d="M315.3,419.36s2.94-.09,3.83-.72,4.52-1.38,4.74-.37,4.42,5,1.1,5.06-7.71-.52-8.6-1.06S315.3,419.36,315.3,419.36Z" transform="translate(36.04 224.5)" style="fill:#a8a8a8"/><path d="M325,423c-3.32,0-7.71-.52-8.6-1.06-.67-.41-.94-1.88-1-2.56h-.1s.19,2.37,1.07,2.91,5.28,1.08,8.6,1.06c1,0,1.29-.35,1.27-.86C326.11,422.78,325.74,423,325,423Z" transform="translate(36.04 224.5)" style="opacity:0.20000000298023224;isolation:isolate"/><path d="M60.59,380.7l3.73,5.91c-1.25,1.67-2.14,3.48-1.57,4.68,1.4,3,4.62,6.79,6.34,8.83s2,7.5,13.6,6.85S99.05,401,99.05,401s1,9.56,6,13a4.06,4.06,0,0,1-1.63,1.33C98.17,417.8,92.46,437.31,88.5,448c-4.32,11.69,2.24,9.66,2.24,9.66,2.2,0,4.22.15,6.07.32,2.16,5.71,5.58,17.92,1.57,30.49-2.81,8.79-2.22,18.06-1,25l-2.62,2.8A6.22,6.22,0,0,0,91,519.09l-6.71,9.36,1.11.8,4-5.57a11.72,11.72,0,0,1,2.08,3.26c1.21,2.47-2.22,12.11-2.28,12.81s3.05,5.7,7.41,7.26a2.16,2.16,0,0,0,.94.14l-.4,4.64,2.37,0,.72-8.46s1.83,11.75,2.2,13,4.16,1.06,8.14,1.64,7.91-4,3.87-6.52-4.55-10.33-4.55-10.33c1.91-5.75-2.41-13.22-2.41-13.22l-.5-5.24a1.53,1.53,0,0,1-1,.87l.59-6.86c4.52-5.19,10.42-12.12,13.47-16.31,5.36-7.34,5.07-9.49,5.07-9.49l5.5-24.38a29.51,29.51,0,0,0,5.48-.11c3.72-.56,2.34-12.78.18-22.64.57-2.33,1.46-5.54,2.87-10a31.1,31.1,0,0,0,1.32-6.54,37.72,37.72,0,0,0-3.6-19.3l.46-1.17s4.3-4.7.94-12.64a18.26,18.26,0,0,0,.39-2.55,19,19,0,0,0-2.41-10.9l-.06-.11,0,0h0l-.11-.13c-1.36-1.39-8.33-4-9.75-4.55a.69.69,0,0,0-.25-.1c-.53,0,0-2.33.61-4.36a9.89,9.89,0,0,0,1.94-2,18.86,18.86,0,0,0,5.8-31.18,9.9,9.9,0,0,0-2.29-13.81,10.2,10.2,0,0,0-.92-.59A9.91,9.91,0,0,1,133.05,337l-.65-.48a9.9,9.9,0,1,0-19-1.64,18.85,18.85,0,0,0-3.32,32,13.14,13.14,0,0,1-12-.44,13.14,13.14,0,0,0,13.83,1.83,9.94,9.94,0,0,0,3.57,3.74,6.09,6.09,0,0,1-.63,1.28l-.61-.49-2.61,2.85L104.91,377s-4.31.57-9.22,5.35-13.15,7.15-13.15,7.15l-6.47-1.74s-7.44-4.19-7.36-5.13c0-.15-.17-.1-.47.09l-3.64-7.3s-6.83-16.91-11.2-12.79S60.59,380.7,60.59,380.7Zm48.06,112.07.17-1.95C111,487.7,112.27,480,113,472.89l-1,17.25a11.73,11.73,0,0,0-3.31,2.63Zm-9,36.51,0,2.61A16.16,16.16,0,0,0,98,536c-.21-1.25.65-4.05,1.63-6.68Z" transform="translate(36.04 224.5)" style="fill:#f2f2f2"/><path d="M219.36,553.36c0,7.84-55.25,34.68-121.07,34.68S-19,561.2-19,553.36s51.47,6.31,117.29,6.31S219.36,545.52,219.36,553.36Z" transform="translate(36.04 224.5)" style="fill:#3f3d56"/><path d="M219.36,553.36c0,7.84-55.25,34.68-121.07,34.68S-19,561.2-19,553.36s51.47,6.31,117.29,6.31S219.36,545.52,219.36,553.36Z" transform="translate(36.04 224.5)" style="opacity:0.10000000149011612;isolation:isolate"/><ellipse cx="136.22" cy="777.86" rx="119.18" ry="14.19" style="fill:#3f3d56"/><ellipse cx="136.96" cy="775.38" rx="39.46" ry="8.51" style="opacity:0.10000000149011612;isolation:isolate"/><path d="M96.9,366a13.14,13.14,0,0,0-.46-21.25A13.13,13.13,0,1,1,83.55,367.5,13.12,13.12,0,0,0,96.9,366Z" transform="translate(36.04 224.5)" style="fill:#2f2e41"/><path d="M120.59,378.23h2.12a18.91,18.91,0,0,1,2.83,15.55c-2.36,9-.47,10.61-.47,10.61s8.48,12,5.18,26.63-2.36,16.26-2.36,16.26L122,435.49l-3.3-31.1Z" transform="translate(36.04 224.5)" style="fill:#6c63ff"/><path d="M120.59,378.24h2.12a18.91,18.91,0,0,1,2.83,15.55c-2.36,9-.47,10.61-.47,10.61s8.48,12,5.18,26.63-2.36,16.26-2.36,16.26L122,435.51l-3.3-31.11Z" transform="translate(36.04 224.5)" style="opacity:0.10000000149011612;isolation:isolate"/><circle cx="141.66" cy="575.51" r="18.85" style="fill:#2f2e41"/><path d="M113.16,366.8s-1.88,7.54-.94,7.54,4.24,4,4.24,4l2.12,7.77-1.64,5.66-5.66-1.18-7.07-7.78-2.12-2.12-1.89-6.83s2.36-2.83.71-5.19S113.16,366.8,113.16,366.8Z" transform="translate(36.04 224.5)" style="fill:#fbbebe"/><path d="M113.16,366.8s-1.88,7.54-.94,7.54,4.24,4,4.24,4l2.12,7.77-1.64,5.66-5.66-1.18-7.07-7.78-2.12-2.12-1.89-6.83s2.36-2.83.71-5.19S113.16,366.8,113.16,366.8Z" transform="translate(36.04 224.5)" style="opacity:0.10000000149011612;isolation:isolate"/><path d="M56.13,387.77,51,379.29s-5.6-12.38-9.6-7.91,6.07,13.56,6.07,13.56l5.18,6.84Z" transform="translate(36.04 224.5)" style="fill:#fbbebe"/><path d="M125,461.53l-3.77,27.58s.47,2.12-4.24,9.89S99.5,523.75,99.5,523.75l-3.77-7.07s4.47-22.39,12.25-27.1L107,455.64Z" transform="translate(36.04 224.5)" style="fill:#fbbebe"/><path d="M125,461.53l-3.77,27.58s.47,2.12-4.24,9.89S99.5,523.75,99.5,523.75l-3.77-7.07s4.47-22.39,12.25-27.1L107,455.64Z" transform="translate(36.04 224.5)" style="opacity:0.10000000149011612;isolation:isolate"/><path d="M95.73,513.85l5.18,9.9s-4.24,12-2.59,13.2,3.77,11.78-.71,10.6-8-5.89-8-6.6,2.59-10.6,1.18-13a11.39,11.39,0,0,0-2.36-3.06l-3.53,5.89-1.18-.71,5.89-9.9a6.23,6.23,0,0,1,3.53-3.06Z" transform="translate(36.04 224.5)" style="fill:#2f2e41"/><path d="M95.73,513.85l5.18,9.9s-4.24,12-2.59,13.2,3.77,11.78-.71,10.6-8-5.89-8-6.6,2.59-10.6,1.18-13a11.39,11.39,0,0,0-2.36-3.06l-3.53,5.89-1.18-.71,5.89-9.9a6.23,6.23,0,0,1,3.53-3.06Z" transform="translate(36.04 224.5)" style="opacity:0.10000000149011612;isolation:isolate"/><path d="M107.09,457.62s1.83,26.07-2.17,32.9v33.94l-5.42.7s-9.19-18.38-5.19-36-5.89-33.47-5.89-33.47Z" transform="translate(36.04 224.5)" style="fill:#fbbebe"/><circle cx="141.78" cy="587.17" r="9.9" style="fill:#fbbebe"/><path d="M115.76,388.72l-9.9-12.49-5.66-3.78-2.35,3.07-6.6,1.88s-4.24,1-8.72,6.13S70,391.78,70,391.78l-6.6-1.18s-7.78-3.53-7.78-4.48-6.83,6.37-5.18,9.19,5.18,6.37,7.07,8.25,2.59,7.31,14.14,5.66,15.79-7.31,15.79-7.31,2.12,10.84,8.25,13,26.15,3.54,26.15,3.54l4.25-14.14s4.71-6.13-1.65-15.08a60,60,0,0,0-.81-8.34,5.59,5.59,0,0,0-1.08-2.74c-1.65-1.41-10.37-3.77-10.37-3.77s1.42,4.71,2.12,5S116.7,387.54,115.76,388.72Z" transform="translate(36.04 224.5)" style="fill:#6c63ff"/><path d="M84.06,459.06c11.87-.82,18.78,1.12,21.86,2.6a8.06,8.06,0,0,1,1.61,1c.22.19.33.34.33.43,0,.7,16.26,2.12,22.15.7s-4-31.81-6.59-34.4-1.2-12.08-1.2-12.08-5.17-1.12-6.58-.65-8.72-.71-11.31-2.12-5.89-.47-8-.94a1.33,1.33,0,0,0-1.66.6A4.14,4.14,0,0,1,93,415.81c-5,2.88-9,22.81-12,33.82C77.7,461.65,84.06,459.06,84.06,459.06Z" transform="translate(36.04 224.5)" style="fill:#2f2e41"/><path d="M105.86,522.33l.94,5.19s5,7.07,3.54,13c0,0,1.17,7.78,5.42,9.9s.7,7.07-3.3,6.83-7.78.24-8.25-.94-3.3-12.73-3.3-12.73V552l-2.36.23v-10.6s-1.88-3.54.71-9.43l-.65-9S105.15,524.69,105.86,522.33Z" transform="translate(36.04 224.5)" style="fill:#2f2e41"/><circle cx="141.66" cy="556.66" r="9.9" style="fill:#2f2e41"/><path d="M113.24,338.17a9.89,9.89,0,0,0-.35-16,9.9,9.9,0,0,1-8.16,18,10.46,10.46,0,0,1-1.56-.89A9.89,9.89,0,0,0,113.24,338.17Z" transform="translate(36.04 224.5)" style="fill:#2f2e41"/><ellipse cx="141.89" cy="579.28" rx="10.13" ry="8.01" style="fill:#2f2e41"/><path d="M105.92,461.66a8.06,8.06,0,0,1,1.61,1c.12-2.23.84-15.7,0-15.48Z" transform="translate(36.04 224.5)" style="opacity:0.10000000149011612;isolation:isolate"/><circle cx="58.81" cy="573.45" r="33.27" style="fill:#ff6584"/><ellipse cx="42.51" cy="375.25" rx="1.16" ry="2.71" transform="translate(-279.72 480.31) rotate(-65.1)" style="fill:#fbbebe"/><g id="Group_6" data-name="Group 6"><path id="Path_80-141" data-name="Path 80-141" d="M1973.14,516H1861.42a23.76,23.76,0,0,0-23.17,18.53L1781.8,784.92a19.19,19.19,0,0,0,14.5,22.94,18.23,18.23,0,0,0,3.28.45L1914.43,814a25.35,25.35,0,0,0,26.2-20.81l32-177,2.38.68,6.13-33.56-2.45-.61,8.94-49.41A14.61,14.61,0,0,0,1973.15,516Z" transform="translate(36.04 224.5)" style="fill:#3f3d56"/><path id="Path_81-142" data-name="Path 81-142" d="M1876.13,521.4h-13a16.41,16.41,0,0,0-16,12.91l-54.18,248.35a10.15,10.15,0,0,0,7.76,12.1,11,11,0,0,0,1.51.22l114.47,7.5a13.17,13.17,0,0,0,13.83-10.81L1976.68,535a11.55,11.55,0,0,0-9.31-13.4,11.75,11.75,0,0,0-2-.18H1953a5.45,5.45,0,0,0-5.26,4h0a4.8,4.8,0,0,1-4.64,3.56h-58.73A8.22,8.22,0,0,1,1876.13,521.4Z" transform="translate(36.04 224.5)" style="fill:#fff"/><path id="Path_93-143" data-name="Path 93-143" d="M1939.41,695a.93.93,0,0,0,.94-.77l25.32-139.72a.93.93,0,0,0-.19-.75.91.91,0,0,0-.7-.34l-115.18-1.36h0a.91.91,0,0,0-.89.72L1818.85,688a1,1,0,0,0,.17.76.92.92,0,0,0,.68.37Z" transform="translate(36.04 224.5)" style="fill:#e6e6e6"/><path id="Path_94-144" data-name="Path 94-144" d="M1839.46,704.05a.46.46,0,0,0-.45.36l-1.08,4.62a.47.47,0,0,0,.34.56h.08l60.93,4.33a.47.47,0,0,0,.49-.37l1-5.35a.47.47,0,0,0-.36-.55h-.06l-60.89-3.61Z" transform="translate(36.04 224.5)" style="fill:#e6e6e6"/><path id="Path_95-145" data-name="Path 95-145" d="M1913.49,731.1a.47.47,0,0,0,.49-.35l1.32-5.36a.46.46,0,0,0-.34-.56h-.08l-77.82-5.45a.46.46,0,0,0-.47.33l-1.38,4.64a.46.46,0,0,0,.32.57l.09,0Z" transform="translate(36.04 224.5)" style="fill:#e6e6e6"/><path id="Path_96-146" data-name="Path 96-146" d="M1909.31,748.28a.47.47,0,0,0,.49-.35l1.32-5.36a.46.46,0,0,0-.34-.56l-.08,0-77.81-5.44a.47.47,0,0,0-.48.33l-1.37,4.64a.45.45,0,0,0,.31.57l.09,0Z" transform="translate(36.04 224.5)" style="fill:#e6e6e6"/><path id="Path_79-147" data-name="Path 79-147" d="M1774.39,808.76c0,3.89-35.56,4.3-79.34,7s-79.35-3.15-79.35-7,35.78-11.7,79.35-7C1738.83,806.42,1774.39,804.88,1774.39,808.76Z" transform="translate(36.04 224.5)" style="fill:#e6e6e6"/><path id="Path_97-148" data-name="Path 97-148" d="M1873.47,777.65a.46.46,0,0,0,.49-.35l2.8-11.17a.46.46,0,0,0-.34-.56h-.07l-47.79-4a.46.46,0,0,0-.49.36l-2.38,10.72a.45.45,0,0,0,.35.55h.06Z" transform="translate(36.04 224.5)" style="fill:#6c63ff"/><path id="Path_111-149" data-name="Path 111-149" d="M1680.52,732.14a5,5,0,0,0,1.3-6.93,5.19,5.19,0,0,0-.56-.68l1.93-43.19-9.85,1.1.58,42.25a5,5,0,0,0,6.6,7.45Z" transform="translate(36.04 224.5)" style="fill:#a0616a"/><path id="Path_112-150" data-name="Path 112-150" d="M1698.49,805.25l5.61,1,5.54-21.16-7.34-1.45Z" transform="translate(36.04 224.5)" style="fill:#a0616a"/><path id="Path_113-151" data-name="Path 113-151" d="M1714,813.35l-17.62-3.1,1.2-6.81,10.81,1.9a6.92,6.92,0,0,1,5.61,8Z" transform="translate(36.04 224.5)" style="fill:#2f2e41"/><path id="Path_114-152" data-name="Path 114-152" d="M1683.11,808.06h5.69l2.71-22h-8.4Z" transform="translate(36.04 224.5)" style="fill:#a0616a"/><path id="Path_115-153" data-name="Path 115-153" d="M1699.77,813.35h-17.89v-6.91h11a6.9,6.9,0,0,1,6.91,6.91Z" transform="translate(36.04 224.5)" style="fill:#2f2e41"/><path id="Path_116-154" data-name="Path 116-154" d="M1706.86,800.19a1.23,1.23,0,0,1-.27,0l-6.7-.55a2.27,2.27,0,0,1-2-2.51s0-.08,0-.11l6.65-32.82-4.18-22a.75.75,0,0,0-1.49.08l-6.16,56a2.29,2.29,0,0,1-2.42,2.06L1684,800a2.27,2.27,0,0,1-2.11-2.15l.51-67.68,32.72-4.09,2.29,35.31v0l-8.35,37A2.28,2.28,0,0,1,1706.86,800.19Z" transform="translate(36.04 224.5)" style="fill:#2f2e41"/><circle id="Ellipse_16" data-name="Ellipse 16" cx="1729.23" cy="866.45" r="11.4" style="fill:#a0616a"/><path id="Path_117-155" data-name="Path 117-155" d="M1703.94,735.36a9.37,9.37,0,0,1-5-1.44c-5.52-3.45-11.8-2.08-15-1a2.26,2.26,0,0,1-3-1.87l-5.9-52.76a18.48,18.48,0,0,1,12.66-19.76h0l1-.28a18.37,18.37,0,0,1,15.31,2.66,18.67,18.67,0,0,1,8,13.63l5,53.11a2.27,2.27,0,0,1-.71,1.86C1714.37,731.16,1709.31,735.36,1703.94,735.36Z" transform="translate(36.04 224.5)" style="fill:#6c63ff"/><path id="Path_118-156" data-name="Path 118-156" d="M1686,689.65l-13.33-1.47a2.65,2.65,0,0,1-2.35-2.93c0-.13,0-.25.07-.38l3.4-12.93a7.37,7.37,0,1,1,14.66,1.51s0,.1,0,.14l.5,13.32a2.65,2.65,0,0,1-2.55,2.75,2.54,2.54,0,0,1-.39,0Z" transform="translate(36.04 224.5)" style="fill:#6c63ff"/><path id="Path_119-157" data-name="Path 119-157" d="M1716.77,730.29a5,5,0,0,0,.45-7,4.55,4.55,0,0,0-.64-.6l-3.28-43.11-9.65,2.17,5.66,42a5,5,0,0,0,7.46,6.6Z" transform="translate(36.04 224.5)" style="fill:#a0616a"/><path id="Path_120-158" data-name="Path 120-158" d="M1700,686.94a2.65,2.65,0,0,1-.85-2.05l.51-13.31a7.37,7.37,0,1,1,14.65-1.65l3.39,12.92a2.67,2.67,0,0,1-1.89,3.25l-.39.07-13.32,1.46a2.65,2.65,0,0,1-2.1-.69Z" transform="translate(36.04 224.5)" style="fill:#6c63ff"/><path id="Path_121-159" data-name="Path 121-159" d="M1692.52,653.78a2.4,2.4,0,0,1-.6-.07h-.06c-10-1.53-12.24-7.34-12.73-9.77s.07-4.93,1.37-5.87a7.22,7.22,0,0,1,.33-5.88c1.63-2.92,5.15-3.9,5.62-4,2.81-2.07,6.18-.69,6.79-.41,5.44-2,7.52-.33,7.9,0,2.43.44,3.91,1.38,4.41,2.79.92,2.67-2,6-2.13,6.12l-.06.07L1699,637a3,3,0,0,0-2.81,3.08l0,.31h0a13.92,13.92,0,0,0,.45,1.56c.74,2.32,1.3,4.31.58,5.07a1.18,1.18,0,0,1-1.22.21c-.68-.19-1.14-.15-1.37.11s-.25,1.41.31,2.84a2.67,2.67,0,0,1-.49,2.72,2.55,2.55,0,0,1-2,.91Z" transform="translate(36.04 224.5)" style="fill:#2f2e41"/></g><path d="M76.63,1035.52a32.09,32.09,0,0,0-23-9.39h-.34a32.89,32.89,0,0,1-16.56-4.47l-.52-.31.42-.43a32.28,32.28,0,0,0,5.65-8,9.7,9.7,0,0,1-7.82,2.53,9.91,9.91,0,0,1-7.28-4.67c-3.09-5-6.77-12.12-6.77-17.54a33,33,0,0,1,10.75-24.32,20.51,20.51,0,0,0,6.78-15.3v-.41a46.55,46.55,0,0,1,1.38-11.27l.1-.37h.38a31.34,31.34,0,0,0,7.36-.61,24.78,24.78,0,0,1-6.6-1.76l-.41-.16.14-.43c9.63-6,31.38-2.87,44-31.75,10.23-23.42,46.35,20.79,46.35,46.34,0,2.61-2.58,6-.65,7.77,20.88,18.63,6.47,30.59,1.93,42.63-1.08,2.86,1.26,6,1.26,9.08,0,.53,0,1.07,0,1.61l0,.83-.7-.46a23.28,23.28,0,0,1-3.81-3.12,20.11,20.11,0,0,1-.63,17.35c-2.19,4.13-4.31,7.08-6.3,8.78a32.84,32.84,0,0,1-45-2.16Z" transform="translate(36.04 224.5)" style="fill:#e6e6e6"/><path d="M111.59,1097.66a.59.59,0,0,0,.58-.51,197.51,197.51,0,0,0,.28-41.52c-2-21.79-8.6-53.16-28.24-78.94a.59.59,0,0,0-.94.72h0c19.47,25.55,26,56.7,28,78.33A196.84,196.84,0,0,1,111,1097a.59.59,0,0,0,.5.67Z" transform="translate(36.04 224.5)" style="fill:#3f3d56"/><path d="M95.56,1013.05a.59.59,0,0,0,.35-1.07,81.17,81.17,0,0,0-18-9.16c-9.92-3.64-25-6.93-40.56-2a.58.58,0,0,0-.39.74.59.59,0,0,0,.74.39h0c15.23-4.85,30.05-1.61,39.81,2a80,80,0,0,1,17.7,9A.57.57,0,0,0,95.56,1013.05Z" transform="translate(36.04 224.5)" style="fill:#3f3d56"/><path d="M122.63,945.63a.59.59,0,0,0-.55-.63.55.55,0,0,0-.49.21,81.48,81.48,0,0,0-10.44,17.28c-4.34,9.64-8.71,24.46-4.9,40.32a.6.6,0,0,0,.72.44.58.58,0,0,0,.43-.71h0c-3.73-15.54.57-30.09,4.83-39.56a80.2,80.2,0,0,1,10.26-17A.64.64,0,0,0,122.63,945.63Z" transform="translate(36.04 224.5)" style="fill:#3f3d56"/><path d="M236.7,1097H189.62l-.2-.37c-.6-1.09-1.18-2.25-1.73-3.43-4.85-10.39-6.9-22.26-8.7-32.74l-1.37-7.89a4.87,4.87,0,0,1,7.68-4.77l21.47,15.6c2.71,2,5.81,4.25,8.78,6.72.28-1.39.58-2.78.88-4.16a4.88,4.88,0,0,1,8.91-1.54l5.51,8.85c4,6.47,7.56,12.84,6.84,19.7a1,1,0,0,1,0,.25,15.08,15.08,0,0,1-.8,3.31Z" transform="translate(36.04 224.5)" style="fill:#f0f0f0"/><path d="M214.77,911.94l-9.09-33.63a5.63,5.63,0,0,0-6.82-4h0a5.63,5.63,0,0,0-4.05,6.85c0,.09.05.19.08.28l10.51,34.65,5.5,21.32a4.91,4.91,0,1,0,6.88.92,5.09,5.09,0,0,0-.59-.64Z" transform="translate(36.04 224.5)" style="fill:#a0616a"/><path d="M138.31,904.7l27.61-21.25a5.61,5.61,0,0,0,1.05-7.82h0a5.63,5.63,0,0,0-7.87-1.13l-.23.19-28,22.95-17.6,13.22a4.91,4.91,0,1,0,1.77,6.71,4.63,4.63,0,0,0,.37-.78Z" transform="translate(36.04 224.5)" style="fill:#a0616a"/><path d="M160.81,909.58l-1.22,27.18,38.21-8.31c-3.25-10.92-5.46-12.78-3-20.38Z" transform="translate(36.04 224.5)" style="fill:#a0616a"/><path d="M184.31,859.75H171.57l-5.46,9.36L163.5,869a9.38,9.38,0,0,0-9.89,8.85c0,.17,0,.35,0,.52h0l3.21,5s-5.74,10,2.53,14.93c0,0-1.48,9.27,0,9.17s4.87-2,1.47-.1-3.14,2.15-2.7,2.58l.44.44,35.72,6s1-6.92,1.16-8.16-.65,1.79.11-1.23,1.89-1.89.75-3,7.34-15.16,3.86-20.61l5.58-5.44h0c0-5.22-8.38-9.45-13.6-9.45h-.67Z" transform="translate(36.04 224.5)" style="fill:#e6e6e6"/><polygon points="189.67 1311.05 184.51 1311.05 182.06 1291.17 189.67 1291.18 189.67 1311.05" style="fill:#a0616a"/><path d="M138.08,1094.15a2.19,2.19,0,0,0,2.17,2.19H150l.3-.63,1.37-2.83.53,2.83.12.63h3.66l-.06-.63-1-11.7-1.28-.08-5.51-.32-1.36-.09v3.5C145.73,1088.11,137.67,1092.24,138.08,1094.15Z" transform="translate(36.04 224.5)" style="fill:#2f2e41"/><polygon points="266.25 1297.55 261.92 1300.34 249.1 1284.95 255.5 1280.84 266.25 1297.55" style="fill:#a0616a"/><path d="M221.25,1087.86a2.19,2.19,0,0,0,3,.66l8.16-5.25-.09-.68-.37-3.13,2,2.1.44.46,3.08-2-.39-.5-7.15-9.31-1.11.62-4.82,2.71-1.18.66,1.89,2.94C224.42,1078.64,219.87,1086.48,221.25,1087.86Z" transform="translate(36.04 224.5)" style="fill:#2f2e41"/><path d="M254.25,1097.39l-159.56.16a.61.61,0,0,1,0-1.21l159.56-.15a.6.6,0,0,1,0,1.2Z" transform="translate(36.04 224.5)" style="fill:#cacaca"/><path d="M197.2,925.38s-24.42,12.92-37.34,4.11c0,0-2.82,13.68-4,14.82s-2.93,1.62-1.65,2.89,2,3-.44,5.13-4.86,1.48-2.52,3.71-7.09,57-7.09,57,1.51,50.9,0,52.44-3.53,1.88-1.57,3.78,2,.43,2,3.06v2.62l.89,2.61h12.26s3-3.43,0-6.42.9-3.8,1.8-6.6,2.41.22.9-2.8-2.23-2.44-2.25-4.43,22.26-79.75,22.26-79.75l2.7,43,32.44,47.14,9.55-7.16s-6.95-9.79-5.32-11.14-4.8-3-2.77-4.55-2.85-3-1-5.06-2.53-7.08-5.06-7.08-6.08-8.46-6.08-8.46l5.3-66.78Z" transform="translate(36.04 224.5)" style="fill:#2f2e41"/><path d="M171.32,832.28c-.18.23-1.55.11-3.21-.13-3.27-.48-3.72.09-6.17,2.31-3.54,3.23-1.53,22.9-3.27,27.16l-.56.42a20.74,20.74,0,0,0,3.28-.92q.9-2.85,1.81-5.7a16.92,16.92,0,0,1,1.07,4.6,25.91,25.91,0,0,1,5.2-2.23c1.78-1.21,14.6-2.42,16.25-2.94C189.91,840.6,183.16,834.84,171.32,832.28Z" transform="translate(36.04 224.5)" style="fill:#2f2e41"/><circle cx="211.69" cy="1066.48" r="12.26" style="fill:#a0616a"/><path d="M183.37,831.2a5.45,5.45,0,0,1-2-.68,1.86,1.86,0,0,1-.89-1.77,1.88,1.88,0,0,1,2-1.34,5.57,5.57,0,0,1,2.43,1,3.77,3.77,0,0,0-3.21-3.38,7.82,7.82,0,0,1,3.44.33,2.68,2.68,0,0,1,1.77,2.7,4.38,4.38,0,0,1,4.33,2.68,7.32,7.32,0,0,1,0,5.33,1.9,1.9,0,0,1-.94,1.25,2,2,0,0,1-1.79-.54,42.65,42.65,0,0,1-7.45-6.88" transform="translate(36.04 224.5)" style="fill:#2f2e41"/><path d="M188.71,855c-.52.24-.25,1.15-.65,1.56a1.67,1.67,0,0,1-.62.39,7.58,7.58,0,0,0-.52-2.21c-.06-.13-.14-.28-.28-.27s-.2.23-.2.39a6.4,6.4,0,0,1-.5,2.23l0,0h-.35c-.87,0-2.81-2.28-3.24-1.52,1.51-2.69,3.36-6.74,3.65-9.81a4.34,4.34,0,0,0-.14-1.93,1.72,1.72,0,0,0-1.42-1.17,1.08,1.08,0,0,0-1.13,1,1.48,1.48,0,0,0,0,.21l-.22,0c-2-1.65-.28-4.53-2.64-5.66-.8-.39-5.7.9-6.56.67a7.52,7.52,0,0,0-.55-2.65c-.05-.13-.14-.27-.28-.26s-.2.22-.2.38a6.35,6.35,0,0,1-.5,2.23,9.24,9.24,0,0,0-3.59.19c-1,.27-2,.74-3.06,1a4,4,0,0,1-3.1-.34,3.49,3.49,0,0,1-.89-4.28,8.38,8.38,0,0,1,1.89-2.45c.6-.57,1.21-1.12,1.83-1.67l1.65-1.49a20.18,20.18,0,0,1,2.21-1.8,10.91,10.91,0,0,1,8.52-1.49c1.74.42,4.06-.17,5.65.64a34.38,34.38,0,0,1,3.4,2.64c1.86,1.49.6.28,2.64,1.14C194.36,832.73,192.21,853.37,188.71,855Z" transform="translate(36.04 224.5)" style="fill:#2f2e41"/><circle cx="89" cy="1092.97" r="76.03" style="fill:#fff"/><path d="M53,945.27a76.8,76.8,0,1,1,76.8-76.8A76.88,76.88,0,0,1,53,945.27ZM53,793.2a75.28,75.28,0,1,0,75.28,75.27A75.36,75.36,0,0,0,53,793.2Z" transform="translate(36.04 224.5)" style="fill:#6c63ff"/><path d="M42.59,908a8.43,8.43,0,0,1-6.76-3.38L15.08,877a8.46,8.46,0,1,1,13.53-10.15L42.19,885,77,832.67a8.46,8.46,0,0,1,14.08,9.38L49.63,904.28a8.47,8.47,0,0,1-6.8,3.76Z" transform="translate(36.04 224.5)" style="fill:#6c63ff"/><ellipse cx="127.52" cy="796.64" rx="2.66" ry="3.82" transform="translate(-643.14 1032.63) rotate(-81.72)" style="fill:#e6e6e6"/><ellipse cx="152.4" cy="794.21" rx="2.66" ry="3.82" transform="translate(-619.45 1055.17) rotate(-81.72)" style="fill:#3f3d56"/><ellipse cx="120.7" cy="776.5" rx="2.66" ry="3.82" transform="translate(-629.04 1008.64) rotate(-81.72)" style="fill:#ff6584"/><ellipse cx="112" cy="768.78" rx="2.42" ry="1.68" transform="translate(-621.58 1099.46) rotate(-89.57)" style="fill:#e6e6e6"/><ellipse cx="83.33" cy="788.42" rx="2.42" ry="1.68" transform="translate(-669.66 1090.28) rotate(-89.57)" style="fill:#3f3d56"/><ellipse cx="136.84" cy="780.46" rx="2.42" ry="1.68" transform="translate(-608.6 1135.9) rotate(-89.57)" style="fill:#e6e6e6"/><ellipse cx="124.82" cy="786.46" rx="2.42" ry="1.68" transform="translate(-626.53 1129.83) rotate(-89.57)" style="fill:#ff6584"/><ellipse cx="141.55" cy="797.56" rx="2.42" ry="1.68" transform="translate(-621.02 1157.58) rotate(-89.57)" style="fill:#3f3d56"/><ellipse cx="-15.17" cy="976.77" rx="2.66" ry="3.82" transform="translate(-943.54 1045.62) rotate(-81.72)" style="fill:#e6e6e6"/><ellipse cx="9.71" cy="974.34" rx="2.66" ry="3.82" transform="translate(-919.84 1068.16) rotate(-81.72)" style="fill:#3f3d56"/><ellipse cx="-21.98" cy="956.62" rx="2.66" ry="3.82" transform="translate(-929.44 1021.64) rotate(-81.72)" style="fill:#ff6584"/><ellipse cx="-30.69" cy="948.91" rx="2.42" ry="1.68" transform="translate(-943.3 1135.55) rotate(-89.57)" style="fill:#e6e6e6"/><ellipse cx="-34.35" cy="933.54" rx="2.42" ry="1.68" transform="translate(-931.58 1116.63) rotate(-89.57)" style="fill:#3f3d56"/><ellipse cx="-5.85" cy="960.59" rx="2.42" ry="1.68" transform="translate(-930.33 1171.98) rotate(-89.57)" style="fill:#e6e6e6"/><ellipse cx="-17.87" cy="966.59" rx="2.42" ry="1.68" transform="translate(-948.26 1165.92) rotate(-89.57)" style="fill:#ff6584"/><ellipse cx="-1.13" cy="977.69" rx="2.42" ry="1.68" transform="translate(-942.75 1193.66) rotate(-89.57)" style="fill:#3f3d56"/></g></svg>