<svg xmlns="http://www.w3.org/2000/svg" viewBox="0 0 2168.83 1391.67"><g id="Layer_3" data-name="Layer 3"><path id="b10fb2cf-c586-4c5f-9fbf-e678f5ffa3db-120" d="M1832.56,220.28a99.5,99.5,0,0,1-21.7,17.51l-.55.32-13-11.48.45-.43c9.67-9.18,57.68-73.38,60.87-89C1858.43,138.49,1861.54,189.56,1832.56,220.28Z" transform="translate(199.91 174.12)" style="fill:#f0f0f0"/><path id="a32c10c7-75df-4179-a648-6a8d2a687209-121" d="M1813.37,240l-.75.17-9.73-8.62.66-.24c4.18-1.47,16.62-5.94,29-11,13.3-5.46,26.54-11.64,29.39-15.6C1861.34,205.6,1842.52,233.48,1813.37,240Z" transform="translate(199.91 174.12)" style="fill:#f0f0f0"/><path d="M1832.38,50.36H1831v-38a22,22,0,0,0-22-22h-80.48a22,22,0,0,0-22,22v208.4a22,22,0,0,0,22,22H1809a22,22,0,0,0,22-22V77.4h1.39Z" transform="translate(199.91 174.12)" style="fill:#3f3d56"/><path d="M1826.31,12.53V220.61A16.42,16.42,0,0,1,1809.9,237H1729a16.42,16.42,0,0,1-16.42-16.41h0V12.53A16.42,16.42,0,0,1,1729-3.89h9.82a7.79,7.79,0,0,0,4.29,10.17,7.76,7.76,0,0,0,2.93.57h46.11A7.79,7.79,0,0,0,1800-.93a7.88,7.88,0,0,0-.58-3h10.5a16.41,16.41,0,0,1,16.42,16.41Z" transform="translate(199.91 174.12)" style="fill:#fff"/><path d="M1801.16,120.66h-71.08a4.71,4.71,0,0,1-4.7-4.7v-2.33a4.71,4.71,0,0,1,4.7-4.7h71.08a4.69,4.69,0,0,1,4.69,4.7V116A4.69,4.69,0,0,1,1801.16,120.66Z" transform="translate(199.91 174.12)" style="fill:#f0f0f0"/><path d="M1801.16,140.81h-71.08a4.71,4.71,0,0,1-4.7-4.7v-2.34a4.71,4.71,0,0,1,4.7-4.69h71.08a4.69,4.69,0,0,1,4.69,4.69v2.34A4.7,4.7,0,0,1,1801.16,140.81Z" transform="translate(199.91 174.12)" style="fill:#f0f0f0"/><path d="M1804.71,116.15h-71.08a4.94,4.94,0,0,1-4.93-4.93v-2.33a4.93,4.93,0,0,1,4.93-4.93h71.08a4.93,4.93,0,0,1,4.93,4.93v2.33A4.93,4.93,0,0,1,1804.71,116.15Zm-71.08-11.26a4,4,0,0,0-4,4v2.33a4,4,0,0,0,4,4h71.08a4,4,0,0,0,4-4v-2.33a4,4,0,0,0-4-4Z" transform="translate(199.91 174.12)" style="fill:#3f3d56"/><path d="M1804.71,136.3h-71.08a4.94,4.94,0,0,1-4.93-4.93V129a5,5,0,0,1,4.93-4.93h71.08a4.94,4.94,0,0,1,4.93,4.93v2.34A4.93,4.93,0,0,1,1804.71,136.3ZM1733.63,125a4,4,0,0,0-4,4v2.34a4,4,0,0,0,4,4h71.08a4,4,0,0,0,4-4V129a4,4,0,0,0-4-4Z" transform="translate(199.91 174.12)" style="fill:#3f3d56"/><path d="M1826.31,12.53V57.79a48.62,48.62,0,0,1-61-47c0-1.33,0-2.65.16-3.94h26.69A7.81,7.81,0,0,0,1800-.93a7.88,7.88,0,0,0-.58-3h10.5a16.41,16.41,0,0,1,16.42,16.41Z" transform="translate(199.91 174.12)" style="fill:#f0f0f0"/><path d="M1753.47,234.2c0,1,0,1.9-.11,2.83H1729a16.42,16.42,0,0,1-16.42-16.41h0V198.36a36.19,36.19,0,0,1,40.56,31.22,35.72,35.72,0,0,1,.3,4.62Z" transform="translate(199.91 174.12)" style="fill:#6c63ff"/><path d="M1557.23,195.15a2.82,2.82,0,0,0,3.71-1.44L1582.86,144a6.28,6.28,0,0,0-8-8.39h0a6.19,6.19,0,0,0-3.17,2.71c-.11.2-.21.4-.31.61l-21.92,49.68a2.82,2.82,0,0,0,1.44,3.71h0Z" transform="translate(199.91 174.12)" style="fill:#6c63ff"/><path d="M1582,164.43l-21.68-4.82,5.36-14.2a15,15,0,0,1,16.11-11.09l.21,0Z" transform="translate(199.91 174.12)" style="fill:#2f2e41"/><path d="M1625.75,195.86a3.3,3.3,0,0,1-3-2l-21.92-49.68a6.75,6.75,0,0,1,12-6.1h0c.12.21.23.43.33.65l21.92,49.68a3.28,3.28,0,0,1-1.68,4.33l-6.56,2.89h0A3.5,3.5,0,0,1,1625.75,195.86Z" transform="translate(199.91 174.12)" style="fill:#6c63ff"/><path d="M1595.43,178.8a2.83,2.83,0,0,0-2.82,2.82v57.76a2.83,2.83,0,0,0,2.82,2.82h6.93a2.82,2.82,0,0,0,2.82-2.82V181.62a2.82,2.82,0,0,0-2.82-2.82Z" transform="translate(199.91 174.12)" style="fill:#6c63ff"/><path d="M1581.72,178.8a2.81,2.81,0,0,0-2.81,2.82v57.76a2.81,2.81,0,0,0,2.81,2.82h6.93a2.82,2.82,0,0,0,2.82-2.82V181.62a2.82,2.82,0,0,0-2.82-2.82Z" transform="translate(199.91 174.12)" style="fill:#6c63ff"/><circle cx="1791.75" cy="268.45" r="23.95" style="fill:#6c63ff"/><path d="M1599.81,104.39c1.55,0,3.48-.1,5-1.19a3.78,3.78,0,0,0,1.5-2.85,2.57,2.57,0,0,0-.87-2.11,3.31,3.31,0,0,0-3.14-.45l1.27-9.26-.93-.13-1.49,10.89.78-.36a2.84,2.84,0,0,1,2.9,0,1.65,1.65,0,0,1,.54,1.36,2.83,2.83,0,0,1-1.12,2.12c-1.15.85-2.69,1-4.44,1Z" transform="translate(199.91 174.12)" style="fill:#2f2e41"/><rect x="1808.05" y="263.44" width="5.06" height="0.94" style="fill:#2f2e41"/><rect x="1792.09" y="263.44" width="5.06" height="0.94" style="fill:#2f2e41"/><path d="M1615.57,196.15,1607,133.23a2.83,2.83,0,0,0-2.8-2.44h-6.5a2.42,2.42,0,0,0,0-.47V128a2.82,2.82,0,0,0-2.82-2.82h-5.63a2.82,2.82,0,0,0-2.82,2.82v2.34a3.57,3.57,0,0,0,0,.47H1580a2.81,2.81,0,0,0-2.79,2.44l-8.62,62.92a2.8,2.8,0,0,0,2.4,3.17,2.56,2.56,0,0,0,.39,0h41.43a2.82,2.82,0,0,0,2.82-2.82C1615.59,196.4,1615.58,196.28,1615.57,196.15Z" transform="translate(199.91 174.12)" style="fill:#2f2e41"/><path d="M1602.15,164.43V134.34l.21,0a15,15,0,0,1,16.11,11.12l5.36,14.17Z" transform="translate(199.91 174.12)" style="fill:#2f2e41"/><path d="M1590.63,119l-16.56-6.43c-2.71-1-5.44-2.07-8.13-3.16a9.34,9.34,0,0,1-3.13-1.84,6.23,6.23,0,0,1-1.56-3,31.35,31.35,0,0,1-.43-7.56,57.84,57.84,0,0,1,.67-8.1,39,39,0,0,1,5-14.26c4.65-7.63,12.65-13.36,21.86-12.9a18.72,18.72,0,0,1,11.71,4.65,7.09,7.09,0,0,0,1.11,1.08,1.55,1.55,0,0,0,.88.05l1.16-.05a23.48,23.48,0,0,1,4,.17,12.8,12.8,0,0,1,6.64,2.75,8.08,8.08,0,0,1,3,5.42,6.41,6.41,0,0,1-2.17,5.24c-2,1.66-4.79,1.08-7.16,1l-8.69-.46-4.4-.23c-.9,0-.9,1.36,0,1.41l11.7.62a51.56,51.56,0,0,0,5.69.23,6.38,6.38,0,0,0,3.92-1.58,7.81,7.81,0,0,0,2.36-7.32,10.47,10.47,0,0,0-5.26-6.69c-3.42-1.93-7.51-2.11-11.34-1.83l.5.21c-4.33-4.65-11-6.61-17.19-5.92a25.74,25.74,0,0,0-16.63,9.4A38.86,38.86,0,0,0,1560,89.6a66.09,66.09,0,0,0-.5,11.68,14.5,14.5,0,0,0,.87,5,7.16,7.16,0,0,0,3.39,3.64,50.24,50.24,0,0,0,5.38,2.21l6.11,2.37,12,4.65,3.06,1.19C1591.1,120.72,1591.47,119.35,1590.63,119Z" transform="translate(199.91 174.12)" style="fill:#2f2e41"/><path d="M1564.59,71.16a7.28,7.28,0,1,1,7.27-7.28h0A7.29,7.29,0,0,1,1564.59,71.16Zm0-13.15a5.87,5.87,0,1,0,5.87,5.87A5.87,5.87,0,0,0,1564.59,58Z" transform="translate(199.91 174.12)" style="fill:#2f2e41"/><rect x="1662.44" y="108.2" width="19.83" height="19.83" transform="translate(762.47 1548.85) rotate(-52.59)" style="fill:#f0f0f0"/><path d="M1599.22-150.3a16,16,0,0,1,8,2.14,7.27,7.27,0,0,0,9.46-1.75l.21-.28a7.17,7.17,0,0,0-1.34-10.06l-16.21-12.39a7.16,7.16,0,0,0-10,1.34l-12.4,16.21a7.18,7.18,0,0,0,1.34,10.05l.2.15a7.21,7.21,0,0,0,9.49-.7A16,16,0,0,1,1599.22-150.3Z" transform="translate(199.91 174.12)" style="fill:#f0f0f0"/><path d="M1968.92,235H1637.4c-107.26,8-107.47,7.81-107.47,7.55a.47.47,0,0,1,.47-.47h331.52a.47.47,0,0,1,.47.47C1862.39,242.81,1862.18,243,1968.92,235Z" transform="translate(199.91 174.12)" style="fill:#3f3d56"/><path d="M1781,165.1h-33.75a4.69,4.69,0,0,1-4.69-4.69v-2.34a4.69,4.69,0,0,1,4.69-4.69H1781a4.69,4.69,0,0,1,4.69,4.69v2.34A4.69,4.69,0,0,1,1781,165.1Z" transform="translate(199.91 174.12)" style="fill:#6c63ff"/><path d="M1784.56,160.6h-33.74a4.93,4.93,0,0,1-4.93-4.93v-2.34a4.93,4.93,0,0,1,4.93-4.93h33.74a4.93,4.93,0,0,1,4.93,4.93v2.34A4.93,4.93,0,0,1,1784.56,160.6Zm-33.74-11.26a4,4,0,0,0-4,4v2.34a4,4,0,0,0,4,4h33.74a4,4,0,0,0,4-4v-2.34a4,4,0,0,0-4-4Z" transform="translate(199.91 174.12)" style="fill:#3f3d56"/><path d="M173.54,405.13a31.79,31.79,0,0,0,2.73-3.49l-17.34-4.05L177.88,399a32.07,32.07,0,0,0,2.31-25.29L153.86,385.2l24.63-15.67a32,32,0,1,0-55.2,32.24,31.6,31.6,0,0,0-4,5.58l22,13.35-23.73-9.77a32.09,32.09,0,0,0,3.15,30.37,32.05,32.05,0,0,0,15.79,52.48,11,11,0,0,0-.88,3.67,10.61,10.61,0,0,0,1,5.43,11,11,0,0,0-.72,10.68,10.94,10.94,0,0,0-.71,10.68,11,11,0,0,0-.72,10.67,10.63,10.63,0,0,0-1.75,5.25c-.32,4.83,2.4,8.94,6.09,9.18s6.93-3.46,7.26-8.28a10.63,10.63,0,0,0-1-5.44,11,11,0,0,0,.72-10.68,10.92,10.92,0,0,0,.71-10.67,10.94,10.94,0,0,0,.72-10.68,10.63,10.63,0,0,0,1.75-5.25,10.91,10.91,0,0,0-.4-3.81,32,32,0,0,0,22.39-49.86,32,32,0,0,0,2.65-39.54Z" transform="translate(199.91 174.12)" style="fill:#f2f2f2"/><path d="M208.54,546.42c0,4.73-33.31,20.92-73,20.92s-70.72-16.19-70.72-20.92,31,3.81,70.72,3.81S208.54,541.7,208.54,546.42Z" transform="translate(199.91 174.12)" style="fill:#3f3d56"/><path d="M208.54,546.42c0,4.73-33.31,20.92-73,20.92s-70.72-16.19-70.72-20.92,31,3.81,70.72,3.81S208.54,541.7,208.54,546.42Z" transform="translate(199.91 174.12)" style="opacity:0.10000000149011612;isolation:isolate"/><ellipse cx="336.59" cy="720.54" rx="71.86" ry="8.55" style="fill:#3f3d56"/><ellipse cx="338.29" cy="721.65" rx="24.37" ry="6.96" style="opacity:0.10000000149011612;isolation:isolate"/><path d="M143.73,501.29a10.66,10.66,0,0,0,1.4-5.35c0-4.84-3-8.76-6.69-8.76s-6.69,3.92-6.69,8.76a10.55,10.55,0,0,0,1.39,5.35,11,11,0,0,0,0,10.7,11,11,0,0,0,0,10.71,11,11,0,0,0,0,10.7,10.55,10.55,0,0,0-1.39,5.35c0,4.84,3,8.76,6.69,8.76s6.69-3.92,6.69-8.76a10.66,10.66,0,0,0-1.4-5.35,11,11,0,0,0,0-10.7,11,11,0,0,0,0-10.71A11,11,0,0,0,143.73,501.29Z" transform="translate(199.91 174.12)" style="fill:#3f3d56"/><ellipse cx="338.35" cy="659.36" rx="6.69" ry="8.76" style="fill:#3f3d56"/><ellipse cx="338.35" cy="648.65" rx="6.69" ry="8.76" style="fill:#3f3d56"/><path d="M163.48,401.29a33.68,33.68,0,0,0,2.49-3.66l-17.58-2.89,19,.14a32.06,32.06,0,0,0,.61-25.39l-25.5,13.23L166,365.43a32,32,0,0,0-55.47,32.1,31,31,0,0,0,2.55,3.76,31.84,31.84,0,0,0-3.65,5.85L132.27,419l-24.33-8.16a32.06,32.06,0,0,0,5.17,30.08,32,32,0,1,0,50.37,0A32.05,32.05,0,0,0,163.48,401.29Z" transform="translate(199.91 174.12)" style="fill:#6c63ff"/><path d="M106.25,421.1a31.91,31.91,0,0,0,6.86,19.81,32,32,0,1,0,50.37,0C167.77,435.46,106.25,417.51,106.25,421.1Z" transform="translate(199.91 174.12)" style="opacity:0.10000000149011612;isolation:isolate"/><path d="M252.53,452.61l7.22-6.43c-14.33-2.67-28.7,9.93-32.46,28.28l-.37.1-8.13-26.69a46.4,46.4,0,0,0-.8,9.63l-6.34-12.33c-2.57,13.79,3.54,26.6,13.79,29.67a18.26,18.26,0,0,1-2.56-.18h-.07a8.71,8.71,0,0,0,.06,2,1.82,1.82,0,0,0,.47,1,8.67,8.67,0,0,0,2.35,1.07l.27.09c.74.25,1.57.5,2.43.73,1.07.29,2.18.54,3.2.72a2,2,0,0,0,.31,0h.36l.14,0,.07,0,.12,0,0,0,.1-.07,0,0a.41.41,0,0,0,.09-.1v0a.53.53,0,0,0,.08-.15h0a.83.83,0,0,0,0-.15h0c.19-1.23-1.54-3.84-1.56-4.57s-1.75-.9-3.16-.8l26.55-21.44A19.8,19.8,0,0,0,252.53,452.61Z" transform="translate(199.91 174.12)" style="fill:#f2f2f2"/><path d="M273.39,478.31c0,3.2-22.59,14.18-49.5,14.18s-47.95-11-47.95-14.18,21,2.57,47.95,2.57S273.39,475.1,273.39,478.31Z" transform="translate(199.91 174.12)" style="fill:#3f3d56"/><path d="M273.39,478.31c0,3.2-22.59,14.18-49.5,14.18s-47.95-11-47.95-14.18,21,2.57,47.95,2.57S273.39,475.1,273.39,478.31Z" transform="translate(199.91 174.12)" style="opacity:0.10000000149011612;isolation:isolate"/><ellipse cx="424.58" cy="652.43" rx="48.72" ry="5.8" style="fill:#3f3d56"/><ellipse cx="424.56" cy="652.41" rx="10.44" ry="3.48" style="opacity:0.10000000149011612;isolation:isolate"/><path d="M202.93,449.43c0,14.78,9.27,26.74,20.74,26.74" transform="translate(199.91 174.12)" style="fill:#3f3d56"/><path d="M223.67,476.17c0-14.94,10.34-27,23.13-27" transform="translate(199.91 174.12)" style="fill:#6c63ff"/><path d="M210.44,450.77c0,14,5.92,25.4,13.23,25.4" transform="translate(199.91 174.12)" style="fill:#6c63ff"/><path d="M223.67,476.17c0-19.1,12-34.55,26.74-34.55" transform="translate(199.91 174.12)" style="fill:#3f3d56"/><path d="M219.3,476.36s2.94-.09,3.83-.72,4.52-1.38,4.74-.37,4.42,5,1.1,5.06-7.71-.52-8.6-1.06S219.3,476.36,219.3,476.36Z" transform="translate(199.91 174.12)" style="fill:#a8a8a8"/><path d="M229,480c-3.32,0-7.71-.52-8.6-1.06-.67-.41-.94-1.88-1-2.56h-.1s.19,2.37,1.07,2.91,5.28,1.08,8.6,1.06c1,0,1.29-.35,1.27-.86C230.11,479.78,229.74,480,229,480Z" transform="translate(199.91 174.12)" style="opacity:0.20000000298023224;isolation:isolate"/><path d="M-35.41,437.7l3.73,5.91c-1.25,1.67-2.14,3.48-1.57,4.68,1.4,3,4.62,6.79,6.34,8.83s1.95,7.5,13.6,6.85S3.05,458,3.05,458s1,9.56,6,13a4.06,4.06,0,0,1-1.63,1.33C2.17,474.8-3.54,494.31-7.5,505c-4.32,11.69,2.24,9.66,2.24,9.66,2.2,0,4.22.15,6.07.32C3,520.72,6.39,532.93,2.38,545.5c-2.81,8.79-2.22,18.06-1,25l-2.62,2.8A6.22,6.22,0,0,0-5,576.09l-6.71,9.36,1.11.8,4-5.57a11.72,11.72,0,0,1,2.08,3.26c1.21,2.47-2.22,12.11-2.28,12.81s3.05,5.7,7.41,7.26a2.16,2.16,0,0,0,.94.14l-.4,4.64,2.37,0,.72-8.46s1.83,11.75,2.2,13,4.16,1.06,8.14,1.64,7.91-4,3.87-6.52-4.55-10.33-4.55-10.33c1.91-5.75-2.41-13.22-2.41-13.22L11,579.6a1.53,1.53,0,0,1-1,.87l.59-6.86c4.52-5.19,10.42-12.12,13.47-16.31,5.36-7.34,5.07-9.49,5.07-9.49l5.5-24.38a29.51,29.51,0,0,0,5.48-.11c3.72-.56,2.34-12.78.18-22.64.57-2.33,1.46-5.54,2.87-10a31.1,31.1,0,0,0,1.32-6.54,37.72,37.72,0,0,0-3.6-19.3l.46-1.17s4.3-4.7.94-12.64a18.26,18.26,0,0,0,.39-2.55,19,19,0,0,0-2.41-10.9l-.06-.11,0,0h0l-.11-.13c-1.36-1.39-8.33-4-9.75-4.55a.69.69,0,0,0-.25-.1c-.53,0,0-2.33.61-4.36a9.89,9.89,0,0,0,1.94-2,18.86,18.86,0,0,0,5.8-31.18,9.9,9.9,0,0,0-2.29-13.81,10.2,10.2,0,0,0-.92-.59A9.91,9.91,0,0,1,37.05,394l-.65-.48a9.9,9.9,0,1,0-19-1.64,18.85,18.85,0,0,0-3.32,32,13.14,13.14,0,0,1-12-.44,13.14,13.14,0,0,0,13.83,1.83A9.94,9.94,0,0,0,19.49,429a6.09,6.09,0,0,1-.63,1.28l-.61-.49-2.61,2.85L8.91,434s-4.31.57-9.22,5.35-13.15,7.15-13.15,7.15l-6.47-1.74s-7.44-4.19-7.36-5.13c0-.15-.17-.1-.47.09l-3.64-7.3s-6.83-16.91-11.2-12.79S-35.41,437.7-35.41,437.7ZM12.65,549.77l.17-1.95C15,544.7,16.27,537,17,529.89l-1,17.25a11.73,11.73,0,0,0-3.31,2.63Zm-9,36.51,0,2.61A16.16,16.16,0,0,0,2,593c-.21-1.25.65-4.05,1.63-6.68Z" transform="translate(199.91 174.12)" style="fill:#f2f2f2"/><path d="M123.36,610.36C123.36,618.2,68.11,645,2.29,645S-115,618.2-115,610.36s51.47,6.31,117.29,6.31S123.36,602.52,123.36,610.36Z" transform="translate(199.91 174.12)" style="fill:#3f3d56"/><path d="M123.36,610.36C123.36,618.2,68.11,645,2.29,645S-115,618.2-115,610.36s51.47,6.31,117.29,6.31S123.36,602.52,123.36,610.36Z" transform="translate(199.91 174.12)" style="opacity:0.10000000149011612;isolation:isolate"/><ellipse cx="204.09" cy="784.48" rx="119.18" ry="14.19" style="fill:#3f3d56"/><ellipse cx="204.83" cy="782" rx="39.46" ry="8.51" style="opacity:0.10000000149011612;isolation:isolate"/><path d="M.9,423a13.12,13.12,0,0,0,2.51-18.4,13.17,13.17,0,0,0-3-2.85A13.14,13.14,0,0,1,7,419.12a13.14,13.14,0,0,1-17.38,6.55,13.23,13.23,0,0,1-2.07-1.17A13.12,13.12,0,0,0,.9,423Z" transform="translate(199.91 174.12)" style="fill:#2f2e41"/><path d="M24.59,435.23h2.12a18.91,18.91,0,0,1,2.83,15.55c-2.36,9-.47,10.61-.47,10.61s8.48,12,5.18,26.63-2.36,16.26-2.36,16.26L26,492.49l-3.3-31.1Z" transform="translate(199.91 174.12)" style="fill:#6c63ff"/><path d="M24.59,435.24h2.12a18.91,18.91,0,0,1,2.83,15.55c-2.36,9-.47,10.61-.47,10.61s8.48,12,5.18,26.63-2.36,16.26-2.36,16.26L26,492.51,22.7,461.4Z" transform="translate(199.91 174.12)" style="opacity:0.10000000149011612;isolation:isolate"/><circle cx="209.53" cy="582.13" r="18.85" style="fill:#2f2e41"/><path d="M17.16,423.8s-1.88,7.54-.94,7.54,4.24,4,4.24,4l2.12,7.77-1.64,5.66-5.66-1.18-7.07-7.78L6.09,437.7,4.2,430.87s2.36-2.83.71-5.19S17.16,423.8,17.16,423.8Z" transform="translate(199.91 174.12)" style="fill:#fbbebe"/><path d="M17.16,423.8s-1.88,7.54-.94,7.54,4.24,4,4.24,4l2.12,7.77-1.64,5.66-5.66-1.18-7.07-7.78L6.09,437.7,4.2,430.87s2.36-2.83.71-5.19S17.16,423.8,17.16,423.8Z" transform="translate(199.91 174.12)" style="opacity:0.10000000149011612;isolation:isolate"/><path d="M-39.87,444.77-45,436.29s-5.6-12.38-9.6-7.91,6.07,13.56,6.07,13.56l5.18,6.84Z" transform="translate(199.91 174.12)" style="fill:#fbbebe"/><path d="M29,518.53l-3.77,27.58s.47,2.12-4.24,9.89S3.5,580.75,3.5,580.75l-3.77-7.07S4.2,551.29,12,546.58L11,512.64Z" transform="translate(199.91 174.12)" style="fill:#fbbebe"/><path d="M29,518.53l-3.77,27.58s.47,2.12-4.24,9.89S3.5,580.75,3.5,580.75l-3.77-7.07S4.2,551.29,12,546.58L11,512.64Z" transform="translate(199.91 174.12)" style="opacity:0.10000000149011612;isolation:isolate"/><path d="M-.27,570.85l5.18,9.9s-4.24,12-2.59,13.2,3.77,11.78-.71,10.6-8-5.89-8-6.6,2.59-10.6,1.18-13a11.39,11.39,0,0,0-2.36-3.06l-3.53,5.89-1.18-.71,5.89-9.9a6.23,6.23,0,0,1,3.53-3.06Z" transform="translate(199.91 174.12)" style="fill:#2f2e41"/><path d="M-.27,570.85l5.18,9.9s-4.24,12-2.59,13.2,3.77,11.78-.71,10.6-8-5.89-8-6.6,2.59-10.6,1.18-13a11.39,11.39,0,0,0-2.36-3.06l-3.53,5.89-1.18-.71,5.89-9.9a6.23,6.23,0,0,1,3.53-3.06Z" transform="translate(199.91 174.12)" style="opacity:0.10000000149011612;isolation:isolate"/><path d="M11.09,514.62s1.83,26.07-2.17,32.9v33.94l-5.42.7s-9.19-18.38-5.19-36-5.89-33.47-5.89-33.47Z" transform="translate(199.91 174.12)" style="fill:#fbbebe"/><circle cx="209.65" cy="593.79" r="9.9" style="fill:#fbbebe"/><path d="M19.76,445.72l-9.9-12.49L4.2,429.45l-2.35,3.07-6.6,1.88s-4.24,1-8.72,6.13S-26,448.78-26,448.78l-6.6-1.18s-7.78-3.53-7.78-4.48-6.83,6.37-5.18,9.19,5.18,6.37,7.07,8.25,2.59,7.31,14.14,5.66,15.79-7.31,15.79-7.31,2.12,10.84,8.25,13,26.15,3.54,26.15,3.54l4.25-14.14s4.71-6.13-1.65-15.08a60,60,0,0,0-.81-8.34,5.59,5.59,0,0,0-1.08-2.74c-1.65-1.41-10.37-3.77-10.37-3.77s1.42,4.71,2.12,5S20.7,444.54,19.76,445.72Z" transform="translate(199.91 174.12)" style="fill:#6c63ff"/><path d="M-11.94,516.06c11.87-.82,18.78,1.12,21.86,2.6a8.06,8.06,0,0,1,1.61,1c.22.19.33.34.33.43,0,.7,16.26,2.12,22.15.7s-4-31.81-6.59-34.4-1.2-12.08-1.2-12.08-5.17-1.12-6.58-.65-8.72-.71-11.31-2.12-5.89-.47-8-.94a1.33,1.33,0,0,0-1.66.6A4.14,4.14,0,0,1-3,472.81c-5,2.88-9,22.81-12,33.82C-18.3,518.65-11.94,516.06-11.94,516.06Z" transform="translate(199.91 174.12)" style="fill:#2f2e41"/><path d="M9.86,579.33l.94,5.19s4.95,7.07,3.54,13c0,0,1.17,7.78,5.42,9.9s.7,7.07-3.3,6.83-7.78.24-8.25-.94-3.3-12.73-3.3-12.73V609l-2.36.23v-10.6s-1.88-3.54.71-9.43l-.65-9S9.15,581.69,9.86,579.33Z" transform="translate(199.91 174.12)" style="fill:#2f2e41"/><circle cx="209.53" cy="563.28" r="9.9" style="fill:#2f2e41"/><path d="M17.24,395.17a9.89,9.89,0,0,0-.35-16,9.9,9.9,0,0,1-8.16,18,10.46,10.46,0,0,1-1.56-.89A9.89,9.89,0,0,0,17.24,395.17Z" transform="translate(199.91 174.12)" style="fill:#2f2e41"/><ellipse cx="209.77" cy="585.9" rx="10.13" ry="8.01" style="fill:#2f2e41"/><path d="M9.92,518.66a8.06,8.06,0,0,1,1.61,1c.12-2.23.84-15.7,0-15.48Z" transform="translate(199.91 174.12)" style="opacity:0.10000000149011612;isolation:isolate"/><circle cx="126.69" cy="580.07" r="33.27" style="fill:#ff6584"/><ellipse cx="-53.49" cy="432.25" rx="1.16" ry="2.71" transform="translate(-223.13 375.85) rotate(-65.1)" style="fill:#fbbebe"/><g id="Group_6" data-name="Group 6"><path id="Path_80-141" data-name="Path 80-141" d="M1845.14,535H1733.42a23.76,23.76,0,0,0-23.17,18.53L1653.8,803.92a19.19,19.19,0,0,0,14.5,22.94,18.23,18.23,0,0,0,3.28.45L1786.43,833a25.35,25.35,0,0,0,26.2-20.81l32-177,2.38.68,6.13-33.56-2.45-.61,8.94-49.41A14.61,14.61,0,0,0,1845.15,535Z" transform="translate(199.91 174.12)" style="fill:#3f3d56"/><path id="Path_81-142" data-name="Path 81-142" d="M1748.13,540.4h-13a16.41,16.41,0,0,0-16,12.91l-54.18,248.35a10.15,10.15,0,0,0,7.76,12.1,11,11,0,0,0,1.51.22l114.47,7.5a13.17,13.17,0,0,0,13.83-10.81L1848.68,554a11.55,11.55,0,0,0-9.31-13.4,11.75,11.75,0,0,0-2-.18H1825a5.45,5.45,0,0,0-5.26,4h0a4.8,4.8,0,0,1-4.64,3.56h-58.73A8.22,8.22,0,0,1,1748.13,540.4Z" transform="translate(199.91 174.12)" style="fill:#fff"/><path id="Path_93-143" data-name="Path 93-143" d="M1811.41,714a.93.93,0,0,0,.94-.77l25.32-139.72a.93.93,0,0,0-.19-.75.91.91,0,0,0-.7-.34l-115.18-1.36h0a.91.91,0,0,0-.89.72L1690.85,707a1,1,0,0,0,.17.76.92.92,0,0,0,.68.37Z" transform="translate(199.91 174.12)" style="fill:#e6e6e6"/><path id="Path_94-144" data-name="Path 94-144" d="M1711.46,723.05a.46.46,0,0,0-.45.36l-1.08,4.62a.47.47,0,0,0,.34.56h.08l60.93,4.33a.47.47,0,0,0,.49-.37l1-5.35a.47.47,0,0,0-.36-.55h-.06l-60.89-3.61Z" transform="translate(199.91 174.12)" style="fill:#e6e6e6"/><path id="Path_95-145" data-name="Path 95-145" d="M1785.49,750.1a.47.47,0,0,0,.49-.35l1.32-5.36a.46.46,0,0,0-.34-.56h-.08l-77.82-5.45a.46.46,0,0,0-.47.33l-1.38,4.64a.46.46,0,0,0,.32.57l.09,0Z" transform="translate(199.91 174.12)" style="fill:#e6e6e6"/><path id="Path_96-146" data-name="Path 96-146" d="M1781.31,767.28a.47.47,0,0,0,.49-.35l1.32-5.36a.46.46,0,0,0-.34-.56l-.08,0-77.81-5.44a.47.47,0,0,0-.48.33l-1.37,4.64a.45.45,0,0,0,.31.57l.09,0Z" transform="translate(199.91 174.12)" style="fill:#e6e6e6"/><path id="Path_79-147" data-name="Path 79-147" d="M1646.39,827.76c0,3.89-35.56,4.3-79.34,7s-79.35-3.15-79.35-7,35.78-11.7,79.35-7C1610.83,825.42,1646.39,823.88,1646.39,827.76Z" transform="translate(199.91 174.12)" style="fill:#e6e6e6"/><path id="Path_97-148" data-name="Path 97-148" d="M1745.47,796.65a.46.46,0,0,0,.49-.35l2.8-11.17a.46.46,0,0,0-.34-.56h-.07l-47.79-4a.46.46,0,0,0-.49.36l-2.38,10.72a.45.45,0,0,0,.35.55h.06Z" transform="translate(199.91 174.12)" style="fill:#6c63ff"/><path id="Path_111-149" data-name="Path 111-149" d="M1552.52,751.14a5,5,0,0,0,1.3-6.93,5.19,5.19,0,0,0-.56-.68l1.93-43.19-9.85,1.1.58,42.25a5,5,0,0,0,6.6,7.45Z" transform="translate(199.91 174.12)" style="fill:#a0616a"/><path id="Path_112-150" data-name="Path 112-150" d="M1570.49,824.25l5.61,1,5.54-21.16-7.34-1.45Z" transform="translate(199.91 174.12)" style="fill:#a0616a"/><path id="Path_113-151" data-name="Path 113-151" d="M1586,832.35l-17.62-3.1,1.2-6.81,10.81,1.9a6.92,6.92,0,0,1,5.61,8Z" transform="translate(199.91 174.12)" style="fill:#2f2e41"/><path id="Path_114-152" data-name="Path 114-152" d="M1555.11,827.06h5.69l2.71-22h-8.4Z" transform="translate(199.91 174.12)" style="fill:#a0616a"/><path id="Path_115-153" data-name="Path 115-153" d="M1571.77,832.35h-17.89v-6.91h11a6.9,6.9,0,0,1,6.91,6.91Z" transform="translate(199.91 174.12)" style="fill:#2f2e41"/><path id="Path_116-154" data-name="Path 116-154" d="M1578.86,819.19a1.23,1.23,0,0,1-.27,0l-6.7-.55a2.27,2.27,0,0,1-2-2.51s0-.08,0-.11l6.65-32.82-4.18-22a.75.75,0,0,0-1.49.08l-6.16,56a2.29,2.29,0,0,1-2.42,2.06L1556,819a2.27,2.27,0,0,1-2.11-2.15l.51-67.68,32.72-4.09,2.29,35.31v0l-8.35,37A2.28,2.28,0,0,1,1578.86,819.19Z" transform="translate(199.91 174.12)" style="fill:#2f2e41"/><circle id="Ellipse_16" data-name="Ellipse 16" cx="1765.11" cy="835.07" r="11.4" style="fill:#a0616a"/><path id="Path_117-155" data-name="Path 117-155" d="M1575.94,754.36a9.37,9.37,0,0,1-5-1.44c-5.52-3.45-11.8-2.08-15-1a2.26,2.26,0,0,1-3-1.87l-5.9-52.76a18.48,18.48,0,0,1,12.66-19.76h0l1-.28a18.37,18.37,0,0,1,15.31,2.66,18.67,18.67,0,0,1,8,13.63l5,53.11a2.27,2.27,0,0,1-.71,1.86C1586.37,750.16,1581.31,754.36,1575.94,754.36Z" transform="translate(199.91 174.12)" style="fill:#6c63ff"/><path id="Path_118-156" data-name="Path 118-156" d="M1558,708.65l-13.33-1.47a2.65,2.65,0,0,1-2.35-2.93c0-.13,0-.25.07-.38l3.4-12.93a7.37,7.37,0,1,1,14.66,1.51s0,.1,0,.14l.5,13.32a2.65,2.65,0,0,1-2.55,2.75,2.54,2.54,0,0,1-.39,0Z" transform="translate(199.91 174.12)" style="fill:#6c63ff"/><path id="Path_119-157" data-name="Path 119-157" d="M1588.77,749.29a5,5,0,0,0,.45-7,4.55,4.55,0,0,0-.64-.6l-3.28-43.11-9.65,2.17,5.66,42a5,5,0,0,0,7.46,6.6Z" transform="translate(199.91 174.12)" style="fill:#a0616a"/><path id="Path_120-158" data-name="Path 120-158" d="M1572,705.94a2.65,2.65,0,0,1-.85-2.05l.51-13.31a7.37,7.37,0,1,1,14.65-1.65l3.39,12.92a2.67,2.67,0,0,1-1.89,3.25l-.39.07-13.32,1.46a2.65,2.65,0,0,1-2.1-.69Z" transform="translate(199.91 174.12)" style="fill:#6c63ff"/><path id="Path_121-159" data-name="Path 121-159" d="M1564.52,672.78a2.4,2.4,0,0,1-.6-.07h-.06c-10-1.53-12.24-7.34-12.73-9.77s.07-4.93,1.37-5.87a7.22,7.22,0,0,1,.33-5.88c1.63-2.92,5.15-3.9,5.62-4,2.81-2.07,6.18-.69,6.79-.41,5.44-2,7.52-.33,7.9,0,2.43.44,3.91,1.38,4.41,2.79.92,2.67-2,6-2.13,6.12l-.06.07L1571,656a3,3,0,0,0-2.81,3.08l0,.31h0a13.92,13.92,0,0,0,.45,1.56c.74,2.32,1.3,4.31.58,5.07a1.18,1.18,0,0,1-1.22.21c-.68-.19-1.14-.15-1.37.11s-.25,1.41.31,2.84a2.67,2.67,0,0,1-.49,2.72,2.55,2.55,0,0,1-2,.91Z" transform="translate(199.91 174.12)" style="fill:#2f2e41"/></g><path d="M-12.37,1153.52a32.09,32.09,0,0,0-23-9.39h-.34a32.89,32.89,0,0,1-16.56-4.47l-.52-.31.42-.43a32.28,32.28,0,0,0,5.65-8,9.7,9.7,0,0,1-7.82,2.53,9.91,9.91,0,0,1-7.28-4.67c-3.09-5-6.77-12.12-6.77-17.54a33,33,0,0,1,10.75-24.32,20.51,20.51,0,0,0,6.78-15.3v-.41a46.55,46.55,0,0,1,1.38-11.27l.1-.37h.38a31.34,31.34,0,0,0,7.36-.61,24.78,24.78,0,0,1-6.6-1.76l-.41-.16.14-.43c9.63-6,31.38-2.87,44-31.75,10.23-23.42,46.35,20.79,46.35,46.34,0,2.61-2.58,6-.65,7.77,20.88,18.63,6.47,30.59,1.93,42.63-1.08,2.86,1.26,6,1.26,9.08,0,.53,0,1.07,0,1.61l0,.83-.7-.46a23.28,23.28,0,0,1-3.81-3.12,20.11,20.11,0,0,1-.63,17.35c-2.19,4.13-4.31,7.08-6.3,8.78a32.84,32.84,0,0,1-45-2.16Z" transform="translate(199.91 174.12)" style="fill:#e6e6e6"/><path d="M22.59,1215.66a.59.59,0,0,0,.58-.51,197.51,197.51,0,0,0,.28-41.52c-2.05-21.79-8.6-53.16-28.24-78.94a.59.59,0,0,0-.83-.11.59.59,0,0,0-.11.83h0c19.47,25.55,26,56.7,28,78.33A196.84,196.84,0,0,1,22,1215a.59.59,0,0,0,.5.67Z" transform="translate(199.91 174.12)" style="fill:#3f3d56"/><path d="M6.56,1131.05a.59.59,0,0,0,.35-1.07,81.17,81.17,0,0,0-18-9.16c-9.92-3.64-25-6.93-40.56-2a.58.58,0,0,0-.39.74.59.59,0,0,0,.74.39h0c15.23-4.85,30.05-1.61,39.81,2a80,80,0,0,1,17.7,9A.57.57,0,0,0,6.56,1131.05Z" transform="translate(199.91 174.12)" style="fill:#3f3d56"/><path d="M33.63,1063.63a.59.59,0,0,0-.55-.63.55.55,0,0,0-.49.21,81.48,81.48,0,0,0-10.44,17.28c-4.34,9.64-8.71,24.46-4.9,40.32a.6.6,0,0,0,.72.44.58.58,0,0,0,.43-.71h0c-3.73-15.54.57-30.09,4.83-39.56a80.2,80.2,0,0,1,10.26-17A.64.64,0,0,0,33.63,1063.63Z" transform="translate(199.91 174.12)" style="fill:#3f3d56"/><path d="M147.7,1215H100.62l-.2-.37c-.6-1.09-1.18-2.25-1.73-3.43-4.85-10.39-6.9-22.26-8.7-32.74l-1.37-7.89a4.87,4.87,0,0,1,7.68-4.77l21.47,15.6c2.71,2,5.81,4.25,8.78,6.72.28-1.39.58-2.78.88-4.16a4.88,4.88,0,0,1,8.91-1.54l5.51,8.85c4,6.47,7.56,12.84,6.84,19.7a1,1,0,0,1,0,.25,15.08,15.08,0,0,1-.8,3.31Z" transform="translate(199.91 174.12)" style="fill:#f0f0f0"/><path d="M125.77,1029.94l-9.09-33.63a5.63,5.63,0,0,0-6.82-4h0a5.63,5.63,0,0,0-4,6.85c0,.09,0,.19.08.28l10.51,34.65,5.5,21.32a4.91,4.91,0,1,0,6.88.92,5.09,5.09,0,0,0-.59-.64Z" transform="translate(199.91 174.12)" style="fill:#a0616a"/><path d="M49.31,1022.7l27.61-21.25a5.61,5.61,0,0,0,1-7.82h0a5.63,5.63,0,0,0-7.87-1.13l-.23.19-28,22.95-17.6,13.22a4.91,4.91,0,1,0,1.77,6.71,4.63,4.63,0,0,0,.37-.78Z" transform="translate(199.91 174.12)" style="fill:#a0616a"/><path d="M71.81,1027.58l-1.22,27.18,38.21-8.31c-3.25-10.92-5.46-12.78-3-20.38Z" transform="translate(199.91 174.12)" style="fill:#a0616a"/><path d="M95.31,977.75H82.57l-5.46,9.36L74.5,987a9.38,9.38,0,0,0-9.89,8.85c0,.17,0,.35,0,.52h0l3.21,5s-5.74,10,2.53,14.93c0,0-1.48,9.27,0,9.17s4.87-2,1.47-.1-3.14,2.15-2.7,2.58l.44.44,35.72,6s1-6.92,1.16-8.16-.65,1.79.11-1.23,1.89-1.89.75-3,7.34-15.16,3.86-20.61l5.58-5.44h0c0-5.22-8.38-9.45-13.6-9.45h-.67Z" transform="translate(199.91 174.12)" style="fill:#e6e6e6"/><polygon points="264.54 1378.67 259.39 1378.67 256.94 1358.8 264.54 1358.8 264.54 1378.67" style="fill:#a0616a"/><path d="M49.08,1212.15a2.19,2.19,0,0,0,2.17,2.19H61l.3-.63,1.37-2.83.53,2.83.12.63h3.66l-.06-.63-1-11.7-1.28-.08-5.51-.32-1.36-.09v3.5C56.73,1206.11,48.67,1210.24,49.08,1212.15Z" transform="translate(199.91 174.12)" style="fill:#2f2e41"/><polygon points="341.12 1365.17 336.79 1367.96 323.98 1352.57 330.37 1348.46 341.12 1365.17" style="fill:#a0616a"/><path d="M132.25,1205.86a2.19,2.19,0,0,0,3,.66l8.16-5.25-.09-.68-.37-3.13,2,2.1.44.46,3.08-2-.39-.5-7.15-9.31-1.11.62-4.82,2.71-1.18.66,1.89,2.94C135.42,1196.64,130.87,1204.48,132.25,1205.86Z" transform="translate(199.91 174.12)" style="fill:#2f2e41"/><path d="M165.25,1215.39l-159.56.16a.61.61,0,0,1,0-1.21l159.56-.15a.6.6,0,0,1,0,1.2Z" transform="translate(199.91 174.12)" style="fill:#cacaca"/><path d="M11.25,1216.39l-159.56.16a.6.6,0,0,1-.6-.61.6.6,0,0,1,.6-.6l159.56-.15a.6.6,0,0,1,0,1.2Z" transform="translate(199.91 174.12)" style="fill:#cacaca"/><path d="M-39.75,1217.39l-159.56.16a.6.6,0,0,1-.6-.61.6.6,0,0,1,.6-.6l159.56-.15a.6.6,0,0,1,.6.6A.6.6,0,0,1-39.75,1217.39Z" transform="translate(199.91 174.12)" style="fill:#cacaca"/><path d="M108.2,1043.38s-24.42,12.92-37.34,4.11c0,0-2.82,13.68-4,14.82s-2.93,1.62-1.65,2.89,2,3-.44,5.13-4.86,1.48-2.52,3.71-7.09,57-7.09,57,1.51,50.9,0,52.44-3.53,1.88-1.57,3.78,1.95.43,1.95,3.06v2.62l.89,2.61H68.73s3-3.43,0-6.42.9-3.8,1.8-6.6,2.41.22.9-2.8-2.23-2.44-2.25-4.43,22.26-79.75,22.26-79.75l2.7,43,32.44,47.14,9.55-7.16s-6.95-9.79-5.32-11.14-4.8-3-2.77-4.55-2.85-3-1-5.06-2.53-7.08-5.06-7.08-6.08-8.46-6.08-8.46l5.3-66.78Z" transform="translate(199.91 174.12)" style="fill:#2f2e41"/><path d="M82.32,950.28c-.18.23-1.55.11-3.21-.13-3.27-.48-3.72.09-6.17,2.31-3.54,3.23-1.53,22.9-3.27,27.16l-.56.42a20.74,20.74,0,0,0,3.28-.92q.9-2.85,1.81-5.7a16.92,16.92,0,0,1,1.07,4.6,25.91,25.91,0,0,1,5.2-2.23c1.78-1.21,14.6-2.42,16.25-2.94C100.91,958.6,94.16,952.84,82.32,950.28Z" transform="translate(199.91 174.12)" style="fill:#2f2e41"/><circle cx="286.56" cy="1134.1" r="12.26" style="fill:#a0616a"/><path d="M94.37,949.2a5.45,5.45,0,0,1-2-.68,1.86,1.86,0,0,1-.89-1.77,1.88,1.88,0,0,1,2-1.34,5.57,5.57,0,0,1,2.43,1A3.77,3.77,0,0,0,92.76,943a7.82,7.82,0,0,1,3.44.33,2.68,2.68,0,0,1,1.77,2.7,4.38,4.38,0,0,1,4.33,2.68,7.32,7.32,0,0,1,0,5.33,1.9,1.9,0,0,1-.94,1.25,2,2,0,0,1-1.79-.54,42.65,42.65,0,0,1-7.45-6.88" transform="translate(199.91 174.12)" style="fill:#2f2e41"/><path d="M99.71,973c-.52.24-.25,1.15-.65,1.56a1.67,1.67,0,0,1-.62.39,7.58,7.58,0,0,0-.52-2.21c-.06-.13-.14-.28-.28-.27s-.2.23-.2.39a6.4,6.4,0,0,1-.5,2.23l0,0h-.35c-.87,0-2.81-2.28-3.24-1.52,1.51-2.69,3.36-6.74,3.65-9.81a4.34,4.34,0,0,0-.14-1.93,1.72,1.72,0,0,0-1.42-1.17,1.08,1.08,0,0,0-1.13,1,1.48,1.48,0,0,0,0,.21l-.22,0c-2-1.65-.28-4.53-2.64-5.66-.8-.39-5.7.9-6.56.67a7.52,7.52,0,0,0-.55-2.65c0-.13-.14-.27-.28-.26s-.2.22-.2.38a6.35,6.35,0,0,1-.5,2.23,9.24,9.24,0,0,0-3.59.19c-1,.27-2,.74-3.06,1a4,4,0,0,1-3.1-.34,3.49,3.49,0,0,1-.89-4.28,8.38,8.38,0,0,1,1.89-2.45c.6-.57,1.21-1.12,1.83-1.67l1.65-1.49a20.18,20.18,0,0,1,2.21-1.8,10.91,10.91,0,0,1,8.52-1.49c1.74.42,4.06-.17,5.65.64a34.38,34.38,0,0,1,3.4,2.64c1.86,1.49.6.28,2.64,1.14C105.36,950.73,103.21,971.37,99.71,973Z" transform="translate(199.91 174.12)" style="fill:#2f2e41"/><circle cx="163.87" cy="1160.59" r="76.03" style="fill:#fff"/><path d="M-36,1063.27a76.88,76.88,0,0,1-76.79-76.8A76.88,76.88,0,0,1-36,909.68a76.88,76.88,0,0,1,76.8,76.79A76.88,76.88,0,0,1-36,1063.27Zm0-152.07a75.36,75.36,0,0,0-75.27,75.27A75.36,75.36,0,0,0-36,1061.75a75.36,75.36,0,0,0,75.28-75.28A75.36,75.36,0,0,0-36,911.2Z" transform="translate(199.91 174.12)" style="fill:#6c63ff"/><path d="M-46.41,1026a8.43,8.43,0,0,1-6.76-3.38L-73.92,995a8.47,8.47,0,0,1,1.69-11.84,8.46,8.46,0,0,1,11.84,1.69l13.58,18.1L-12,950.67A8.45,8.45,0,0,1-.23,948.33a8.46,8.46,0,0,1,2.35,11.72l-41.49,62.23a8.47,8.47,0,0,1-6.8,3.76Z" transform="translate(199.91 174.12)" style="fill:#6c63ff"/><ellipse cx="38.52" cy="914.64" rx="2.66" ry="3.82" transform="translate(-672.23 995.18) rotate(-81.72)" style="fill:#e6e6e6"/><ellipse cx="63.4" cy="912.21" rx="2.66" ry="3.82" transform="translate(-648.53 1017.73) rotate(-81.72)" style="fill:#3f3d56"/><ellipse cx="31.7" cy="894.5" rx="2.66" ry="3.82" transform="translate(-658.13 971.2) rotate(-81.72)" style="fill:#ff6584"/><ellipse cx="23" cy="886.78" rx="2.42" ry="1.68" transform="translate(-664.03 1077.19) rotate(-89.57)" style="fill:#e6e6e6"/><ellipse cx="1475.33" cy="841.42" rx="2.42" ry="1.68" transform="translate(822.69 2484.46) rotate(-89.57)" style="fill:#3f3d56"/><ellipse cx="47.84" cy="898.46" rx="2.42" ry="1.68" transform="translate(-651.05 1113.63) rotate(-89.57)" style="fill:#e6e6e6"/><ellipse cx="35.82" cy="904.46" rx="2.42" ry="1.68" transform="translate(-668.98 1107.56) rotate(-89.57)" style="fill:#ff6584"/><ellipse cx="52.55" cy="915.56" rx="2.42" ry="1.68" transform="translate(-663.47 1135.31) rotate(-89.57)" style="fill:#3f3d56"/><ellipse cx="-104.17" cy="1094.77" rx="2.66" ry="3.82" transform="translate(-972.62 1008.18) rotate(-81.72)" style="fill:#e6e6e6"/><ellipse cx="-79.29" cy="1092.34" rx="2.66" ry="3.82" transform="translate(-948.92 1030.72) rotate(-81.72)" style="fill:#3f3d56"/><ellipse cx="-110.98" cy="1074.62" rx="2.66" ry="3.82" transform="translate(-958.52 984.19) rotate(-81.72)" style="fill:#ff6584"/><ellipse cx="-119.69" cy="1066.91" rx="2.42" ry="1.68" transform="translate(-985.75 1113.28) rotate(-89.57)" style="fill:#e6e6e6"/><ellipse cx="-123.35" cy="1051.54" rx="2.42" ry="1.68" transform="translate(-974.02 1094.36) rotate(-89.57)" style="fill:#3f3d56"/><ellipse cx="-94.85" cy="1078.59" rx="2.42" ry="1.68" transform="translate(-972.78 1149.71) rotate(-89.57)" style="fill:#e6e6e6"/><ellipse cx="-106.87" cy="1084.59" rx="2.42" ry="1.68" transform="translate(-990.71 1143.64) rotate(-89.57)" style="fill:#ff6584"/><ellipse cx="-90.13" cy="1095.69" rx="2.42" ry="1.68" transform="translate(-985.2 1171.39) rotate(-89.57)" style="fill:#3f3d56"/></g></svg>