<svg xmlns="http://www.w3.org/2000/svg" xmlns:xlink="http://www.w3.org/1999/xlink" viewBox="0 0 301 1594"><defs><linearGradient id="linear-gradient" x1="5.99" y1="1080.2" x2="6.79" y2="1080.86" gradientTransform="matrix(162.86, 0, 0, -162.86, -893.11, 176345.23)" gradientUnits="userSpaceOnUse"><stop offset="0" stop-color="#04f1d2"/><stop offset="1" stop-color="#28f806"/></linearGradient><linearGradient id="linear-gradient-2" x1="5.99" y1="1078.47" x2="6.79" y2="1079.13" gradientTransform="matrix(162.86, 0, 0, -162.86, -893.11, 176345.23)" gradientUnits="userSpaceOnUse"><stop offset="0" stop-color="#06b3f8"/><stop offset="1" stop-color="#04f1d2"/></linearGradient><linearGradient id="linear-gradient-3" x1="6.08" y1="1076.58" x2="6.67" y2="1077.52" gradientTransform="matrix(162.86, 0, 0, -162.86, -893.11, 176345.23)" gradientUnits="userSpaceOnUse"><stop offset="0" stop-color="#b204f1"/><stop offset="1" stop-color="#067bf8"/></linearGradient><linearGradient id="linear-gradient-4" x1="6.07" y1="1074.86" x2="6.66" y2="1075.81" gradientTransform="matrix(162.86, 0, 0, -162.86, -893.11, 176345.23)" gradientUnits="userSpaceOnUse"><stop offset="0" stop-color="#6861c4"/><stop offset="1" stop-color="#b204f1"/></linearGradient><linearGradient id="linear-gradient-5" x1="964" y1="1369.5" x2="964" y2="-224.5" gradientUnits="userSpaceOnUse"><stop offset="0" stop-color="#6562c4"/><stop offset="0.28" stop-color="#b250bd"/><stop offset="0.53" stop-color="#4fa3f2"/><stop offset="0.76" stop-color="#01cafa"/><stop offset="1" stop-color="#21e865"/></linearGradient></defs><g id="Layer_1" data-name="Layer 1"><circle cx="146.74" cy="370.52" r="111.76" style="fill:none;stroke-width:10px;stroke:url(#linear-gradient)"/><circle cx="146.81" cy="652.11" r="112.69" style="fill:none;stroke-width:10px;stroke:url(#linear-gradient-2)"/><circle cx="146.81" cy="932.81" r="110.69" style="fill:none;stroke-width:10px;stroke:url(#linear-gradient-3)"/><circle cx="146.24" cy="1212.81" r="111.69" style="fill:none;stroke-width:10px;stroke:url(#linear-gradient-4)"/><path d="M898.64,96.8h119.51a3.44,3.44,0,0,1,3.43,3.44v10.39h-5v-5.38a3,3,0,0,0-3-3H903.25a3,3,0,0,0-3,3v33.83a30.88,30.88,0,0,0-5,1.32V100.24A3.44,3.44,0,0,1,898.64,96.8Zm-1.73,68.93h.44v-1.36a8.42,8.42,0,0,1,2.33-5.83,7.76,7.76,0,0,1,11.32,0,8.42,8.42,0,0,1,2.33,5.83v1.36h.44a1.31,1.31,0,0,1,1.31,1.3v12.9a1.31,1.31,0,0,1-1.31,1.3H896.91a1.31,1.31,0,0,1-1.31-1.3V167a1.31,1.31,0,0,1,1.31-1.3Zm7.4,8.34L903,177.62h4.78l-1.26-3.6a2.48,2.48,0,1,0-2.16,0Zm-4.49-8.34h11v-1.36a5.93,5.93,0,0,0-1.64-4.12,5.32,5.32,0,0,0-7.78,0,6,6,0,0,0-1.63,4.12Zm5.91-20.45a24.86,24.86,0,1,1-24.86,24.85A24.86,24.86,0,0,1,905.73,145.28Zm96.6-27.64h33.37a4.31,4.31,0,0,1,4.3,4.3V199a4.31,4.31,0,0,1-4.3,4.3h-33.37A4.31,4.31,0,0,1,998,199V121.94A4.31,4.31,0,0,1,1002.33,117.64Zm26.93,18.15h4v1.44h-4ZM1019,185.49a4.68,4.68,0,1,1-4.68,4.68A4.69,4.69,0,0,1,1019,185.49Zm-15.15-53.78h30.31a.9.9,0,0,1,.9.9v5.52a.9.9,0,0,1-.9.9h-30.31a.9.9,0,0,1-.9-.9v-5.52A.9.9,0,0,1,1003.86,131.71Zm-13,53.48H933.43a31.36,31.36,0,0,0,3.8-13.61h53.61v13.61Zm-48,4.74H974c.08,5.39,2.3,10.22,8.31,14H934.5c4.81-3.49,8.33-7.73,8.31-14Z" transform="translate(-813.5 224.5)" style="fill-rule:evenodd"/><path d="M922.1,436.56a2.32,2.32,0,0,1,0-4.64h3.38a10.81,10.81,0,0,1,5.63,1.46,8.89,8.89,0,0,1,3.78,5.36.19.19,0,0,0,0,.18l.58,2.42h1.33v-9.55a2.34,2.34,0,0,1,2.33-2.34h12.32a2.34,2.34,0,0,1,2.33,2.34v5.67a10.53,10.53,0,0,1,7.46-3.12,10.21,10.21,0,0,1,3.63.64,12.66,12.66,0,0,1,21.67,6.36h.57a2.3,2.3,0,0,1,2.28,2.3,2.82,2.82,0,0,1-.1.7l-6,24.18a2.28,2.28,0,0,1-2.24,1.77H943.3c.82,3,1.66,4.66,2.73,5.41,1.36.89,3.72.95,7.66.89H980.4a2.3,2.3,0,1,1,0,4.59H953.8c-4.84,0-7.9,0-10.31-1.66s-3.77-4.47-5.06-9.6h0l-7.91-29.83V440a4.11,4.11,0,0,0-1.77-2.65,6,6,0,0,0-3.27-.78Zm100.79-13.3v64.09a7.89,7.89,0,0,1-7.87,7.87H902.3a7.84,7.84,0,0,1-5.56-2.32h0a7.85,7.85,0,0,1-2.31-5.56v-64a34.25,34.25,0,0,0,7.08.42v63a1.33,1.33,0,0,0,.4,1h0a1.32,1.32,0,0,0,1,.39h40.37a5.66,5.66,0,0,1,5.47-4.21h0a5.68,5.68,0,0,1,5.48,4.21H968a5.66,5.66,0,0,1,5.47-4.21h0a5.67,5.67,0,0,1,5.47,4.21h35.46a1.36,1.36,0,0,0,1.36-1.37V423.47a33,33,0,0,0,7.09-.19Zm-55.32,27.46a1.63,1.63,0,0,1,3.2,0v8.89a1.63,1.63,0,0,1-1.91,1.29,1.65,1.65,0,0,1-1.29-1.29Zm-9.6,0a1.63,1.63,0,0,1,3.2,0v8.89a1.63,1.63,0,0,1-1.91,1.29,1.65,1.65,0,0,1-1.29-1.29Zm-9.59,0a1.63,1.63,0,0,1,3.2,0v8.89a1.63,1.63,0,0,1-1.91,1.29,1.65,1.65,0,0,1-1.29-1.29ZM968.23,437a11.13,11.13,0,0,1,3,4.32h11.24A8.69,8.69,0,0,0,968.23,437Zm3.76,8.91H936.83l5.24,19.72h37.15l4.84-19.72Zm-20.88-4.64c0-.16.14-.33.21-.48v-7.33a1.69,1.69,0,0,0-1.7-1.69H941.2a1.69,1.69,0,0,0-1.7,1.69h0v7.81Zm61.54-25.55c-1.52-.71-5.24-1.68-6.41-2.84a14.86,14.86,0,0,1-2.57-3.48,14.82,14.82,0,0,1-2.56,3.48c-2.59,2.57-8.46,4.18-12.44,4.18s-9.86-1.61-12.41-4.18a14.82,14.82,0,0,1-2.56-3.48,14.82,14.82,0,0,1-2.56,3.48c-2.59,2.57-8.47,4.18-12.45,4.18s-9.85-1.61-12.44-4.18a15.11,15.11,0,0,1-2.63-3.48,14.86,14.86,0,0,1-2.57,3.48c-2.59,2.57-8.46,4.18-12.44,4.18s-9.85-1.61-12.44-4.18a14.86,14.86,0,0,1-2.57-3.48,14.82,14.82,0,0,1-2.56,3.48c-1.7,1.69-6.19,3-8.56,3.63-4.78.58-10.41-.11-14-3.63a14.25,14.25,0,0,1-4.16-10.09v-5.61h0a1.68,1.68,0,0,1,.2-.79l10.06-32.23c.82-2.65,2.84-4.35,6.75-4.54h113.77c3.51.37,5.79,1.85,6.73,4.52l10.89,32.19a1.82,1.82,0,0,1,.23.76h0v5.7a14.29,14.29,0,0,1-4.2,10.09c-4.21,4.21-10.62,4.1-16.11,2.84Z" transform="translate(-813.5 224.5)"/><path d="M917.73,773l20.56-19.72a4.66,4.66,0,0,1,3.23-1.3h20.35a18.73,18.73,0,0,0-9,9.34h-9.43l-26.86,25.76a4.67,4.67,0,0,1-8.15-3.13V761.33H894.52A11.4,11.4,0,0,1,883.17,750V666a11.44,11.44,0,0,1,11.35-11.35H1000.9A11.42,11.42,0,0,1,1012.25,666v28.85a22.6,22.6,0,0,0-9.36-3.92V666a2,2,0,0,0-2-2H894.52a2.05,2.05,0,0,0-2,2v84a2,2,0,0,0,.6,1.41,2,2,0,0,0,1.39.59h18.53a4.67,4.67,0,0,1,4.68,4.67V773Zm43.67,5.52a1.18,1.18,0,0,1-1.18-1.18,4.2,4.2,0,0,1,.13-1c1.89-15,8.5-15.22,16.82-17.39,2.48-.65,7-2,9.66-4.35a4.94,4.94,0,0,0,2-4.71,10.88,10.88,0,0,1-3.91-7.72h-.24a3.41,3.41,0,0,1-1.6-.42,4.62,4.62,0,0,1-2-3.22c-.35-1.64-.77-6.36,1.47-7.3h0c-.28-5.19.6-13.41-4.74-15,10.53-13,22.66-20.08,31.78-8.51,10.15.53,14.68,15.49,8.37,23.54h-.26c2.24.94,1.81,5.66,1.47,7.3a4.63,4.63,0,0,1-2,3.22,3.35,3.35,0,0,1-1.6.42h-.24a10.87,10.87,0,0,1-3.9,7.72,4.92,4.92,0,0,0,2,4.71c2.64,2.32,7.17,3.7,9.66,4.35,8.31,2.17,14.92,2.43,16.81,17.39a4.2,4.2,0,0,1,.13,1,1.18,1.18,0,0,1-1.18,1.18Zm-46.12-81.78a4.68,4.68,0,0,1,0-9.36H979a4.68,4.68,0,1,1,0,9.36Zm0,27.68a4.68,4.68,0,1,1,0-9.35h43.43a4.68,4.68,0,0,1,0,9.35Z" transform="translate(-813.5 224.5)"/><path d="M957.83,903.88a19.32,19.32,0,0,1,11.65,3.66c4.55,2.89,9.65,8.59,16,12.21,9,5.11,25.37-1.91,33.78,10.62,4.93,7.32,5.15,13,5.52,18.71.4,6.11,1.48,11.74,7.72,20,10.36,13.69,12.51,22.81,7.17,32.31-3.62,6.47-11.29,10.07-13.06,14.17-3.77,8.73.4,15.31-4.77,25.47a27.09,27.09,0,0,1-16.54,14.08c-6.21,2-12.41-.88-17.42,1.2-8.74,3.68-15.17,12.22-22.14,14.37a26.83,26.83,0,0,1-16.06,0c-6.89-2.15-13.4-10.69-22.14-14.37-5-2.08-11.21.81-17.42-1.2A27.12,27.12,0,0,1,893.79,1041c-5.19-10.16-1-16.74-4.79-25.47-1.77-4.13-9.44-7.7-13.13-14.17-5.34-9.5-3.17-18.62,7.18-32.31,6.25-8.27,7.32-13.9,7.72-20,.36-5.66.6-11.39,5.52-18.71,8.45-12.53,24.93-5.51,33.82-10.6,6.43-3.63,11.52-9.32,16.08-12.22A19.45,19.45,0,0,1,957.83,903.88Z" transform="translate(-813.5 224.5)" style="fill:#10a64a;fill-rule:evenodd"/><path d="M1026.17,957.43a37.24,37.24,0,0,0,6.33,11.66c10.35,13.69,12.51,22.81,7.17,32.31-3.63,6.47-11.29,10.07-13.06,14.17-3.78,8.73.4,15.31-4.77,25.47a27.08,27.08,0,0,1-16.55,14.08c-6.2,2-12.41-.88-17.41,1.2-8.75,3.68-15.17,12.2-22.15,14.37a26.79,26.79,0,0,1-16.05,0c-6.89-2.17-13.4-10.69-22.14-14.37-5-2.08-11.21.8-17.42-1.2A27.13,27.13,0,0,1,893.79,1041a25,25,0,0,1-2.75-9.53Z" transform="translate(-813.5 224.5)" style="fill:#0bb34b;fill-rule:evenodd"/><path d="M957.58,939a50.16,50.16,0,1,1-50.15,50.16h0A50.15,50.15,0,0,1,957.58,939Z" transform="translate(-813.5 224.5)" style="fill:#fff;fill-rule:evenodd"/><path d="M944,979.18l9.82,9.26,19.69-20c1.94-2,3.17-3.56,5.51-1.09l7.82,8c2.55,2.54,2.42,4,0,6.38l-28.58,28.13c-5.09,5-4.14,5.31-9.38.17l-18-17.86a2.27,2.27,0,0,1-.23-3.21,2.69,2.69,0,0,1,.39-.36l9.11-9.39c1.37-1.38,2.46-1.38,3.87,0Z" transform="translate(-813.5 224.5)" style="fill:#303030;fill-rule:evenodd"/></g><g id="Layer_2" data-name="Layer 2"><path d="M853.5,1369.5v-115c0-77.87,37.13-120,115-120a141,141,0,0,0,0-282,141,141,0,0,1-141-141c0-77.87,58.63-141,136.5-141s136.5-63.13,136.5-141a141,141,0,0,0-141-141,141,141,0,0,1-141-141c0-77.87,63.63-141,141.5-141s127.5-8.13,127.5-86,1-83,1-145" transform="translate(-813.5 224.5)" style="fill:none;stroke-miterlimit:10;stroke-width:10px;stroke:url(#linear-gradient-5)"/></g></svg>