<svg id="Layer_2" data-name="Layer 2" xmlns="http://www.w3.org/2000/svg" xmlns:xlink="http://www.w3.org/1999/xlink" viewBox="0 0 301 1594"><defs><linearGradient id="linear-gradient" x1="964" y1="1369.5" x2="964" y2="-224.5" gradientUnits="userSpaceOnUse"><stop offset="0" stop-color="#6562c4"/><stop offset="0.28" stop-color="#b250bd"/><stop offset="0.53" stop-color="#4fa3f2"/><stop offset="0.76" stop-color="#01cafa"/><stop offset="1" stop-color="#21e865"/></linearGradient></defs><path d="M853.5,1369.5v-115c0-77.87,37.13-120,115-120a141,141,0,0,0,0-282,141,141,0,0,1-141-141c0-77.87,58.63-141,136.5-141s136.5-63.13,136.5-141a141,141,0,0,0-141-141,141,141,0,0,1-141-141c0-77.87,63.63-141,141.5-141s127.5-8.13,127.5-86,1-83,1-145" transform="translate(-813.5 224.5)" style="fill:none;stroke-miterlimit:10;stroke-width:10px;stroke:url(#linear-gradient)"/></svg>