<svg id="Layer_1" data-name="Layer 1" xmlns="http://www.w3.org/2000/svg" viewBox="0 0 283.44 177.71"><path d="M272.68,97.84a27.88,27.88,0,0,0-6-6.4,9.15,9.15,0,0,0-2.86-1.63c-2.52-.75-5.2.44-7.37,1.89a28.68,28.68,0,0,0-12,17.48.93.93,0,0,0,.09.85,1,1,0,0,0,.93.14c7.22-1.48,12.88-6.8,18.75-11.21a11,11,0,0,1,3.68-2,4.1,4.1,0,0,1,4,.88Z" transform="translate(-120.62 -36.24)" style="fill:#894610"/><path d="M267.85,94a29.64,29.64,0,0,1-.9,3.19.36.36,0,0,0,.25.44.38.38,0,0,0,.44-.25,32.14,32.14,0,0,0,.9-3.19.37.37,0,0,0-.25-.44.36.36,0,0,0-.44.25Z" transform="translate(-120.62 -36.24)" style="fill:#492405"/><path d="M253.58,105.36q3.12-2.37,6.33-4.6c.6-.42,1.21-.83,1.82-1.24a.37.37,0,0,0,.13-.49.36.36,0,0,0-.49-.13q-3.24,2.19-6.39,4.52l-1.76,1.33a.36.36,0,0,0-.12.49.34.34,0,0,0,.48.12Z" transform="translate(-120.62 -36.24)" style="fill:#492405"/><path d="M223.27,90.34A19.56,19.56,0,0,0,232,102.75a100.68,100.68,0,0,0-1.15-12.26Z" transform="translate(-120.62 -36.24)" style="fill:#663304"/><path d="M226,61.45q.62,10.3,1.84,20.55a6,6,0,0,0-7.28,3.18,7.34,7.34,0,0,0,1.66,8,10.16,10.16,0,0,0,8.06,2.69,90.37,90.37,0,0,1,.57,18.16,22.22,22.22,0,0,0,16.62.38c.66-4.47-.1-15.26,0-15.21s9.42-2,11.37-3.85c3.15-2.94,3.2-7.82,2.81-12.08A133.59,133.59,0,0,0,257,58.42l-20-17.84L223.34,53.65Z" transform="translate(-120.62 -36.24)" style="fill:#fac7b2"/><path d="M252.49,46.89c3.06,1.59,5.19,8.13,4.51,11.49-.91,4.49-1.58,7.45-5.23,10.28A18.22,18.22,0,0,0,252,54a16.45,16.45,0,0,1-4.71,10.11,49.57,49.57,0,0,1-8.94,7.08A20.6,20.6,0,0,0,242.88,54a35.59,35.59,0,0,1-10.95,15.19,23,23,0,0,0,.68-12.64q-2.36,9.21-4.72,18.42-.84-6.09-1.69-12.18a206,206,0,0,1,2.4,24.28,3.65,3.65,0,0,0-2.91-4.16,5.19,5.19,0,0,0-5,2.11,39.2,39.2,0,0,1-.1-20.09,22.32,22.32,0,0,1,3.23-7.35c3-4.08,7.72-6.48,12.49-8.19,6.53-2.33,9.49-4.44,16.15-2.5Z" transform="translate(-120.62 -36.24)" style="fill:#663304"/><path d="M227.68,73.11c1.21.87,1.71,3,1.73,5s-.33,3.92-.27,5.88.64,4.1,1.9,4.83c-.95.52-2-.38-2.6-1.61a24.55,24.55,0,0,1-1.15-4.09,14,14,0,0,0-4.47-7.43c-.25-.19-.56-.37-.81-.15Z" transform="translate(-120.62 -36.24)" style="fill:#663304"/><path d="M231.55,37.78A2.82,2.82,0,0,0,228,36.45a3.69,3.69,0,0,0-2.15,3.37,26.45,26.45,0,0,0,6.53-1.9Z" transform="translate(-120.62 -36.24)" style="fill:#ce8320"/><path d="M231.5,56.21a102.24,102.24,0,0,0-23.37,7.92c-3.55,1.7-7.14,3.74-9.25,7a5.09,5.09,0,0,0-1,3.31A4.37,4.37,0,0,0,201,77.73a12.46,12.46,0,0,0,4.76.25,167.22,167.22,0,0,0,18.83-3.11c.55-.11.91.18,1.23-.27a1.93,1.93,0,0,0,.34-1l1.11-8.2Z" transform="translate(-120.62 -36.24)" style="fill:#6b74b5"/><path d="M216.84,75.13c-4.77.91-9.59,1.82-14.43,1.54-1.51-.08-3.23-.42-4-1.71-.58-1,0-2.36.22-3.47-.34,1.18-1.27,1.63-.82,4.19a3.19,3.19,0,0,0,2.5,2.26,15.51,15.51,0,0,0,3,.31,81.43,81.43,0,0,0,15.17-1.89Z" transform="translate(-120.62 -36.24)" style="fill:#535d91"/><path d="M215.47,50.49c3.66-7.36,11.41-12.9,19.79-13.12a22.77,22.77,0,0,1,15.58,5.94c4.21,3.78,6.62,12.55,7.87,18C259,62.66,231.84,75,217.1,76.61,216.22,76.71,211.45,58.6,215.47,50.49ZM234.34,64.2a35.66,35.66,0,0,0,1.5,6.26,55.4,55.4,0,0,0,14.28-7.62l.32-.11a10.75,10.75,0,0,0-7.17-7.83c-2.38-.76-5.23-.58-7.07,1.08C234,58,233.91,61.3,234.34,64.2Z" transform="translate(-120.62 -36.24)" style="fill:#efa02a"/><path d="M252.34,65.15c-.49-1.24-1-2.49-1.53-3.73A184.23,184.23,0,0,0,228.6,71.75h0a1,1,0,0,0,.62,1.92c5.61-.64,19-5.72,23.14-8.53Z" transform="translate(-120.62 -36.24)" style="fill:#6b74b5"/><path d="M249.73,61.33a24.24,24.24,0,0,1-4.3,6.14,24.74,24.74,0,0,1-4.05,2.88A11.4,11.4,0,0,1,238,72a39.59,39.59,0,0,0,5.59-11.25,5.36,5.36,0,0,0,4.49-.41Z" transform="translate(-120.62 -36.24)" style="fill:#663304"/><path d="M248.65,64.31a.47.47,0,0,0,.46.49.49.49,0,0,0,.5-.45.48.48,0,0,0-1,0Z" transform="translate(-120.62 -36.24)" style="fill:#efa02a"/><path d="M238.17,68.66a.46.46,0,0,0,.45.49.46.46,0,0,0,.5-.44.47.47,0,0,0-.45-.5A.48.48,0,0,0,238.17,68.66Z" transform="translate(-120.62 -36.24)" style="fill:#efa02a"/><path d="M234.8,70.39a.46.46,0,0,0,.45.49.48.48,0,0,0,.5-.45.47.47,0,0,0-.45-.49A.46.46,0,0,0,234.8,70.39Z" transform="translate(-120.62 -36.24)" style="fill:#efa02a"/><path d="M232.74,73.14l-1-3.66-.69.13c.47,1.21.88,2.45,1.24,3.7Z" transform="translate(-120.62 -36.24)" style="fill:#efa02a"/><path d="M254.37,63.69a23.51,23.51,0,0,0-3.87-6.48,14.06,14.06,0,0,0-6.05-4.2,11.25,11.25,0,0,0-7.16-.08,8.24,8.24,0,0,0-3.17,1.94A5,5,0,0,0,233,56.6a9.12,9.12,0,0,0-.42,2.14,26,26,0,0,0,.54,8.92c.09.36.18.71.28,1.06a.36.36,0,0,0,.69-.19A25.21,25.21,0,0,1,233.2,60a21.06,21.06,0,0,1,.23-2.1,5,5,0,0,1,.65-1.82,6.45,6.45,0,0,1,2.75-2.17,10.08,10.08,0,0,1,6.66-.41,12.78,12.78,0,0,1,5.93,3.62,20.85,20.85,0,0,1,3.92,6c.12.26.23.52.34.78a.36.36,0,0,0,.44.25.36.36,0,0,0,.25-.44Z" transform="translate(-120.62 -36.24)" style="fill:#ce8320"/><path d="M257.49,57.26l-4.67,2.37a.35.35,0,1,0,.36.61l4.67-2.36a.36.36,0,0,0,.12-.49.35.35,0,0,0-.48-.13Z" transform="translate(-120.62 -36.24)" style="fill:#ce8320"/><path d="M232.08,66a58.59,58.59,0,0,1-5.74,2.21,61.2,61.2,0,0,1-6,1.63c-1.14.25-2.29.47-3.44.66a.37.37,0,0,0-.25.44.37.37,0,0,0,.44.25c2.06-.34,4.1-.77,6.11-1.31A61.82,61.82,0,0,0,229.15,68c1.11-.42,2.21-.87,3.29-1.35a.36.36,0,0,0,.13-.49.38.38,0,0,0-.49-.13Z" transform="translate(-120.62 -36.24)" style="fill:#ce8320"/><path d="M255.43,50.87a25.83,25.83,0,0,1-5.78,3q-.87.32-1.77.57a.36.36,0,0,0,.19.69,26.61,26.61,0,0,0,6.12-2.59c.54-.32,1.08-.65,1.6-1a.36.36,0,0,0,.12-.49.35.35,0,0,0-.48-.13Z" transform="translate(-120.62 -36.24)" style="fill:#ce8320"/><path d="M231.53,60.36a49.2,49.2,0,0,1-5.31,2.22,35.33,35.33,0,0,1-6,1.45c-1.33.2-2.68.33-4,.41a.36.36,0,1,0,0,.72,43,43,0,0,0,7-1,37.21,37.21,0,0,0,5.62-1.82c1.05-.44,2.08-.91,3.1-1.4a.35.35,0,1,0-.36-.61Z" transform="translate(-120.62 -36.24)" style="fill:#ce8320"/><path d="M252.24,45c-2.37,1.05-4.74,2.09-7.12,3.1s-4.75,2-7.16,3-4.83,1.85-7.27,2.69-4.91,1.59-7.4,2.25-5,1.23-7.52,1.68l-1,.17a.35.35,0,1,0,.19.68c2.56-.42,5.09-1,7.61-1.61s5-1.38,7.41-2.2,4.9-1.71,7.32-2.65,4.85-1.94,7.25-3,4.75-2,7.12-3.09l.9-.4a.36.36,0,0,0,.13-.49.38.38,0,0,0-.49-.13Z" transform="translate(-120.62 -36.24)" style="fill:#ce8320"/><path d="M243.71,39.93a78.26,78.26,0,0,1-9.69,4.3,80.06,80.06,0,0,1-10.17,3c-1.94.43-3.91.8-5.88,1.09a.35.35,0,0,0-.25.43.36.36,0,0,0,.44.25,80,80,0,0,0,10.47-2.25,81.87,81.87,0,0,0,10.05-3.61c1.83-.79,3.62-1.65,5.39-2.58a.36.36,0,0,0-.36-.62Z" transform="translate(-120.62 -36.24)" style="fill:#ce8320"/><path d="M199.53,71.52a2.72,2.72,0,0,0,0,2.65,3.62,3.62,0,0,0,2,1.6c.22.07.31-.27.09-.35A3.17,3.17,0,0,1,199.88,74a2.36,2.36,0,0,1,0-2.33.18.18,0,0,0-.31-.18Z" transform="translate(-120.62 -36.24)" style="fill:#535d91"/><path d="M209.29,64.17a26.11,26.11,0,0,0-6.44,3.6c-.55.42-1.08.86-1.6,1.33-.17.15.08.4.25.25a25.21,25.21,0,0,1,6-4c.62-.3,1.25-.57,1.9-.82.21-.08.12-.43-.1-.35Z" transform="translate(-120.62 -36.24)" style="fill:#535d91"/><path d="M215.39,74.05q-2.2.66-4.47,1.11c-.22,0-.13.39.1.34,1.5-.3,3-.67,4.46-1.1a.18.18,0,0,0-.09-.35Z" transform="translate(-120.62 -36.24)" style="fill:#535d91"/><path d="M228.65,90.22a10.39,10.39,0,0,0-4.09-3.28,9.85,9.85,0,0,0-1.44-.52.36.36,0,0,0-.19.69,9.59,9.59,0,0,1,4.2,2.44,8,8,0,0,1,.9,1,.37.37,0,0,0,.49.12.35.35,0,0,0,.13-.48Z" transform="translate(-120.62 -36.24)" style="fill:#bf8271"/><path d="M225.3,88a3.86,3.86,0,0,0-.33,4,.37.37,0,0,0,.49.13.36.36,0,0,0,.13-.49,3.15,3.15,0,0,1,.32-3.25.35.35,0,1,0-.61-.36Z" transform="translate(-120.62 -36.24)" style="fill:#bf8271"/><polygon points="126.81 62.96 115.67 63.7 126.79 67.06 126.81 62.96" style="fill:#bf8271;opacity:0.56"/><path d="M246.39,73.54a12.81,12.81,0,0,1,3.46,4.27,13.31,13.31,0,0,1,1.42,5.27,12.12,12.12,0,0,1-.21,3.07l.34-.26q-2.18.14-4.35.42a.37.37,0,0,0-.35.36.36.36,0,0,0,.35.36c1.45-.2,2.9-.34,4.35-.43a.38.38,0,0,0,.35-.26,13.58,13.58,0,0,0-.13-5.78,14.06,14.06,0,0,0-2.44-5.17A13.06,13.06,0,0,0,246.9,73a.36.36,0,1,0-.51.51Z" transform="translate(-120.62 -36.24)" style="fill:#bf8271"/><path d="M243.1,80.4a3.36,3.36,0,0,0-2.79-1.69A3.28,3.28,0,0,0,237.46,80a5.76,5.76,0,0,0-.76,1.58.36.36,0,1,0,.69.19,5.06,5.06,0,0,1,.56-1.23,2.23,2.23,0,0,1,.84-.77,2.9,2.9,0,0,1,2.6,0,2.39,2.39,0,0,1,1.09,1,.36.36,0,1,0,.62-.36Z" transform="translate(-120.62 -36.24)"/><path d="M259.27,76.24a3.4,3.4,0,0,0-2.79-1.69,3.29,3.29,0,0,0-2.85,1.25,5.63,5.63,0,0,0-.76,1.58.35.35,0,0,0,.25.43.35.35,0,0,0,.44-.24,5.13,5.13,0,0,1,.56-1.24,2.21,2.21,0,0,1,.84-.76,2.9,2.9,0,0,1,2.6,0,2.39,2.39,0,0,1,1.09,1,.36.36,0,0,0,.49.13.38.38,0,0,0,.13-.49Z" transform="translate(-120.62 -36.24)"/><path d="M241.3,73.28a1.09,1.09,0,0,1-.24,1,1.72,1.72,0,0,1-.49.39,26.26,26.26,0,0,0-5.66,4.28,1.34,1.34,0,0,1-1.74.17c-2-1.61,4-5.07,6-6.54A1.38,1.38,0,0,1,241.3,73.28Z" transform="translate(-120.62 -36.24)" style="fill:#663304"/><path d="M249.05,70.82a1.09,1.09,0,0,0,.84.57,1.68,1.68,0,0,0,.63,0,26.08,26.08,0,0,1,7.1-.59,1.31,1.31,0,0,0,1.4-1c.41-2.54-6.39-1.11-8.87-.86A1.35,1.35,0,0,0,249.05,70.82Z" transform="translate(-120.62 -36.24)" style="fill:#663304"/><path d="M241.82,71.74l.69,1.38a.18.18,0,0,0,.25.06.17.17,0,0,0,.06-.24l-.69-1.38a.18.18,0,0,0-.24-.07.19.19,0,0,0-.07.25Z" transform="translate(-120.62 -36.24)" style="fill:#663304"/><path d="M241.11,72.15l.6,1.37a.18.18,0,0,0,.24.07.19.19,0,0,0,.06-.25L241.42,72a.19.19,0,0,0-.24-.06.19.19,0,0,0-.07.24Z" transform="translate(-120.62 -36.24)" style="fill:#663304"/><path d="M248.07,69.16l.16,1.51a.18.18,0,0,0,.17.18.18.18,0,0,0,.18-.18l-.16-1.51a.18.18,0,0,0-.18-.18.18.18,0,0,0-.17.18Z" transform="translate(-120.62 -36.24)" style="fill:#663304"/><path d="M247.26,69.57v1a.17.17,0,0,0,.17.17.17.17,0,0,0,.18-.17v-1a.19.19,0,0,0-.18-.18.18.18,0,0,0-.17.18Z" transform="translate(-120.62 -36.24)" style="fill:#663304"/><path d="M249.9,88.58a5.59,5.59,0,0,1-5.17-.43,5.06,5.06,0,0,1-1.14-1,.36.36,0,0,0-.51,0,.37.37,0,0,0,0,.5,6.28,6.28,0,0,0,5.51,2,6,6,0,0,0,1.67-.48.36.36,0,0,0,.13-.49.37.37,0,0,0-.49-.13Z" transform="translate(-120.62 -36.24)" style="fill:#bf8271"/><path d="M292.75,152c-2.87,15.52-8.05,22.13-7.35,52,.05,2.07-3.27,2.54-5.23,3.21-7.27,2.51-15.25.63-22.92,1.13-7.08.46-13.85,3-20.78,4.48s-14.53,2-20.79-1.35c-7.1-3.79-11.07-3.58-11.85-11.59s1.14-16,3.3-23.77c3-10.74,6.41-21.34,10-31.87a41.43,41.43,0,0,1,4.29-9.66c2.44-3.66,6-6.62,7.55-10.75Z" transform="translate(-120.62 -36.24)" style="fill:#d15259"/><path d="M249.9,105.92a24.64,24.64,0,0,1-19.22-.9c-1.34,2.24-1.31,5.22-3.09,7.13a11.48,11.48,0,0,1-3.05,2c-7.84,4.22-13.87,11.41-17.52,19.54a61.3,61.3,0,0,0-4.84,26.07c.14,8.18,1.68,16.67,6.58,23.22a72.07,72.07,0,0,1,25.2-5.12,98,98,0,0,1-.14-11.62,8,8,0,0,1,.74-3.57,7.84,7.84,0,0,1,1.86-2.08,43.3,43.3,0,0,1,16.1-9.15c6.12-1.75,12.59-1.7,19-1.63l14.61.15c5.69.06,11.43.12,17-1s11.05-3.54,14.89-7.74a12.81,12.81,0,0,0,2.74-4.31c1.5-4.22-.37-12.07-3.42-15.35s-7.22-5.27-11.35-7c-15.76-6.53-36.54-5.29-53.59-5.69C251.5,108.88,249.9,105.92,249.9,105.92Z" transform="translate(-120.62 -36.24)" style="fill:#d15259"/><path d="M227.32,131.41a76.55,76.55,0,0,1,3,8.56,48.15,48.15,0,0,1,1.39,7.12A61.08,61.08,0,0,1,232,154c0,2.61-.09,5.23-.17,7.84-.09,3.3-.16,6.61-.15,9.91v1.4a.36.36,0,0,0,.72,0c0-3.43,0-6.87.12-10.3.07-2.67.17-5.33.19-8a65.24,65.24,0,0,0-.27-7,47.74,47.74,0,0,0-1.24-7.1,70.7,70.7,0,0,0-2.74-8.38c-.15-.38-.3-.77-.46-1.15a.36.36,0,1,0-.69.19Z" transform="translate(-120.62 -36.24)" style="fill:#821e23"/><path d="M230.65,169.24a9.61,9.61,0,0,0-5.29-.22,51.17,51.17,0,0,0-5.21,1.22,55.92,55.92,0,0,0-10,4c-.86.44-1.72.89-2.54,1.41a6.71,6.71,0,0,0-2,1.88.36.36,0,0,0,.13.49.37.37,0,0,0,.49-.13,5.48,5.48,0,0,1,1.64-1.54c.7-.46,1.44-.85,2.18-1.24,1.54-.81,3.12-1.55,4.72-2.2a54.86,54.86,0,0,1,10.1-3,9.88,9.88,0,0,1,5.65.08.36.36,0,1,0,.19-.69Z" transform="translate(-120.62 -36.24)" style="fill:#821e23"/><path d="M208.92,176l1.93,4.48a.35.35,0,0,0,.61-.36l-1.92-4.48a.36.36,0,0,0-.49-.13.37.37,0,0,0-.13.49Z" transform="translate(-120.62 -36.24)" style="fill:#821e23"/><path d="M211.77,175.59c.4,1.3.79,2.6,1.18,3.89.13.44.82.26.69-.18-.4-1.3-.79-2.6-1.18-3.9-.13-.43-.82-.25-.69.19Z" transform="translate(-120.62 -36.24)" style="fill:#821e23"/><path d="M214.51,173.76l1.68,3.91a.37.37,0,0,0,.49.13.37.37,0,0,0,.12-.49c-.55-1.31-1.11-2.61-1.67-3.91a.36.36,0,0,0-.49-.13.38.38,0,0,0-.13.49Z" transform="translate(-120.62 -36.24)" style="fill:#821e23"/><path d="M217.68,172.6a15.32,15.32,0,0,1,1.3,4.12.35.35,0,0,0,.44.25.37.37,0,0,0,.25-.44,16.15,16.15,0,0,0-1.37-4.29.36.36,0,0,0-.62.36Z" transform="translate(-120.62 -36.24)" style="fill:#821e23"/><path d="M220.19,172l1.05,3.92a.36.36,0,0,0,.69-.19l-1.05-3.92a.36.36,0,0,0-.69.19Z" transform="translate(-120.62 -36.24)" style="fill:#821e23"/><path d="M223.7,170.31c.32,1.48.63,3,1,4.44a.36.36,0,0,0,.44.25.37.37,0,0,0,.25-.44c-.32-1.48-.63-3-1-4.44a.36.36,0,0,0-.44-.25.37.37,0,0,0-.25.44Z" transform="translate(-120.62 -36.24)" style="fill:#821e23"/><path d="M225.8,170.56l.84,3.62a.36.36,0,0,0,.44.25.37.37,0,0,0,.25-.44l-.84-3.62a.36.36,0,1,0-.69.19Z" transform="translate(-120.62 -36.24)" style="fill:#821e23"/><path d="M228.31,170.56c.27,1.11.55,2.23.82,3.35.11.44.8.25.69-.19-.27-1.12-.55-2.24-.83-3.35a.35.35,0,0,0-.68.19Z" transform="translate(-120.62 -36.24)" style="fill:#821e23"/><path d="M265.71,181.15c3,5.2,8.52,8.37,14,10.8a23.23,23.23,0,0,0,8.68,2.44c5.59.15,10.59-3.23,15.15-6.47a26.15,26.15,0,0,1-32.61-20.54Z" transform="translate(-120.62 -36.24)" style="fill:#492405"/><path d="M294.72,118.07a101.59,101.59,0,0,1,.65,27.37,38,38,0,0,1-2.72,11.44c-2.15,4.84-5.85,8.8-9.63,12.51-5,5-10.43,9.77-16.74,13s-13.67,4.91-20.59,3.33-13.2-6.79-14.91-13.68c-1.41-5.69.34-11.7,2.77-17,3.13-6.84,7.93-13.55,15-16,1.3-.45,2.77-.82,3.54-2a5.67,5.67,0,0,0,.7-2.29,69.67,69.67,0,0,1,3.27-12.54c1.29-3.53,3.1-7.21,6.46-8.91a15,15,0,0,1,6.21-1.23c4.14-.15,8.28.1,12.42.34,3.24.2,6.68.46,9.3,2.38,2.12,1.55,3.4,4,4.61,6.31Z" transform="translate(-120.62 -36.24)" style="fill:#ba702d"/><path d="M305.83,118.5a8.74,8.74,0,0,0-4.7-.29,229.12,229.12,0,0,1-27.51,4.59c-5.26.46-10.58.59-15.75,1.64a75.4,75.4,0,0,0-16,5.65,3.82,3.82,0,0,0-2.77,4.15l-.78,10.35a5.29,5.29,0,0,0,.29,2.77,5,5,0,0,0,2.08,1.87,50.5,50.5,0,0,0,5.91,3,4.35,4.35,0,0,0,2.91.48,4.52,4.52,0,0,0,2.19-2.09l6.86-10.49a3.68,3.68,0,0,1,4.28-2.17c15.61,1.2,30.9,5.42,46.55,6.06a6.8,6.8,0,0,0,2.77-.28,7,7,0,0,0,2.28-1.77l4.68-4.8a5.32,5.32,0,0,0,1.5-2.15,4.81,4.81,0,0,0-.49-3.12,24.49,24.49,0,0,0-14.32-13.41Z" transform="translate(-120.62 -36.24)" style="fill:#fac7b2"/><path d="M288.64,116l-5.42,4.58a32.84,32.84,0,0,0-6.77,7,11.77,11.77,0,0,0-1.61,9.59,13.64,13.64,0,0,0,8.07,8.87c4.39,1.55,4.27-12.26,4.15-12.77a1.55,1.55,0,0,1,.39-1.27A35.37,35.37,0,0,0,293,117.86c.22-1.34-1.63-2.77-3-2.3h0A10.14,10.14,0,0,1,288.64,116Z" transform="translate(-120.62 -36.24)" style="fill:#894610"/><path d="M261.75,108.15a39.72,39.72,0,0,0-6.78,4.54,11,11,0,0,0-3.85,5c-.65,2.24,0,4.65.87,6.81a30.41,30.41,0,0,0,6.61,9.92,3.82,3.82,0,0,0,1.42,1c1.71.57,3.27-1.26,3.81-3,1-3.12.54-6.48,0-9.7a4.12,4.12,0,0,1-.06-1.64,4,4,0,0,1,.78-1.37c1-1.28,1.93-2.55,2.9-3.83a2.89,2.89,0,0,0,.64-1.21,2.65,2.65,0,0,0-.7-1.87,18.62,18.62,0,0,0-5-4.7Z" transform="translate(-120.62 -36.24)" style="fill:#894610"/><path d="M278.36,154.82c-3.8-3.86-8.1-3.08-13.36-1.81s-9.91,4.29-14.44,7.26a62.49,62.49,0,0,0-1-16c-.36-1.88-1-4-2.83-4.68a3.77,3.77,0,0,0-2.74.15c-2.61,1.1-3.87,4-4.59,6.77-2.13,8.06-1.81,16.53-1.47,24.86a12.17,12.17,0,0,0,.88,4.87,4.11,4.11,0,0,0,3.95,2.49c1.91-.26,3.3-2.28,5.24-2.32s3.34,2.09,4.55,3.74c3.31,4.55,9.55,7.18,14.81,5.17a16.82,16.82,0,0,0,7-5.77c5.41-7,8.24-17,4-24.73Z" transform="translate(-120.62 -36.24)" style="fill:#894610"/><path d="M242.21,143.42a10.5,10.5,0,0,0-.13-6.08,2.11,2.11,0,0,0-.46-.86,2.07,2.07,0,0,0-2.2,0c-5,2.15-7.66,7.52-9.69,12.55A72.11,72.11,0,0,0,225.16,164c-.3,1.84-.43,3.93.79,5.34,1.48,1.71,4.35,1.5,6.15.14s2.79-3.52,3.64-5.61a114.15,114.15,0,0,0,6.73-23.57Z" transform="translate(-120.62 -36.24)" style="fill:#894610"/><path d="M267.05,91.4a205.77,205.77,0,0,1,24.82,3.95,1.62,1.62,0,0,1,.83.37,1.55,1.55,0,0,1,.28.73q1.22,6.45,2.44,12.9a10.17,10.17,0,0,1,0,5.39c-1,2.81-4.23,4.13-7.11,5.08-1.37.46-2.75.9-4.13,1.34-3.55,1.11-7.26,2.16-10.93,1.61-5.63-.83-10.13-5.35-12.51-10.47a11.41,11.41,0,0,1-1.3-5.37c.31-5.8,7.22-9.77,7.25-15.58Z" transform="translate(-120.62 -36.24)" style="fill:#894610"/><path d="M267.56,91.52a8.76,8.76,0,0,1,5.32,6.06,8.65,8.65,0,0,1-2.05,7.76c-1.34,1.44-3.13,2.38-4.69,3.6s-3,2.9-3,4.86a6.25,6.25,0,0,0,.95,3.09,12.51,12.51,0,0,0,16.63,4.81,6,6,0,0,0,2.52-2.17,6.45,6.45,0,0,0,.57-4,18.05,18.05,0,0,0-1.12-4.58c-.58-1.51-1.35-2.93-1.82-4.47a12.24,12.24,0,0,1,3.72-12.58,60,60,0,0,0-16.32-2.29Z" transform="translate(-120.62 -36.24)" style="fill:#ba702d"/><path d="M285.12,97.35q2-1.34,3.95-2.65a8.42,8.42,0,0,1,3.8-1.7,6.65,6.65,0,0,1,4.77,2,29.12,29.12,0,0,1,3.71,4.21,51.3,51.3,0,0,1,5.82,9,19.66,19.66,0,0,1,2.1,10.32,2.88,2.88,0,0,1-.31,1.2,2.18,2.18,0,0,1-2.17.89,5.27,5.27,0,0,1-2.23-1c-4.8-3.48-7.4-9.14-9.57-14.62-.94-2.37-2-5-4.22-6.23a10,10,0,0,0-5.64-.85Z" transform="translate(-120.62 -36.24)" style="fill:#894610"/><path d="M209.93,183c1.76,7.12,4,14.64,9.68,19.33a8.13,8.13,0,0,0,4.63,2.14,10.31,10.31,0,0,0,3.88-.82q28.14-9.92,55.48-21.93A21.73,21.73,0,0,0,290,178c3.8-3.6,3.12-14.86,3.39-20.15a.21.21,0,0,0-.41-.1l-.77,10.09c1.28-2.63.34-11.35.12-14.27a.34.34,0,0,0-.67-.09l-.8,12.44c1.2-3.7.9-9.78.21-13.5a.6.6,0,0,0-1.18,0l-1.15,13.06,1.23-13v0a1.26,1.26,0,0,0-2.45-.46q-.87,2.85-1.5,5.76c-.51,2.41-.92,4.9-2.22,7s-3.77,3.68-6.15,3.1a23.08,23.08,0,0,0,.74-8.23,1.24,1.24,0,0,0-2.4-.3c-1.32,3.62-5.42,16.56-6.14,17.27s-33.56,5.9-35.65,5,0-.11-4-5c0,0-6.31-1.37-11.87.59A21.38,21.38,0,0,0,209.93,183Z" transform="translate(-120.62 -36.24)" style="fill:#fac7b2"/><path d="M289.28,152.69c-.31,3.14-.66,6.27-1,9.4l-.33,2.64a.36.36,0,0,0,.71,0c.4-3.13.76-6.26,1.1-9.39l.27-2.65a.36.36,0,0,0-.36-.36.37.37,0,0,0-.36.36Z" transform="translate(-120.62 -36.24)" style="fill:#bf8271"/><path d="M291.45,154.67q-.48,4.67-.94,9.33l-.27,2.66a.36.36,0,0,0,.36.35.36.36,0,0,0,.36-.35l.93-9.34.27-2.65a.36.36,0,1,0-.71,0Z" transform="translate(-120.62 -36.24)" style="fill:#bf8271"/><path d="M292.64,158.55l-1,8.26c-.09.79-.18,1.57-.28,2.36a.36.36,0,0,0,.36.36.38.38,0,0,0,.36-.36c.33-2.75.66-5.51,1-8.26l.29-2.36a.36.36,0,0,0-.36-.36.38.38,0,0,0-.36.36Z" transform="translate(-120.62 -36.24)" style="fill:#bf8271"/><path d="M287.34,164.08a22.19,22.19,0,0,1,4,4.62q.48.74.9,1.5c.22.4.83,0,.61-.36a22.42,22.42,0,0,0-3.73-5c-.42-.43-.85-.84-1.31-1.23a.36.36,0,0,0-.5,0,.35.35,0,0,0,0,.5Z" transform="translate(-120.62 -36.24)" style="fill:#bf8271"/><path d="M270,177.43l1.92,3.1c.24.38.86,0,.61-.37l-1.92-3.09c-.24-.39-.86,0-.61.36Z" transform="translate(-120.62 -36.24)" style="fill:#bf8271"/><path d="M271.53,117.45c0-.42.11-.84.11-1.27a1.27,1.27,0,0,0-.49-1.12,1.82,1.82,0,0,0-.77-.19,6.18,6.18,0,0,1-2.32-.81c-.26-.16-.54-.41-.48-.71a.67.67,0,0,1,.22-.33,3.89,3.89,0,0,1,2.46-1,10.3,10.3,0,0,1,2.71.25,15.47,15.47,0,0,1,4.71,1.47,1.47,1.47,0,0,1,.82.89,1.1,1.1,0,0,1-.8,1.11,3.51,3.51,0,0,1-1.48,0,2.68,2.68,0,0,0-1.46.11c-.58.26-.89.87-1.3,1.35s-1.11.88-1.66.55Z" transform="translate(-120.62 -36.24)"/><path d="M276.88,118.71v-.14a.17.17,0,0,0,0-.07.21.21,0,0,0,0-.06s0,0-.06,0l-.07,0h0l-.08,0,0,0a.16.16,0,0,0,0,.09v.14a.19.19,0,0,0,0,.07l0,.06a.09.09,0,0,0,.05,0l.07,0h.05a.2.2,0,0,0,.08,0l0,0a.29.29,0,0,0,0-.09Z" transform="translate(-120.62 -36.24)"/><path d="M268.33,119.31a1.65,1.65,0,0,0,1.78,1.19,2.78,2.78,0,0,0,2-1.54,9.56,9.56,0,0,0,.62-1.56l-.35-.05c0,1-.73,2-.11,2.92a2.51,2.51,0,0,0,2.77.71c.23,0,.13-.4-.09-.35-.83.2-2,.22-2.44-.65a1.74,1.74,0,0,1,0-1.25,6.48,6.48,0,0,0,.27-1.38.18.18,0,0,0-.36,0,4.32,4.32,0,0,1-1.62,2.6,1.6,1.6,0,0,1-1.28.17,1.19,1.19,0,0,1-.84-.87c-.05-.22-.39-.13-.34.1Z" transform="translate(-120.62 -36.24)"/><path d="M284.17,110.22a2.85,2.85,0,0,1,2.13-1.15,2.68,2.68,0,0,1,2.21,1,2.62,2.62,0,0,1,.58,1.29.36.36,0,0,0,.69-.19,3.49,3.49,0,0,0-1.78-2.44,3.41,3.41,0,0,0-3.08,0,3.48,3.48,0,0,0-1.36,1.16.37.37,0,0,0,.12.49.36.36,0,0,0,.49-.13Z" transform="translate(-120.62 -36.24)"/><path d="M263.27,105a2.78,2.78,0,0,1,2.13-1.15,2.68,2.68,0,0,1,2.21,1,2.83,2.83,0,0,1,.58,1.28.35.35,0,0,0,.44.25.35.35,0,0,0,.24-.44,3.48,3.48,0,0,0-1.77-2.43,3.47,3.47,0,0,0-4.45,1.11.36.36,0,0,0,.13.49.37.37,0,0,0,.49-.13Z" transform="translate(-120.62 -36.24)"/><path d="M290,95.84a34,34,0,0,1,3.06,5.42q.36.81.66,1.62a.37.37,0,0,0,.44.25.36.36,0,0,0,.25-.44A32.67,32.67,0,0,0,291.56,97c-.31-.5-.64-1-1-1.49a.35.35,0,1,0-.61.36Z" transform="translate(-120.62 -36.24)" style="fill:#492405"/><path d="M305,108.73a10.3,10.3,0,0,1,1.1,7.92.36.36,0,0,0,.69.19,11.18,11.18,0,0,0-.34-6.72,10.8,10.8,0,0,0-.83-1.75.36.36,0,0,0-.62.36Z" transform="translate(-120.62 -36.24)" style="fill:#492405"/><path d="M282.37,122.19l3.56-1c1.14-.33,2.28-.64,3.41-1a12.91,12.91,0,0,0,3-1.43,10.67,10.67,0,0,0,2.36-2.14,4.86,4.86,0,0,0,1.25-3.3.36.36,0,0,0-.36-.36.35.35,0,0,0-.35.36,4.07,4.07,0,0,1-.95,2.67,9.64,9.64,0,0,1-2.14,2,20.14,20.14,0,0,1-6.1,2.41l-3.87,1.12a.36.36,0,0,0,.19.69Z" transform="translate(-120.62 -36.24)" style="fill:#492405"/><path d="M260.4,103.48a7.22,7.22,0,0,0-1,5.51,17.81,17.81,0,0,0,2.09,5.57,20.42,20.42,0,0,0,3.61,4.85,14.06,14.06,0,0,0,5.16,3.24,11.33,11.33,0,0,0,6,.45l.73-.19a.36.36,0,0,0-.19-.69,10.14,10.14,0,0,1-5.7,0,12.88,12.88,0,0,1-5-2.8,18.32,18.32,0,0,1-3.64-4.53,18.65,18.65,0,0,1-2.23-5.24,7.23,7.23,0,0,1,.43-5.2c.11-.19.24-.38.37-.57a.34.34,0,0,0-.13-.48.37.37,0,0,0-.49.12Z" transform="translate(-120.62 -36.24)" style="fill:#492405"/><path d="M279.59,138.66a7.39,7.39,0,0,0,1.7,4.91,6.81,6.81,0,0,0,1.06,1,.37.37,0,0,0,.51,0,.36.36,0,0,0,0-.5,6.53,6.53,0,0,1-2.56-5.43c0-.46-.7-.46-.71,0Z" transform="translate(-120.62 -36.24)" style="fill:#492405"/><path d="M281.82,138a8.44,8.44,0,0,0,2.5,5.24c.32.32.83-.19.5-.51a7.66,7.66,0,0,1-2.29-4.73.36.36,0,0,0-.71,0Z" transform="translate(-120.62 -36.24)" style="fill:#492405"/><path d="M276.67,134.18a16.57,16.57,0,0,1,6.22-1.4,7.09,7.09,0,0,1,1.72.27.35.35,0,0,0,.19-.68,11.14,11.14,0,0,0-6.53.49c-.6.2-1.2.41-1.79.63a.37.37,0,0,0-.25.44.37.37,0,0,0,.44.25Z" transform="translate(-120.62 -36.24)" style="fill:#492405"/><path d="M257,128.56a31.79,31.79,0,0,0,3.34,6.11.36.36,0,0,0,.48.12.35.35,0,0,0,.13-.48,31.48,31.48,0,0,1-3.26-5.94.36.36,0,0,0-.44-.25.36.36,0,0,0-.25.44Z" transform="translate(-120.62 -36.24)" style="fill:#492405"/><path d="M259.24,129.35l2.37,4.19c.22.4.84,0,.61-.36L259.86,129a.36.36,0,0,0-.62.36Z" transform="translate(-120.62 -36.24)" style="fill:#492405"/><path d="M259.57,122a12.78,12.78,0,0,0,3.6.23.35.35,0,0,0,.35-.35.36.36,0,0,0-.35-.36,12.19,12.19,0,0,1-3.41-.21.36.36,0,0,0-.19.69Z" transform="translate(-120.62 -36.24)" style="fill:#492405"/><path d="M283.92,102.6c1.84,1,3.7,2,5.57,3a7.12,7.12,0,0,0-2.58-3,2.84,2.84,0,0,0-3.11-.32Z" transform="translate(-120.62 -36.24)" style="fill:#492405"/><path d="M271.3,99.07q-2.91,1.23-5.86,2.37a7.15,7.15,0,0,1,2.89-2.75,2.86,2.86,0,0,1,3.13,0Z" transform="translate(-120.62 -36.24)" style="fill:#492405"/><path d="M274.8,93.92a44,44,0,0,1-3.86-5.68,3.72,3.72,0,0,1-.67-2.27,6.28,6.28,0,0,1,2.93,2.33,19.42,19.42,0,0,1,2.57,4.4l-1.14-3.29a3.06,3.06,0,0,1-.08-2.67.52.52,0,0,1,.32-.26.6.6,0,0,1,.32.07,4.39,4.39,0,0,1,1.87,2.25A16.43,16.43,0,0,1,278.37,93a7.33,7.33,0,0,1-.16-4.15c.2-.76.73-1.62,1.5-1.52a1.51,1.51,0,0,1,1,.82,5.56,5.56,0,0,1,.66,3.33,16.16,16.16,0,0,1-.75,3.36Z" transform="translate(-120.62 -36.24)" style="fill:#ba702d"/><path d="M241.57,144.45a2.81,2.81,0,0,0-.32,1.46,1,1,0,0,0,1,.92c.66-.09.85-1,.81-1.63a1.12,1.12,0,0,0-.35-.91.83.83,0,0,0-.88.06,2.54,2.54,0,0,0-.59.71Z" transform="translate(-120.62 -36.24)" style="fill:#492405"/><path d="M245.23,143a2.19,2.19,0,0,0-.16,1.46c.17.48.81.8,1.19.47a1.08,1.08,0,0,0,.29-.51,2.27,2.27,0,0,0,.12-1.18,1,1,0,0,0-.79-.8.66.66,0,0,0-.73.73Z" transform="translate(-120.62 -36.24)" style="fill:#492405"/><path d="M246.83,146.61a1.77,1.77,0,0,0-.18,1.36.85.85,0,0,0,1.12.53.83.83,0,0,0,.35-.39,1.06,1.06,0,0,0-.32-1.37c-.46-.24-1.15.19-1,.69Z" transform="translate(-120.62 -36.24)" style="fill:#492405"/><path d="M241.15,169.75a.8.8,0,0,0,1.26-.45v0c1.15-5,2.31-10,2.3-15.16a3,3,0,0,0-.2-1.26,1.06,1.06,0,0,0-1-.63,1.17,1.17,0,0,0-.69.44,5.21,5.21,0,0,0-1,2.51A89.26,89.26,0,0,0,240.65,169a.78.78,0,0,0,.32.66Z" transform="translate(-120.62 -36.24)" style="fill:#492405"/><path d="M228.24,165.78a62,62,0,0,1,6-14.72c.36-.63,1-1.36,1.66-1.1.52.2.67.87.68,1.43a15.8,15.8,0,0,1-1.52,6.06c-.49,1.23-1,2.46-1.48,3.68a14.59,14.59,0,0,1-2.7,4.79,2.18,2.18,0,0,1-1.64.83c-.64-.05-1.19-.82-.83-1.34Z" transform="translate(-120.62 -36.24)" style="fill:#492405"/><path d="M236.11,140.19c-.5.06-.57.89-.13,1.12a.91.91,0,0,0,1.19-.58.9.9,0,0,0-.46-1.12c-.42-.16-1,.28-.8.7Z" transform="translate(-120.62 -36.24)" style="fill:#492405"/><path d="M238.9,139.23a.53.53,0,0,0-.27.84.73.73,0,0,0,1,0,1.13,1.13,0,0,0,.37-1,.65.65,0,0,0-.24-.53.56.56,0,0,0-.74.21,1.69,1.69,0,0,0-.22.81Z" transform="translate(-120.62 -36.24)" style="fill:#492405"/><path d="M237.73,143a.88.88,0,0,0,.73,1.29.83.83,0,0,0,.53-1.34.77.77,0,0,0-1.24.62Z" transform="translate(-120.62 -36.24)" style="fill:#492405"/><path d="M246.77,139.17a8.58,8.58,0,0,0-5.39,2.32,8.15,8.15,0,0,0-1.79,2.37,10.42,10.42,0,0,0-.94,3.42c-.16,1.24-.18,2.5-.22,3.76s-.09,2.65-.14,4c-.09,2.66-.19,5.33-.28,8l-.28,8,0,1c0,.46.69.46.71,0l.27-7.84c.09-2.62.19-5.24.28-7.87l.13-3.91c0-1.27.07-2.53.15-3.79a13.64,13.64,0,0,1,.59-3.48,7.4,7.4,0,0,1,1.44-2.51,8,8,0,0,1,4.84-2.67c.22,0,.44,0,.66-.07a.36.36,0,1,0,0-.71Z" transform="translate(-120.62 -36.24)" style="fill:#492405"/><path d="M250.4,160.16a31.9,31.9,0,0,1-.61,5.41,32.33,32.33,0,0,1-1.51,5.27c-.36.95-.77,1.89-1.22,2.8a.38.38,0,0,0,.13.49.36.36,0,0,0,.49-.13,32.77,32.77,0,0,0,2-5.21,33.28,33.28,0,0,0,1.15-5.49c.13-1,.2-2.09.23-3.14,0-.46-.7-.46-.71,0Z" transform="translate(-120.62 -36.24)" style="fill:#492405"/><path d="M260.48,145.18a10,10,0,0,1-1.09,2.19c-.13.19.18.37.31.18a9.66,9.66,0,0,0,1.12-2.28c.07-.22-.27-.31-.34-.09Z" transform="translate(-120.62 -36.24)" style="fill:#894610"/><path d="M262.16,145.88l-.18.82a.18.18,0,0,0,.34.1c.06-.28.13-.55.19-.83a.18.18,0,0,0-.13-.22.19.19,0,0,0-.22.13Z" transform="translate(-120.62 -36.24)" style="fill:#894610"/><path d="M263.57,146.44a8.71,8.71,0,0,1-.71,1.9c-.1.2.2.38.31.18a8.83,8.83,0,0,0,.74-2c.06-.22-.29-.32-.34-.09Z" transform="translate(-120.62 -36.24)" style="fill:#894610"/><path d="M263.56,140.52l-.56,1a.18.18,0,0,0,.07.24.17.17,0,0,0,.24-.06l.55-1a.17.17,0,0,0-.3-.18Z" transform="translate(-120.62 -36.24)" style="fill:#894610"/><path d="M267.37,142.59a1.91,1.91,0,0,0-.49,1.1.19.19,0,0,0,.18.18.19.19,0,0,0,.18-.18v0h0s0,0,0-.07l0-.12a.56.56,0,0,1,0-.12.14.14,0,0,1,0-.06h0l0,0a.94.94,0,0,1,.12-.22.1.1,0,0,1,0-.05l0,0h0a.43.43,0,0,1,.09-.1.18.18,0,0,0-.26-.26Z" transform="translate(-120.62 -36.24)" style="fill:#894610"/><path d="M268,144.06c-.06.37-.11.75-.17,1.12a.18.18,0,0,0,.12.22c.09,0,.21,0,.22-.13l.18-1.11a.18.18,0,0,0-.35-.1Z" transform="translate(-120.62 -36.24)" style="fill:#894610"/><path d="M281.15,149.23l-.69,2.65a.18.18,0,0,0,.35.1l.69-2.66a.18.18,0,0,0-.35-.09Z" transform="translate(-120.62 -36.24)" style="fill:#894610"/><path d="M281.85,150.57a1,1,0,0,0-.15.84.18.18,0,0,0,.35-.09.29.29,0,0,1,0-.09s0,0,0,0v-.15a.06.06,0,0,0,0,0s0,0,0,0v0s0-.06,0-.09v0a.14.14,0,0,0,0,0s0,0,0,0v0l0,0a.35.35,0,0,0,0-.08.17.17,0,0,0-.06-.24.18.18,0,0,0-.24.06Z" transform="translate(-120.62 -36.24)" style="fill:#894610"/><path d="M283.18,150.33c-.12.42-.25.84-.38,1.26a.18.18,0,1,0,.34.1l.39-1.27a.18.18,0,0,0-.13-.22.19.19,0,0,0-.22.13Z" transform="translate(-120.62 -36.24)" style="fill:#894610"/><path d="M287.67,145.31l-.44,1.95c-.05.22.3.32.35.1.14-.65.29-1.3.44-2,.05-.23-.3-.32-.35-.1Z" transform="translate(-120.62 -36.24)" style="fill:#894610"/><path d="M288.7,146.12a1.7,1.7,0,0,0-.32.92.18.18,0,0,0,.17.18.18.18,0,0,0,.18-.18V147a.36.36,0,0,1,0-.1.83.83,0,0,1,.06-.21v-.07h0s0-.07.05-.1a.94.94,0,0,1,.12-.18.19.19,0,0,0-.07-.25.18.18,0,0,0-.24.07Z" transform="translate(-120.62 -36.24)" style="fill:#894610"/><path d="M290.07,146.29a4.47,4.47,0,0,0-.3,1.45.18.18,0,0,0,.18.17.18.18,0,0,0,.18-.17,4.39,4.39,0,0,1,.28-1.35.18.18,0,0,0-.34-.1Z" transform="translate(-120.62 -36.24)" style="fill:#894610"/><path d="M234.08,172.33a3,3,0,0,0-.1,2.38.18.18,0,0,0,.22.13.18.18,0,0,0,.12-.22,2.63,2.63,0,0,1,.07-2.11c.1-.21-.2-.39-.31-.18Z" transform="translate(-120.62 -36.24)" style="fill:#894610"/><path d="M235.06,174.16c.05.33.1.65.14,1a.18.18,0,0,0,.22.12.19.19,0,0,0,.13-.21l-.15-1a.19.19,0,0,0-.22-.13.18.18,0,0,0-.12.22Z" transform="translate(-120.62 -36.24)" style="fill:#894610"/><path d="M235.93,175.13c.17.52.33,1,.49,1.56.07.22.42.12.35-.1l-.49-1.55c-.07-.22-.42-.13-.35.09Z" transform="translate(-120.62 -36.24)" style="fill:#894610"/><path d="M239.66,179.19a1.22,1.22,0,0,0,.85.94.18.18,0,0,0,.22-.12.17.17,0,0,0-.12-.22l-.07,0,0,0s0,0,0,0l-.12-.06-.06,0s0,0,0,0l0,0-.1-.1,0,0h0s0,0,0,0a.13.13,0,0,1,0-.05.75.75,0,0,1-.07-.12l0,0s0,0,0,0a.19.19,0,0,0,0-.07l0-.14a.18.18,0,0,0-.22-.12.19.19,0,0,0-.13.22Z" transform="translate(-120.62 -36.24)" style="fill:#894610"/><path d="M274.83,100.79c-.17.81-.38,1.61-.62,2.4-.07.22.28.31.35.09.24-.79.45-1.58.62-2.39,0-.23-.3-.32-.35-.1Z" transform="translate(-120.62 -36.24)" style="fill:#894610"/><path d="M275.73,102.1a1.93,1.93,0,0,0-.46,1.4.19.19,0,0,0,.18.18.19.19,0,0,0,.18-.18,1.6,1.6,0,0,1,.35-1.14.2.2,0,0,0,0-.26.18.18,0,0,0-.25,0Z" transform="translate(-120.62 -36.24)" style="fill:#894610"/><path d="M276.41,102.9l-.34,1.52a.19.19,0,0,0,.13.22.18.18,0,0,0,.22-.13c.11-.5.23-1,.34-1.52a.19.19,0,0,0-.13-.22.18.18,0,0,0-.22.13Z" transform="translate(-120.62 -36.24)" style="fill:#894610"/><path d="M277.64,98.05c-.09.75-.19,1.49-.28,2.24,0,.09.09.18.17.18a.19.19,0,0,0,.18-.18c.1-.75.19-1.49.29-2.24,0-.09-.09-.17-.18-.17a.18.18,0,0,0-.18.17Z" transform="translate(-120.62 -36.24)" style="fill:#894610"/><path d="M276.4,107l-.17,1.53a.18.18,0,0,0,.18.18.18.18,0,0,0,.17-.18l.18-1.53a.18.18,0,0,0-.18-.18c-.1,0-.16.08-.18.18Z" transform="translate(-120.62 -36.24)" style="fill:#894610"/><path d="M274.41,107.91c-.08.28-.17.56-.25.84a.18.18,0,0,0,.12.22.19.19,0,0,0,.22-.12c.09-.28.17-.57.25-.85a.18.18,0,0,0-.12-.22.18.18,0,0,0-.22.13Z" transform="translate(-120.62 -36.24)" style="fill:#894610"/><path d="M278.37,108.33l0,.09s0,0,0,0v0a.65.65,0,0,1,.05.2v0h0V109a.11.11,0,0,1,0,.05c0-.05,0,0,0,0a.18.18,0,0,0,.12.22c.09,0,.21,0,.22-.12a1.45,1.45,0,0,0-.15-1,.17.17,0,1,0-.3.18Z" transform="translate(-120.62 -36.24)" style="fill:#894610"/><path d="M269.31,113c1.57.17,3.14.42,4.69.73.22.05.32-.3.09-.34-1.58-.32-3.18-.57-4.78-.74-.23,0-.23.33,0,.35Z" transform="translate(-120.62 -36.24)" style="fill:#fff"/><path d="M275.31,113.83l.28.27a.19.19,0,0,0,.13.05.18.18,0,0,0,.12-.05.15.15,0,0,0,.05-.12.15.15,0,0,0-.05-.13l-.28-.27a.18.18,0,0,0-.13-.06.16.16,0,0,0-.12.06.14.14,0,0,0-.06.12.22.22,0,0,0,.06.13Z" transform="translate(-120.62 -36.24)" style="fill:#fff"/><path d="M231.81,106.47a29.69,29.69,0,0,1-1,4.48c-.14.44.55.63.68.19a28.55,28.55,0,0,0,1-4.48.38.38,0,0,0-.25-.44.35.35,0,0,0-.44.25Z" transform="translate(-120.62 -36.24)" style="fill:#821e23"/><path d="M233.66,108a12.83,12.83,0,0,1-.21,3.81.37.37,0,0,0,.25.44.36.36,0,0,0,.44-.25,13.09,13.09,0,0,0,.23-4,.36.36,0,1,0-.71,0Z" transform="translate(-120.62 -36.24)" style="fill:#821e23"/><path d="M236,108.52v3.07a.36.36,0,0,0,.72,0v-3.07a.36.36,0,0,0-.72,0Z" transform="translate(-120.62 -36.24)" style="fill:#821e23"/><path d="M238.42,109.35a24.83,24.83,0,0,1-.07,3.34.36.36,0,0,0,.36.36.36.36,0,0,0,.35-.36,23.29,23.29,0,0,0,.07-3.34.37.37,0,0,0-.36-.36.36.36,0,0,0-.35.36Z" transform="translate(-120.62 -36.24)" style="fill:#821e23"/><path d="M240.89,109.71a9.15,9.15,0,0,1,.13,3c0,.19.18.35.35.35a.36.36,0,0,0,.36-.35,9.48,9.48,0,0,0-.15-3.19.36.36,0,1,0-.69.19Z" transform="translate(-120.62 -36.24)" style="fill:#821e23"/><path d="M243.55,109.64v2.51a.36.36,0,1,0,.71,0v-2.51a.36.36,0,0,0-.35-.36.36.36,0,0,0-.36.36Z" transform="translate(-120.62 -36.24)" style="fill:#821e23"/><path d="M245.62,109.23a5.18,5.18,0,0,1,.45,2.36.36.36,0,0,0,.36.36.35.35,0,0,0,.35-.36,5.93,5.93,0,0,0-.55-2.72.35.35,0,0,0-.48-.13.37.37,0,0,0-.13.49Z" transform="translate(-120.62 -36.24)" style="fill:#821e23"/><path d="M247.48,108.72a3.66,3.66,0,0,1,.26.42l.06.12s0,.13,0,.06a2.74,2.74,0,0,1,.14.47l0,.13s0,.12,0,.08,0,.07,0,.08a.62.62,0,0,1,0,.13,1.22,1.22,0,0,1,0,.27.36.36,0,0,0,.72,0,3.42,3.42,0,0,0-.66-2.12.37.37,0,0,0-.49-.12.36.36,0,0,0-.12.48Z" transform="translate(-120.62 -36.24)" style="fill:#821e23"/><path d="M249.26,108c.34.85.67,1.71,1,2.56a.37.37,0,0,0,.44.25.36.36,0,0,0,.25-.44c-.33-.85-.66-1.71-1-2.56a.37.37,0,0,0-.44-.25.36.36,0,0,0-.25.44Z" transform="translate(-120.62 -36.24)" style="fill:#821e23"/><path d="M258.19,194.76l-4.89,8.35-1.37,2.35a.35.35,0,0,0,.61.36l4.89-8.34,1.38-2.36a.36.36,0,0,0-.62-.36Z" transform="translate(-120.62 -36.24)" style="fill:#821e23"/><path d="M261.8,194.61l-2.34,5.26a.37.37,0,0,0,.13.49.36.36,0,0,0,.48-.13l2.34-5.26a.35.35,0,1,0-.61-.36Z" transform="translate(-120.62 -36.24)" style="fill:#821e23"/><path d="M263.89,197.17a28.89,28.89,0,0,1-2.39,5.25.35.35,0,0,0,.61.36,30.09,30.09,0,0,0,2.47-5.42.36.36,0,0,0-.25-.44.36.36,0,0,0-.44.25Z" transform="translate(-120.62 -36.24)" style="fill:#821e23"/><path d="M203.84,149.72c-.28,1.49-.56,3-.83,4.46a.36.36,0,0,0,.25.44.34.34,0,0,0,.43-.25l.84-4.46a.38.38,0,0,0-.25-.44.35.35,0,0,0-.44.25Z" transform="translate(-120.62 -36.24)" style="fill:#821e23"/><path d="M205.38,151.7c-.12.83-.23,1.66-.35,2.5a.38.38,0,0,0,.25.44c.17,0,.42-.06.44-.25.12-.84.23-1.67.35-2.5a.38.38,0,0,0-.25-.44.35.35,0,0,0-.44.25Z" transform="translate(-120.62 -36.24)" style="fill:#821e23"/><path d="M207.09,153.67a6.86,6.86,0,0,0-.17,3.81.36.36,0,0,0,.69-.19,6.08,6.08,0,0,1,.17-3.43.36.36,0,0,0-.69-.19Z" transform="translate(-120.62 -36.24)" style="fill:#821e23"/><path d="M208.33,162.22l.84,2.8c.13.43.82.25.69-.19L209,162c-.13-.43-.82-.25-.69.19Z" transform="translate(-120.62 -36.24)" style="fill:#821e23"/><path d="M208.13,141.64a6.09,6.09,0,0,0-.3,2.61.36.36,0,0,0,.36.35.35.35,0,0,0,.35-.35,5.84,5.84,0,0,1,.27-2.42.36.36,0,0,0-.25-.44.36.36,0,0,0-.43.25Z" transform="translate(-120.62 -36.24)" style="fill:#821e23"/><path d="M209.78,143.41v2a.36.36,0,0,0,.36.36.36.36,0,0,0,.35-.36v-2a.36.36,0,0,0-.35-.36.36.36,0,0,0-.36.36Z" transform="translate(-120.62 -36.24)" style="fill:#821e23"/><path d="M202.31,140.34,206,137a.36.36,0,1,0-.51-.51l-3.67,3.3a.37.37,0,0,0,0,.51.36.36,0,0,0,.5,0Z" transform="translate(-120.62 -36.24)" style="fill:#d15259"/><path d="M202.35,142.62l3.05-2.54a.36.36,0,0,0,0-.51.38.38,0,0,0-.51,0l-3,2.54a.36.36,0,0,0,0,.51.37.37,0,0,0,.5,0Z" transform="translate(-120.62 -36.24)" style="fill:#d15259"/><path d="M303.79,148.65l3,1.78a.36.36,0,0,0,.36-.62l-3-1.77a.35.35,0,0,0-.36.61Z" transform="translate(-120.62 -36.24)" style="fill:#d15259"/><path d="M306.25,148a3.94,3.94,0,0,1,2.51.51.35.35,0,0,0,.36-.61,4.68,4.68,0,0,0-3.06-.59.36.36,0,0,0-.25.44.35.35,0,0,0,.44.25Z" transform="translate(-120.62 -36.24)" style="fill:#d15259"/><path d="M199.16,198c1.5-1.75,3.07-3.44,4.73-5.05.33-.32-.18-.82-.51-.5q-2.48,2.42-4.73,5.05a.37.37,0,0,0,0,.5.36.36,0,0,0,.51,0Z" transform="translate(-120.62 -36.24)" style="fill:#d15259"/><path d="M201.53,199.28l3.89-4.21a.36.36,0,0,0-.51-.51c-1.29,1.41-2.59,2.81-3.88,4.21a.37.37,0,0,0,0,.51.36.36,0,0,0,.5,0Z" transform="translate(-120.62 -36.24)" style="fill:#d15259"/><path d="M221.46,113.72,226.8,115a.37.37,0,0,0,.44-.25.36.36,0,0,0-.25-.44L221.65,113a.36.36,0,0,0-.19.69Z" transform="translate(-120.62 -36.24)" style="fill:#d15259"/><path d="M221.86,115.85l3.34.34a.36.36,0,0,0,.36-.35.37.37,0,0,0-.36-.36l-3.34-.35a.36.36,0,0,0-.36.36.37.37,0,0,0,.36.36Z" transform="translate(-120.62 -36.24)" style="fill:#d15259"/><path d="M315.64,120.84l3.91.34a.36.36,0,0,0,0-.72l-3.91-.33a.35.35,0,0,0-.35.35.36.36,0,0,0,.35.36Z" transform="translate(-120.62 -36.24)" style="fill:#d15259"/><path d="M317.13,122.85l2.23-.35a.35.35,0,0,0,.24-.44.36.36,0,0,0-.43-.25l-2.23.35a.37.37,0,0,0-.25.44.38.38,0,0,0,.44.25Z" transform="translate(-120.62 -36.24)" style="fill:#d15259"/><path d="M267.85,91.2a4.67,4.67,0,0,0-3.29,3c-.67,1.54-.84,3.22-1.43,4.78a5,5,0,0,1-1.49,2.18.36.36,0,0,0,.51.5,7.69,7.69,0,0,0,2.22-4.36A21.15,21.15,0,0,1,265,95a6.78,6.78,0,0,1,1.06-1.92,3.07,3.07,0,0,1,2-1.18.36.36,0,0,0,.25-.44.37.37,0,0,0-.44-.25Z" transform="translate(-120.62 -36.24)" style="fill:#492405"/><path d="M297.47,103.12l.84,1.12a.38.38,0,0,0,.21.16.36.36,0,0,0,.27,0,.35.35,0,0,0,.17-.21.32.32,0,0,0,0-.27l-.84-1.12a.31.31,0,0,0-.21-.16.32.32,0,0,0-.27,0,.35.35,0,0,0-.17.21.35.35,0,0,0,0,.28Z" transform="translate(-120.62 -36.24)" style="fill:#492405"/><path d="M299.7,103.4c.19.37.37.74.56,1.12a.36.36,0,0,0,.49.12.37.37,0,0,0,.13-.49c-.19-.37-.38-.74-.56-1.11a.36.36,0,0,0-.49-.13.37.37,0,0,0-.13.49Z" transform="translate(-120.62 -36.24)" style="fill:#492405"/><path d="M297,98.62l.84,1.4a.37.37,0,0,0,.49.13.36.36,0,0,0,.12-.49c-.27-.47-.55-.93-.83-1.4a.36.36,0,0,0-.62.36Z" transform="translate(-120.62 -36.24)" style="fill:#492405"/><path d="M299.94,108a1.36,1.36,0,0,0,.21.68,1.39,1.39,0,0,0,.52.47.38.38,0,0,0,.49-.13.39.39,0,0,0,0-.28.37.37,0,0,0-.16-.21,1,1,0,0,1-.17-.1l.07,0a.77.77,0,0,1-.18-.18l.06.07a.71.71,0,0,1-.13-.22l0,.08a.84.84,0,0,1-.06-.24v.1a.28.28,0,0,1,0-.09.39.39,0,0,0-.1-.25.37.37,0,0,0-.26-.1.34.34,0,0,0-.35.35Z" transform="translate(-120.62 -36.24)" style="fill:#492405"/><path d="M257,157.15a27,27,0,0,1,8.21-4.17,25,25,0,0,1,4.6-1,10.2,10.2,0,0,1,4.75.44,5.46,5.46,0,0,1,3.09,2.82.36.36,0,0,0,.44.25.37.37,0,0,0,.25-.44,6,6,0,0,0-2.89-3,9.42,9.42,0,0,0-4.8-.84,23.31,23.31,0,0,0-4.91.88,27.6,27.6,0,0,0-9.1,4.45.36.36,0,0,0-.13.49.37.37,0,0,0,.49.13Z" transform="translate(-120.62 -36.24)" style="fill:#492405"/><path d="M264.18,158l2.22-1.14a.36.36,0,0,0,.13-.49.37.37,0,0,0-.49-.13l-2.22,1.14a.36.36,0,0,0-.13.49.37.37,0,0,0,.49.13Z" transform="translate(-120.62 -36.24)" style="fill:#492405"/><path d="M265.4,159.68A1.86,1.86,0,0,0,267,159a.39.39,0,0,0,.1-.25.33.33,0,0,0-.1-.25.35.35,0,0,0-.5,0l-.13.14-.07.06,0,0h0l-.16.1-.08,0s-.12,0,0,0a1.54,1.54,0,0,1-.35.1h-.31a.32.32,0,0,0-.25.1.36.36,0,0,0-.11.25.41.41,0,0,0,.11.26.37.37,0,0,0,.25.1Z" transform="translate(-120.62 -36.24)" style="fill:#492405"/><path d="M265,162.94l1.71-.77a.36.36,0,1,0-.36-.62l-1.71.77a.37.37,0,0,0-.13.49.38.38,0,0,0,.49.13Z" transform="translate(-120.62 -36.24)" style="fill:#492405"/><path d="M259.15,161.29l1.4-.84a.36.36,0,0,0-.36-.62l-1.4.85a.36.36,0,0,0-.13.48.37.37,0,0,0,.49.13Z" transform="translate(-120.62 -36.24)" style="fill:#492405"/><path d="M273.67,154.32l1.12-.55a.36.36,0,0,0,.13-.49.37.37,0,0,0-.49-.13l-1.12.56a.36.36,0,0,0-.12.49.35.35,0,0,0,.48.12Z" transform="translate(-120.62 -36.24)" style="fill:#492405"/><path d="M271.19,159.11l.82-.58a.43.43,0,0,0,.17-.21.39.39,0,0,0,0-.28.37.37,0,0,0-.21-.16.39.39,0,0,0-.28,0l-.82.59a.42.42,0,0,0-.16.21.39.39,0,0,0,0,.28.34.34,0,0,0,.21.16.32.32,0,0,0,.27,0Z" transform="translate(-120.62 -36.24)" style="fill:#492405"/><path d="M295.07,143.4a52,52,0,0,1-1.28,8.87q-.29,1.24-.63,2.46a.36.36,0,0,0,.69.19,53.37,53.37,0,0,0,1.72-8.95c.09-.85.16-1.71.21-2.57a.36.36,0,0,0-.71,0Z" transform="translate(-120.62 -36.24)" style="fill:#492405"/><path d="M230.25,172a22.52,22.52,0,0,0,4.17,7.66,21.33,21.33,0,0,0,1.65,1.78c.33.32.84-.18.51-.5a21.43,21.43,0,0,1-5.64-9.13c-.14-.44-.83-.25-.69.19Z" transform="translate(-120.62 -36.24)" style="fill:#492405"/><path d="M229.32,122.76v2.79a.36.36,0,0,0,.71,0v-2.79a.36.36,0,0,0-.71,0Z" transform="translate(-120.62 -36.24)" style="fill:#821e23"/><path d="M231.83,123.87v1.68a.36.36,0,0,0,.36.35.35.35,0,0,0,.35-.35v-1.68a.35.35,0,0,0-.35-.35.35.35,0,0,0-.36.35Z" transform="translate(-120.62 -36.24)" style="fill:#821e23"/><path d="M234.62,124.43v.84a.37.37,0,0,0,.1.25.43.43,0,0,0,.26.11.36.36,0,0,0,.35-.36v-.84a.37.37,0,0,0-.1-.25.38.38,0,0,0-.25-.11.36.36,0,0,0-.36.36Z" transform="translate(-120.62 -36.24)" style="fill:#821e23"/><path d="M241.33,119.5l.56,1.4a.37.37,0,0,0,.16.21.39.39,0,0,0,.28,0,.37.37,0,0,0,.25-.44l-.56-1.4a.39.39,0,0,0-.17-.21.32.32,0,0,0-.27,0,.37.37,0,0,0-.25.44Z" transform="translate(-120.62 -36.24)" style="fill:#821e23"/><path d="M404.06,93.88a26.11,26.11,0,0,0-6.44,3.6" transform="translate(-120.62 -36.24)" style="fill:#535d91"/><path d="M127.06,100.88a26.11,26.11,0,0,0-6.44,3.6" transform="translate(-120.62 -36.24)" style="fill:#535d91"/></svg>