<svg id="Layer_1" data-name="Layer 1" xmlns="http://www.w3.org/2000/svg" xmlns:xlink="http://www.w3.org/1999/xlink" viewBox="0 0 283.44 188.28"><defs><clipPath id="clip-path" transform="translate(-120.62 -23.5)"><path id="SVGID" d="M230.68,201a255.24,255.24,0,0,0-25.48,1.84,1,1,0,0,1-.8-1.64,58.55,58.55,0,0,1,9.65-7.75,25.1,25.1,0,0,0,5-3.7,6.54,6.54,0,0,0,1.88-5.69,63.54,63.54,0,0,1,11.37.55S231.47,197,230.68,201Z" style="fill:#6b74b5"/></clipPath><clipPath id="clip-path-2" transform="translate(-120.62 -23.5)"><path id="SVGID-2" data-name="SVGID" d="M240.81,149.52l16.62.07-.74-2.32a21.09,21.09,0,0,0,9.92-.34,18.78,18.78,0,0,0,5.53-2.18c4.15-2.62,6.33-7.49,6.88-12.29.69-6.11-.8-12.26-1.62-18.28-.71-5.28-1.25-10.58-1.92-15.87-.43-3.34-.88-6.67-1.29-10q-.39-3.19-.73-6.41L273,77.65c-.35-3.4-.65-6.81-.92-10.23q-.24-3-.42-6.11c-.06-.94-.12-1.88-.17-2.82,0-.47-.05-1-.07-1.42a4.67,4.67,0,0,1-.05-.93c-1.74,2-9.1,11.68-10.23,11.41-.8-.59-2.92-7.1-3.88-10.69a47,47,0,0,0-4.33,11.19c-9.09.42-14.18,1.22-23.2,2.39a2.91,2.91,0,0,0-1.72.63,2.58,2.58,0,0,0-.27,2.51c2.16,7.67,9.75,12.72,17.44,15.32a12.34,12.34,0,0,1,4.24,2c2,1.73,2.43,4.63,2.41,7.26a19.65,19.65,0,0,1-.89,6.15c-2,5.88-7.47,9.81-11.54,14.54a35,35,0,0,0-8.32,19.94c-.15,1.87-.08,3.93,1.12,5.39,2,2.43,5.61,6.13,8.71,5.44.34,1.34.47-1.38-.06-.09Z" style="fill:none"/></clipPath><clipPath id="clip-path-3" transform="translate(-120.62 -23.5)"><path id="SVGID-3" data-name="SVGID" d="M367,180.19a250.28,250.28,0,0,0,7.82,24.32,1,1,0,0,1-1.4,1.16,59,59,0,0,1-9.83-7.54,24.2,24.2,0,0,0-4.78-4,6.5,6.5,0,0,0-6-.48,63.43,63.43,0,0,1-2.15-11.18S362.82,180.37,367,180.19Z" style="fill:#6b74b5"/></clipPath></defs><path d="M404.06,93.88a26.11,26.11,0,0,0-6.44,3.6" transform="translate(-120.62 -23.5)" style="fill:#535d91"/><path d="M127.06,100.88a26.11,26.11,0,0,0-6.44,3.6" transform="translate(-120.62 -23.5)" style="fill:#535d91"/><path d="M233.19,178.37a44.08,44.08,0,0,1-1.61,8.45q-5.37-.25-10.76-.2A135.61,135.61,0,0,1,225.88,171Z" transform="translate(-120.62 -23.5)" style="fill:#b4713d"/><path id="SVGID-4" data-name="SVGID" d="M230.68,201a255.24,255.24,0,0,0-25.48,1.84,1,1,0,0,1-.8-1.64,58.55,58.55,0,0,1,9.65-7.75,25.1,25.1,0,0,0,5-3.7,6.54,6.54,0,0,0,1.88-5.69,63.54,63.54,0,0,1,11.37.55S231.47,197,230.68,201Z" transform="translate(-120.62 -23.5)" style="fill:#6b74b5"/><g style="clip-path:url(#clip-path)"><path d="M232.27,193.4A7.44,7.44,0,0,0,226.4,199q4.29-.61,8.62-.82Z" transform="translate(-120.62 -23.5)" style="fill:#efa02a"/><path d="M209.94,200.13a3.69,3.69,0,0,0-2.12-4q-4.4,2.71-8.64,5.66,5.65-.42,11.28-1.11Z" transform="translate(-120.62 -23.5)" style="fill:#efa02a"/><path d="M221.18,192.61a.93.93,0,0,1,.44-1.81.94.94,0,0,1,.69,1.13A.93.93,0,0,1,221.18,192.61Z" transform="translate(-120.62 -23.5)" style="fill:#efa02a"/><path d="M217.4,194.91a.92.92,0,0,1-.68-1.12.93.93,0,1,1,.68,1.12Z" transform="translate(-120.62 -23.5)" style="fill:#efa02a"/><path d="M214.54,197.09a.92.92,0,0,1-.68-1.12.93.93,0,1,1,.68,1.12Z" transform="translate(-120.62 -23.5)" style="fill:#efa02a"/><path d="M222,191.62a6,6,0,0,0-3.34-3.65,6.24,6.24,0,0,0-1.4-.41.41.41,0,0,0-.48.3.4.4,0,0,0,.29.48,5.24,5.24,0,0,1,4.17,3.51.4.4,0,0,0,.76-.23Z" transform="translate(-120.62 -23.5)" style="fill:#fff"/><path d="M217.76,194.08a3.24,3.24,0,0,0-3.35-3.26.42.42,0,0,0-.39.42.41.41,0,0,0,.41.38,2,2,0,0,1,.5,0,1.22,1.22,0,0,1,.26.06l.12,0s.12,0,.06,0a2.42,2.42,0,0,1,.86.56,2.31,2.31,0,0,1,.73,1.79.4.4,0,0,0,.8,0Z" transform="translate(-120.62 -23.5)" style="fill:#fff"/><path d="M215,196a5.85,5.85,0,0,0-2.71-2.63.39.39,0,1,0-.38.69,5.16,5.16,0,0,1,2.4,2.35A.4.4,0,0,0,215,196Z" transform="translate(-120.62 -23.5)" style="fill:#fff"/><path d="M233.49,198.29q-3.45.22-6.9.5t-6.89.6q-3.45.33-6.88.7t-6.88.79q-3.42.42-6.86.89l-.84.11a.41.41,0,0,0-.38.41.4.4,0,0,0,.41.39q3.42-.47,6.86-.9T212,201q3.44-.37,6.88-.71t6.89-.61q3.45-.28,6.9-.51l.84-.06c.51,0,.49-.83,0-.8Z" transform="translate(-120.62 -23.5)" style="fill:#fff"/></g><path d="M344.35,183.11a43.41,43.41,0,0,1,8.6-.44q1,5.28,2.35,10.5A137.24,137.24,0,0,1,339,192Z" transform="translate(-120.62 -23.5)" style="fill:#b4713d"/><path d="M292.13,141.64c-2.9,2.49-7.11,3.1-11.05,3.55-18.37,2.09-27,1.25-45.56,1.21l2,35.68L220,183.84l-1.31-41.44c-.22-6.8,4.6-12.89,11.8-15,19.3-5.51,34-10.16,55.6-16.11a163.37,163.37,0,0,0,8,23.07Z" transform="translate(-120.62 -23.5)" style="fill:#b03537"/><path d="M236.1,176.33l-6.25,1.11-6.27,1.12-3.54.63a.36.36,0,0,0,.19.69l6.25-1.11,6.28-1.12,3.53-.63a.36.36,0,0,0,.25-.44.36.36,0,0,0-.44-.25Z" transform="translate(-120.62 -23.5)" style="fill:#6d181d"/><path d="M287.67,123a12.34,12.34,0,0,0-5.2,3.44,13.13,13.13,0,0,0-3,5.51,11.75,11.75,0,0,0-.37,3.5.36.36,0,0,0,.36.35.35.35,0,0,0,.35-.35,11.65,11.65,0,0,1,1.26-5.74,12.56,12.56,0,0,1,3.81-4.5,11.37,11.37,0,0,1,3-1.52.36.36,0,1,0-.19-.69Z" transform="translate(-120.62 -23.5)" style="fill:#6d181d"/><path d="M289.73,134.2c-6.52.33-13,.66-19.55,1.15s-13,1.15-19.42,2.14c-3.22.49-6.43,1.07-9.61,1.74a31.17,31.17,0,0,0-8.15,2.44,9.39,9.39,0,0,0-3.07,2.49,10.83,10.83,0,0,0-1.75,3.35,32.06,32.06,0,0,0-1.17,8.22,168.25,168.25,0,0,0,0,20c0,.82.1,1.64.16,2.46,0,.46.74.46.71,0a170.72,170.72,0,0,1-.25-19.72c.07-1.62.17-3.24.29-4.87a33.87,33.87,0,0,1,.48-3.89,10.4,10.4,0,0,1,3.65-6.53c2.16-1.61,4.87-2.22,7.45-2.81q4.71-1.05,9.47-1.83c6.37-1.05,12.78-1.75,19.21-2.28s12.79-.86,19.19-1.18l2.41-.12c.46,0,.46-.74,0-.72Z" transform="translate(-120.62 -23.5)" style="fill:#6d181d"/><path d="M232.81,144.77c.17.08.43.21.63.33a6.9,6.9,0,0,1,.63.42,6.46,6.46,0,0,1,1,1,.36.36,0,0,0,.5,0,.37.37,0,0,0,0-.51,6.43,6.43,0,0,0-2.61-2,.35.35,0,1,0-.19.68Z" transform="translate(-120.62 -23.5)" style="fill:#6d181d"/><path d="M235.18,146.22l-2.17-.56a.35.35,0,1,0-.19.68l2.17.57a.36.36,0,1,0,.19-.69Z" transform="translate(-120.62 -23.5)" style="fill:#6d181d"/><path d="M307.06,121.23c2.49,2.9,3.1,7.1,3.55,11,2.09,18.37,1.25,27.06,1.21,45.57l35.68-2,1.76,17.54-41.44,1.31c-6.8.21-12.89-4.6-14.95-11.8-5.51-19.3-10.16-34-16.11-55.61a162.76,162.76,0,0,0,23.06-8Z" transform="translate(-120.62 -23.5)" style="fill:#b03537"/><path d="M341.75,177.25l1.11,6.25c.38,2.09.75,4.19,1.12,6.28l.63,3.53a.36.36,0,0,0,.44.25.36.36,0,0,0,.25-.44l-1.11-6.25q-.57-3.13-1.12-6.27l-.63-3.54a.37.37,0,0,0-.44-.25.36.36,0,0,0-.25.44Z" transform="translate(-120.62 -23.5)" style="fill:#6d181d"/><path d="M288.42,125.68a12.71,12.71,0,0,0,8.71,8.19,11.92,11.92,0,0,0,3.47.37.37.37,0,0,0,.36-.36.36.36,0,0,0-.36-.36,11.2,11.2,0,0,1-5.65-1.25,12.12,12.12,0,0,1-4.35-3.82,11.59,11.59,0,0,1-1.49-3,.37.37,0,0,0-.44-.25.36.36,0,0,0-.25.44Z" transform="translate(-120.62 -23.5)" style="fill:#6d181d"/><path d="M299.62,123.62c.33,6.53.66,13,1.15,19.56s1.15,13,2.14,19.42c.49,3.21,1.07,6.42,1.74,9.61a31.1,31.1,0,0,0,2.44,8.14,9.53,9.53,0,0,0,2.49,3.08,10.83,10.83,0,0,0,3.35,1.75,32.5,32.5,0,0,0,8.22,1.17,168.25,168.25,0,0,0,20,0q1.23-.06,2.46-.15c.46,0,.46-.75,0-.72a168.51,168.51,0,0,1-19.72.26c-1.62-.08-3.24-.17-4.87-.29a31.81,31.81,0,0,1-3.89-.49,10.34,10.34,0,0,1-6.53-3.64c-1.61-2.16-2.22-4.88-2.81-7.46-.71-3.13-1.31-6.29-1.83-9.47-1.05-6.36-1.75-12.78-2.28-19.2s-.86-12.79-1.18-19.19l-.12-2.42c0-.45-.74-.46-.72,0Z" transform="translate(-120.62 -23.5)" style="fill:#6d181d"/><path d="M310.19,180.55a6.44,6.44,0,0,1,.33-.63,5.42,5.42,0,0,1,.42-.64,6.84,6.84,0,0,1,1.05-1,.36.36,0,0,0-.51-.51,6.52,6.52,0,0,0-2,2.62.35.35,0,1,0,.68.19Z" transform="translate(-120.62 -23.5)" style="fill:#6d181d"/><path d="M311.64,178.17l-.56,2.17a.36.36,0,0,0,.25.44.35.35,0,0,0,.43-.25l.57-2.17a.36.36,0,0,0-.69-.19Z" transform="translate(-120.62 -23.5)" style="fill:#6d181d"/><path d="M283.23,69.58a84.69,84.69,0,0,0-41.41,27.58c-1,1.28-2,5.74-2.36,7.33-1,4.48,3.35,5.09,7.24,7.64,1.17.78,2.49,1.58,3.89,1.39a5.72,5.72,0,0,0,2.45-1.19A233.36,233.36,0,0,0,288.1,82.15c1.24-1.31,2.52-2.73,2.79-4.49a6.15,6.15,0,0,0-2.46-5.45,18.8,18.8,0,0,0-5.64-2.83Z" transform="translate(-120.62 -23.5)" style="fill:#424e7f"/><path d="M241.75,101.12l-.81,2.24a.36.36,0,0,0,.25.44.36.36,0,0,0,.44-.25l.81-2.24a.36.36,0,0,0-.25-.44.36.36,0,0,0-.44.25Z" transform="translate(-120.62 -23.5)" style="fill:#152151"/><path d="M243.39,101.63a4.82,4.82,0,0,0-.63,2,.35.35,0,0,0,.35.35.36.36,0,0,0,.36-.35.62.62,0,0,0,0-.13s0,0,0,0v0a2,2,0,0,1,0-.24c0-.15.07-.3.11-.44a1.43,1.43,0,0,1,.08-.22l0-.12c0,.06,0,0,0,0s.14-.3.22-.44a.36.36,0,1,0-.62-.36Z" transform="translate(-120.62 -23.5)" style="fill:#152151"/><path d="M244.94,101.41c-.09.75-.19,1.5-.28,2.25a.36.36,0,0,0,.36.36.36.36,0,0,0,.35-.36c.1-.75.19-1.5.28-2.25a.35.35,0,0,0-.35-.36.36.36,0,0,0-.36.36Z" transform="translate(-120.62 -23.5)" style="fill:#152151"/><path d="M246.68,101.94l-.6,2.25a.36.36,0,0,0,.25.44.38.38,0,0,0,.44-.25l.6-2.25a.36.36,0,0,0-.69-.19Z" transform="translate(-120.62 -23.5)" style="fill:#152151"/><path d="M248,102.35a20.24,20.24,0,0,1-.53,2.43.37.37,0,0,0,.25.44.36.36,0,0,0,.44-.25,20.24,20.24,0,0,0,.53-2.43.37.37,0,0,0-.25-.44.37.37,0,0,0-.44.25Z" transform="translate(-120.62 -23.5)" style="fill:#152151"/><path d="M232.12,140.67a8.14,8.14,0,0,1-7.42-2.28,13.15,13.15,0,0,1-2.5-4.26c-1-2.55-1.83-5.33-1.29-8a11.63,11.63,0,0,1,4.89-6.87,35.39,35.39,0,0,1,7.8-3.85c-.2-1.62-2.43-2-4.07-1.74a14.07,14.07,0,0,0-7.5,4c0-1.64-1.9-2.85-3.57-2.63a5.07,5.07,0,0,0-3.71,3,14.23,14.23,0,0,0-1,4.8,1.23,1.23,0,0,0-1.69-.45,2.65,2.65,0,0,0-1.1,1.55,7.3,7.3,0,0,0,1.75,7.35,2,2,0,0,0-2.19,1.73,4.48,4.48,0,0,0,.73,2.92,14.08,14.08,0,0,0,6.48,5.86c-.46-.84-2-.11-1.95.85s.92,1.65,1.77,2.12a14.13,14.13,0,0,0,15.82-2Z" transform="translate(-120.62 -23.5)" style="fill:#663304"/><path d="M283.46,70.13c-5.21,6-9.76,12.8-11.29,20.51s0,15.47,1.54,23.08q1.41,7,2.8,13.93c10.56.31,24.31,6.36,33.89,2,2.66-8-.2-25.9,1.59-30.61,3.2-8.38,1.87-18.36,1.07-22.49-1.19-6.16-7.1-9.73-18.71-9.64-3.34,0-6.49,1.57-9.74,2.36Z" transform="translate(-120.62 -23.5)" style="fill:#424e7f"/><path d="M264.3,59.6c1.46,2.63,1.9,4.33,4,6.44s6.29,4.5,9.11,3.31A104,104,0,0,1,271,54.27Z" transform="translate(-120.62 -23.5)"/><path d="M286.71,34.91c1.88,3.92,8.09,20.73,7.7,23.75s-4.87,5.1-8.13,6.64A37.15,37.15,0,0,1,288.73,72a3.26,3.26,0,0,1,0,2.24,3.19,3.19,0,0,1-1.36,1.26,24.39,24.39,0,0,1-5.33,2.36,3.81,3.81,0,0,1-4.71-2.57A64.83,64.83,0,0,0,273,64.83a4.76,4.76,0,0,1-7.36-.59,5.09,5.09,0,0,1,2.73-7.1c-1.13-4.15-4.34-13.88-5.47-18Z" transform="translate(-120.62 -23.5)" style="fill:#b4713d"/><path d="M275.89,24.85a14.47,14.47,0,0,0,.74,5.59,16.66,16.66,0,0,0-4.43-5.05.69.69,0,0,0-1.09.37,9.4,9.4,0,0,0,.2,5.84,10.06,10.06,0,0,0-2.69-3.11c-.6-.46-1.46-.84-2.07-.37A2,2,0,0,0,266,29.5a13.54,13.54,0,0,0,.5,5.34A10.58,10.58,0,0,0,263,29.75a1.49,1.49,0,0,0-1.37-.43,1.53,1.53,0,0,0-.78,1.08,6.43,6.43,0,0,0,.78,5.29l-2.92-2.46a2,2,0,0,0-.9-.51c-1.22-.17-1.56,1.71-1.33,3a104.69,104.69,0,0,0,8.22,25.54c1.93-3.6,2.42-3.52,3.6-4.23a26.91,26.91,0,0,1,3,4.11c.11.17.25.37.46.39a.61.61,0,0,0,.32-.08l1.1-.46-.05-.07a22.77,22.77,0,0,1-3.13-11.68,18.64,18.64,0,0,0-1.66-7.7c10.32,1.64,9.12-4.74,18.31-6.53a35.13,35.13,0,0,0-4.42-11.46" transform="translate(-120.62 -23.5)"/><path d="M281,23.61a11,11,0,0,0-.65,5.92A8.07,8.07,0,0,0,277,24.28" transform="translate(-120.62 -23.5)"/><path d="M281.82,47.08a7.62,7.62,0,0,0,3.75,5.39,10.63,10.63,0,0,1,1.32.74A2.14,2.14,0,0,1,285.82,57a.36.36,0,0,0-.36.36.35.35,0,0,0,.36.35A2.84,2.84,0,0,0,288,53.4a3.1,3.1,0,0,0-1.09-1c-.44-.25-.91-.45-1.34-.73a7.08,7.08,0,0,1-1.9-1.88,7,7,0,0,1-1.14-2.86.36.36,0,0,0-.44-.25.37.37,0,0,0-.25.44Z" transform="translate(-120.62 -23.5)" style="fill:#633719"/><path d="M287.77,48.26a1.13,1.13,0,0,1-2.26,0,1.13,1.13,0,1,1,2.26,0Z" transform="translate(-120.62 -23.5)"/><path d="M280.83,59a4.92,4.92,0,0,0,4.57,1.44,4.64,4.64,0,0,0,1.33-.49c.4-.22,0-.84-.36-.61a4.25,4.25,0,0,1-4.09-.08,3.83,3.83,0,0,1-.94-.76.35.35,0,0,0-.51,0,.36.36,0,0,0,0,.5Z" transform="translate(-120.62 -23.5)" style="fill:#633719"/><path d="M267.44,60.53c1.73-.21,3.07,1.1,4.1,2.32a.37.37,0,0,0,.5,0,.36.36,0,0,0,0-.51c-1.14-1.35-2.68-2.75-4.6-2.53a.36.36,0,1,0,0,.72Z" transform="translate(-120.62 -23.5)" style="fill:#874e27"/><path d="M240.81,149.52l16.62.07-.74-2.32a21.09,21.09,0,0,0,9.92-.34,18.78,18.78,0,0,0,5.53-2.18c4.15-2.62,6.33-7.49,6.88-12.29.69-6.11-.8-12.26-1.62-18.28-.71-5.28-1.25-10.58-1.92-15.87-.43-3.34-.88-6.67-1.29-10q-.39-3.19-.73-6.41L273,77.65c-.35-3.4-.65-6.81-.92-10.23q-.24-3-.42-6.11c-.06-.94-.12-1.88-.17-2.82,0-.47-.05-1-.07-1.42a4.67,4.67,0,0,1-.05-.93c-1.74,2-9.1,11.68-10.23,11.41-.8-.59-2.92-7.1-3.88-10.69a47,47,0,0,0-4.33,11.19c-9.09.42-14.18,1.22-23.2,2.39a2.91,2.91,0,0,0-1.72.63,2.58,2.58,0,0,0-.27,2.51c2.16,7.67,9.75,12.72,17.44,15.32a12.34,12.34,0,0,1,4.24,2c2,1.73,2.43,4.63,2.41,7.26a19.65,19.65,0,0,1-.89,6.15c-2,5.88-7.47,9.81-11.54,14.54a35,35,0,0,0-8.32,19.94c-.15,1.87-.08,3.93,1.12,5.39,2,2.43,4.14,5.73,7.25,5,.34,1.34,1.93-1,1.4.31Z" transform="translate(-120.62 -23.5)" style="fill:#efa02a"/><g style="clip-path:url(#clip-path-2)"><path d="M266.43,70.54a6.72,6.72,0,0,0-4.71-2.23,4.86,4.86,0,0,0-4.39,2.54,3.84,3.84,0,0,0,1.15,4.77c.61.4,1.37.63,1.79,1.23s.35,1.46.65,2.15a3,3,0,0,0,3.14,1.43,5.42,5.42,0,0,0,4.5-5,6.53,6.53,0,0,0-3.49-6Z" transform="translate(-120.62 -23.5)" style="fill:#f2d1aa"/><path d="M225.49,71.54a13.4,13.4,0,0,0,7.95,7c5.33,1.7,11.48,0,16.49,2.45,3.16,1.58,5.49,5,5.08,8.55s-4,6.52-7.44,5.73A14.59,14.59,0,0,1,244,93.59a22.62,22.62,0,0,0-9.51-2.68l-16.1-6.29,3.87-13.76Z" transform="translate(-120.62 -23.5)" style="fill:#f2d1aa"/><path d="M251,149.77a63.11,63.11,0,0,0,8.49-23.38c.9-5.89,1-12,3.13-17.53.89-2.3,2.55-4.72,4.78-4.57,2,.14,3.43,2.37,4.14,4.52,1.19,3.6,1.34,7.51,1.4,11.35.15,11.32-.52,22.87-4.12,33.44Z" transform="translate(-120.62 -23.5)" style="fill:#f2d1aa"/><path d="M228.05,76.92a2.1,2.1,0,0,0,2.51,1,2.4,2.4,0,0,0,1.14-1.77,15.26,15.26,0,0,1,.41-2.14,1.08,1.08,0,0,1,.38-.55c.36-.24.85-.06,1.26.08a3.94,3.94,0,0,0,3.14-.1,2.36,2.36,0,0,0,1.19-2.73A3.31,3.31,0,0,0,235.62,69c-4.25-1.08-8.69.35-12.85,1.77Z" transform="translate(-120.62 -23.5)"/><path d="M267.86,67.33q1.08-3.63,2.14-7.24a43.74,43.74,0,0,0-.18,7.24l-1.65-.26Z" transform="translate(-120.62 -23.5)" style="fill:#663304"/><path d="M255.19,67.17a35.79,35.79,0,0,1,1.59-6.27,25.92,25.92,0,0,0,.44,6.28l-1.87-.26Z" transform="translate(-120.62 -23.5)" style="fill:#663304"/><path d="M260.31,74.3a2.17,2.17,0,0,1,1.48-1.25,2,2,0,0,1,1.84.5,2.05,2.05,0,0,1,.61,1,.35.35,0,0,0,.68-.19,2.89,2.89,0,0,0-1.81-1.89,2.77,2.77,0,0,0-2.56.45,2.93,2.93,0,0,0-.93,1.24.36.36,0,1,0,.69.19Z" transform="translate(-120.62 -23.5)"/><path d="M234.06,84.77c-.23-.64.52-1.15,1.09-1.19a4.17,4.17,0,0,1,2.12.92,7.24,7.24,0,0,0,4.61.85,9.4,9.4,0,0,0,4.18-1.58,6.45,6.45,0,0,0,2.55-3.25c.57-1.85-.14-3.7-1-5.34-.11-.2-.42,0-.31.18a6.93,6.93,0,0,1,1,4.82,5.93,5.93,0,0,1-2.41,3.26A9.08,9.08,0,0,1,241.73,85a7.5,7.5,0,0,1-2.41-.1,6.52,6.52,0,0,1-2.16-.9,3.18,3.18,0,0,0-2.34-.73c-.68.17-1.37.84-1.1,1.59.07.21.42.12.34-.1Z" transform="translate(-120.62 -23.5)"/><path d="M246.23,75.63l1.85-.78a.18.18,0,0,0,.06-.25.18.18,0,0,0-.24-.06l-1.85.78a.2.2,0,0,0-.06.25.18.18,0,0,0,.24.06Z" transform="translate(-120.62 -23.5)"/></g><path d="M254.3,110.32q4.29,19.11,9.51,38a3.08,3.08,0,0,0,.95,1.78,3.15,3.15,0,0,0,1.39.47,46.52,46.52,0,0,0,4.71.55c1.8.13,4,0,4.85-1.58a3.19,3.19,0,0,0-1.29-4,6.85,6.85,0,0,0-4.6-.73,2,2,0,0,1-1.64-.23,1.78,1.78,0,0,1-.39-1.08c-1.47-11.76-3.84-22.34-6.19-34Z" transform="translate(-120.62 -23.5)" style="fill:#efa02a"/><path d="M272.2,109.89c2.87,12.73,2,26.16,5.47,38.75a3.14,3.14,0,0,0,.95,1.78,3.25,3.25,0,0,0,1.39.48c1.56.26,3.14.44,4.72.55,1.79.12,4,0,4.85-1.58a3.19,3.19,0,0,0-1.3-4,6.77,6.77,0,0,0-4.59-.73,2,2,0,0,1-1.65-.24,1.75,1.75,0,0,1-.39-1.07q-2.19-17.64-4.39-35.29Z" transform="translate(-120.62 -23.5)" style="fill:#efa02a"/><path d="M247.35,115.81a12.23,12.23,0,0,1,7.33,5.89,26.09,26.09,0,0,1,2.92,9.15,61,61,0,0,1,.53,15,3.14,3.14,0,0,0,.07,1.26,2.82,2.82,0,0,0,.65,1L261,150.5s-21.18.7-21.25.66a6,6,0,0,0-1.48-6,5.36,5.36,0,0,1-1.43-1.62,3.43,3.43,0,0,1,.1-2.21c2.07-7.18,7.09-13.07,12-18.72Z" transform="translate(-120.62 -23.5)" style="fill:#efa02a"/><path d="M239.14,176.05H278.6l.85,5H238.36Z" transform="translate(-120.62 -23.5)" style="fill:#663304"/><path d="M241.84,156.92q-6.24,19.8-11.74,39.82c-.51,1.83-.89,4.08.53,5.37s3.61.74,4.9-.51a10.43,10.43,0,0,0,2.34-4.74c3.93-13.48,7.55-27,11.17-40.59Z" transform="translate(-120.62 -23.5)" style="fill:#bc681d"/><path d="M276.72,156.92q6.25,19.8,11.75,39.82c.5,1.83.89,4.08-.53,5.37s-3.61.74-4.9-.51a10.43,10.43,0,0,1-2.34-4.74c-3.93-13.48-7.55-27-11.17-40.59Z" transform="translate(-120.62 -23.5)" style="fill:#bc681d"/><path d="M231.9,153.05c0,.49-.06,1-.07,1.48a3.52,3.52,0,0,0,3.48,3.54c15.32.13,39.36,0,47.86,0a3.5,3.5,0,0,0,3.47-3v-.06a3.51,3.51,0,0,0-3.39-4l-47.77-1.08A3.5,3.5,0,0,0,231.9,153.05Z" transform="translate(-120.62 -23.5)" style="fill:#663304"/><path d="M281,178.54a1.8,1.8,0,1,1-1.79-1.79A1.8,1.8,0,0,1,281,178.54Z" transform="translate(-120.62 -23.5)" style="fill:#663304"/><path d="M241.06,178.54a1.8,1.8,0,1,1-1.8-1.79A1.81,1.81,0,0,1,241.06,178.54Z" transform="translate(-120.62 -23.5)" style="fill:#663304"/><path d="M243.06,161.7l-1.35,5.52c-.05.22.29.32.35.1q.67-2.77,1.34-5.53c.06-.22-.29-.32-.34-.09Z" transform="translate(-120.62 -23.5)" style="fill:#663304"/><path d="M243.26,164.56c-.11.82-.23,1.63-.35,2.45a.19.19,0,0,0,.13.22.18.18,0,0,0,.22-.12c.11-.82.23-1.64.35-2.46a.2.2,0,0,0-.13-.22.19.19,0,0,0-.22.13Z" transform="translate(-120.62 -23.5)" style="fill:#663304"/><path d="M245.4,161a1.44,1.44,0,0,0-.39,1.61.18.18,0,0,0,.34-.1,1.1,1.1,0,0,1,.3-1.26.17.17,0,0,0,0-.25.17.17,0,0,0-.25,0Z" transform="translate(-120.62 -23.5)" style="fill:#663304"/><path d="M274.71,166.71a13.18,13.18,0,0,0,1.27,3.91c.1.2.41,0,.31-.18a12.92,12.92,0,0,1-1.24-3.83c0-.22-.38-.13-.34.1Z" transform="translate(-120.62 -23.5)" style="fill:#663304"/><path d="M276.61,168.73c.13.41.25.82.37,1.23a.18.18,0,1,0,.34-.09l-.36-1.24a.18.18,0,0,0-.22-.12.19.19,0,0,0-.13.22Z" transform="translate(-120.62 -23.5)" style="fill:#663304"/><path d="M274.78,162c.2.75.4,1.5.61,2.25.05.22.4.12.34-.1l-.6-2.24a.18.18,0,0,0-.35.09Z" transform="translate(-120.62 -23.5)" style="fill:#663304"/><path d="M280.41,186.64a9.81,9.81,0,0,0,1.1,3.54c.11.2.42,0,.31-.18a9.28,9.28,0,0,1-1.05-3.36c0-.23-.39-.23-.36,0Z" transform="translate(-120.62 -23.5)" style="fill:#663304"/><path d="M282.3,188.47a3.33,3.33,0,0,0,.6,1.53.19.19,0,0,0,.24.06.18.18,0,0,0,.07-.24,3,3,0,0,1-.55-1.35.18.18,0,0,0-.36,0Z" transform="translate(-120.62 -23.5)" style="fill:#663304"/><path d="M283.87,187.91l.22,1.43a.17.17,0,0,0,.22.12.18.18,0,0,0,.12-.22l-.21-1.42a.19.19,0,0,0-.22-.13.2.2,0,0,0-.13.22Z" transform="translate(-120.62 -23.5)" style="fill:#663304"/><path d="M284.06,199.75a2.19,2.19,0,0,0,3,1.12c.2-.1,0-.41-.18-.3a1.84,1.84,0,0,1-2.45-.91c-.09-.22-.43-.12-.35.09Z" transform="translate(-120.62 -23.5)" style="fill:#663304"/><path d="M231,198.79a1.63,1.63,0,0,0,1.22,2.06.18.18,0,0,0,.22-.12.17.17,0,0,0-.12-.22,1.27,1.27,0,0,1-1-1.62.17.17,0,0,0-.12-.22.18.18,0,0,0-.22.12Z" transform="translate(-120.62 -23.5)" style="fill:#663304"/><path d="M234.19,192.87a2.64,2.64,0,0,0-.43,2,.18.18,0,0,0,.22.12.19.19,0,0,0,.13-.22,2.26,2.26,0,0,1,.38-1.69.18.18,0,0,0-.06-.25.18.18,0,0,0-.24.07Z" transform="translate(-120.62 -23.5)" style="fill:#663304"/><path d="M235.38,193.32a3.25,3.25,0,0,0-.19,1.72.18.18,0,0,0,.22.13.18.18,0,0,0,.12-.22,3,3,0,0,1,.2-1.54.18.18,0,0,0-.13-.22.19.19,0,0,0-.22.13Z" transform="translate(-120.62 -23.5)" style="fill:#663304"/><path d="M237.44,188.58a2.82,2.82,0,0,0-.21,1.57.17.17,0,0,0,.22.12.18.18,0,0,0,.12-.22,2.38,2.38,0,0,1,.18-1.29.18.18,0,0,0-.06-.24.2.2,0,0,0-.25.06Z" transform="translate(-120.62 -23.5)" style="fill:#663304"/><path d="M235.61,185.57c-.08.48-.15,1-.22,1.43a.18.18,0,0,0,.12.22.19.19,0,0,0,.22-.13c.07-.47.15-1,.22-1.42a.18.18,0,1,0-.34-.1Z" transform="translate(-120.62 -23.5)" style="fill:#663304"/><path d="M238.39,176.3a39.33,39.33,0,0,0,1.7,5.08c.09.2.43.11.35-.1a36.49,36.49,0,0,1-1.7-5.08.18.18,0,0,0-.35.1Z" transform="translate(-120.62 -23.5)" style="fill:#bc681d"/><path d="M278.12,180a26.6,26.6,0,0,1,3.44-4.05c.16-.15-.09-.41-.25-.25a26.88,26.88,0,0,0-3.5,4.11c-.13.19.18.37.31.19Z" transform="translate(-120.62 -23.5)" style="fill:#bc681d"/><path d="M270.77,147.38a2.55,2.55,0,0,1,1.11,3.27c-.1.21.21.39.31.18a2.92,2.92,0,0,0-1.24-3.76c-.2-.11-.38.2-.18.31Z" transform="translate(-120.62 -23.5)" style="fill:#663304"/><path d="M272.43,147a2.32,2.32,0,0,1,1.52,3.08c-.09.21.22.39.31.18a2.68,2.68,0,0,0-1.73-3.61.18.18,0,0,0-.1.35Z" transform="translate(-120.62 -23.5)" style="fill:#663304"/><path d="M284.25,147.44a2.3,2.3,0,0,1,1.29,2.86c-.08.21.27.31.35.09a2.66,2.66,0,0,0-1.55-3.3c-.21-.08-.31.27-.09.35Z" transform="translate(-120.62 -23.5)" style="fill:#663304"/><path d="M286.47,146.89a2.57,2.57,0,0,1,1.53,3,.18.18,0,0,0,.35.1,2.94,2.94,0,0,0-1.79-3.44c-.22-.08-.31.26-.09.34Z" transform="translate(-120.62 -23.5)" style="fill:#663304"/><path d="M280.05,145.42a3.9,3.9,0,0,1,2.57,0c.22.07.31-.27.09-.35a4.18,4.18,0,0,0-2.75,0c-.22.08-.13.42.09.35Z" transform="translate(-120.62 -23.5)" style="fill:#663304"/><path d="M266.63,145.78a2,2,0,0,1,1.3-.15.18.18,0,1,0,.09-.34,2.31,2.31,0,0,0-1.57.19.18.18,0,1,0,.18.3Z" transform="translate(-120.62 -23.5)" style="fill:#663304"/><path d="M261.45,109.53c.49,2.14,1,4.3,1.4,6.45q.72,3.47,1.36,7t1.29,7.17q.6,3.5,1.16,7,.52,3.28,1,6.58c0,.26.07.52.11.78s.37.13.34-.09q-.47-3.27-1-6.54c-.36-2.33-.74-4.65-1.14-7s-.83-4.78-1.27-7.17-.88-4.66-1.36-7q-.66-3.25-1.39-6.51l-.18-.77c-.05-.22-.4-.13-.34.1Z" transform="translate(-120.62 -23.5)" style="fill:#663304"/><path d="M254.73,115.07l1.86,6.36c.63,2.17,1.25,4.33,1.87,6.5s1.22,4.41,1.81,6.61,1.14,4.37,1.68,6.57,1,4.32,1.46,6.49c.06.26.11.53.17.79s.39.13.34-.09c-.44-2.17-.92-4.32-1.44-6.47s-1.07-4.38-1.65-6.56-1.18-4.41-1.8-6.61-1.23-4.35-1.86-6.52-1.24-4.26-1.87-6.39c-.07-.26-.15-.52-.22-.78a.18.18,0,0,0-.35.1Z" transform="translate(-120.62 -23.5)" style="fill:#663304"/><path d="M272.8,114.45q.87,6.76,1.75,13.54t1.75,13.54c.32,2.54.65,5.09,1,7.63,0,.22.39.23.36,0q-.87-6.76-1.75-13.54t-1.75-13.54q-.5-3.83-1-7.63c0-.23-.39-.23-.36,0Z" transform="translate(-120.62 -23.5)" style="fill:#663304"/><path d="M253.82,148.2A6.19,6.19,0,0,1,255.2,152a.18.18,0,0,0,.35,0,6.55,6.55,0,0,0-1.48-4c-.14-.17-.39.08-.25.26Z" transform="translate(-120.62 -23.5)" style="fill:#663304"/><path d="M256.44,148.42a5.49,5.49,0,0,1,1.17,3.15c0,.23.36.23.35,0a5.91,5.91,0,0,0-1.26-3.4c-.14-.18-.4.07-.26.25Z" transform="translate(-120.62 -23.5)" style="fill:#663304"/><path d="M246.14,147.7a57,57,0,0,1,9.42-.22c.88.06,1.75.13,2.63.22.22,0,.22-.33,0-.36a57,57,0,0,0-9.42-.21c-.88.05-1.75.12-2.63.21-.22,0-.23.39,0,.36Z" transform="translate(-120.62 -23.5)" style="fill:#663304"/><path d="M247.71,115.59a18.83,18.83,0,0,1,4.54,4.09,23.92,23.92,0,0,1,3.2,5.28,30.4,30.4,0,0,1,1.95,6.18,45.3,45.3,0,0,1,.82,7.61c.08,2.56,0,5.12-.11,7.68,0,.31,0,.63,0,.95s.34.23.35,0c.13-2.6.23-5.2.18-7.8a48.33,48.33,0,0,0-.7-7.69,30.43,30.43,0,0,0-1.85-6.42A24.75,24.75,0,0,0,253,120a19.44,19.44,0,0,0-4.42-4.31l-.66-.44c-.19-.12-.37.19-.18.31Z" transform="translate(-120.62 -23.5)" style="fill:#663304"/><path d="M242.66,69.71c.49-.74,1-1.48,1.46-2.22.13-.2-.18-.37-.3-.18l-1.47,2.22c-.12.19.18.37.31.18Z" transform="translate(-120.62 -23.5)" style="fill:#efa02a"/><path d="M244,69.32l1.25-1.62a.18.18,0,0,0,0-.25.18.18,0,0,0-.25,0c-.42.54-.83,1.08-1.25,1.61a.2.2,0,0,0,0,.26.18.18,0,0,0,.25,0Z" transform="translate(-120.62 -23.5)" style="fill:#efa02a"/><path d="M232.67,125.37a6.27,6.27,0,0,1,4.72-2.56c.23,0,.23-.37,0-.35a6.59,6.59,0,0,0-4.16,1.75,5.81,5.81,0,0,0-.87,1c-.13.18.18.36.31.18Z" transform="translate(-120.62 -23.5)" style="fill:#efa02a"/><path d="M233.64,126a10.6,10.6,0,0,1,2.78-1.57c.22-.08.12-.43-.09-.34a10.87,10.87,0,0,0-3,1.66c-.18.14.08.39.26.25Z" transform="translate(-120.62 -23.5)" style="fill:#efa02a"/><path d="M273.58,86.39a7.55,7.55,0,0,0,2.4,3c.19.14.36-.17.18-.31a7.24,7.24,0,0,1-2.27-2.89c-.09-.21-.4,0-.31.18Z" transform="translate(-120.62 -23.5)" style="fill:#efa02a"/><path d="M273.88,88.89a4.16,4.16,0,0,0,2,1.85.18.18,0,0,0,.24-.06.2.2,0,0,0-.06-.25,3.8,3.8,0,0,1-1.84-1.72c-.11-.2-.42,0-.31.18Z" transform="translate(-120.62 -23.5)" style="fill:#efa02a"/><path d="M264.35,87.5a3.09,3.09,0,0,0,.17,1.73.19.19,0,0,0,.22.13.18.18,0,0,0,.13-.22,2.8,2.8,0,0,1-.18-1.54.17.17,0,0,0-.12-.22.18.18,0,0,0-.22.12Z" transform="translate(-120.62 -23.5)" style="fill:#b27019"/><path d="M266.1,88a.46.46,0,0,0-.3.33.53.53,0,0,0,.07.42.4.4,0,0,0,.23.17.17.17,0,0,0,.21-.13.16.16,0,0,0-.12-.21h0l0,0,0,0,0,0-.05,0,0,0,0-.06,0,0a.19.19,0,0,1,0-.08v0a.29.29,0,0,1,0-.09v0l0-.06,0,0,.05,0,0,0,0,0,0,0h0a.18.18,0,0,0-.1-.35Z" transform="translate(-120.62 -23.5)" style="fill:#b27019"/><path d="M267.41,88.45l.21.41a.15.15,0,0,0,.11.08.2.2,0,0,0,.13,0,.21.21,0,0,0,.08-.11.17.17,0,0,0,0-.14l-.21-.41a.16.16,0,0,0-.1-.08.17.17,0,0,0-.14,0,.15.15,0,0,0-.08.11.2.2,0,0,0,0,.13Z" transform="translate(-120.62 -23.5)" style="fill:#b27019"/><path d="M268.39,83.12c.07.27.14.54.22.81a.17.17,0,0,0,.22.12.18.18,0,0,0,.12-.22c-.07-.27-.14-.54-.22-.81a.17.17,0,0,0-.22-.12.18.18,0,0,0-.12.22Z" transform="translate(-120.62 -23.5)" style="fill:#b27019"/><path d="M266.55,82.54a1.94,1.94,0,0,0-.16,1.38.2.2,0,0,0,.22.13.19.19,0,0,0,.13-.22,1.53,1.53,0,0,1,.12-1.11.18.18,0,0,0-.06-.24.18.18,0,0,0-.25.06Z" transform="translate(-120.62 -23.5)" style="fill:#b27019"/><path d="M248.8,130.78c.08.81.17,1.62.25,2.44a.2.2,0,0,0,.18.18.19.19,0,0,0,.18-.18c-.09-.82-.17-1.63-.25-2.44a.19.19,0,0,0-.18-.18.18.18,0,0,0-.18.18Z" transform="translate(-120.62 -23.5)" style="fill:#b27019"/><path d="M250.69,130.52a1.48,1.48,0,0,0,.21,1.16.17.17,0,0,0,.24.06.18.18,0,0,0,.07-.24.75.75,0,0,1-.07-.12l0,0s0-.05,0,0a1.17,1.17,0,0,1-.07-.25.13.13,0,0,1,0-.06s0,0,0,0v-.13a.49.49,0,0,1,0-.12h0v0s0,0,0-.06a.18.18,0,0,0-.13-.22.19.19,0,0,0-.22.12Z" transform="translate(-120.62 -23.5)" style="fill:#b27019"/><path d="M252.1,130.77v.61a.17.17,0,0,0,.18.18.19.19,0,0,0,.18-.18v-.61a.19.19,0,0,0-.18-.18.19.19,0,0,0-.18.18Z" transform="translate(-120.62 -23.5)" style="fill:#b27019"/><path d="M249.66,124.55c.21.41.41.81.61,1.22a.18.18,0,0,0,.25.06.17.17,0,0,0,.06-.24c-.2-.41-.4-.81-.61-1.22a.18.18,0,0,0-.24-.07.19.19,0,0,0-.07.25Z" transform="translate(-120.62 -23.5)" style="fill:#b27019"/><path d="M252.9,136.33l.24,1.21a.18.18,0,0,0,.22.13.19.19,0,0,0,.13-.22c-.08-.41-.17-.81-.25-1.22a.18.18,0,1,0-.34.1Z" transform="translate(-120.62 -23.5)" style="fill:#b27019"/><path d="M254.75,136.07v1a.18.18,0,0,0,.36,0v-1a.19.19,0,0,0-.18-.18.19.19,0,0,0-.18.18Z" transform="translate(-120.62 -23.5)" style="fill:#b27019"/><path d="M254.55,131.18V132a.17.17,0,0,0,.17.18.18.18,0,0,0,.18-.18v-.81a.19.19,0,0,0-.18-.18.18.18,0,0,0-.17.18Z" transform="translate(-120.62 -23.5)" style="fill:#b27019"/><path d="M262.53,132.44l.33,1.45a.18.18,0,0,0,.22.12.18.18,0,0,0,.13-.22l-.33-1.44a.18.18,0,0,0-.22-.13.19.19,0,0,0-.13.22Z" transform="translate(-120.62 -23.5)" style="fill:#b27019"/><path d="M263.77,132.53a.9.9,0,0,0-.06.56.83.83,0,0,0,.25.47.19.19,0,0,0,.26,0,.18.18,0,0,0,0-.25s0,0,0,0l0,0h0v0l0-.05a.08.08,0,0,1,0,0s0,0,0,0v0l0-.1a.09.09,0,0,0,0,0s0,0,0,0v-.15s0,0,0,0a.07.07,0,0,1,0-.05.07.07,0,0,1,0-.05v0a.23.23,0,0,0,0-.14.18.18,0,0,0-.08-.11.17.17,0,0,0-.24.07Z" transform="translate(-120.62 -23.5)" style="fill:#b27019"/><path d="M262.49,127.31a2.19,2.19,0,0,0,.47,1.34.19.19,0,0,0,.26,0,.18.18,0,0,0,0-.25,1.89,1.89,0,0,1-.38-1.09.18.18,0,0,0-.17-.18.18.18,0,0,0-.18.18Z" transform="translate(-120.62 -23.5)" style="fill:#b27019"/><path d="M277.79,132.2V133a.17.17,0,0,0,.18.18.19.19,0,0,0,.18-.18v-.81A.19.19,0,0,0,278,132a.18.18,0,0,0-.18.18Z" transform="translate(-120.62 -23.5)" style="fill:#b27019"/><path d="M278.2,136.28v.81a.18.18,0,0,0,.17.18.18.18,0,0,0,.18-.18v-.81a.17.17,0,0,0-.18-.18.18.18,0,0,0-.17.18Z" transform="translate(-120.62 -23.5)" style="fill:#b27019"/><path d="M277.31,129.58a.42.42,0,0,0-.29.24.56.56,0,0,0-.06.21.5.5,0,0,0,.05.21.18.18,0,0,0,.11.08.17.17,0,0,0,.14,0,.21.21,0,0,0,.08-.11.23.23,0,0,0,0-.14h0v0s0,0,0-.06v0a.19.19,0,0,1,0-.08l0,0a.43.43,0,0,1,0-.07l0,0,.06-.06,0,0,.06,0-.05,0,0,0a.15.15,0,0,0,.11-.08.22.22,0,0,0,0-.14.18.18,0,0,0-.22-.12Z" transform="translate(-120.62 -23.5)" style="fill:#b27019"/><path d="M276.56,125.27v1.22a.19.19,0,0,0,.18.18.18.18,0,0,0,.18-.18v-1.22a.18.18,0,0,0-.18-.18.19.19,0,0,0-.18.18Z" transform="translate(-120.62 -23.5)" style="fill:#b27019"/><path d="M261,68.88a9,9,0,0,1,4.3.4,2.79,2.79,0,0,1-4.43-.42Z" transform="translate(-120.62 -23.5)" style="fill:#663304"/><path d="M278.79,124.5a6,6,0,0,0,2.15,3c.19.13.37-.18.18-.31a5.59,5.59,0,0,1-2-2.73c-.07-.22-.42-.12-.35.09Z" transform="translate(-120.62 -23.5)" style="fill:#efa02a"/><path d="M279.39,127.16a5.65,5.65,0,0,0,1.66,2.37.2.2,0,0,0,.26,0,.18.18,0,0,0,0-.25,5.28,5.28,0,0,1-1.58-2.21c-.07-.22-.42-.12-.34.09Z" transform="translate(-120.62 -23.5)" style="fill:#efa02a"/><path d="M230.15,132.46a2.66,2.66,0,0,1,2.9-1.06.18.18,0,0,0,.1-.35,3,3,0,0,0-3.31,1.23c-.12.19.19.37.31.18Z" transform="translate(-120.62 -23.5)" style="fill:#efa02a"/><path d="M230.92,133.71l2.89-1.78c.19-.12,0-.43-.18-.31l-2.89,1.78a.18.18,0,0,0,.18.31Z" transform="translate(-120.62 -23.5)" style="fill:#efa02a"/><path d="M222.27,131.05a7.44,7.44,0,0,0-.14,5.47,7.58,7.58,0,0,0,.7,1.43c.13.19.44,0,.31-.18a7.08,7.08,0,0,1-1-5.1,6.63,6.63,0,0,1,.43-1.44c.09-.21-.22-.39-.31-.18Z" transform="translate(-120.62 -23.5)" style="fill:#663304"/><path d="M222.76,133.42a8.18,8.18,0,0,0,1,5,.18.18,0,0,0,.31-.18,8,8,0,0,1-1-4.81c0-.22-.33-.22-.35,0Z" transform="translate(-120.62 -23.5)" style="fill:#663304"/><path d="M220.44,125.57a3.62,3.62,0,0,1,2.73-2c.09,0,.14-.13.12-.22a.18.18,0,0,0-.22-.12,4,4,0,0,0-2.94,2.15c-.1.2.21.38.31.18Z" transform="translate(-120.62 -23.5)" style="fill:#663304"/><path d="M221.73,122.77l2.86-1c.22-.08.13-.42-.09-.35l-2.86,1c-.22.08-.12.42.09.35Z" transform="translate(-120.62 -23.5)" style="fill:#663304"/><path d="M239.46,104.49c-1.33,2.23-.58,5.55,1,7.66a18.93,18.93,0,0,0,6.18,4.86,19.54,19.54,0,0,0,9.51,1.91.42.42,0,0,0,.18-.77c-2-1.27-5.91-2-7.91-2.31,2.66,1.71,8.2,2,11.36,2.12a.54.54,0,0,0,.37-.95c-1.84-1.51-6.48-1.88-8.84-2.29a38.9,38.9,0,0,0,9.67,1.9.54.54,0,0,0,.48-.82,5.34,5.34,0,0,0-3-1.81l-7.5-2.27,8.44,1.46c.48.08,1,.14,1.34-.3a.84.84,0,0,0,0-.88,2.28,2.28,0,0,0-1.59-.91l-10.43-2.64a25.13,25.13,0,0,0,4.83-.29.54.54,0,0,0,.1-1,55.09,55.09,0,0,0-14.1-2.67Z" transform="translate(-120.62 -23.5)" style="fill:#b4713d"/><path d="M259,103.46c.21,2.42-15.3-.73-19.64-3.44a2.13,2.13,0,0,1-1.12-1.28c-.1-.57.53-1.22,1-.92a2.62,2.62,0,0,1-1.45-2.18c.05-.91,1.25-1.66,1.95-1.06a1.71,1.71,0,0,1-.92-2.45,1.79,1.79,0,0,1,2.66-.23,4,4,0,0,1-.89-2.11c0-.78.64-1.61,1.43-1.5a2,2,0,0,1,.88.43l3.42,2.37a11.17,11.17,0,0,1-.52-2.62,1.25,1.25,0,0,1,.14-.81,1,1,0,0,1,1.26-.13c.4.25,5.37,7.55,5.62,7.94,1.42,2.28,5.77-.88,8.16.41C261,95.88,258.74,100.65,259,103.46Z" transform="translate(-120.62 -23.5)" style="fill:#b4713d"/><path d="M296.19,71.73c-5.18,5-12.59,12.64-15.66,18.9a214.15,214.15,0,0,0-25.59,4.75,83.15,83.15,0,0,0,.36,12.23l25.94,1a31.33,31.33,0,0,0,9.66-.64c7.91-2.21,12.48-9.81,16.11-16.68,2.57-4.87,5.18-10,5-15.29a6.11,6.11,0,0,0-1.69-3.68A9.8,9.8,0,0,0,296.19,71.73Z" transform="translate(-120.62 -23.5)" style="fill:#424e7f"/><polygon points="165.69 41.86 159.09 45.19 167.15 45.32 165.69 41.86" style="fill:#874e27;opacity:0.54"/><path d="M276.72,53.85a1.13,1.13,0,1,1-1.13-1.13A1.13,1.13,0,0,1,276.72,53.85Z" transform="translate(-120.62 -23.5)"/><path d="M275.29,47.71a1,1,0,0,1,.62,1.26,3.05,3.05,0,0,1-.87,1.27c-.66.67-1.32,1.33-2,2a.52.52,0,0,1-.37.16c-.24,0-.31-.19-.35-.36a2.56,2.56,0,0,1,0-1.2,10.32,10.32,0,0,1,.69-1.88,2.25,2.25,0,0,1,2.22-1.25Z" transform="translate(-120.62 -23.5)"/><path d="M283.88,43.73a1,1,0,0,0,.88,1.1,3,3,0,0,0,1.52-.26l2.65-.93a.55.55,0,0,0,.3-.26c.09-.22-.05-.36-.18-.47a2.49,2.49,0,0,0-1.1-.49,10.32,10.32,0,0,0-2-.17,2.26,2.26,0,0,0-2.07,1.48Z" transform="translate(-120.62 -23.5)"/><path d="M240.48,91.52c.82.44,1.57,1,2.38,1.42a.36.36,0,0,0,.49-.12.35.35,0,0,0-.13-.49c-.81-.44-1.56-1-2.38-1.43a.36.36,0,0,0-.36.62Z" transform="translate(-120.62 -23.5)" style="fill:#874e27"/><path d="M239.05,94l2.24,1a.35.35,0,1,0,.36-.61l-2.24-1a.38.38,0,0,0-.49.13.37.37,0,0,0,.13.49Z" transform="translate(-120.62 -23.5)" style="fill:#874e27"/><path d="M238.32,97.47l1.63.41a.36.36,0,0,0,.44-.25.37.37,0,0,0-.25-.44l-1.63-.4a.35.35,0,1,0-.19.68Z" transform="translate(-120.62 -23.5)" style="fill:#874e27"/><path d="M240.18,98.75a51.7,51.7,0,0,1,3.2-5.78c.34-.53.69-1.06,1.05-1.57a.36.36,0,0,0-.62-.36,53.09,53.09,0,0,0-3.41,5.66c-.29.56-.57,1.12-.84,1.69a.37.37,0,0,0,.13.49.36.36,0,0,0,.49-.13Z" transform="translate(-120.62 -23.5)" style="fill:#874e27"/><path d="M249.59,114.57q4,.81,8,1.81l2.27.58a.36.36,0,0,0,.19-.69q-4-1-8-1.91l-2.29-.47a.36.36,0,0,0-.44.25.35.35,0,0,0,.25.43Z" transform="translate(-120.62 -23.5)" style="fill:#874e27"/><path d="M248.77,116.34c1.95.56,3.9,1.09,5.84,1.64l1.52.43a.36.36,0,0,0,.19-.69c-1.94-.56-3.89-1.09-5.84-1.64l-1.52-.43a.36.36,0,0,0-.19.69Z" transform="translate(-120.62 -23.5)" style="fill:#874e27"/><path d="M250,110.05a5.51,5.51,0,0,0-.56,1.53c-.11.57-.13,1.16-.21,1.74a12.5,12.5,0,0,1-.87,3.18.36.36,0,0,0,.13.49.35.35,0,0,0,.48-.13,12.65,12.65,0,0,0,.93-3.24c.09-.57.11-1.15.21-1.71a4.68,4.68,0,0,1,.51-1.5c.22-.41-.4-.77-.62-.36Z" transform="translate(-120.62 -23.5)" style="fill:#874e27"/><path d="M250.44,112.17a24.21,24.21,0,0,1,6.44,1.59.36.36,0,0,0,.19-.69,25.22,25.22,0,0,0-6.63-1.62.36.36,0,0,0-.35.36.36.36,0,0,0,.35.36Z" transform="translate(-120.62 -23.5)" style="fill:#874e27"/><path d="M299,70q-1.44,2.33-3,4.55t-3.29,4.31c-1.14,1.41-2.33,2.77-3.56,4.1s-2.52,2.63-3.84,3.89-2.67,2.46-4.07,3.63l-.52.43c-.2.16-.09.44.07.56a82.51,82.51,0,0,1,6.4,5.39c.58.54,1.15,1.09,1.72,1.64.32.33.83-.18.5-.5A84.79,84.79,0,0,0,283,92.33c-.64-.51-1.28-1-1.93-1.5l.08.56q2.12-1.74,4.12-3.61c1.33-1.25,2.62-2.53,3.86-3.86s2.47-2.7,3.63-4.11,2.29-2.87,3.37-4.35,2.09-3,3.07-4.55c.12-.19.24-.38.35-.57.25-.39-.37-.75-.61-.36Z" transform="translate(-120.62 -23.5)" style="fill:#152151"/><path d="M255.64,96.25a12,12,0,0,1,3.77-.39.36.36,0,0,0,.36-.36.36.36,0,0,0-.36-.36,12.3,12.3,0,0,0-4,.43.35.35,0,0,0,.19.68Z" transform="translate(-120.62 -23.5)" style="fill:#152151"/><path d="M255.43,98.29a10.49,10.49,0,0,1,3.78-.39.36.36,0,0,0,.36-.35.37.37,0,0,0-.36-.36,10.87,10.87,0,0,0-4,.41.36.36,0,0,0,.19.69Z" transform="translate(-120.62 -23.5)" style="fill:#152151"/><path d="M255.53,100.88l4.08-.39a.37.37,0,0,0,.36-.36.36.36,0,0,0-.36-.35l-4.08.38a.37.37,0,0,0-.35.36.36.36,0,0,0,.35.36Z" transform="translate(-120.62 -23.5)" style="fill:#152151"/><path d="M256.17,103.64a4.17,4.17,0,0,1,2.76-.32.35.35,0,0,0,.43-.25.37.37,0,0,0-.24-.44,5,5,0,0,0-3.31.39.36.36,0,0,0,.36.62Z" transform="translate(-120.62 -23.5)" style="fill:#152151"/><path d="M256.23,106a6.9,6.9,0,0,1,2.78-.35.36.36,0,0,0,0-.72,7.67,7.67,0,0,0-3,.38.38.38,0,0,0-.25.44.36.36,0,0,0,.44.25Z" transform="translate(-120.62 -23.5)" style="fill:#152151"/><path d="M277.07,108.79a61.06,61.06,0,0,0,8.66.44A21.15,21.15,0,0,0,294,107.4a25.76,25.76,0,0,0,7-5.47,52.69,52.69,0,0,0,5.55-6.49,32,32,0,0,0,4-7.43c.13-.34.24-.67.35-1s-.54-.62-.69-.19a29.94,29.94,0,0,1-3.7,7.42,50,50,0,0,1-5.32,6.47c-1,1-2,2-3.09,3a20,20,0,0,1-3.53,2.61,18.94,18.94,0,0,1-7.9,2.15,50.91,50.91,0,0,1-8.55-.29l-1-.1a.36.36,0,0,0-.36.35.36.36,0,0,0,.36.36Z" transform="translate(-120.62 -23.5)" style="fill:#152151"/><path d="M283.55,108.62a17.6,17.6,0,0,1,5.39-4,17.93,17.93,0,0,1,6.41-1.74,17.4,17.4,0,0,1,3.75.1.37.37,0,0,0,.44-.25.36.36,0,0,0-.25-.44,18.46,18.46,0,0,0-7,.36,19,19,0,0,0-6.32,2.87,18.07,18.07,0,0,0-2.95,2.58.36.36,0,0,0,0,.5.37.37,0,0,0,.51,0Z" transform="translate(-120.62 -23.5)" style="fill:#152151"/><path d="M275.72,73.83a3.17,3.17,0,0,0-.32,2.67,5.68,5.68,0,0,0,1.29,2.23,6.32,6.32,0,0,0,4.53,2,7.46,7.46,0,0,0,2.9-.68,25,25,0,0,0,2.72-1.41A21.85,21.85,0,0,0,289.4,77c.4-.31.79-.64,1.16-1a4.64,4.64,0,0,0,.94-1.13,3.43,3.43,0,0,0,.12-2.87,7.36,7.36,0,0,0-1.71-2.47l-.53-.53a.36.36,0,0,0-.51.51,10,10,0,0,1,1.79,2.11,3.25,3.25,0,0,1,.41,2.43,4.56,4.56,0,0,1-1.68,2,19.31,19.31,0,0,1-2.29,1.62c-.82.5-1.66,1-2.51,1.39a8.84,8.84,0,0,1-2.69.92,5.43,5.43,0,0,1-4.17-1.25A5.17,5.17,0,0,1,276.34,77a3.15,3.15,0,0,1-.27-2.29,1.83,1.83,0,0,1,.27-.49.36.36,0,1,0-.62-.36Z" transform="translate(-120.62 -23.5)" style="fill:#152151"/><path d="M267.18,92.87c3.67-.55,7.41-.44,11.09-.93a29.56,29.56,0,0,0,3.09-.6.36.36,0,0,0-.19-.69c-3.59.94-7.32.91-11,1.18-1.06.09-2.12.19-3.18.35a.37.37,0,0,0-.25.44.37.37,0,0,0,.44.25Z" transform="translate(-120.62 -23.5)" style="fill:#152151"/><path d="M306,110.44q-3.56.65-7,1.59c-.66.18-1.31.37-2,.57a.36.36,0,0,0,.19.69c2.3-.69,4.63-1.29,7-1.77l2-.4a.35.35,0,0,0,.24-.44.34.34,0,0,0-.43-.24Z" transform="translate(-120.62 -23.5)" style="fill:#152151"/><path d="M304.38,112.49q-2.64.9-5.19,2.06a.36.36,0,0,0,.36.62,54,54,0,0,1,5-2,.37.37,0,0,0,.25-.44.37.37,0,0,0-.44-.25Z" transform="translate(-120.62 -23.5)" style="fill:#152151"/><path id="SVGID-5" data-name="SVGID" d="M367,180.19a250.28,250.28,0,0,0,7.82,24.32,1,1,0,0,1-1.4,1.16,59,59,0,0,1-9.83-7.54,24.2,24.2,0,0,0-4.78-4,6.5,6.5,0,0,0-6-.48,63.43,63.43,0,0,1-2.15-11.18S362.82,180.37,367,180.19Z" transform="translate(-120.62 -23.5)" style="fill:#6b74b5"/><g style="clip-path:url(#clip-path-3)"><path d="M359.18,180.44a7.41,7.41,0,0,0,6.84,4.37c-1.07-2.68-2-5.41-2.83-8.17Z" transform="translate(-120.62 -23.5)" style="fill:#efa02a"/><path d="M371,200.55a3.7,3.7,0,0,0-3.41,3q3.69,3.62,7.55,7.05-1.74-5.4-3.74-10.7Z" transform="translate(-120.62 -23.5)" style="fill:#efa02a"/><path d="M361,191.4a.94.94,0,1,1-.93-.93A.93.93,0,0,1,361,191.4Z" transform="translate(-120.62 -23.5)" style="fill:#efa02a"/><path d="M364.16,194.53a.93.93,0,1,1-.93-.94A.93.93,0,0,1,364.16,194.53Z" transform="translate(-120.62 -23.5)" style="fill:#efa02a"/><path d="M367,196.79a.93.93,0,1,1-1.86,0,.93.93,0,0,1,1.86,0Z" transform="translate(-120.62 -23.5)" style="fill:#efa02a"/><path d="M359.88,190.85a6,6,0,0,0-2.76,4.11,5.94,5.94,0,0,0-.06,1.46.41.41,0,0,0,.4.39.4.4,0,0,0,.4-.39,5.21,5.21,0,0,1,2.43-4.88c.43-.27,0-1-.41-.69Z" transform="translate(-120.62 -23.5)" style="fill:#fff"/><path d="M363.28,194.38a3.24,3.24,0,0,0-2.38,4,.41.41,0,0,0,.49.28.4.4,0,0,0,.28-.49,1.94,1.94,0,0,1-.1-.49,1.13,1.13,0,0,1,0-.26v-.19a2.61,2.61,0,0,1,.34-1,2.34,2.34,0,0,1,1.57-1.13.4.4,0,1,0-.21-.77Z" transform="translate(-120.62 -23.5)" style="fill:#fff"/><path d="M365.76,196.61a5.89,5.89,0,0,0-1.92,3.24.41.41,0,0,0,.28.49.39.39,0,0,0,.49-.27,5.22,5.22,0,0,1,1.71-2.9.4.4,0,0,0-.56-.56Z" transform="translate(-120.62 -23.5)" style="fill:#fff"/><path d="M363.64,178.1q1,3.3,2.12,6.58t2.21,6.56c.76,2.17,1.52,4.35,2.31,6.52s1.58,4.33,2.4,6.49,1.64,4.31,2.48,6.45c.11.26.21.53.31.79a.42.42,0,0,0,.5.28.4.4,0,0,0,.27-.49c-.84-2.15-1.68-4.3-2.49-6.45s-1.63-4.32-2.41-6.49-1.56-4.34-2.32-6.52-1.5-4.36-2.23-6.55-1.43-4.38-2.13-6.58c-.08-.27-.17-.53-.25-.8-.16-.49-.93-.28-.77.21Z" transform="translate(-120.62 -23.5)" style="fill:#fff"/></g><path d="M282.57,124.72v2.45a.37.37,0,0,0,.36.36.36.36,0,0,0,.35-.36v-2.45a.36.36,0,0,0-.71,0Z" transform="translate(-120.62 -23.5)" style="fill:#152151"/><path d="M285,125v2.45a.36.36,0,1,0,.71,0V125a.36.36,0,0,0-.71,0Z" transform="translate(-120.62 -23.5)" style="fill:#152151"/><path d="M287.84,124.66a6.79,6.79,0,0,0-.19,3.71.36.36,0,0,0,.44.25.37.37,0,0,0,.25-.44,6.18,6.18,0,0,1,.18-3.33.35.35,0,1,0-.68-.19Z" transform="translate(-120.62 -23.5)" style="fill:#152151"/><path d="M290.44,124.89a5.8,5.8,0,0,0,0,3.75.37.37,0,0,0,.44.25.36.36,0,0,0,.25-.44,5.19,5.19,0,0,1,0-3.37.36.36,0,0,0-.69-.19Z" transform="translate(-120.62 -23.5)" style="fill:#152151"/><path d="M293.1,125.43a10.34,10.34,0,0,0,.15,3.72.36.36,0,0,0,.44.25.36.36,0,0,0,.25-.44,9.38,9.38,0,0,1-.16-3.34.36.36,0,0,0-.25-.44c-.16,0-.41.06-.43.25Z" transform="translate(-120.62 -23.5)" style="fill:#152151"/><path d="M295.35,126.35v3a.36.36,0,0,0,.71,0v-3a.36.36,0,0,0-.71,0Z" transform="translate(-120.62 -23.5)" style="fill:#152151"/><path d="M298.34,125.54a11.4,11.4,0,0,0,.29,3.63c.1.44.79.25.68-.19a11.07,11.07,0,0,1-.25-3.44.37.37,0,0,0-.36-.36.38.38,0,0,0-.36.36Z" transform="translate(-120.62 -23.5)" style="fill:#152151"/><path d="M300.53,126.36a10.1,10.1,0,0,0,.24,3.63.36.36,0,0,0,.69-.19,9.5,9.5,0,0,1-.21-3.44.36.36,0,0,0-.36-.36.37.37,0,0,0-.36.36Z" transform="translate(-120.62 -23.5)" style="fill:#152151"/><path d="M303.79,126.08a8.91,8.91,0,0,0,.24,3.37c.11.44.8.25.69-.19a8.31,8.31,0,0,1-.21-3.18.36.36,0,0,0-.36-.35.37.37,0,0,0-.36.35Z" transform="translate(-120.62 -23.5)" style="fill:#152151"/><path d="M306.77,125.81v2.72a.36.36,0,0,0,.71,0v-2.72a.36.36,0,0,0-.71,0Z" transform="translate(-120.62 -23.5)" style="fill:#152151"/><path d="M309,125.81a8.07,8.07,0,0,0,.26,3.09.36.36,0,0,0,.69-.19,7.48,7.48,0,0,1-.24-2.9c0-.19-.18-.36-.35-.36a.37.37,0,0,0-.36.36Z" transform="translate(-120.62 -23.5)" style="fill:#152151"/><path d="M353.67,186.25l4.13,2.08a.36.36,0,1,0,.36-.62L354,185.63a.38.38,0,0,0-.49.13.37.37,0,0,0,.13.49Z" transform="translate(-120.62 -23.5)" style="fill:#152151"/><path d="M356.3,184.9l-1.87,4.36a.37.37,0,0,0,.13.49.36.36,0,0,0,.49-.13c.62-1.45,1.24-2.91,1.87-4.36a.38.38,0,0,0-.13-.49.36.36,0,0,0-.49.13Z" transform="translate(-120.62 -23.5)" style="fill:#152151"/><path d="M224.9,186.68l3.37,4.53a.36.36,0,0,0,.49.13.35.35,0,0,0,.13-.49l-3.38-4.53a.36.36,0,0,0-.48-.13.35.35,0,0,0-.13.49Z" transform="translate(-120.62 -23.5)" style="fill:#152151"/><path d="M228.26,186.26a14.89,14.89,0,0,1-4,3.67.37.37,0,0,0-.12.49.36.36,0,0,0,.48.13,16,16,0,0,0,4.22-3.93.37.37,0,0,0-.13-.49.38.38,0,0,0-.49.13Z" transform="translate(-120.62 -23.5)" style="fill:#152151"/><path d="M291.84,171.12a3.71,3.71,0,0,0,.57,2.71.35.35,0,1,0,.61-.36,3,3,0,0,1-.49-2.16.37.37,0,0,0-.25-.44.35.35,0,0,0-.44.25Z" transform="translate(-120.62 -23.5)" style="fill:#6d181d"/><path d="M293.74,172.21l.55,1.09a.36.36,0,0,0,.49.13.37.37,0,0,0,.12-.49l-.54-1.09a.36.36,0,0,0-.49-.12.36.36,0,0,0-.13.48Z" transform="translate(-120.62 -23.5)" style="fill:#6d181d"/><path d="M292.05,165.06l.33,1.89a.36.36,0,1,0,.69-.19l-.33-1.89a.36.36,0,0,0-.44-.25.37.37,0,0,0-.25.44Z" transform="translate(-120.62 -23.5)" style="fill:#6d181d"/><path d="M295.92,175.74a2.54,2.54,0,0,0,.27,1.92.35.35,0,0,0,.61-.36l-.1-.2c0-.08,0,.07,0,0l0-.11a1.27,1.27,0,0,1-.06-.18s0-.07,0-.11v-.06c0,.06,0,0,0-.06a.41.41,0,0,0,0-.11,1.21,1.21,0,0,1,0-.19v-.11c0-.08,0,.07,0,0a1.55,1.55,0,0,1,0-.21.36.36,0,0,0-.25-.44.37.37,0,0,0-.44.25Z" transform="translate(-120.62 -23.5)" style="fill:#6d181d"/><path d="M297.79,172v1.63a.36.36,0,0,0,.36.36.37.37,0,0,0,.36-.36V172a.36.36,0,0,0-.72,0Z" transform="translate(-120.62 -23.5)" style="fill:#6d181d"/><path d="M219.77,156.8v1.63a.36.36,0,0,0,.36.36.37.37,0,0,0,.36-.36V156.8a.36.36,0,0,0-.36-.36.37.37,0,0,0-.36.36Z" transform="translate(-120.62 -23.5)" style="fill:#6d181d"/><path d="M221.45,155.08a1.3,1.3,0,0,1,.1.15l0,.07,0,0s0,0,0,0,0,.07,0,.08a.29.29,0,0,1,0,.09.83.83,0,0,1,0,.15s0,.07,0,.09,0-.06,0,0v.42q0-.09,0,0s0,.06,0,.09a.36.36,0,0,0,.25.44.37.37,0,0,0,.44-.25,2.18,2.18,0,0,0-.3-1.63.36.36,0,0,0-.49-.13.37.37,0,0,0-.13.49Z" transform="translate(-120.62 -23.5)" style="fill:#6d181d"/><path d="M221.51,150.53l.27.27a.19.19,0,0,0,.12.07.16.16,0,0,0,.13,0,.17.17,0,0,0,.14,0,.21.21,0,0,0,.12-.07l.05-.07a.31.31,0,0,0,0-.18v-.1a.38.38,0,0,0-.09-.15L222,150a.37.37,0,0,0-.12-.07.32.32,0,0,0-.14,0,.28.28,0,0,0-.13,0,.24.24,0,0,0-.12.07l-.06.08a.34.34,0,0,0,0,.18v.09a.51.51,0,0,0,.09.16Z" transform="translate(-120.62 -23.5)" style="fill:#6d181d"/><path d="M222.77,161.87a5.38,5.38,0,0,0-.25,2.64.35.35,0,0,0,.68-.19,4.71,4.71,0,0,1,.26-2.26.37.37,0,0,0-.25-.44.35.35,0,0,0-.44.25Z" transform="translate(-120.62 -23.5)" style="fill:#6d181d"/><path d="M306.43,142.66c-.09.91-.17,1.81-.26,2.72a.36.36,0,0,0,.36.36.37.37,0,0,0,.36-.36l.25-2.72a.36.36,0,0,0-.35-.36.37.37,0,0,0-.36.36Z" transform="translate(-120.62 -23.5)" style="fill:#6d181d"/><path d="M308.12,146.47v1.63a.36.36,0,0,0,.36.36.37.37,0,0,0,.36-.36v-1.63a.36.36,0,0,0-.36-.36.37.37,0,0,0-.36.36Z" transform="translate(-120.62 -23.5)" style="fill:#6d181d"/><path d="M307.58,153.54v1.36a.36.36,0,0,0,.36.35.35.35,0,0,0,.35-.35v-1.36a.36.36,0,0,0-.35-.36.36.36,0,0,0-.36.36Z" transform="translate(-120.62 -23.5)" style="fill:#6d181d"/><path d="M307.13,137.11l.81,1.64a.36.36,0,0,0,.49.13.37.37,0,0,0,.12-.49c-.26-.55-.53-1.09-.8-1.64a.37.37,0,0,0-.49-.12.36.36,0,0,0-.13.48Z" transform="translate(-120.62 -23.5)" style="fill:#6d181d"/></svg>