<svg id="Layer_1" data-name="Layer 1" xmlns="http://www.w3.org/2000/svg" xmlns:xlink="http://www.w3.org/1999/xlink" viewBox="0 0 283.44 173.95"><defs><clipPath id="clip-path" transform="translate(-120.62 -27.95)"><path id="SVGID" d="M240.79,168.34c-2.1.4-4-1.23-5.31-2.92S233,161.75,231,161c-2.87-1.11-5.91.77-8.74,2-4.09,1.73-8.61,2.07-12.94,3.06s-8.79,2.88-11.14,6.65c1.3,1.7,3.8,1.72,5.94,1.62,13.93-.69,28.29.19,41,5.84a18.56,18.56,0,0,0-1.3-11.29Z" style="fill:#f39e31"/></clipPath><clipPath id="clip-path-2" transform="translate(-120.62 -27.95)"><path id="SVGID-2" data-name="SVGID" d="M223.35,177.38c-1.95.86-4.18-.3-5.83-1.65s-3.25-3-5.36-3.32c-3-.43-5.58,2.09-8.07,3.89-3.6,2.6-7.93,3.94-11.93,5.88s-7.91,4.78-9.35,9c1.64,1.37,4.09.83,6.15.24,13.42-3.8,27.61-6.16,41.31-3.53a18.6,18.6,0,0,0-3.81-10.7Z" style="fill:#f39e31"/></clipPath><clipPath id="clip-path-3" transform="translate(-120.62 -27.95)"><path id="SVGID-3" data-name="SVGID" d="M291.6,100.49c-2.07-11-9.37-22.69-19.41-27.59-10.31-5-22.63-3.17-33.57.26l-4.13,3.11a9,9,0,0,0-3.11,5.65,51.42,51.42,0,0,1,.49-9.16l4.74-5.05c-20.67,6.33-23.65,24-21.8,35.63-.1,0,16.21-5.12,16.21-5.12a49.57,49.57,0,0,0,.5-8.65c.09.63.2,1.26.31,1.87l2.61,14.25-3.28,3.14c4.54,6.74,6.07,15,8,22.87a4.39,4.39,0,0,0,1.11,2.38,4.51,4.51,0,0,0,2,.82c9.25,2.27,19.14,4.52,28.14,1.35a4.59,4.59,0,0,0,1.82-1,5.17,5.17,0,0,0,1.07-2.16l7.5-24.37a40.11,40.11,0,0,0,1.71-7.14C285.51,101.32,289,101.61,291.6,100.49Z" style="fill:none"/></clipPath></defs><path d="M404.06,93.88a26.11,26.11,0,0,0-6.44,3.6" transform="translate(-120.62 -27.95)" style="fill:#535d91"/><path d="M127.06,100.88a26.11,26.11,0,0,0-6.44,3.6" transform="translate(-120.62 -27.95)" style="fill:#535d91"/><path id="SVGID-4" data-name="SVGID" d="M240.79,168.34c-2.1.4-4-1.23-5.31-2.92S233,161.75,231,161c-2.87-1.11-5.91.77-8.74,2-4.09,1.73-8.61,2.07-12.94,3.06s-8.79,2.88-11.14,6.65c1.3,1.7,3.8,1.72,5.94,1.62,13.93-.69,28.29.19,41,5.84a18.56,18.56,0,0,0-1.3-11.29Z" transform="translate(-120.62 -27.95)" style="fill:#f39e31"/><g style="clip-path:url(#clip-path)"><path d="M198.58,173.53c8.39-9.1,25.26-4.75,33.75-13.76-2.73-2.55-7-2.34-10.64-1.68a69.45,69.45,0,0,0-19.37,6.6c-5.63,2.91-11.27,7.19-12.65,13.38Z" transform="translate(-120.62 -27.95)" style="fill:#b03537"/><path d="M227.18,163.54a10.5,10.5,0,0,0,9.76,2l-4-6.08-5.77,3.78Z" transform="translate(-120.62 -27.95)" style="fill:#6b74b5"/><path d="M213.41,170.84a.78.78,0,1,1-.58-.94A.78.78,0,0,1,213.41,170.84Z" transform="translate(-120.62 -27.95)" style="fill:#6b74b5"/><path d="M218.51,171.21a.78.78,0,1,1-.59-.94A.79.79,0,0,1,218.51,171.21Z" transform="translate(-120.62 -27.95)" style="fill:#6b74b5"/><path d="M223.55,171.5a.78.78,0,0,1-.94.58.78.78,0,0,1,.35-1.52A.78.78,0,0,1,223.55,171.5Z" transform="translate(-120.62 -27.95)" style="fill:#6b74b5"/><path d="M212.31,170.35a6.77,6.77,0,0,1,.55,5.37,6.19,6.19,0,0,1-.66,1.43.19.19,0,0,0,.32.19,7.08,7.08,0,0,0,.75-5.66,6.29,6.29,0,0,0-.64-1.51.18.18,0,0,0-.32.18Z" transform="translate(-120.62 -27.95)" style="fill:#fff"/><path d="M217.65,170.83a12,12,0,0,1-.41,6.67c-.08.22.28.32.36.09a12.42,12.42,0,0,0,.41-6.86c-.06-.23-.41-.13-.36.1Z" transform="translate(-120.62 -27.95)" style="fill:#fff"/><path d="M222.66,171.09a10,10,0,0,1,.16,5.31.19.19,0,0,0,.36.1A10.31,10.31,0,0,0,223,171c-.07-.22-.42-.13-.35.1Z" transform="translate(-120.62 -27.95)" style="fill:#fff"/><path d="M235.83,171.41a2.63,2.63,0,1,1-2-3.15A2.62,2.62,0,0,1,235.83,171.41Z" transform="translate(-120.62 -27.95)" style="fill:#6b74b5"/><path d="M203.6,170.25a6.12,6.12,0,0,1,2.52,5.78,58.3,58.3,0,0,1-8.35-.59,10.76,10.76,0,0,1,5.95-5.51Z" transform="translate(-120.62 -27.95)" style="fill:#6b74b5"/><path d="M198.7,174.27a14.26,14.26,0,0,1,5.46-4.36,29,29,0,0,1,6.94-2.19c2.71-.54,5.46-.87,8.18-1.4a27.33,27.33,0,0,0,7.92-2.67c2.23-1.23,4.32-3,6.87-3.47a6.57,6.57,0,0,1,.89-.12.37.37,0,0,0,0-.74c-2.69.19-4.93,1.79-7.17,3.14a21.29,21.29,0,0,1-3.69,1.79,30,30,0,0,1-4.07,1.16c-2.78.61-5.61,1-8.41,1.46a32.24,32.24,0,0,0-7.15,2.09,15.81,15.81,0,0,0-5.85,4.21c-.19.24-.38.48-.56.73a.36.36,0,0,0,.13.5.38.38,0,0,0,.51-.13Z" transform="translate(-120.62 -27.95)" style="fill:#fff"/></g><path id="SVGID-5" data-name="SVGID" d="M223.35,177.38c-1.95.86-4.18-.3-5.83-1.65s-3.25-3-5.36-3.32c-3-.43-5.58,2.09-8.07,3.89-3.6,2.6-7.93,3.94-11.93,5.88s-7.91,4.78-9.35,9c1.64,1.37,4.09.83,6.15.24,13.42-3.8,27.61-6.16,41.31-3.53a18.6,18.6,0,0,0-3.81-10.7Z" transform="translate(-120.62 -27.95)" style="fill:#f39e31"/><g style="clip-path:url(#clip-path-2)"><path d="M183.4,191.92c6.12-10.75,23.54-10.3,29.78-21-3.22-1.87-7.32-.71-10.74.76a69,69,0,0,0-17.39,10.78c-4.83,4.1-9.37,9.53-9.32,15.88Z" transform="translate(-120.62 -27.95)" style="fill:#b03537"/><path d="M209,175.76a10.48,10.48,0,0,0,10-.28l-5.29-5-4.78,5Z" transform="translate(-120.62 -27.95)" style="fill:#6b74b5"/><path d="M197.24,186a.78.78,0,1,1-.78-.79A.78.78,0,0,1,197.24,186Z" transform="translate(-120.62 -27.95)" style="fill:#6b74b5"/><path d="M202.29,185.18a.78.78,0,1,1-.78-.78A.78.78,0,0,1,202.29,185.18Z" transform="translate(-120.62 -27.95)" style="fill:#6b74b5"/><path d="M207.27,184.33a.79.79,0,1,1-.78-.78A.78.78,0,0,1,207.27,184.33Z" transform="translate(-120.62 -27.95)" style="fill:#6b74b5"/><path d="M196.06,185.74a6.76,6.76,0,0,1,1.74,5.11,6.29,6.29,0,0,1-.32,1.55c-.08.22.28.32.36.09a7,7,0,0,0-1.52-7c-.16-.17-.42.09-.26.26Z" transform="translate(-120.62 -27.95)" style="fill:#fff"/><path d="M201.37,185a12.07,12.07,0,0,1,1.1,6.59c0,.23.34.23.37,0a12.49,12.49,0,0,0-1.15-6.78c-.1-.21-.42,0-.32.19Z" transform="translate(-120.62 -27.95)" style="fill:#fff"/><path d="M206.31,184.14a9.86,9.86,0,0,1,1.35,5.14c0,.24.36.24.37,0a10.39,10.39,0,0,0-1.4-5.33.19.19,0,0,0-.32.19Z" transform="translate(-120.62 -27.95)" style="fill:#fff"/><path d="M219.21,181.49a2.63,2.63,0,1,1-2.63-2.64A2.63,2.63,0,0,1,219.21,181.49Z" transform="translate(-120.62 -27.95)" style="fill:#6b74b5"/><path d="M187.55,187.6a6.11,6.11,0,0,1,3.75,5.07A60.8,60.8,0,0,1,183,194a10.76,10.76,0,0,1,4.56-6.71Z" transform="translate(-120.62 -27.95)" style="fill:#6b74b5"/><path d="M183.64,192.69a14.53,14.53,0,0,1,4.54-5.68,30,30,0,0,1,6.5-3.74c2.52-1.11,5.11-2,7.61-3.19a26.33,26.33,0,0,0,7-4.38c1.83-1.67,3.45-3.72,5.75-4.77a7.13,7.13,0,0,1,.84-.31.37.37,0,0,0-.2-.71c-2.51.76-4.31,2.76-6.14,4.54a22.43,22.43,0,0,1-3.07,2.53,28.55,28.55,0,0,1-3.61,2c-2.51,1.22-5.13,2.18-7.69,3.26a33.54,33.54,0,0,0-6.74,3.66,16.18,16.18,0,0,0-5,5.54q-.21.41-.39.84a.39.39,0,0,0,.13.51.37.37,0,0,0,.51-.14Z" transform="translate(-120.62 -27.95)" style="fill:#fff"/></g><path d="M268.85,129.36c17.21,15.22,19.34,14.53,26.29,17.51,8.63,3.69,18.11,8.24,21.4,17s-2.16,20-11.23,22.76c-4.63,1.41-9.61.84-14.41.19q-26.83-3.63-53.25-9.85a50.58,50.58,0,0,0,1.06-10.19,192.31,192.31,0,0,0,56-2.41L245,149.76l1.78-18.88Z" transform="translate(-120.62 -27.95)" style="fill:#821e23"/><path d="M241.54,129.08c-2.79,4.21-4.89,16.7-5.86,21.66s-.35,10.39,2.51,14.56c2.18,3.19,5.47,5.41,8.71,7.52q14.6,9.51,29.9,17.89c-7.11-4.51-14.33-9.08-22.42-11.41-5.71-1.64-11.68-2.12-17.61-2.54q-7.46-.52-14.92-.95a30.5,30.5,0,0,0,1.24,10.91,218.88,218.88,0,0,0,46.29,14c7.93,1.47,16.73,2.33,23.5-2,6.32-4.08,9.34-12.15,8.64-19.64s-4.69-14.37-9.8-19.88-11.37-9.82-17.56-14.1c-5-3.43,1.8-16.22-3.18-19.65Z" transform="translate(-120.62 -27.95)" style="fill:#b03537"/><path d="M258.64,180.91q3.62,1.16,7.14,2.58c2.34.95,4.65,2,6.91,3.11,1.28.63,2.55,1.3,3.8,2,.42.23.79-.4.37-.63q-3.35-1.84-6.83-3.43c-2.34-1.06-4.71-2-7.11-2.92-1.35-.5-2.72-1-4.08-1.4a.37.37,0,0,0-.46.25.39.39,0,0,0,.26.46Z" transform="translate(-120.62 -27.95)" style="fill:#821e23"/><path d="M225.55,176.59q.4,4.41.94,8.81c.1.83.2,1.66.31,2.48a.38.38,0,0,0,.37.37c.18,0,.4-.17.37-.37-.39-2.92-.73-5.86-1-8.79-.08-.83-.16-1.67-.23-2.5a.38.38,0,0,0-.37-.37.37.37,0,0,0-.37.37Z" transform="translate(-120.62 -27.95)" style="fill:#821e23"/><path d="M259.57,181.08a51.45,51.45,0,0,1,13.36,1.33c1.23.29,2.45.63,3.66,1,.45.14.65-.57.2-.71a51.74,51.74,0,0,0-6.58-1.61,53.7,53.7,0,0,0-6.81-.74c-1.27-.05-2.55-.06-3.83,0-.47,0-.47.75,0,.73Z" transform="translate(-120.62 -27.95)" style="fill:#821e23"/><path d="M254.72,136.65a14.06,14.06,0,0,1-3.25,3.71,14.37,14.37,0,0,1-4.3,2.38,14.21,14.21,0,0,1-2.69.64.37.37,0,0,0-.37.36c0,.18.17.4.37.37a14.8,14.8,0,0,0,5-1.57,15.13,15.13,0,0,0,4.1-3.14,14.76,14.76,0,0,0,1.78-2.38.37.37,0,0,0-.64-.37Z" transform="translate(-120.62 -27.95)" style="fill:#821e23"/><path d="M244.81,135c-1.31,4-2.66,8.33-1.28,12.48,1.2,3.65,4.06,6.46,6.8,9,2.93,2.73,6,5.26,9.13,7.78s6.18,5,9.13,7.66c1.48,1.33,2.92,2.71,4.29,4.15a35,35,0,0,1,3.79,4.46,11.59,11.59,0,0,1,2.14,5.1,5.6,5.6,0,0,1-1.5,4.58,8,8,0,0,1-4,2,18.92,18.92,0,0,1-5,.41,56,56,0,0,1-12.79-2c-4.19-1.12-8.28-2.57-12.36-4l-12.88-4.67-3.16-1.14c-.45-.17-.64.55-.2.71L240,186.24c4.16,1.51,8.32,3,12.55,4.33a66.56,66.56,0,0,0,12.79,2.67c3.45.33,7.29.51,10.48-1.07a6.63,6.63,0,0,0,3.22-3.24,7.23,7.23,0,0,0,0-5.26,16.75,16.75,0,0,0-2.89-4.95,52.39,52.39,0,0,0-4-4.4c-2.85-2.83-5.93-5.43-9-8s-6.29-5.05-9.33-7.69c-1.52-1.32-3-2.66-4.44-4.07a25.71,25.71,0,0,1-3.73-4.4,11.77,11.77,0,0,1-1.93-5.51,19,19,0,0,1,.85-6.43c.29-1,.62-2,1-3,.15-.45-.56-.64-.71-.19Z" transform="translate(-120.62 -27.95)" style="fill:#821e23"/><path d="M236.61,67.71c-20.67,6.33-23.65,24-21.8,35.63-.1,0,16.21-5.12,16.21-5.12,1.25-6.88-.4-18.59.85-25.46Z" transform="translate(-120.62 -27.95)" style="fill:#6b74b5"/><path d="M239.66,33.26a3.87,3.87,0,0,0-1.14-2.52A6.11,6.11,0,0,0,232.63,29a5.67,5.67,0,0,0-4.11,4.52,5.3,5.3,0,0,0,2.75,5.39,7.37,7.37,0,0,0,4.78.37A5,5,0,0,0,238,38.5c1.19-.85,1.61-2.4,2-3.82Z" transform="translate(-120.62 -27.95)" style="fill:#b03537"/><path d="M231.16,109c4.54,6.74,6.07,15,8,22.87a4.39,4.39,0,0,0,1.11,2.38,4.52,4.52,0,0,0,2,.83c9.25,2.26,19.14,4.51,28.14,1.34a4.7,4.7,0,0,0,1.82-1,5.15,5.15,0,0,0,1.07-2.17l7.5-24.37c1.29-4.17,2.58-8.65,1.32-12.83-1.16-3.89-4.33-6.82-7.57-9.26-4-3-8.39-5.63-13.28-6.6Z" transform="translate(-120.62 -27.95)" style="fill:#6b74b5"/><path d="M238.62,73.3c10.94-3.43,23.26-5.29,33.57-.26,10,4.9,17.34,16.61,19.41,27.59-3.25,1.41-8,.59-11.42,1.41-4.44,1.06-8.53,3.22-12.84,4.69-10.38,3.54-21.72,3-32.53,1.16q-1.49-8.16-3-16.31c-1-5.32-1.55-11.78,2.66-15.16Z" transform="translate(-120.62 -27.95)" style="fill:#6b74b5"/><g style="clip-path:url(#clip-path-3)"><path d="M228.16,112.59c1.67,2.22,4.94,2.82,7.55,1.88a11.63,11.63,0,0,0,5.95-5.58c1-1.75,1.84-3.85,3.74-4.47s4,.7,5.63,2.07c1.11,1,2.25,2.13,2.36,3.61.12,1.77-1.29,3.24-2.59,4.45l-4.62,4.31a4.33,4.33,0,0,0-1.42,2,3.2,3.2,0,0,0,1.51,3.15c1,.72,2.21,1.1,3.27,1.72,4.44,2.61,5.24,9.44,2,13.46s-9.33,5-14,2.94Z" transform="translate(-120.62 -27.95)" style="fill:#2f3866"/><path d="M286.61,77.39A45.33,45.33,0,0,0,273.41,85c-2.49,2.06-4.86,4.57-5.55,7.73s.92,7,4.07,7.73c1.66.39,4.09.41,4.2,2.11a2.75,2.75,0,0,1-.41,1.41c-1.06,2.12-2.21,4.33-2.13,6.69.14,3.78,3.75,6.92,7.53,7a10.28,10.28,0,0,0,9.09-5.74Z" transform="translate(-120.62 -27.95)" style="fill:#2f3866"/><path d="M236.93,72.05a6.23,6.23,0,0,1,5,2.13c1.34,1.55,1.67,3.67,2.05,5.61a14.71,14.71,0,0,0,.74,2.75,8.15,8.15,0,0,0,1.3,2.25,4.64,4.64,0,0,0,2,1.41,3.39,3.39,0,0,0,2.43-.07A4.08,4.08,0,0,0,253,82.25a6.52,6.52,0,0,0-1-2.53,3,3,0,0,1-.39-2.59,3.6,3.6,0,0,1,1.89-1.73,21.75,21.75,0,0,1,3-.89A5.6,5.6,0,0,0,259,73.05a5.2,5.2,0,0,0,1.29-2.41,5.87,5.87,0,0,0-1.65-5.16,12.63,12.63,0,0,0-5.33-3.1l-1.48-.5a.19.19,0,0,0-.1.36,18,18,0,0,1,5.7,2.62A6.29,6.29,0,0,1,260,69.58a4.75,4.75,0,0,1-2.86,4.3c-1,.42-2,.57-3,.89a5.18,5.18,0,0,0-2.28,1.34,2.67,2.67,0,0,0-.72,2.37A10.82,10.82,0,0,0,252.22,81a3.68,3.68,0,0,1,.37,1.22,3.29,3.29,0,0,1-.13,1.17,4,4,0,0,1-1.36,1.93,3.21,3.21,0,0,1-2.21.69,3.69,3.69,0,0,1-2.16-1,8.47,8.47,0,0,1-2.26-4.58c-.42-1.94-.65-4-1.72-5.72a6.56,6.56,0,0,0-4.48-3,6.66,6.66,0,0,0-1.34-.07c-.23,0-.24.38,0,.37Z" transform="translate(-120.62 -27.95)" style="fill:#2f3866"/><path d="M265.1,141.18a8.94,8.94,0,0,0,1.59-5.69,8.64,8.64,0,0,0-.68-2.92,9.83,9.83,0,0,0-1.46-2.35c-1.14-1.39-2.52-2.56-3.71-3.9a7.39,7.39,0,0,1-2.19-4.52,8,8,0,0,1,.74-3.49,3,3,0,0,1,4.79-1.58,10.67,10.67,0,0,1,2.31,2,11.55,11.55,0,0,0,2.2,2,4.43,4.43,0,0,0,1.34.58,5.37,5.37,0,0,0,1.74.12,35.47,35.47,0,0,1,3.54-.39,6.07,6.07,0,0,1,2.67.74,7.2,7.2,0,0,1,3.45,4.39,9.17,9.17,0,0,1-.72,6.28,10.2,10.2,0,0,1-.8,1.35c-.13.2.19.38.32.19a10.17,10.17,0,0,0,1.83-6.22,7.75,7.75,0,0,0-2.5-5.31,7.1,7.1,0,0,0-2.48-1.47,6.87,6.87,0,0,0-3.09-.24,11.73,11.73,0,0,1-3.59.27,5.25,5.25,0,0,1-2.61-1.47c-.75-.71-1.39-1.52-2.15-2.21a6.14,6.14,0,0,0-2.7-1.56,3,3,0,0,0-2.77.67,6.13,6.13,0,0,0-1.52,2.78,7,7,0,0,0-.26,3.43,6.62,6.62,0,0,0,1,2.34,27,27,0,0,0,3.62,4,17.33,17.33,0,0,1,1.77,2.06,8.27,8.27,0,0,1,1.27,2.62,8.69,8.69,0,0,1-.49,6,8,8,0,0,1-.76,1.3c-.14.19.18.38.32.19Z" transform="translate(-120.62 -27.95)" style="fill:#2f3866"/><path d="M218.67,76.69a9.82,9.82,0,0,1,7.16,5.49,3,3,0,0,1,.34,1.51,3.25,3.25,0,0,1-1.58,2.09c-2,1.45-4.46,2.9-4.83,5.34-.29,1.89.81,3.79.49,5.67a4.6,4.6,0,0,1-2.62,3.26,7.45,7.45,0,0,1-4.25.54,7.07,7.07,0,0,1-4.27-2c-1.71-1.83-1.87-4.61-1.67-7.11.19-2.3.61-4.58,1-6.85Z" transform="translate(-120.62 -27.95)" style="fill:#2f3866"/><path d="M257.93,84.42c1.45-1.45,3.73-2.29,5.61-1.46s2.7,3.7,1.14,5c-1.33,1.14-3.73.89-4.5,2.46a2.85,2.85,0,0,0,.33,2.61c.47.78,1.13,1.44,1.58,2.24a4.88,4.88,0,0,1,.29,4.28,4.17,4.17,0,0,1-3.4,2.51,2.22,2.22,0,0,1-1.57-.37c-1.38-1.09-.19-3.53-1.19-5s-3.75-1.13-4.39-2.79a2.87,2.87,0,0,1,.08-1.85,12.86,12.86,0,0,1,4.93-6.85Z" transform="translate(-120.62 -27.95)" style="fill:#2f3866"/><path d="M225.18,93.54a6,6,0,0,0,5.47.84c1.7-.58,2.89-2,4.19-3.13a6.91,6.91,0,0,1,2-1.36,3.61,3.61,0,0,1,2.51-.06,5.18,5.18,0,0,1,2.18,1.58,9.13,9.13,0,0,1,1.5,2.49,4.94,4.94,0,0,1,.39,3.16,4.1,4.1,0,0,1-1.23,2,11.06,11.06,0,0,1-4.56,2.23,5.59,5.59,0,0,0-2.5,1.16c-.74.73-.77,1.82-1.06,2.76a10,10,0,0,1-3,4.6,9.5,9.5,0,0,1-5.14,2.32,10.13,10.13,0,0,1-5.78-1,9.91,9.91,0,0,1-1.25-.76c-.19-.14-.38.18-.19.32a10.44,10.44,0,0,0,5.71,1.89,10,10,0,0,0,5.64-1.54,10.51,10.51,0,0,0,4.29-5.48c.15-.49.26-1,.37-1.47a2.63,2.63,0,0,1,.66-1.37,3.4,3.4,0,0,1,1.19-.7c.43-.17.88-.28,1.32-.41s.85-.27,1.27-.42a12.19,12.19,0,0,0,2.38-1.16,5.71,5.71,0,0,0,1.75-1.71,4.08,4.08,0,0,0,.58-2.64,8.33,8.33,0,0,0-1.11-3.08A7.72,7.72,0,0,0,241,90.32a4.42,4.42,0,0,0-2.49-1,4.26,4.26,0,0,0-2.41.61c-1.52.88-2.59,2.34-4,3.35a5.67,5.67,0,0,1-2.56,1,5.84,5.84,0,0,1-2.87-.36,5.59,5.59,0,0,1-1.24-.7c-.19-.14-.38.18-.19.32Z" transform="translate(-120.62 -27.95)" style="fill:#2f3866"/><path d="M268.16,66.11a12.91,12.91,0,0,0-1.34,6.49c.11,2,1.15,4.43,3.18,4.58.92.07,1.81-.37,2.73-.39,2,0,4,1.75,5.7.84a3.6,3.6,0,0,0,1.37-1.52,13.52,13.52,0,0,0,1.75-6.89Z" transform="translate(-120.62 -27.95)" style="fill:#2f3866"/></g><path d="M228.73,83.57c-1.67,10.26,4.85,35.09,13.64,40.09a24.23,24.23,0,0,0,28-3.45c2.82-2.66,5.19-6.11,8.78-7.46,1-.36,2.07-.62,2.61-1.51a4,4,0,0,0,.05-3L277,89c-.51-2-1.12-4.25-2.75-5.51a7.23,7.23,0,0,0-4.81-1.16,20.08,20.08,0,0,0-10.59,3.6c-1.1.77-1.27,1.33-2.58,1.52s-3.9-7.31-3.84-8.68Z" transform="translate(-120.62 -27.95)" style="fill:#f39e31"/><path d="M276.28,55.89c-1.09-.71-2.5-1.07-3.18-2.18a7.87,7.87,0,0,1-.62-2.93,6.24,6.24,0,0,0-3.72-4.66c-1.24-.5-2.67-.61-3.74-1.43-1.81-1.38-1.79-4.1-2.92-6.09a4.92,4.92,0,0,0-.37-.56l.45.16a24.16,24.16,0,0,0-3.83-5.53,8.24,8.24,0,0,0-6-2.64c-.9,0-1.78.28-2.68.37s-1.85,0-2.77,0A9.14,9.14,0,0,0,241,32.28c-.76.64-1.35,1.46-2.07,2.13-1.29,1.2-3,1.93-4.3,3.06a9.38,9.38,0,0,0-3.33,6.87c-.06,2.21.66,4.53-.17,6.58-.62,1.51-2,2.72-2.2,4.35s1.2,3.27,2.31,4.67a3.3,3.3,0,0,1,.85,1.72c.12,1.24-1,2.22-1.43,3.39-.7,1.93.52,4,1.49,5.76s1.65,4.27.19,5.71c7-.66,14.14-1.34,20.81-3.66a86.72,86.72,0,0,0,8-3.41l7.21-3.35c-.12-1.24-.28-2.48-.49-3.72l1.6,3.21,1.4-.65-.48-2.82a24.84,24.84,0,0,0,1.38,2.4l.53-.25c.09-1.07.17-2.13.26-3.2a23.75,23.75,0,0,1,1.68,2.3l4.11-1.91A5.26,5.26,0,0,0,276.28,55.89Z" transform="translate(-120.62 -27.95)" style="fill:#b03537"/><path d="M265.71,50.15c2,3.93,3.29,8.91.8,12.55-1.66,2.43-6.5,4.84-6.48,4.23a28.89,28.89,0,0,1,.38,5.25,6.48,6.48,0,0,1-12.8.39c-.56-3.06-1.15-6.67-1.28-8.77-2.57,1-5.68,1.89-7.88.24a4.52,4.52,0,0,1-1.46-5,5.22,5.22,0,0,1,4-3.35c-1.79-3.2-.25-6.1-2.05-9.29,7.64-4.07,12-8.44,19.59-12.51C258.57,33.94,263.72,46.22,265.71,50.15Z" transform="translate(-120.62 -27.95)" style="fill:#fac7b2"/><path d="M248.43,39.38a10.37,10.37,0,0,1-.46,5.36c-1.12,4.06-2.69,8.44-6.32,10.58a3.77,3.77,0,0,1-3,.58,1.82,1.82,0,0,1-1.21-2.41,2.81,2.81,0,0,1,2.14-1.05,1.21,1.21,0,0,1-1.44.36,3.45,3.45,0,0,1-1.26-1,3.78,3.78,0,0,1-1.23-2,2.43,2.43,0,0,1,1.13-2.18,4.93,4.93,0,0,1,2.44-.72c-1.37-.67-1.54-2.77-.55-3.94a4.44,4.44,0,0,1,4.2-1.2,3.11,3.11,0,0,1,5.26-2.67Z" transform="translate(-120.62 -27.95)" style="fill:#b03537"/><path d="M247.39,39.61c4.27,1.89,9.05,3.35,13.51,2a7.25,7.25,0,0,0,4-2.65,4.46,4.46,0,0,0,.29-4.73A2.75,2.75,0,0,0,261,33.6a2.62,2.62,0,0,0-3.27-2.28,4.07,4.07,0,0,0-2.59,3.55,2.8,2.8,0,0,0-4.34.76,2.08,2.08,0,0,1-.57.91,1.71,1.71,0,0,1-1,.17c-1.28,0-2.68,1.32-2.15,2.55Z" transform="translate(-120.62 -27.95)" style="fill:#b03537"/><path d="M239,59.44a4.27,4.27,0,0,1,2.79.51A10.83,10.83,0,0,1,244,61.54c.18.16.44-.1.27-.26a11.08,11.08,0,0,0-2.44-1.69,4.56,4.56,0,0,0-3-.51.19.19,0,0,0,.1.36Z" transform="translate(-120.62 -27.95)" style="fill:#bf8271"/><path d="M240.6,61.16a6,6,0,0,1,1.67-.95.2.2,0,0,0,.13-.23.19.19,0,0,0-.23-.13,6.54,6.54,0,0,0-1.83,1,.18.18,0,0,0,0,.26.19.19,0,0,0,.26,0Z" transform="translate(-120.62 -27.95)" style="fill:#bf8271"/><polygon points="139.41 39.55 131.41 40.14 139.76 41.91 139.41 39.55" style="fill:#ce9582;opacity:0.53"/><path d="M249.37,56.12a1.51,1.51,0,0,1,.18-.9,1.62,1.62,0,0,1,.68-.69,1.78,1.78,0,0,1,1.89.21.37.37,0,0,0,.52,0,.37.37,0,0,0,0-.52,2.53,2.53,0,0,0-2.78-.33,2.37,2.37,0,0,0-1.2,2.42.37.37,0,0,0,.45.26.38.38,0,0,0,.26-.45Z" transform="translate(-120.62 -27.95)"/><path d="M259.83,50.24a1.57,1.57,0,0,1,.18-.89,1.66,1.66,0,0,1,.69-.7,1.79,1.79,0,0,1,1.89.22.37.37,0,1,0,.52-.53,2.56,2.56,0,0,0-2.79-.32,2.39,2.39,0,0,0-1.2,2.42.37.37,0,1,0,.71-.2Z" transform="translate(-120.62 -27.95)"/><path d="M254.56,49.59c1.09,1.64,2.25,3.24,3.48,4.77a.17.17,0,0,0,.22,0l1.49-.84c.25-.14.49-.29.74-.41s.16,0,.2.07a1.2,1.2,0,0,1,.05.33,9.55,9.55,0,0,1-.3,3.24.18.18,0,0,0,.35.1,9.55,9.55,0,0,0,.34-2.91,4.12,4.12,0,0,0-.05-.7.63.63,0,0,0-.23-.46.53.53,0,0,0-.57,0l-.66.37-1.54.88.22,0q-1.82-2.26-3.42-4.7c-.13-.2-.45,0-.32.19Z" transform="translate(-120.62 -27.95)" style="fill:#bf8271"/><path d="M257.34,58.79a6,6,0,0,0,6-2.13c.15-.18-.11-.44-.26-.26a5.78,5.78,0,0,1-4.25,2.15,5.33,5.33,0,0,1-1.38-.12c-.23,0-.33.31-.1.36Z" transform="translate(-120.62 -27.95)" style="fill:#bf8271"/><path d="M249.55,48.07a.78.78,0,0,1,.83,1.06,2.6,2.6,0,0,1-.24.47A8,8,0,0,1,249,50.92a18.93,18.93,0,0,0-1.83,2.17,9.93,9.93,0,0,1,.64-2.79,4.94,4.94,0,0,1,1.75-2.23Z" transform="translate(-120.62 -27.95)" style="fill:#b03537"/><path d="M256.61,44.14a.79.79,0,0,0,.68,1.16,3.19,3.19,0,0,0,.54,0,7.85,7.85,0,0,0,1.64-.6,20,20,0,0,1,2.7-.93,9.79,9.79,0,0,0-2.84-.4,5,5,0,0,0-2.72.82Z" transform="translate(-120.62 -27.95)" style="fill:#b03537"/><path d="M242.2,54.32a1.4,1.4,0,0,0,.61,1.79c.58.39,1.29.54,1.9.89a3.16,3.16,0,0,1,1.4,3.5,3.32,3.32,0,0,0-1.85-2.26c-.94-.41-2-.36-3-.82a3,3,0,0,1-1.6-3.05Z" transform="translate(-120.62 -27.95)" style="fill:#b03537"/><path d="M262.35,38.29a9.52,9.52,0,0,0,2.3,4.68,9.59,9.59,0,0,0,4.43,1.82,13,13,0,0,1,2.3.68,5.06,5.06,0,0,1,1.94,1.42c1.11,1.36,1.46,3.14,2.26,4.67s2.1,2.94,3.83,2.93a4.07,4.07,0,0,0,.61-.07c.23-.06.13-.41-.1-.36-1.7.37-3.12-1.1-3.89-2.44s-1.18-3.19-2.16-4.6a5.1,5.1,0,0,0-1.78-1.61,9.62,9.62,0,0,0-2.19-.81,13.69,13.69,0,0,1-4.47-1.48,7.31,7.31,0,0,1-2.54-4.3l-.18-.63a.19.19,0,0,0-.36.1Z" transform="translate(-120.62 -27.95)" style="fill:#b03537"/><path d="M238.44,35.23a10.71,10.71,0,0,0-5.14,2.46A11.32,11.32,0,0,0,230,42.41a10.32,10.32,0,0,0-.59,2.9c-.06,1.19,0,2.38,0,3.57a6.67,6.67,0,0,1-.94,3.28,27.69,27.69,0,0,0-1.9,2.77,5.22,5.22,0,0,0,.74,5.46,6.14,6.14,0,0,0,.51.51c.18.16.44-.1.26-.26a4.83,4.83,0,0,1-1.35-5.14,11.27,11.27,0,0,1,1.74-2.69,6.93,6.93,0,0,0,.82-1.45,6.42,6.42,0,0,0,.41-1.62,26.56,26.56,0,0,0,.11-3.46,11.1,11.1,0,0,1,.36-3A10.69,10.69,0,0,1,233,38.46a10.53,10.53,0,0,1,4.85-2.73c.22-.06.45-.1.68-.14s.14-.4-.1-.36Z" transform="translate(-120.62 -27.95)" style="fill:#b03537"/><path d="M238.93,35.22a11.07,11.07,0,0,1,5.91.73,10.13,10.13,0,0,1,1.53.8.19.19,0,0,0,.19-.32,11.4,11.4,0,0,0-6-1.71,11.73,11.73,0,0,0-1.77.14c-.23,0-.13.39.1.36Z" transform="translate(-120.62 -27.95)" style="fill:#821e23"/><path d="M246.24,36.46a9.14,9.14,0,0,0-3.31,1.47,3.49,3.49,0,0,0-1.35,2.81,2.33,2.33,0,0,0,.64,1.57l.08-.3a7.27,7.27,0,0,0-3.76,1.67A3.77,3.77,0,0,0,237.38,47a2.66,2.66,0,0,0,.93,1.66l.13-.31a3.36,3.36,0,0,0-2.74,1,3.28,3.28,0,0,0-.81,2.83,3.37,3.37,0,0,0,.73,1.55l.13-.32a1.93,1.93,0,0,0-1.73,2,2,2,0,0,0,.69,1.28c.29.24.93.62,1.28.27a.3.3,0,0,0-.14-.51.26.26,0,0,0-.33.36c.1.22.42,0,.32-.19-.13.13-.16.2-.07.19h0a.14.14,0,0,1,0-.1h0a2.11,2.11,0,0,1-.25,0,1.44,1.44,0,0,1-.51-.29,1.57,1.57,0,0,1-.55-1,1.55,1.55,0,0,1,1.36-1.65.19.19,0,0,0,.13-.32,3,3,0,0,1-.61-2.55,2.88,2.88,0,0,1,1.68-2,2.94,2.94,0,0,1,1.49-.24.18.18,0,0,0,.13-.31,2.72,2.72,0,0,1-.72-2.91A4.2,4.2,0,0,1,240.31,43a9.09,9.09,0,0,1,2.09-.61c.14,0,.17-.21.08-.31a2.36,2.36,0,0,1-.27-2.61,4.18,4.18,0,0,1,2.31-2,14.36,14.36,0,0,1,1.82-.6.19.19,0,0,0-.1-.36Z" transform="translate(-120.62 -27.95)" style="fill:#821e23"/><path d="M246.78,36.45A5.68,5.68,0,0,0,248,34.8a1.69,1.69,0,0,1,.77-.68,1.86,1.86,0,0,1,1.19,0,5.75,5.75,0,0,1,1.35.64.19.19,0,0,0,.28-.16,2.7,2.7,0,0,1,1.07-1.92,2.64,2.64,0,0,1,2.19-.44,2.7,2.7,0,0,1,1.17.62.19.19,0,0,0,.29,0,2.63,2.63,0,0,1,2-1.29,3,3,0,0,1,2.3.75,1.28,1.28,0,0,1,.42,1.1c0,.23.32.33.36.1a2,2,0,0,0-1.45-2.06,3.25,3.25,0,0,0-2.76.07A3.42,3.42,0,0,0,256,32.63l.29,0a3.14,3.14,0,0,0-2.47-.77,3,3,0,0,0-2.13,1.39,3,3,0,0,0-.46,1.39l.28-.16a3.9,3.9,0,0,0-2.55-.76c-.81.15-1.22.83-1.6,1.49a2.81,2.81,0,0,1-.75,1c-.19.14,0,.46.19.32Z" transform="translate(-120.62 -27.95)" style="fill:#821e23"/><path d="M246.89,37a3.5,3.5,0,0,1,1.61,2.18,7.36,7.36,0,0,1-.09,3.43,26.85,26.85,0,0,1-2.11,6.22,19.8,19.8,0,0,1-1.91,3.11c-.15.19.17.38.31.19a21.35,21.35,0,0,0,3.11-6,28.47,28.47,0,0,0,.92-3.28,8.26,8.26,0,0,0,.17-3.6,3.91,3.91,0,0,0-1.82-2.58c-.21-.11-.4.21-.19.32Z" transform="translate(-120.62 -27.95)" style="fill:#821e23"/><path d="M246,39.82a8.51,8.51,0,0,1-1,5.73,3.26,3.26,0,0,1-1,1.05,1.25,1.25,0,0,1-1.33,0,.74.74,0,0,1-.19-1c.25-.32.73-.18,1,.07a1.11,1.11,0,0,1-.1,1.41,3.69,3.69,0,0,1-1.43,1c-.19.09-.07.32.09.34a.89.89,0,0,1,.68.69,1.31,1.31,0,0,1-.17,1.12,2.92,2.92,0,0,1-1.11.89,4.23,4.23,0,0,1-.69.3c-.09,0-.25.06-.3,0a.15.15,0,0,1,0-.07s0,0,0,0c.23,0,.14-.4-.1-.35a.39.39,0,0,0-.27.47.48.48,0,0,0,.44.4,1.56,1.56,0,0,0,.78-.22,6.1,6.1,0,0,0,.72-.37,2.63,2.63,0,0,0,1-1.09,1.64,1.64,0,0,0,0-1.23,1.24,1.24,0,0,0-1-.85l.09.35a4.16,4.16,0,0,0,1.5-1,1.65,1.65,0,0,0,.34-1.6,1.17,1.17,0,0,0-1.14-.71.92.92,0,0,0-.81,1,1.17,1.17,0,0,0,.91,1.07,1.81,1.81,0,0,0,1.59-.41,4.43,4.43,0,0,0,1.09-1.34,6.56,6.56,0,0,0,.65-1.6,10.5,10.5,0,0,0,.2-4c0-.23-.39-.23-.36,0Z" transform="translate(-120.62 -27.95)" style="fill:#821e23"/><path d="M249.91,36.92a4.58,4.58,0,0,0,4.93,2.9,2.44,2.44,0,0,0,2.22-2.22,2.51,2.51,0,0,0-.71-1.53c-.16-.19-.35-.49-.63-.45a.77.77,0,0,0-.54.51,1.65,1.65,0,0,0,.36,1.57A6.89,6.89,0,0,0,256.69,39a2.61,2.61,0,0,0,1.44.63,1.74,1.74,0,0,0,1.29-.45,2.8,2.8,0,0,0,.73-2.52c-.07-.42-.32-1-.82-1s-.61.63-.46,1a3.1,3.1,0,0,0,2.55,1.68,2.25,2.25,0,0,0,2.22-1.73,1.94,1.94,0,0,0,0-.72c-.05-.23-.41-.13-.36.1a1.75,1.75,0,0,1-1.2,1.88,2.4,2.4,0,0,1-2.42-.74c-.22-.23-.59-.64-.48-1,.05-.16.21-.15.32-.05a1,1,0,0,1,.28.52,2.57,2.57,0,0,1-.41,2.1,1.52,1.52,0,0,1-.86.54,1.78,1.78,0,0,1-1.25-.3,4.8,4.8,0,0,1-1.05-1,2.8,2.8,0,0,1-.73-1.25.84.84,0,0,1,.13-.58c.05-.07.12-.16.2-.11a1.45,1.45,0,0,1,.26.29,2.17,2.17,0,0,1,.63,1.26,2,2,0,0,1-1.79,1.87,4.22,4.22,0,0,1-4.37-2,3.67,3.67,0,0,1-.27-.57c-.08-.23-.44-.13-.35.09Z" transform="translate(-120.62 -27.95)" style="fill:#821e23"/><path d="M240.82,36.33A3.32,3.32,0,0,0,238.37,40c0,.36.23.77,0,1.09a2,2,0,0,1-.76.53,7.58,7.58,0,0,0-.92.53,4.65,4.65,0,0,0-1.45,1.41,3.36,3.36,0,0,0-.42,2.08,5.65,5.65,0,0,1,0,1.3,2.64,2.64,0,0,1-.4,1c-.39.62-.91,1.15-1.25,1.8a4.86,4.86,0,0,0,.17,4.69c.13.2.45,0,.32-.19a4.46,4.46,0,0,1-.29-4.05,10,10,0,0,1,1.18-1.78,4.15,4.15,0,0,0,.5-.9,3,3,0,0,0,.17-1.11,5.15,5.15,0,0,1,.13-2.28,3.78,3.78,0,0,1,1.24-1.45,8.39,8.39,0,0,1,.86-.55,7,7,0,0,0,.85-.47,1.22,1.22,0,0,0,.53-.69,3.62,3.62,0,0,0-.11-1.13,3,3,0,0,1,2.2-3.07.19.19,0,0,0-.1-.36Z" transform="translate(-120.62 -27.95)" style="fill:#821e23"/><path d="M244.84,34.24c.4.2.76-.09,1-.39a4.15,4.15,0,0,1,.82-.8,3.53,3.53,0,0,1,2.12-.58,3.06,3.06,0,0,1,1.23.31.2.2,0,0,0,.26-.07,2,2,0,0,1,2.41-1.12.19.19,0,0,0,.18-.31l-.19-.16c-.18-.16-.44.1-.26.26l.18.16.18-.31a2.39,2.39,0,0,0-2.82,1.3l.25-.07a3.79,3.79,0,0,0-4.22.68c-.16.15-.29.33-.43.49s-.33.39-.53.3-.4.21-.19.31Z" transform="translate(-120.62 -27.95)" style="fill:#821e23"/><path d="M243.24,33.75a1.27,1.27,0,0,1,.82-1.12,3.66,3.66,0,0,1,1.8-.14c.23,0,.23-.35,0-.37a3.8,3.8,0,0,0-2.06.22,1.6,1.6,0,0,0-.92,1.41.18.18,0,1,0,.36,0Z" transform="translate(-120.62 -27.95)" style="fill:#821e23"/><path d="M266.49,48.45a3.86,3.86,0,0,1,2.72,1.2A3.64,3.64,0,0,1,270,51a8.68,8.68,0,0,1,.32,1.9,5.1,5.1,0,0,0,1,3.19c.76.81,1.9.94,2.89,1.31a3.39,3.39,0,0,1,1.45,1,3.28,3.28,0,0,1,.67,1.62c0,.23.39.24.36,0a3.53,3.53,0,0,0-1.69-2.68c-.95-.57-2.15-.6-3.07-1.24s-1.17-2-1.27-3.11a9,9,0,0,0-.3-2,4.12,4.12,0,0,0-.78-1.42,4.22,4.22,0,0,0-3.14-1.49.19.19,0,0,0,0,.37Z" transform="translate(-120.62 -27.95)" style="fill:#821e23"/><path d="M268.43,53.15a4.2,4.2,0,0,0,.61,3,4.3,4.3,0,0,0,1.07,1.1,4.64,4.64,0,0,1,1.32,1.09,2.51,2.51,0,0,1,.42,1.72c0,.24.35.24.37,0a2.8,2.8,0,0,0-.26-1.53,3,3,0,0,0-1.07-1.21,5.52,5.52,0,0,1-1.28-1,3.53,3.53,0,0,1-.71-1.32,3.63,3.63,0,0,1-.11-1.67c0-.23-.32-.33-.36-.1Z" transform="translate(-120.62 -27.95)" style="fill:#821e23"/><path d="M234,58.85a4.15,4.15,0,0,0-1,2.94,1.9,1.9,0,0,0,.72,1.16c.35.27.8.52.87,1a2,2,0,0,1-.12.85,4.63,4.63,0,0,0-.18.9c0,.23.36.23.37,0,0-.52.28-1,.31-1.51a1.41,1.41,0,0,0-.58-1.18,2.59,2.59,0,0,1-.92-.94,2.11,2.11,0,0,1-.05-1.38,6,6,0,0,1,.86-1.64c.13-.2-.19-.39-.32-.19Z" transform="translate(-120.62 -27.95)" style="fill:#821e23"/><path d="M235.19,60.26a2.56,2.56,0,0,0,.68,2.49c.17.16.43-.1.26-.26a2.22,2.22,0,0,1-.59-2.13.18.18,0,0,0-.35-.1Z" transform="translate(-120.62 -27.95)" style="fill:#821e23"/><path d="M238.2,55.23a3.05,3.05,0,0,0,2-1.24.2.2,0,0,0-.07-.26.19.19,0,0,0-.25.07,2.74,2.74,0,0,1-1.74,1.08.19.19,0,0,0-.13.23.19.19,0,0,0,.23.12Z" transform="translate(-120.62 -27.95)" style="fill:#821e23"/><path d="M231.27,52.89a3.05,3.05,0,0,0-.31,3.56,8.5,8.5,0,0,0,.83,1,1.57,1.57,0,0,1,.55,1.18c0,.24.35.24.37,0,.07-.84-.66-1.41-1.15-2a2.67,2.67,0,0,1-.62-2.25,2.59,2.59,0,0,1,.59-1.21c.16-.18-.1-.44-.26-.27Z" transform="translate(-120.62 -27.95)" style="fill:#821e23"/><path d="M251.5,59.11a1.57,1.57,0,1,1-1.57-1.43A1.5,1.5,0,0,1,251.5,59.11Z" transform="translate(-120.62 -27.95)" style="fill:#b03537;opacity:0.38"/><ellipse cx="144.39" cy="22.34" rx="1.56" ry="1.42" style="fill:#b03537;opacity:0.38"/><path d="M228.74,85c1,3.86,1.37,10.6,3,14.22a32.26,32.26,0,0,0,10.17,12.48c4.28,3,10.23,4.15,14.85,1.65,2.73-1.49,4.71-4,6.45-6.62a73.7,73.7,0,0,0,4.69-8.07c1-2.05,1.83-4.83.13-6.38s-4.16-.59-6.32-.9c-3.62-.52-5.69-4.23-7.56-7.37a3.84,3.84,0,0,0-1.61-1.72,4.06,4.06,0,0,0-2-.12l-12.73,1.5Z" transform="translate(-120.62 -27.95)" style="fill:#fff"/><path d="M281,104.58a25.51,25.51,0,0,0-37,7.73,2.33,2.33,0,0,0-.39,1,2.37,2.37,0,0,0,.34,1.15l3.25,6.75a3.12,3.12,0,0,0,.89,1.25,3.06,3.06,0,0,0,2,.3,54.31,54.31,0,0,0,16.52-4.21Z" transform="translate(-120.62 -27.95)" style="fill:#f39e31"/><path d="M272.83,82.86c3.78-.91,9,2.41,9,2.41,2.83-1.89,8.52-10.89,11.92-10.93a1.59,1.59,0,0,1,1.13.31,1.54,1.54,0,0,1,.42.92,9.73,9.73,0,0,1-1.55,6.85,23.74,23.74,0,0,1-4.86,5.25c-2.17,1.87-3,5.33-5.35,7-1.51,1.07-4.47.4-6,1.38a23.4,23.4,0,0,0-2.26-11.68Z" transform="translate(-120.62 -27.95)" style="fill:#f39e31"/><path d="M259.29,117.45c6.2,2.81,8.69,10.11,12.92,15.45,5,6.35,13.62,10.14,21.53,8.32,4.51-1,8.48-3.73,12.89-5.12s10-1.08,12.7,2.7c1.16-6.19-2.34-12.7-7.67-16.06s-12.12-3.85-18.24-2.38c-4.17,1-8.35,2.87-12.58,2.12-3.93-.7-7.07-3.54-10.29-5.89s-7.26-4.4-11.08-3.22Z" transform="translate(-120.62 -27.95)" style="fill:#f39e31"/><path d="M267.23,87.08c1.55-2,3.49-3.84,6-4.29a5.55,5.55,0,0,1,2.15,0c.23.05.33-.31.1-.36a6.51,6.51,0,0,0-3.87.43,10.17,10.17,0,0,0-3.22,2.25A18,18,0,0,0,267,86.82c-.15.18.11.44.26.26Z" transform="translate(-120.62 -27.95)" style="fill:#c66700"/><path d="M253.91,93.14a22.4,22.4,0,0,0,1.59-5.23c.21-1.45.2-3,.95-4.24.12-.2.3-.42.54-.39a.59.59,0,0,1,.36.23,3.78,3.78,0,0,1,.65,2,35.07,35.07,0,0,1,.12,6.48Z" transform="translate(-120.62 -27.95)" style="fill:#fac7b2"/><path d="M254.83,95.53c.2-2.86,5.42-13,5.91-13.7s1.88-.91,2,0a5.46,5.46,0,0,1,1.57-1.57,1.83,1.83,0,0,1,2.09.14,3.15,3.15,0,0,1,1.75-.7,1.19,1.19,0,0,1,1.23,1.17c.63-.62,1.8-.1,2.11.72a3.57,3.57,0,0,1-.3,2.57c-2.46,6-7.74,10.42-12.82,14.52-5.93,4.8-11.9,9.62-18.54,13.38a30.72,30.72,0,0,1-7.53,3c-2.38.61-5.13,1.91-7.24.84-2.43-1.25-6.67-9.59-6.73-13.55l11.38-3.56s.95,2,1,2,8.51-2.17,14.24-3.29l9.88-1.94Z" transform="translate(-120.62 -27.95)" style="fill:#fac7b2"/><path d="M262.52,81.88a14.23,14.23,0,0,1-.73,2.57c-.08.22.27.32.36.1a15.36,15.36,0,0,0,.73-2.57c0-.23-.31-.33-.36-.1Z" transform="translate(-120.62 -27.95)" style="fill:#ce9582"/><path d="M266.12,80.71c-.32,1-.63,2-.95,3-.07.23.28.32.35.1l1-3a.19.19,0,0,0-.36-.1Z" transform="translate(-120.62 -27.95)" style="fill:#ce9582"/><path d="M269,81.09c-.14.48-.27,1-.41,1.44a.19.19,0,0,0,.36.1c.13-.48.27-1,.4-1.44a.18.18,0,0,0-.35-.1Z" transform="translate(-120.62 -27.95)" style="fill:#ce9582"/><path d="M261.23,85.12l3.21-.84c1.05-.28,2.1-.58,3.17-.77a10.3,10.3,0,0,1,1.83-.17.19.19,0,0,0,0-.37,13.62,13.62,0,0,0-3.23.47c-1.08.27-2.15.56-3.22.84l-1.86.48a.19.19,0,0,0,.1.36Z" transform="translate(-120.62 -27.95)" style="fill:#ce9582"/><path d="M250.6,87.14A3.8,3.8,0,0,0,252.75,86a4,4,0,0,0,.64-1.7,43.27,43.27,0,0,0,.91-6.3c.19-3.41-4.19-14.13-10.67-17.07-.47,1.95-3.08,5-3,5s-7,1.93-6.9,1.87-5.92-1.29-7.25-1.6l-.11,3.4a49.48,49.48,0,0,0,2.38,16.87C229,87.77,243.42,89,250.6,87.14Z" transform="translate(-120.62 -27.95)" style="fill:#f39e31"/><path d="M228.74,86.55a21.42,21.42,0,0,0,9.52-7c1.15-1.54,2.5-3.41,4.42-3.41,4.69,0,11.12,5.94,11.52,7.82-1.28,9.67-16.38,8.86-24.36,6.37Z" transform="translate(-120.62 -27.95)" style="fill:#fff"/><path d="M237.15,91.71a1.9,1.9,0,0,0-1.44,2.77l0,0,3.33,6.34c1.24,2.36,2.61,4.86,5.06,6a2.53,2.53,0,0,0,1.21.25c1.33-.09,1.7-1.27,1.84-2.31.54-4-.87-8.09-2.67-11.76a3.9,3.9,0,0,0-.91-1.32,4,4,0,0,0-3-.45Z" transform="translate(-120.62 -27.95)" style="fill:#f39e31"/><path d="M246.11,89.58a1.9,1.9,0,0,0-1.44,2.77l0,0L248,98.71c1.24,2.37,2.61,4.87,5.06,6a2.42,2.42,0,0,0,1.21.25c1.33-.09,2.33-2,2.47-3.07.55-4-1.5-7.33-3.3-11a3.81,3.81,0,0,0-.91-1.32,4,4,0,0,0-3-.45Z" transform="translate(-120.62 -27.95)" style="fill:#f39e31"/><path d="M274.19,100.75l12.41-2a15.26,15.26,0,0,1,5.94-.18,5.23,5.23,0,0,1,4.13,3.86,5.15,5.15,0,0,1-2.5,4.86,13.55,13.55,0,0,1-5.48,1.73,84.28,84.28,0,0,1-10.64,1,2.07,2.07,0,0,1-1.71-.48,2.28,2.28,0,0,1-.36-1.29,12,12,0,0,0-3.2-7.08Z" transform="translate(-120.62 -27.95)" style="fill:#f39e31"/><path d="M237.42,76.17A3.13,3.13,0,1,1,234.29,73,3.13,3.13,0,0,1,237.42,76.17Z" transform="translate(-120.62 -27.95)" style="fill:#c66700"/><path d="M236.28,76.17a2,2,0,1,1-2-2A2,2,0,0,1,236.28,76.17Z" transform="translate(-120.62 -27.95)"/><path d="M232.73,75.67a.5.5,0,0,1-.5.5.5.5,0,1,1,.5-.5Z" transform="translate(-120.62 -27.95)" style="fill:#fff"/><path d="M249.79,72.47a3.13,3.13,0,1,1-3.13-3.12A3.13,3.13,0,0,1,249.79,72.47Z" transform="translate(-120.62 -27.95)" style="fill:#c66700"/><circle cx="126.04" cy="44.53" r="1.99"/><path d="M245.1,72a.49.49,0,0,1-.5.49.5.5,0,1,1,.5-.49Z" transform="translate(-120.62 -27.95)" style="fill:#fff"/><path d="M242.05,79.44a1.42,1.42,0,0,0-.25-.31.82.82,0,0,0-.82-.19,1.37,1.37,0,0,1-.25,0c-.2,0-.43,0-.51-.2a.41.41,0,0,1,.16-.45,5.25,5.25,0,0,1,2.09-.93,1,1,0,0,1,.78.08l.05.06c.32.43,0,.79-.39.9a.79.79,0,0,0-.54.54l-.14.43A.1.1,0,0,1,242.05,79.44Z" transform="translate(-120.62 -27.95)"/><path d="M239.91,80a1.46,1.46,0,0,0,0,2.13,1.56,1.56,0,0,0,2.19-.12,1.74,1.74,0,0,0,.33-.53c.07-.19.1-.43.29-.54.4-.23.92.16,1.32.24a1.39,1.39,0,0,0,1.23-.28,1.49,1.49,0,0,0,.5-1,1.64,1.64,0,0,0-1.69-1.67.19.19,0,0,0,0,.37,1.29,1.29,0,0,1,1.33,1.2,1.12,1.12,0,0,1-.37.81,1.09,1.09,0,0,1-1.07.17,2.7,2.7,0,0,0-1.12-.26.86.86,0,0,0-.71.68,1.41,1.41,0,0,1-.63.81,1.18,1.18,0,0,1-1,.08,1.13,1.13,0,0,1-.71-.82,1.11,1.11,0,0,1,.32-1c.17-.16-.09-.42-.26-.26Z" transform="translate(-120.62 -27.95)"/><path d="M229.64,69.83l-2.55-2.68,1,4.32a4.17,4.17,0,0,1,1.53-1.42Z" transform="translate(-120.62 -27.95)" style="fill:#fff"/><path d="M244.22,65.28a15.1,15.1,0,0,1,.24-3.15l2.23,2.94a5.08,5.08,0,0,0-2.47.31Z" transform="translate(-120.62 -27.95)" style="fill:#fff"/><path d="M228.5,90.22l1.4-2.3a.18.18,0,0,0-.32-.18L228.18,90a.19.19,0,0,0,.32.19Z" transform="translate(-120.62 -27.95)" style="fill:#fff"/><path d="M228.67,91.23a13.45,13.45,0,0,0,1.33-2c.11-.21-.21-.39-.32-.18A13.12,13.12,0,0,1,228.41,91a.2.2,0,0,0,0,.26.19.19,0,0,0,.26,0Z" transform="translate(-120.62 -27.95)" style="fill:#fff"/><path d="M253,83.38a6.74,6.74,0,0,1,2-1.16.18.18,0,0,0,.13-.23.18.18,0,0,0-.23-.12,7.38,7.38,0,0,0-2.15,1.25.18.18,0,0,0,.26.26Z" transform="translate(-120.62 -27.95)" style="fill:#fff"/><path d="M253.42,84l1.53-.53a.19.19,0,0,0,.12-.23.18.18,0,0,0-.22-.13l-1.53.53a.19.19,0,0,0,.1.36Z" transform="translate(-120.62 -27.95)" style="fill:#fff"/><path d="M234.93,68.29a10.16,10.16,0,0,1,.73-2.41c0-.08.09-.18.18-.2s.25.11.3.24a2.65,2.65,0,0,1,.21,1,17.56,17.56,0,0,1,.52-1.79,1.92,1.92,0,0,1,.47-.82.33.33,0,0,1,.29-.1c.13,0,.17.21.18.35a7,7,0,0,1,0,1.29,4.29,4.29,0,0,1,2-2.8.61.61,0,0,1,.59-.1.54.54,0,0,1,.24.45,3.52,3.52,0,0,1-.21,1.36c-.28,1-.57,1.89-.87,2.83Z" transform="translate(-120.62 -27.95)" style="fill:#f39e31"/><path d="M244.51,68.4c.89-.14,1.78-.32,2.65-.54a12.93,12.93,0,0,0-3.21-.55c-.37,0-.87.12-.83.49a1.21,1.21,0,0,0,1.28.62Z" transform="translate(-120.62 -27.95)"/><path d="M234.12,72a24.21,24.21,0,0,1-2.66.45,13.14,13.14,0,0,1,2.79-1.67c.34-.15.86-.2.95.16a1.2,1.2,0,0,1-1,1Z" transform="translate(-120.62 -27.95)"/><path d="M243.65,79.66a11.59,11.59,0,0,1,5.09-2.76c.23-.06.13-.41-.1-.36a12,12,0,0,0-5.25,2.86c-.18.16.09.42.26.26Z" transform="translate(-120.62 -27.95)"/><path d="M245.25,79.8a49.79,49.79,0,0,1,5.38-1.35c.23,0,.14-.4-.1-.35a48,48,0,0,0-5.38,1.34c-.22.07-.13.43.1.36Z" transform="translate(-120.62 -27.95)"/><path d="M240.16,80.67a25.07,25.07,0,0,0-5.22,3c-.19.14,0,.46.19.32a24.39,24.39,0,0,1,5.22-3,.18.18,0,0,0,.06-.25.18.18,0,0,0-.25-.07Z" transform="translate(-120.62 -27.95)"/><path d="M240.42,81.59a21.93,21.93,0,0,0-4.3,4.77c-.13.2.19.38.32.18a21.48,21.48,0,0,1,4.24-4.69c.18-.15-.08-.41-.26-.26Z" transform="translate(-120.62 -27.95)"/><path d="M241.8,87.25c.1.18.19.36.28.54a4.13,4.13,0,0,1,.24.53.19.19,0,0,0,.23.12c.08,0,.17-.13.13-.22a12.38,12.38,0,0,0-.56-1.16.19.19,0,0,0-.32.19Z" transform="translate(-120.62 -27.95)" style="fill:#f39e31"/><path d="M242.92,86.57c.09.26.19.53.29.8a.18.18,0,0,0,.23.12.18.18,0,0,0,.12-.22c-.09-.27-.19-.54-.29-.8a.18.18,0,0,0-.22-.13.19.19,0,0,0-.13.23Z" transform="translate(-120.62 -27.95)" style="fill:#f39e31"/><path d="M244.39,85.74l.09.16v0s0,0,0,0,0,0,0,0l0,.09a1.16,1.16,0,0,1,0,.18v0s0,0,0,0,0,0,0,0v.1a.2.2,0,0,0,.19.19.18.18,0,0,0,.18-.19,1.6,1.6,0,0,0-.24-.82.18.18,0,0,0-.25-.06.17.17,0,0,0-.07.25Z" transform="translate(-120.62 -27.95)" style="fill:#f39e31"/><path d="M248.26,84.26a1.51,1.51,0,0,1,.21.23l0,0s0,0,0,0l0,0,.09.14a2.29,2.29,0,0,1,.14.27v0s0,0,0,0l0,.08a.88.88,0,0,1,.05.15.19.19,0,1,0,.36-.1,2.69,2.69,0,0,0-.71-1.16.18.18,0,0,0-.26,0,.19.19,0,0,0,0,.26Z" transform="translate(-120.62 -27.95)" style="fill:#f39e31"/><path d="M238.36,89.8l.15.29a.19.19,0,0,0,.11.09.25.25,0,0,0,.15,0,.18.18,0,0,0,.08-.11.17.17,0,0,0,0-.14l-.15-.29a.17.17,0,0,0-.11-.09.23.23,0,0,0-.14,0,.18.18,0,0,0-.08.11.17.17,0,0,0,0,.14Z" transform="translate(-120.62 -27.95)" style="fill:#f39e31"/><path d="M239.08,89.54l.12.37a.2.2,0,0,0,.09.11.23.23,0,0,0,.14,0,.18.18,0,0,0,.11-.08.26.26,0,0,0,0-.15l-.12-.37a.31.31,0,0,0-.09-.11.23.23,0,0,0-.14,0,.2.2,0,0,0-.11.09.17.17,0,0,0,0,.14Z" transform="translate(-120.62 -27.95)" style="fill:#f39e31"/><path d="M231.87,88.91v.73a.18.18,0,0,0,.19.18.18.18,0,0,0,.18-.18v-.73a.19.19,0,0,0-.18-.18.19.19,0,0,0-.19.18Z" transform="translate(-120.62 -27.95)" style="fill:#f39e31"/><path d="M232.64,89.09s0,.08,0,.13a.5.5,0,0,0,0,.12.58.58,0,0,0,.08.18.65.65,0,0,0,.36.27.23.23,0,0,0,.14,0,.18.18,0,0,0,.08-.11.19.19,0,0,0-.13-.23l-.05,0,0,0-.09-.05,0,0-.08-.08,0,0-.06-.11,0,0a.27.27,0,0,1,0-.12v0h0a.11.11,0,0,0,0-.08.25.25,0,0,0,0-.07.23.23,0,0,0-.11-.08.17.17,0,0,0-.14,0,.17.17,0,0,0-.09.11Z" transform="translate(-120.62 -27.95)" style="fill:#f39e31"/><path d="M233.47,88.84a1,1,0,0,0,.26.72.18.18,0,1,0,.26-.26l0,0,0,0a1,1,0,0,1-.1-.18l0,0a.89.89,0,0,1-.06-.2v0a.81.81,0,0,1,0-.16.18.18,0,0,0-.18-.18.19.19,0,0,0-.19.18Z" transform="translate(-120.62 -27.95)" style="fill:#f39e31"/><path d="M232.52,86.74a1.2,1.2,0,0,0,.18.59.18.18,0,0,0,.25.07.19.19,0,0,0,.07-.25l-.08-.14,0,0a1.11,1.11,0,0,1-.07-.26v0a.34.34,0,0,1,0-.1.19.19,0,0,0-.18-.19.2.2,0,0,0-.19.19Z" transform="translate(-120.62 -27.95)" style="fill:#f39e31"/><path d="M227.06,79.91a7.19,7.19,0,0,1-.87,2.9.19.19,0,0,0,.32.19,7.85,7.85,0,0,0,.92-3.09c0-.23-.35-.23-.37,0Z" transform="translate(-120.62 -27.95)" style="fill:#f39e31"/><path d="M227.4,81.34a8.4,8.4,0,0,0-.53,1.42A.19.19,0,0,0,227,83a.19.19,0,0,0,.23-.13,9.29,9.29,0,0,1,.5-1.33.18.18,0,0,0-.07-.25.18.18,0,0,0-.25.06Z" transform="translate(-120.62 -27.95)" style="fill:#f39e31"/><path d="M253.39,75.5a6.4,6.4,0,0,0,2.44,1.12c.23,0,.33-.31.09-.36a5.93,5.93,0,0,1-2.35-1.08.19.19,0,0,0-.25.06.19.19,0,0,0,.07.26Z" transform="translate(-120.62 -27.95)" style="fill:#f39e31"/><path d="M254,76.8a4.18,4.18,0,0,0,1.28.46.19.19,0,0,0,.22-.13.19.19,0,0,0-.12-.23,3.52,3.52,0,0,1-1.19-.42.19.19,0,0,0-.26.07.18.18,0,0,0,.07.25Z" transform="translate(-120.62 -27.95)" style="fill:#f39e31"/><path d="M253.68,78.24a2.91,2.91,0,0,0,1.06.4.21.21,0,0,0,.23-.13.19.19,0,0,0-.13-.23,3,3,0,0,1-.52-.13l-.07,0s-.05,0,0,0l-.13-.06-.23-.14a.18.18,0,0,0-.25.07.19.19,0,0,0,.06.25Z" transform="translate(-120.62 -27.95)" style="fill:#f39e31"/><path d="M243.11,103a21.94,21.94,0,0,1,2.15,4c.09.22.45.13.36-.09a22.56,22.56,0,0,0-2.19-4.08c-.13-.2-.45,0-.32.18Z" transform="translate(-120.62 -27.95)" style="fill:#c66700"/><path d="M244.87,102a14.88,14.88,0,0,1,1.7,4.1c.06.23.41.13.36-.1a15.68,15.68,0,0,0-1.74-4.19.19.19,0,0,0-.32.19Z" transform="translate(-120.62 -27.95)" style="fill:#c66700"/><path d="M252.25,100.54a21.07,21.07,0,0,1,1.16,2.27c.17.38.32.77.46,1.17,0,.14.13.36.33.3a.21.21,0,0,0,.09-.36.2.2,0,0,0-.22,0h0c-.21.09,0,.41.19.32h0l-.22,0,0-.13.09-.11h0l.14,0c.08,0,0-.14,0-.18l-.09-.24-.18-.45c-.13-.31-.26-.62-.4-.93-.29-.6-.6-1.2-.94-1.77a.18.18,0,0,0-.32.18Z" transform="translate(-120.62 -27.95)" style="fill:#c66700"/><path d="M253.94,100.21a24.69,24.69,0,0,1,1.47,3.28c.08.22.44.12.35-.1a26,26,0,0,0-1.5-3.37c-.11-.21-.43,0-.32.19Z" transform="translate(-120.62 -27.95)" style="fill:#c66700"/><path d="M243.25,115.17a15.68,15.68,0,0,1,2.13-5.08,16.08,16.08,0,0,1,3.73-4.07,15.61,15.61,0,0,1,2.67-1.65c.22-.1,0-.42-.18-.32a16.09,16.09,0,0,0-4.55,3.33,16.42,16.42,0,0,0-3.15,4.67,15.62,15.62,0,0,0-1,3c0,.23.31.33.36.09Z" transform="translate(-120.62 -27.95)" style="fill:#c66700"/><path d="M251.13,103.81a6,6,0,0,0,3.27,1.11,3.55,3.55,0,0,0,2.68-1.19,2.76,2.76,0,0,0,.64-1.47c0-.23-.34-.23-.37,0a2.62,2.62,0,0,1-1.51,2,3.76,3.76,0,0,1-2.89.09,7.4,7.4,0,0,1-1.64-.82c-.2-.13-.38.19-.18.32Z" transform="translate(-120.62 -27.95)" style="fill:#c66700"/><path d="M265,99.84a18.94,18.94,0,0,1,7,1.41l.83.36c.27.13.54.29.82.4.58.21,1.11-.22,1.6-.48a17.58,17.58,0,0,1,3.28-1.32,18.42,18.42,0,0,1,4-.73c.23,0,.24-.39,0-.37a19.06,19.06,0,0,0-6.83,1.81c-.27.12-.53.26-.79.4a2.79,2.79,0,0,1-.8.38c-.29,0-.58-.18-.83-.3l-.84-.38a19.89,19.89,0,0,0-3.38-1.09,19.53,19.53,0,0,0-4-.46.19.19,0,0,0,0,.37Z" transform="translate(-120.62 -27.95)" style="fill:#c66700"/><path d="M290.73,104.59a7,7,0,0,1,5.46-1.64c.23,0,.23-.34,0-.37a7.43,7.43,0,0,0-5.73,1.75c-.18.15.09.41.27.26Z" transform="translate(-120.62 -27.95)" style="fill:#c66700"/><path d="M289.85,102.48a6.24,6.24,0,0,1,5.2-1.63c.23,0,.33-.32.09-.36a6.63,6.63,0,0,0-5.55,1.73c-.18.16.08.42.26.26Z" transform="translate(-120.62 -27.95)" style="fill:#c66700"/><path d="M290.56,77.34A6.1,6.1,0,0,1,294.41,75c.23,0,.13-.4-.1-.36a6.51,6.51,0,0,0-4.06,2.56c-.14.19.18.38.31.19Z" transform="translate(-120.62 -27.95)" style="fill:#c66700"/><path d="M291.8,79.08a7.16,7.16,0,0,1,3.2-2.55c.22-.09.12-.44-.1-.35a7.59,7.59,0,0,0-3.42,2.71c-.14.2.18.38.32.19Z" transform="translate(-120.62 -27.95)" style="fill:#c66700"/><path d="M275.08,88.55a32.42,32.42,0,0,1,3.52,8.18c.23.81.42,1.64.58,2.47,0,.23.4.13.36-.1a33.27,33.27,0,0,0-2.91-8.52c-.38-.76-.8-1.5-1.23-2.22-.13-.2-.45,0-.32.19Z" transform="translate(-120.62 -27.95)" style="fill:#c66700"/><path d="M281.55,85.62q.51,2,1.17,4c.08.23.43.13.36-.09q-.66-2-1.17-4a.19.19,0,0,0-.36.09Z" transform="translate(-120.62 -27.95)" style="fill:#c66700"/><path d="M274.21,102.91a17.51,17.51,0,0,0,1.51,4c.11.21.43,0,.32-.19a16.7,16.7,0,0,1-1.47-3.86.19.19,0,0,0-.36.1Z" transform="translate(-120.62 -27.95)" style="fill:#c66700"/><path d="M278.09,109.88a9.4,9.4,0,0,0-.57,1.26c-.27-.36-7.44-6.06-11.41-10a14.5,14.5,0,0,1-2.46-3,18.07,18.07,0,0,1-1.39-3.41,81.1,81.1,0,0,0-4.5-10.65,1.49,1.49,0,0,0-.42-.57,1,1,0,0,0-1.32.53,3.13,3.13,0,0,0-.11,1.64,1.33,1.33,0,0,0-1.8-.82,1.44,1.44,0,0,0-.46,2,1.27,1.27,0,0,0-1.57-.43A1.38,1.38,0,0,0,251.4,88c-.49-.54-1.44-.14-1.73.54a3.26,3.26,0,0,0,.12,2.17c1.09,3.64,5.19,7.89,7,11.22,1.44,2.69,6.88,16.33,9.88,20.52,1.84,2.58,4,5.08,6.77,6.46s6.39,1.41,8.76-.66,3-5.81,3.35-9.13c.31-2.79,1.09-7,1.39-9.79Z" transform="translate(-120.62 -27.95)" style="fill:#fac7b2"/><path d="M257.83,84.78a37.67,37.67,0,0,1,2.45,5.65c.7,1.94,1.34,3.9,2.12,5.8a32.06,32.06,0,0,0,1.47,3.14c.11.21.43,0,.32-.18a39.76,39.76,0,0,1-2.42-5.67c-.7-1.94-1.34-3.9-2.13-5.8a30,30,0,0,0-1.5-3.13c-.11-.2-.43,0-.31.19Z" transform="translate(-120.62 -27.95)" style="fill:#ce9582"/><path d="M251.09,88.2,252.4,91c.1.21.42,0,.32-.19L251.41,88c-.1-.21-.42,0-.32.19Z" transform="translate(-120.62 -27.95)" style="fill:#ce9582"/><path d="M253.17,86.63a22.92,22.92,0,0,0,1.22,2.61.19.19,0,0,0,.32-.19,23,23,0,0,1-1.18-2.51.19.19,0,0,0-.23-.13.18.18,0,0,0-.13.22Z" transform="translate(-120.62 -27.95)" style="fill:#ce9582"/><path d="M255.63,85.46a18.88,18.88,0,0,1,.9,1.8.19.19,0,0,0,.26.06.19.19,0,0,0,.06-.25q-.41-.91-.9-1.8c-.11-.21-.43,0-.32.19Z" transform="translate(-120.62 -27.95)" style="fill:#ce9582"/><path d="M251.91,91.58a4.58,4.58,0,0,0,1.29-.78l1.39-1.11,2.8-2.25c.18-.14-.08-.4-.26-.26l-2.71,2.17-1.33,1.07a4.73,4.73,0,0,1-1.27.81c-.23.08-.13.44.09.35Z" transform="translate(-120.62 -27.95)" style="fill:#ce9582"/><path d="M277.54,111.39a16.25,16.25,0,0,1,3.9,6.45c.25.68.48,1.37.69,2.06.07.23.43.13.36-.09a22.82,22.82,0,0,0-3.23-7,12.05,12.05,0,0,0-1.46-1.65c-.17-.16-.43.1-.26.26Z" transform="translate(-120.62 -27.95)" style="fill:#ce9582"/><path d="M253.33,86.59a1.36,1.36,0,0,1,2.36-1.13.18.18,0,0,0,.31-.18.89.89,0,1,1,1.71-.47.19.19,0,0,0,.36-.1,1.31,1.31,0,0,0-1.56-.94,1.3,1.3,0,0,0-.86,1.61l.31-.18a1.72,1.72,0,0,0-3,1.49c0,.23.4.13.35-.1Z" transform="translate(-120.62 -27.95)" style="fill:#ce9582"/><path d="M231.55,30.14a8.57,8.57,0,0,1,5.78,2.6,7.65,7.65,0,0,1,1.14,1.46.19.19,0,0,0,.32-.19,9,9,0,0,0-5.34-4,8.72,8.72,0,0,0-1.9-.28c-.24,0-.24.36,0,.37Z" transform="translate(-120.62 -27.95)" style="fill:#821e23"/><path d="M230.56,31c.1-.14.38,0,.51,0s.47.18.7.29a10.77,10.77,0,0,1,1.35.7,12.07,12.07,0,0,1,3.47,3.23c.14.2.46,0,.32-.18a12.18,12.18,0,0,0-5.15-4.16c-.42-.18-1.17-.58-1.52-.07-.13.2.19.38.32.18Z" transform="translate(-120.62 -27.95)" style="fill:#821e23"/><path d="M229.67,31.65a13,13,0,0,1,5.86,4.83c.14.21.35.74.69.58s0-.68-.26-.42a.18.18,0,0,0,.26.26l-.05,0H236l.1-.2,0,0a.59.59,0,0,0,0-.08l-.12-.19-.23-.34q-.24-.35-.51-.69a13.21,13.21,0,0,0-1.11-1.25,13,13,0,0,0-4.33-2.86c-.22-.09-.31.27-.09.36Z" transform="translate(-120.62 -27.95)" style="fill:#821e23"/><path d="M229.44,32a10.07,10.07,0,0,0,3.4,5.2,10.25,10.25,0,0,0,1.48,1,.18.18,0,0,0,.19-.31l-.53-.32a.18.18,0,0,0-.18.32l.52.31.19-.31a9.74,9.74,0,0,1-4.12-4.35,9.26,9.26,0,0,1-.6-1.62.18.18,0,0,0-.35.1Z" transform="translate(-120.62 -27.95)" style="fill:#821e23"/><path d="M228.83,32.69c.48,2.22,1.63,4.55,3.71,5.66a3.55,3.55,0,0,0,.44.21.53.53,0,0,0,.42.07.35.35,0,0,0,.24-.28c0-.16-.15-.22-.29-.2s-.13.39.1.36l-.13,0,0-.13,0-.07h0a.87.87,0,0,0-.17-.07l-.34-.16c-.2-.11-.41-.23-.6-.36a6,6,0,0,1-1.05-1,8.55,8.55,0,0,1-1.47-2.53,11,11,0,0,1-.47-1.61c-.05-.24-.41-.14-.36.09Z" transform="translate(-120.62 -27.95)" style="fill:#821e23"/><path d="M231.73,44.6a6.46,6.46,0,0,1,.68-4.18,6.38,6.38,0,0,1,1.32-1.7,12.25,12.25,0,0,1,2-1.34,10.93,10.93,0,0,0,1.07-.7c.29-.22.56-.46.84-.7.6-.53,1.19-1.07,1.75-1.63.28-.28.55-.57.82-.87s.36-.46.56-.67a5.3,5.3,0,0,1,1.34-1,11.33,11.33,0,0,1,2-.88,5.55,5.55,0,0,1,1.75-.34c.24,0,.24-.36,0-.37a5.57,5.57,0,0,0-1.62.28,11.44,11.44,0,0,0-1.86.74,8,8,0,0,0-1.58,1,3.86,3.86,0,0,0-.53.54,10,10,0,0,1-.74.85c-.56.6-1.16,1.16-1.77,1.71a13.93,13.93,0,0,1-1.91,1.51,18.57,18.57,0,0,0-2.12,1.35,6.4,6.4,0,0,0-1.45,1.66,6.92,6.92,0,0,0-.93,4.82c0,.23.4.13.36-.1Z" transform="translate(-120.62 -27.95)" style="fill:#821e23"/><path d="M244.7,75.58a5.51,5.51,0,0,1,3.13-2.4,3.37,3.37,0,0,1,3.57,1.23,11.8,11.8,0,0,1-6.49,1.79Z" transform="translate(-120.62 -27.95)" style="fill:#f39e31"/><path d="M244.86,75.75a4.46,4.46,0,0,1,4.21-2.5,3.83,3.83,0,0,1,1.42.33c.22.1.41-.22.19-.32a4.85,4.85,0,0,0-5.23,1,4.24,4.24,0,0,0-.91,1.3c-.09.21.22.4.32.18Z" transform="translate(-120.62 -27.95)" style="fill:#c66700"/><path d="M231.51,81l-.42,1.16a.18.18,0,0,0,.12.23.19.19,0,0,0,.23-.13c.14-.39.29-.78.43-1.16a.19.19,0,0,0-.13-.23.2.2,0,0,0-.23.13Z" transform="translate(-120.62 -27.95)" style="fill:#c66700"/><path d="M232.58,81.45l-.15.14s0,0,0,.06a.25.25,0,0,0,0,.07.24.24,0,0,0,0,.08.09.09,0,0,0,0,0l0,0a.17.17,0,0,0,.1,0h0a.16.16,0,0,0,.09-.05l.14-.14a.21.21,0,0,0,0-.06.19.19,0,0,0,0-.07.14.14,0,0,0,0-.07.21.21,0,0,0,0-.06l0,0a.16.16,0,0,0-.09,0h-.05l-.08,0Z" transform="translate(-120.62 -27.95)" style="fill:#c66700"/><path d="M233.16,81.66a.56.56,0,0,1,.05.08l0,0s0,0,0,0h0a1.16,1.16,0,0,1,0,.18s0,0,0,0v.17a.23.23,0,0,0,0,0s0,0,0,0v0s0,.06,0,.09a.19.19,0,0,0,.12.23.19.19,0,0,0,.23-.13,1,1,0,0,0-.12-.88.21.21,0,0,0-.26-.07.19.19,0,0,0-.06.26Z" transform="translate(-120.62 -27.95)" style="fill:#c66700"/><path d="M228.34,77.61l-.15.58a.18.18,0,0,0,.12.23.19.19,0,0,0,.23-.13c.05-.19.1-.39.16-.58a.21.21,0,0,0-.13-.23.19.19,0,0,0-.23.13Z" transform="translate(-120.62 -27.95)" style="fill:#c66700"/><path d="M229.19,78.24v.43a.19.19,0,0,0,.05.13.16.16,0,0,0,.13.06.19.19,0,0,0,.18-.19v-.43a.19.19,0,0,0-.05-.13.2.2,0,0,0-.13-.06.19.19,0,0,0-.18.19Z" transform="translate(-120.62 -27.95)" style="fill:#c66700"/><path d="M237.92,69.86l.15.58a.19.19,0,0,0,.23.13.2.2,0,0,0,.13-.23c-.05-.19-.11-.38-.16-.58a.18.18,0,0,0-.22-.13.19.19,0,0,0-.13.23Z" transform="translate(-120.62 -27.95)" style="fill:#c66700"/><path d="M238.88,70.1l.43.3a.17.17,0,0,0,.14,0,.19.19,0,0,0,.11-.09.22.22,0,0,0,0-.14.24.24,0,0,0-.09-.11l-.42-.3a.19.19,0,0,0-.15,0,.18.18,0,0,0-.11.08.26.26,0,0,0,0,.15.31.31,0,0,0,.09.11Z" transform="translate(-120.62 -27.95)" style="fill:#c66700"/><path d="M239.81,69.62l.29.43a.19.19,0,0,0,.11.09.16.16,0,0,0,.14,0,.19.19,0,0,0,.09-.11.17.17,0,0,0,0-.14l-.29-.44a.18.18,0,0,0-.11-.08.18.18,0,0,0-.14,0,.17.17,0,0,0-.09.11.18.18,0,0,0,0,.14Z" transform="translate(-120.62 -27.95)" style="fill:#c66700"/><path d="M239.92,72.68l.32.72s.07.07.11.08a.17.17,0,0,0,.14,0,.2.2,0,0,0,.08-.12.14.14,0,0,0,0-.14c-.1-.24-.21-.47-.31-.71a.19.19,0,0,0-.11-.09.22.22,0,0,0-.14,0,.23.23,0,0,0-.09.11.22.22,0,0,0,0,.14Z" transform="translate(-120.62 -27.95)" style="fill:#c66700"/><path d="M241,73.62l.3.14a.14.14,0,0,0,.14,0,.18.18,0,0,0,.11-.08.23.23,0,0,0,0-.14.2.2,0,0,0-.09-.11l-.29-.15a.22.22,0,0,0-.14,0,.19.19,0,0,0-.11.09.17.17,0,0,0,0,.14.18.18,0,0,0,.08.11Z" transform="translate(-120.62 -27.95)" style="fill:#c66700"/><path d="M238.85,75l.42.44a.19.19,0,0,0,.26,0,.18.18,0,0,0,0-.26l-.42-.44a.18.18,0,0,0-.26,0,.19.19,0,0,0,0,.26Z" transform="translate(-120.62 -27.95)" style="fill:#c66700"/><path d="M238.2,67.54l.29.72a.2.2,0,0,0,.09.11.14.14,0,0,0,.14,0,.19.19,0,0,0,.13-.23l-.29-.72a.19.19,0,0,0-.08-.11.19.19,0,0,0-.15,0,.2.2,0,0,0-.13.23Z" transform="translate(-120.62 -27.95)" style="fill:#c66700"/><path d="M239.64,67.49v.29a.16.16,0,0,0,.06.13.2.2,0,0,0,.13.06.22.22,0,0,0,.13-.06.19.19,0,0,0,0-.13v-.29a.19.19,0,0,0,0-.13.17.17,0,0,0-.13,0,.15.15,0,0,0-.13,0,.18.18,0,0,0-.06.13Z" transform="translate(-120.62 -27.95)" style="fill:#c66700"/><path d="M247.52,122.4a3.87,3.87,0,0,0,2.48,1.33c.1,0,.18-.1.18-.19a.18.18,0,0,0-.18-.18,3.48,3.48,0,0,1-2.22-1.22c-.16-.18-.42.08-.26.26Z" transform="translate(-120.62 -27.95)" style="fill:#c66700"/><path d="M249.87,121.65a1.26,1.26,0,0,0,1,.35.19.19,0,0,0,.18-.19.18.18,0,0,0-.18-.18.89.89,0,0,1-.23,0h-.07l-.12,0,0,0h0l-.09,0-.1-.07s0,0,0,0l0,0,0,0a.18.18,0,0,0-.26.26Z" transform="translate(-120.62 -27.95)" style="fill:#c66700"/><path d="M251.57,120.6a.54.54,0,0,0,.3.24.58.58,0,0,0,.39,0,.18.18,0,0,0,.08-.11.19.19,0,0,0,0-.15.2.2,0,0,0-.26-.06h0l0,0-.08,0h0a.16.16,0,0,1-.09,0l0,0-.07,0,0,0-.05-.06,0,0,0,0a.31.31,0,0,0-.11-.09.25.25,0,0,0-.15,0,.18.18,0,0,0-.06.25Z" transform="translate(-120.62 -27.95)" style="fill:#c66700"/><path d="M250.09,117.36l1.17.24a.2.2,0,0,0,.23-.13.18.18,0,0,0-.13-.22l-1.17-.25a.19.19,0,0,0-.23.13.19.19,0,0,0,.13.23Z" transform="translate(-120.62 -27.95)" style="fill:#c66700"/><path d="M254.93,121.71h1.17a.2.2,0,0,0,.18-.19.18.18,0,0,0-.18-.18h-1.17a.18.18,0,0,0-.18.18.19.19,0,0,0,.18.19Z" transform="translate(-120.62 -27.95)" style="fill:#c66700"/><path d="M256.68,120.41a1.24,1.24,0,0,0,1-.54.19.19,0,0,0-.07-.26.18.18,0,0,0-.25.07l0,0s0,0,0,0l0,0-.09.08s0,0,0,0,0,0,0,0l0,0-.11.06-.05,0h0s0,0,0,0l-.12,0h-.06s0,0,0,0h-.12a.2.2,0,0,0-.19.18.19.19,0,0,0,.19.19Z" transform="translate(-120.62 -27.95)" style="fill:#c66700"/><path d="M255.51,116.62H256a.19.19,0,0,0,.13-.05.17.17,0,0,0,.05-.13.19.19,0,0,0-.18-.19h-.44a.19.19,0,0,0-.13.06.19.19,0,0,0,0,.13.18.18,0,0,0,.18.18Z" transform="translate(-120.62 -27.95)" style="fill:#c66700"/><path d="M254.6,113.24l.58.15a.19.19,0,0,0,.23-.13.19.19,0,0,0-.13-.23l-.58-.14a.19.19,0,0,0-.23.13.18.18,0,0,0,.13.22Z" transform="translate(-120.62 -27.95)" style="fill:#c66700"/><path d="M244.39,122.09l1,.48a.19.19,0,0,0,.25-.06.19.19,0,0,0-.06-.26l-1-.48a.19.19,0,0,0-.25.07.18.18,0,0,0,.06.25Z" transform="translate(-120.62 -27.95)" style="fill:#c66700"/><path d="M249.6,113.13l.43.3a.23.23,0,0,0,.14,0,.19.19,0,0,0,.11-.09.17.17,0,0,0,0-.14.23.23,0,0,0-.08-.11l-.44-.3a.22.22,0,0,0-.14,0,.24.24,0,0,0-.11.09.22.22,0,0,0,0,.14.24.24,0,0,0,.09.11Z" transform="translate(-120.62 -27.95)" style="fill:#c66700"/><path d="M251.45,110.52h.21a.09.09,0,0,0,.06,0,.21.21,0,0,0,0-.06.19.19,0,0,0,0-.07v0a.14.14,0,0,0-.05-.08l0,0a.17.17,0,0,0-.1,0h-.14l-.07,0a.18.18,0,0,0-.1.1.14.14,0,0,0,0,.07v0a.14.14,0,0,0,0,.08l0,0,.1,0Z" transform="translate(-120.62 -27.95)" style="fill:#c66700"/><path d="M252.65,109.2l.29.15a.26.26,0,0,0,.15,0,.19.19,0,0,0,.11-.09.22.22,0,0,0,0-.14.24.24,0,0,0-.09-.11l-.29-.14a.14.14,0,0,0-.14,0,.18.18,0,0,0-.11.08.18.18,0,0,0,0,.14.15.15,0,0,0,.08.11Z" transform="translate(-120.62 -27.95)" style="fill:#c66700"/><path d="M304.71,120.45a5.14,5.14,0,0,0-2.33,3.12,2.33,2.33,0,0,0,.41,1.74,5,5,0,0,0,1.44,1.09,2.71,2.71,0,0,1,1.19,1.31,2.48,2.48,0,0,1,.06,1.72c-.39,1.14-1.5,1.84-2.07,2.87a3,3,0,0,0,.62,3.6c.18.16.44-.1.26-.26a2.58,2.58,0,0,1-.6-3.07c.53-1,1.55-1.7,2-2.75a2.88,2.88,0,0,0-.61-3.23,10.5,10.5,0,0,0-1.47-1,1.93,1.93,0,0,1-.9-1.41c-.16-1.54,1.14-2.63,2.23-3.48.19-.14-.07-.4-.26-.26Z" transform="translate(-120.62 -27.95)" style="fill:#fff"/><path d="M286.91,139.58a5.2,5.2,0,0,0,3.66.75c.24,0,.14-.39-.09-.35a4.84,4.84,0,0,1-3.38-.71c-.2-.13-.38.19-.19.31Z" transform="translate(-120.62 -27.95)" style="fill:#c66700"/><path d="M289.36,138a1.15,1.15,0,0,0,1.55.37.19.19,0,0,0,.06-.25.19.19,0,0,0-.25-.07l-.07.05s0,0,0,0l0,0-.09,0h0s-.05,0,0,0,0,0,0,0h-.17s-.06,0,0,0l-.09,0-.08,0,0,0h0l-.15-.08,0,0s0,0,0,0l-.07-.06,0,0,0,0,0,0s0,0,0,0a.2.2,0,0,0-.26-.06.18.18,0,0,0-.06.25Z" transform="translate(-120.62 -27.95)" style="fill:#c66700"/><path d="M291.33,137.71a2.94,2.94,0,0,0,1.41.1.19.19,0,0,0,.13-.23.18.18,0,0,0-.22-.12,2.41,2.41,0,0,1-1.22-.11.19.19,0,0,0-.23.13.2.2,0,0,0,.13.23Z" transform="translate(-120.62 -27.95)" style="fill:#c66700"/><path d="M287.66,133.31a5.44,5.44,0,0,0,2.09.87.19.19,0,0,0,.22-.13.19.19,0,0,0-.13-.23,5,5,0,0,1-2-.83.19.19,0,0,0-.26.07.19.19,0,0,0,.07.25Z" transform="translate(-120.62 -27.95)" style="fill:#c66700"/><path d="M282.15,135.32l2.33,1.15c.22.1.4-.21.19-.32L282.34,135c-.21-.1-.4.22-.19.32Z" transform="translate(-120.62 -27.95)" style="fill:#c66700"/><path d="M283.93,137l1.3.43a.18.18,0,0,0,.23-.12.18.18,0,0,0-.13-.23l-1.31-.43a.18.18,0,0,0-.09.35Z" transform="translate(-120.62 -27.95)" style="fill:#c66700"/><path d="M285,131.93a1.69,1.69,0,0,0,1,.66.18.18,0,0,0,.22-.13.17.17,0,0,0-.12-.22,1,1,0,0,1-.25-.08h0l-.07,0-.11-.07-.05,0,0,0h0l-.1-.08-.09-.1,0,0h0l0,0a.18.18,0,0,0-.25-.06.18.18,0,0,0-.07.25Z" transform="translate(-120.62 -27.95)" style="fill:#c66700"/><path d="M277.06,136.65l1.58,1a.19.19,0,0,0,.25-.07.19.19,0,0,0-.07-.25l-1.58-1a.18.18,0,0,0-.18.32Z" transform="translate(-120.62 -27.95)" style="fill:#c66700"/><path d="M294.33,140.83a9.35,9.35,0,0,1,5.14.19.19.19,0,0,0,.1-.36,9.76,9.76,0,0,0-5.33-.19.19.19,0,0,0,.09.36Z" transform="translate(-120.62 -27.95)" style="fill:#f39e31"/><path d="M297.64,139.43h2.76a.19.19,0,0,0,0-.37h-2.76a.19.19,0,0,0,0,.37Z" transform="translate(-120.62 -27.95)" style="fill:#f39e31"/><path d="M289.8,121.63a10.27,10.27,0,0,0,3.12-1.28,4,4,0,0,0,1.67-2.3c.05-.23-.31-.33-.36-.1-.46,2.08-2.74,2.8-4.53,3.32a.19.19,0,0,0,.1.36Z" transform="translate(-120.62 -27.95)" style="fill:#f39e31"/><path d="M294.11,121a7.94,7.94,0,0,0,2-2.31c.12-.21-.2-.39-.31-.19a7.94,7.94,0,0,1-1.92,2.24.19.19,0,0,0,0,.26.18.18,0,0,0,.26,0Z" transform="translate(-120.62 -27.95)" style="fill:#f39e31"/><path d="M289.87,120.44a3.78,3.78,0,0,1-2.59,2.24c-.23.06-.13.41.1.36a4.18,4.18,0,0,0,2.85-2.5.19.19,0,0,0-.13-.23.19.19,0,0,0-.23.13Z" transform="translate(-120.62 -27.95)" style="fill:#f39e31"/><path d="M230.33,100.85a17.5,17.5,0,0,0-3.78,6.27,16.94,16.94,0,0,0-.57,2c0,.24.31.33.36.1a17.38,17.38,0,0,1,2.94-6.53,16.38,16.38,0,0,1,1.31-1.58c.16-.18-.1-.44-.26-.26Z" transform="translate(-120.62 -27.95)" style="fill:#ce9582"/><path d="M259.48,109.11a15.56,15.56,0,0,0,8.8-6.67l-1.11-1.19a.58.58,0,0,0-.25-.19c-.28-.07-4.3,4.91-8.68,5.87Z" transform="translate(-120.62 -27.95)" style="fill:#2f3866"/><path d="M265.71,104a3.08,3.08,0,1,1-4.2-1.15A3.07,3.07,0,0,1,265.71,104Z" transform="translate(-120.62 -27.95)" style="fill:#b03537"/><path d="M264.94,104.48a2.19,2.19,0,1,1-3-.82A2.18,2.18,0,0,1,264.94,104.48Z" transform="translate(-120.62 -27.95)" style="fill:#f39e31"/><path d="M262.13,104.46,263,106a.18.18,0,0,0,.25.07l1.27-.73c.21-.11,0-.43-.19-.31l-1.27.72.26.07-.9-1.58a.19.19,0,0,0-.32.19Z" transform="translate(-120.62 -27.95)"/><path d="M237.57,36.25a68.52,68.52,0,0,1,2.94-6.69c.13-.27.26-.54.41-.8s.23-.4.45-.44c.38-.07.57.45.62.74a3,3,0,0,1-.21,1.44,6.12,6.12,0,0,1-.72,1.42c-.3.45-.63.88-1,1.29A16.56,16.56,0,0,1,239,34.48a6.21,6.21,0,0,1-2.67,1.61,20,20,0,0,1-3.07.58,29.32,29.32,0,0,0-3.32.61,24.4,24.4,0,0,0-3.32,1.11c-.53.22-1,.46-1.57.72a2.46,2.46,0,0,0-1,.86,1.22,1.22,0,0,0-.16.62.2.2,0,0,0,.14.17c2,.79,4.12.29,6-.47,1-.4,2-.89,2.94-1.37s2.11-1,3.15-1.55c.78-.4,1.71-1.06,1.56-2l-.36.1a82.69,82.69,0,0,0,2.45,8.28c.27.76.56,1.51.85,2.27.08.22.44.12.35-.1a81,81,0,0,1-2.69-8.2c-.22-.78-.41-1.56-.6-2.35-.06-.24-.39-.13-.36.1.13.78-.78,1.32-1.37,1.62-1,.5-2,1-2.95,1.46a20.68,20.68,0,0,1-5.69,2.21,6.07,6.07,0,0,1-3.19-.3l.13.18a1.26,1.26,0,0,1,.76-1,11.3,11.3,0,0,1,1.57-.75A23.11,23.11,0,0,1,230,37.65a28.7,28.7,0,0,1,3.45-.64,17.15,17.15,0,0,0,3.16-.62,6.49,6.49,0,0,0,2.72-1.71c.39-.41.75-.86,1.11-1.31s.68-.86,1-1.32a7.2,7.2,0,0,0,.73-1.47,3.58,3.58,0,0,0,.21-1.52,1.33,1.33,0,0,0-.6-1,.86.86,0,0,0-1.11.46c-.31.52-.56,1.08-.83,1.62s-.54,1.13-.8,1.71c-.52,1.14-1,2.29-1.47,3.46-.11.29-.22.58-.34.88s.28.32.36.09Z" transform="translate(-120.62 -27.95)" style="fill:#f39e31"/><path d="M237.64,35.25a27.58,27.58,0,0,0,4.83,4.39c.51.37,1,.71,1.56,1,.21.13.39-.19.19-.32a27.46,27.46,0,0,1-5.08-4c-.43-.43-.84-.88-1.24-1.34-.16-.18-.42.08-.26.26Z" transform="translate(-120.62 -27.95)" style="fill:#f39e31"/></svg>