<svg id="Layer_1" data-name="Layer 1" xmlns="http://www.w3.org/2000/svg" viewBox="0 0 283.44 133.49"><path d="M404.06,93.88a26.11,26.11,0,0,0-6.44,3.6" transform="translate(-120.62 -46.17)" style="fill:#535d91"/><path d="M127.06,100.88a26.11,26.11,0,0,0-6.44,3.6" transform="translate(-120.62 -46.17)" style="fill:#535d91"/><path d="M295.05,121.76c.44-2.57.87-5.13,1.31-7.69a3.76,3.76,0,0,0,0-1.7,15.51,15.51,0,0,1,1.05-7.31c1.32-3.46,4-3.56,4.19-7.26.12-2.23-.47-4.53-.44-6.73a.87.87,0,0,1,1.68-.29,19.06,19.06,0,0,1,1.31,6.5c1.37-2,.91-4.7.24-7a23.22,23.22,0,0,1-1-4.39.87.87,0,0,1,1.65-.47,18.61,18.61,0,0,1,2,9.53,42,42,0,0,0-1.22-7.66.87.87,0,0,1,1.59-.67c.95,1.6,1.76,5.82,2.06,7.7-.19-1.22-1.82-6.5-2-7.72,1.74.1,3.22,4.14,3.48,5.86s.61,3-.1,4.59-5.24,11.87-5.61,14A89.34,89.34,0,0,0,304,124.69a11.78,11.78,0,0,1-8-.74Z" transform="translate(-120.62 -46.17)" style="fill:#f9be96"/><path d="M305.81,86.89a45,45,0,0,1,1.47,5.35,16.37,16.37,0,0,1,.23,5.27,11.14,11.14,0,0,1-.73,2.79.28.28,0,1,0,.54.15,12.73,12.73,0,0,0,.87-5.22,23.52,23.52,0,0,0-.91-5.46c-.28-1-.6-2-.92-3a.3.3,0,0,0-.35-.19.29.29,0,0,0-.2.34Z" transform="translate(-120.62 -46.17)" style="fill:#996441"/><path d="M307.76,87.4a20,20,0,0,1,1.48,9.14,18.76,18.76,0,0,1-.36,2.59.29.29,0,0,0,.2.35.3.3,0,0,0,.35-.2,20.65,20.65,0,0,0,.41-4.77,20.21,20.21,0,0,0-.68-4.71,20.61,20.61,0,0,0-.85-2.55.3.3,0,0,0-.35-.2.29.29,0,0,0-.2.35Z" transform="translate(-120.62 -46.17)" style="fill:#996441"/><path d="M304.32,101.67c1.39-.51,2.76-1.1,4.14-1.65l1.23-.48a.28.28,0,1,0-.15-.54c-1.4.52-2.76,1.11-4.15,1.66l-1.22.47a.29.29,0,0,0-.2.35.28.28,0,0,0,.35.19Z" transform="translate(-120.62 -46.17)" style="fill:#996441"/><path d="M304.15,97.22l-.55,3.08a.29.29,0,0,0,.2.35.29.29,0,0,0,.34-.2l.55-3.08a.28.28,0,0,0-.54-.15Z" transform="translate(-120.62 -46.17)" style="fill:#996441"/><path d="M222.78,61.5a15.84,15.84,0,0,1,24.68-3.11,29.26,29.26,0,0,0,3.19,3.11c3.7,2.67,8.89,1.53,13.22,3s7.4,5.24,9.57,9.22,3.73,8.33,6.35,12,6.7,6.81,11.24,6.68c1.63-.05,3.42-.67,4.11-2.15a19.49,19.49,0,0,1-14.95,13.38c-4.32.77-9.26.2-12.58,3.07-2.21,1.91-3.19,5-5.55,6.69-4.12,3-10.11.41-14.87,2.19-5.33,2-7.66,8.83-13,10.7-4.59,1.61-9.53-1-14.39-1.06a13.77,13.77,0,0,0-10.93,5.4c-2.55-3.34-5.13-6.75-6.58-10.7s-1.62-8.59.57-12.18c1.34-2.2,3.42-3.82,5.16-5.73a5.55,5.55,0,0,0,1.64-3c.27-2.24-1.76-4-3.2-5.71-1.61-1.93-2.67-4.58-1.88-7,1.35-4,7.1-5.26,8.46-9.3.87-2.58-.39-5.38-.22-8.1a8,8,0,0,1,8.83-7.14Z" transform="translate(-120.62 -46.17)" style="fill:#6b74b5"/><g style="opacity:0.36"><path d="M227.4,97A8.87,8.87,0,0,1,231,107.45c-.48,1.26-1.25,2.39-1.66,3.67a3.74,3.74,0,0,0,.57,3.77c.48.48,1.15.75,1.58,1.27,1,1.27.23,3.13-.12,4.74a7.52,7.52,0,0,0,1.71,6.46c2.54-3.38,6.9-4.7,10.86-6.17a74,74,0,0,0,13.3-6.55c-1.38-.08-2.37-1.33-3.16-2.46q-6.74-9.71-13-19.75Z" transform="translate(-120.62 -46.17)" style="fill:#152151"/></g><path d="M285.77,81.71c3.53.9,7.12-1.38,9.72-4.23s4.66-6.34,7.54-8.82c1.16-1,2.69-1.85,4.05-1.23s1.9,2.22,3.08,3c2.27,1.48,4.92-.84,7.47-1.48,4.13-1,8.08,2.58,10.34,6.62.31,1.85-1.67,3.12-3.33,3.34s-3.6.16-4.65,1.63c-.88,1.22-.75,3-1.49,4.36-1.27,2.26-4.32,2-6.46.79s-4.12-3-6.5-3.09c-4.15-.09-7.88,5.33-11.7,3.52-1.2-.56-2.19-1.79-3.48-1.79s-2.93.74-3.18-.57Z" transform="translate(-120.62 -46.17)"/><path d="M268.56,77.94c3.45-1.18,5.2-5.06,5.82-8.87s.41-7.85,1.47-11.51c.42-1.47,1.24-3,2.71-3.25s2.81.82,4.22.81c2.7,0,3.65-3.4,5.43-5.33,2.89-3.13,8.18-2.27,12.27-.13,1.28,1.38.32,3.52-1,4.62s-2.92,2.11-3,3.91c-.06,1.5,1,3,1.15,4.46.18,2.59-2.53,4-5,4.21s-5.12-.28-7.14,1c-3.52,2.19-3.67,8.77-7.86,9.36-1.3.18-2.82-.31-3.89.41s-2,2.21-3,1.26Z" transform="translate(-120.62 -46.17)"/><path d="M240.78,64.34l6.59,12.77a1.75,1.75,0,0,0,.81.92,2.15,2.15,0,0,0,1,0A5.06,5.06,0,0,1,251,88a183.93,183.93,0,0,0,10.18,20.59,1.27,1.27,0,0,0,.45.52,1.24,1.24,0,0,0,.91,0,15.09,15.09,0,0,0,5-2.45,5.11,5.11,0,0,1,2.21-1.2c.84-.11,1.83.53,1.71,1.37a98.62,98.62,0,0,1-5.34,15c-1.25,2.78-3,5.78-5.91,6.55a11,11,0,0,1-5.51-.47c-8-2.11-15.94-4.22-23.73-6.93q7.09-2.22,14-4.91l-5.55-13.93c-1.87,1.12-4,2.29-6.11,1.89s-3.73-2.31-5-4.12A138.58,138.58,0,0,1,215.46,76Z" transform="translate(-120.62 -46.17)" style="fill:#f9be96"/><path d="M228.33,121.25a58,58,0,0,1,9.3-3.1c3.66-.66,12.41,4.88,16.61,5.32a7.25,7.25,0,0,0,3.44-.23,6.68,6.68,0,0,0,2.6-2.27,32.33,32.33,0,0,0,4.61-8c.74-1.85,1.4-3.89,3-5a8.32,8.32,0,0,1,3.2-1.12,16,16,0,0,1,7.2-.28,10.8,10.8,0,0,1,6.62,5.89A24.1,24.1,0,0,1,287,121.3a64.62,64.62,0,0,1-3.44,26.24,5.14,5.14,0,0,1-.64,1.36c-1.3,1.74-4,1.2-6.13,1.19-4.79,0-8.85,3.3-12.65,6.22s-8.48,5.74-13.11,4.5c-3.08-.83-5.41-3.29-7.54-5.67-4.14-4.61-8.28-9.45-10.4-15.28-1-2.71-1.58-5.69-3.52-7.83Z" transform="translate(-120.62 -46.17)" style="fill:#d15259"/><path d="M233.93,55.74a5.44,5.44,0,0,1-2.94-7,2.2,2.2,0,0,1,.67-.94A2,2,0,0,1,234,48a5.85,5.85,0,0,1,1.44,2,2.33,2.33,0,1,1,3.64,0,2.17,2.17,0,0,1,2.7-2,2.77,2.77,0,0,1,1.58,3.19,6.63,6.63,0,0,1-2.05,3.25A25,25,0,0,1,237,57.78Z" transform="translate(-120.62 -46.17)" style="fill:#6b74b5"/><path d="M261.49,109.93a2.4,2.4,0,1,1-2.39-2.39A2.4,2.4,0,0,1,261.49,109.93Z" transform="translate(-120.62 -46.17)" style="fill:#fff"/><path d="M213,67.34a5.37,5.37,0,0,0-6.38-2.7c-.52.18-1.07.54-1.09,1.09a1.26,1.26,0,0,0,.25.69,4,4,0,0,0,3.42,1.84,3,3,0,1,0-2.73,5.39c.19.07.49.06.51-.15a1.44,1.44,0,0,0-2.32.21,2.13,2.13,0,0,0,.56,2.52,4.2,4.2,0,0,0,2.59.9,8.73,8.73,0,0,0,7.93-4.33Z" transform="translate(-120.62 -46.17)" style="fill:#6b74b5"/><path d="M215.46,86.83a8.08,8.08,0,0,0,6.14-6.78c.28-2.39-.52-5,.55-7.14,1.7-.33,3.35.58,4.94,1.24s3.64,1,4.88-.21,1.44-4,3.24-4.06a3.26,3.26,0,0,1,1.11.21c2.44.78,5.1,1.72,6.43,3.92.68,1.14,1,2.58,2,3.39,1.88,1.44,4.52-.05,6.38-1.5L241.06,60.82a2.62,2.62,0,0,0-3.52-1.4,70.73,70.73,0,0,0-18,6.91c-3.23,1.78-6.71,4.55-6.42,8.22a10.17,10.17,0,0,0,1.43,3.9q1.73,3.21,3.53,6.38Z" transform="translate(-120.62 -46.17)" style="fill:#6b74b5"/><path d="M287.08,102.52c2.59,5.35,6.72,9.77,10.3,14.51s6.74,10.19,6.87,16.13c.07,3.08-.69,6.17-.31,9.23.27,2.16,1.09,4.38.38,6.44-.83,2.43-3.45,3.7-5.9,4.47a25.08,25.08,0,0,1-7.23,1.27,11.59,11.59,0,0,1-4-.6c-1.09-.4-2.09-1-3.15-1.47-3.55-1.55-7.6-1.45-11.44-1s-7.69,1.26-11.56,1-6,5.32-8.18,2.09c-1.67-2.51,14.33-45.7,18.6-47.82,3.15-1.56,10.9-2.39,14.27-3.38Z" transform="translate(-120.62 -46.17)" style="fill:#8c4c18"/><path d="M269.91,110.39c.45,8.37-1.62,16.66-2,25-.15,3.22.09,6.82,2.4,9.06,1.95,1.88,4.87,2.31,7.57,2.19a24.56,24.56,0,0,0,9.66-2.43,10.09,10.09,0,0,0,2.9-2c2.31-2.39,2.36-6.12,2.05-9.43a74.76,74.76,0,0,0-8.61-28.5,28.54,28.54,0,0,1-13.77,5.8Z" transform="translate(-120.62 -46.17)" style="fill:#bc681d"/><path d="M287.14,150.09c2.05-12.65,6.09-22.82,7.5-35.56,3.17.22,11,1.43,14.1,1.93A271,271,0,0,1,305,162.62c-2.27,13-19.22,7.88-21.69,6.07s-13.8-16-15.34-18.6C263.87,143,285.18,142.78,287.14,150.09Z" transform="translate(-120.62 -46.17)" style="fill:#d15259"/><path d="M288.68,83.41c.06,3.58.11,7.17.17,10.75.07,4,0,8.38-2.73,11.29a12.73,12.73,0,0,1-5.83,3.18,59.36,59.36,0,0,1-9.46,1.8c-3.9.51-8,.92-11.68-.51-1.87-.73.16-4.92-6.81-6.45a1.33,1.33,0,0,1-1.27-1.61,70.59,70.59,0,0,1,.84-12,65.85,65.85,0,0,1,13.35-1.54,19.35,19.35,0,0,1,.72-6.52,10.49,10.49,0,0,1,3.64-5.36,10.77,10.77,0,0,1,8.23-1.61,21.56,21.56,0,0,1,7.84,3.44,6.06,6.06,0,0,1,2.89,3.25Z" transform="translate(-120.62 -46.17)" style="fill:#8c4c18"/><path d="M252,90c-.13,1.8-.18,3.6-.13,5.41a.75.75,0,0,0,.1.44c.26.37.87,0,1.07-.37s.28-.94.68-1.15,1.14.21,1.54.65l1.17,1.3a1.07,1.07,0,0,0,.46.36c.5.16.91-.4,1.14-.87l1-2c.08-.18.2-.38.39-.42a.69.69,0,0,1,.51.2l2.59,2a7.65,7.65,0,0,0,.81-4.05,5.77,5.77,0,0,0-.14-1.71,2,2,0,0,0-1-1.29,3.08,3.08,0,0,0-1.65,0,50.26,50.26,0,0,1-7.34.72,1.75,1.75,0,0,0-.78.15.56.56,0,0,0-.28.67Z" transform="translate(-120.62 -46.17)"/><path d="M271,76a3,3,0,0,1,2,1.89,7.06,7.06,0,0,1,.33,2.82,22.17,22.17,0,0,1-1.31,6.5,4.93,4.93,0,0,1-1.59,2.45,3.71,3.71,0,0,1-3.14.37,11.26,11.26,0,0,1-2.9-1.5c.82-1,.73-2.43.81-3.73a12.16,12.16,0,0,1,3.57-7.85,3.26,3.26,0,0,1,2.38-1.17Z" transform="translate(-120.62 -46.17)" style="fill:#bc681d"/><path d="M279.65,75.19A7.73,7.73,0,0,0,276.09,79,19.31,19.31,0,0,0,274.67,84a17.16,17.16,0,0,0-.21,6.54,1.76,1.76,0,0,0,.43,1,2,2,0,0,0,1,.43c2.43.49,5,.7,7.1,2.06a13,13,0,0,0,2.67,1.73,3.49,3.49,0,0,0,2.86-.28.94.94,0,0,0,.38-.33,1.13,1.13,0,0,0,.06-.75,37.75,37.75,0,0,1-.19-7.88c.2-2.48.59-5.25-.92-7.24A8,8,0,0,0,284.68,77a31.29,31.29,0,0,0-5.39-1.88Z" transform="translate(-120.62 -46.17)" style="fill:#bc681d"/><path d="M313.14,106.53a7.82,7.82,0,0,0,2.57-7.68A25.1,25.1,0,0,1,314.64,95c-.1-1.33.62-2.88,1.94-3A2.47,2.47,0,0,1,319,93.55a7,7,0,0,1,.44,3,2.76,2.76,0,0,1,4.25-1.23,3.49,3.49,0,0,1,.6,4,8.2,8.2,0,0,1-2.86,3.11,27.05,27.05,0,0,1-4.28,2.53Z" transform="translate(-120.62 -46.17)" style="fill:#b03537"/><path d="M220.34,142a6.69,6.69,0,0,1-2.2-6.58,21,21,0,0,0,.91-3.28c.08-1.13-.53-2.46-1.66-2.6a2.12,2.12,0,0,0-2,1.34,6.2,6.2,0,0,0-.37,2.57,2.37,2.37,0,0,0-3.65-1,3,3,0,0,0-.51,3.38,7,7,0,0,0,2.45,2.67,23.66,23.66,0,0,0,3.66,2.17Z" transform="translate(-120.62 -46.17)" style="fill:#b03537"/><path d="M218.5,152.46a3.75,3.75,0,0,1-1.24-3.69,12.29,12.29,0,0,0,.51-1.84c0-.64-.29-1.39-.93-1.47a1.19,1.19,0,0,0-1.14.76,3.32,3.32,0,0,0-.21,1.44,1.33,1.33,0,0,0-2.05-.59,1.68,1.68,0,0,0-.29,1.9,3.9,3.9,0,0,0,1.38,1.5,12.55,12.55,0,0,0,2.06,1.22Z" transform="translate(-120.62 -46.17)" style="fill:#b03537"/><path d="M279.9,87.39a1.45,1.45,0,1,1-1.44-1.65A1.55,1.55,0,0,1,279.9,87.39Z" transform="translate(-120.62 -46.17)"/><ellipse cx="146.82" cy="39.52" rx="1.44" ry="1.64"/><path d="M270.06,127.79c1.37-2.16,2.68-4.37,3.94-6.61a3.29,3.29,0,0,0,.57-1.77,5.48,5.48,0,0,0-.5-1.44c-.66-1.68-.22-3.56.22-5.31q1.31-5.09,2.6-10.18a.43.43,0,0,1,.84,0c.42,2.47-.51,5.22-.05,7.76a.8.8,0,0,0,.17.4c.57.74,1.63-.24,2-1.1,1.69-4.06,3.25-8.19,4.67-12.35a.89.89,0,0,1,1.71.49v0q-1.26,4.93-2.53,9.89A52.57,52.57,0,0,0,288,97.05a.63.63,0,0,1,1.23.16,8.21,8.21,0,0,1-.38,2.31q-1.16,4-2.58,8a42,42,0,0,1,3.56-7.81.63.63,0,0,1,1.16.43,29.27,29.27,0,0,1-3.27,8.89c.69-1.22,1.63-3.49,2.48-5.37a.63.63,0,0,1,1.2.36,15.27,15.27,0,0,1-.35,1.59A70.78,70.78,0,0,1,286.16,118c-2.27,4.13-9.2,16.5-9.72,16.54a14.45,14.45,0,0,1-8.47-2Z" transform="translate(-120.62 -46.17)" style="fill:#f9be96"/><path d="M258.23,103a5.65,5.65,0,0,1-2.37.69.29.29,0,0,0-.28.28.29.29,0,0,0,.28.29,6.65,6.65,0,0,0,2.65-.77c.32-.17,0-.66-.28-.49Z" transform="translate(-120.62 -46.17)"/><path d="M259,109.55a19,19,0,0,0,3.95.69,4.14,4.14,0,0,0,1.85-.22,3.61,3.61,0,0,0,1.28-.94,10.22,10.22,0,0,0,1-1.5.28.28,0,0,0-.49-.28,5.1,5.1,0,0,1-1.91,2.15,3.35,3.35,0,0,1-1.63.24,15.93,15.93,0,0,1-1.84-.21,21.06,21.06,0,0,1-2.09-.47.28.28,0,0,0-.15.54Z" transform="translate(-120.62 -46.17)"/><path d="M266.06,105c1.8-1.79,1.67-4.69,1.42-7.21a8.09,8.09,0,0,1,.16-3.6,2.8,2.8,0,0,1,2.72-2,2.67,2.67,0,0,1,1.9,1.39,6.61,6.61,0,0,1,.71,2.31,28.45,28.45,0,0,1,.38,5.13,4.32,4.32,0,0,1-.68,2.65,3.83,3.83,0,0,1-2.2,1.17,10.08,10.08,0,0,1-4.44,0Z" transform="translate(-120.62 -46.17)" style="fill:#e05f65"/><path d="M270.27,96.24a13.12,13.12,0,0,1-.24,6.67,12.79,12.79,0,0,1-.68,1.78.28.28,0,0,0,.1.38.27.27,0,0,0,.38-.1,13.65,13.65,0,0,0,1-8.88.28.28,0,0,0-.35-.19.27.27,0,0,0-.19.34Z" transform="translate(-120.62 -46.17)" style="fill:#b03537"/><path d="M256.66,95a31,31,0,0,0,1.08,7.29,2.47,2.47,0,0,0,.78,1.37,5.77,5.77,0,0,0,1.47.73,18,18,0,0,0,3.21.89,18.57,18.57,0,0,0,6.69,0,17.37,17.37,0,0,0,3.21-1,9.13,9.13,0,0,0,2.85-1.72,7.72,7.72,0,0,0,2.34-5.3q0-.36,0-.72a.3.3,0,0,0-.29-.28.29.29,0,0,0-.28.28,7.26,7.26,0,0,1-1.72,5.16,7.46,7.46,0,0,1-2.45,1.78,15.94,15.94,0,0,1-3,1,17.86,17.86,0,0,1-6.39.33,16.5,16.5,0,0,1-3.13-.7,13.22,13.22,0,0,1-1.48-.56,1.85,1.85,0,0,1-1-.89,3.65,3.65,0,0,1-.23-.73c-.08-.27-.15-.55-.21-.83-.14-.59-.26-1.18-.37-1.77a31.32,31.32,0,0,1-.4-3.49c0-.29,0-.59,0-.88a.28.28,0,0,0-.56,0Z" transform="translate(-120.62 -46.17)"/><path d="M254.42,98.26v-.2a.17.17,0,0,0,0-.1.21.21,0,0,0-.06-.1.19.19,0,0,0-.09,0,.2.2,0,0,0-.11,0h-.07l-.13.07,0,.06a.25.25,0,0,0,0,.14v.2a.48.48,0,0,0,.08.19.24.24,0,0,0,.09.06.23.23,0,0,0,.11,0h.08a.25.25,0,0,0,.12-.08l0,0a.37.37,0,0,0,0-.14Z" transform="translate(-120.62 -46.17)"/><path d="M277.73,78.13a16,16,0,0,1,5.72,4,6.79,6.79,0,0,1-3.47.6,2.85,2.85,0,0,1-2.41-4.32Z" transform="translate(-120.62 -46.17)"/><path d="M271.44,75.72a15.93,15.93,0,0,0-5.72,3.7,7,7,0,0,0,3.46.56,3,3,0,0,0,2.29-1.1,2.57,2.57,0,0,0,.12-2.91Z" transform="translate(-120.62 -46.17)"/><polygon points="118.82 55.97 127.53 48.49 120.52 60.25 118.82 55.97" style="fill:#996441;opacity:0.58"/><path d="M288.84,99.73q-1.14,4-2.53,8c-.26.74-.52,1.47-.79,2.2a.28.28,0,0,0,.19.35.29.29,0,0,0,.35-.2c1-2.6,1.86-5.24,2.67-7.9.22-.75.44-1.5.65-2.25a.28.28,0,0,0-.54-.15Z" transform="translate(-120.62 -46.17)" style="fill:#996441"/><path d="M290.18,103.5c-.81,1.84-1.62,3.67-2.42,5.51l-.69,1.57a.29.29,0,0,0,.1.38.28.28,0,0,0,.38-.1l2.43-5.51.69-1.57a.28.28,0,0,0-.49-.28Z" transform="translate(-120.62 -46.17)" style="fill:#996441"/><path d="M282.11,109.18a23.58,23.58,0,0,1,4,1.89c.36.22.72.44,1.07.68a.3.3,0,0,0,.39-.1.29.29,0,0,0-.11-.39,23.47,23.47,0,0,0-4-2.16c-.39-.16-.79-.32-1.19-.46a.27.27,0,0,0-.35.19.29.29,0,0,0,.2.35Z" transform="translate(-120.62 -46.17)" style="fill:#996441"/><path d="M284.14,106.53c-.36.84-.73,1.68-1.1,2.51a.3.3,0,0,0,.1.39.29.29,0,0,0,.39-.1l1.1-2.52a.28.28,0,0,0-.49-.28Z" transform="translate(-120.62 -46.17)" style="fill:#996441"/><path d="M224,128.52a137.15,137.15,0,0,0,3.36,20.17c1.79,6.59,8.24,22,12.84,28,3.19,4.13,10.71,3.4,14.13,1.24s6.52-9.39,8.93-12.63c7.32-9.81,13.18-23.57,18.36-34.65a75.15,75.15,0,0,1-10.15-7,233.7,233.7,0,0,1-21.63,27.45,299.45,299.45,0,0,0-16.25-27.17,6.4,6.4,0,0,0-2.83-2.74c-1.77-.65-3.8.41-4.88,2a13,13,0,0,0-1.75,5.33Z" transform="translate(-120.62 -46.17)" style="fill:#d15259"/><path d="M253.39,90.84a11.62,11.62,0,0,1,3.81-.3c.18,0,.18-.26,0-.28a12.13,12.13,0,0,0-3.89.3.15.15,0,0,0,.08.28Z" transform="translate(-120.62 -46.17)" style="fill:#fff"/><path d="M258.93,90.34h.19a.15.15,0,0,0,.1,0s0,0,0,0a.09.09,0,0,0,0,0,.12.12,0,0,0,0-.1.13.13,0,0,0-.1,0h-.19a.13.13,0,0,0-.1,0l0,0a.13.13,0,0,0,0,.06.14.14,0,0,0,0,.1.18.18,0,0,0,.1,0Z" transform="translate(-120.62 -46.17)" style="fill:#fff"/><path d="M287.64,87a5.75,5.75,0,0,0,3.1,2.6c.17.06.24-.21.07-.27a5.5,5.5,0,0,1-2.92-2.47.14.14,0,0,0-.25.14Z" transform="translate(-120.62 -46.17)" style="fill:#bc681d"/><path d="M287.81,88.75a8.19,8.19,0,0,0,2.32,1.59c.16.07.3-.17.14-.24A8.19,8.19,0,0,1,288,88.55c-.13-.12-.33.08-.2.2Z" transform="translate(-120.62 -46.17)" style="fill:#bc681d"/><path d="M264,83.06a22.71,22.71,0,0,0,2.47-2,.14.14,0,1,0-.19-.2,21.51,21.51,0,0,1-2.42,2c-.15.11,0,.35.14.25Z" transform="translate(-120.62 -46.17)" style="fill:#bc681d"/><path d="M264.23,83.8A19.06,19.06,0,0,1,266.65,82c.15-.09,0-.33-.14-.24A19.27,19.27,0,0,0,264,83.6c-.13.12.07.32.2.2Z" transform="translate(-120.62 -46.17)" style="fill:#bc681d"/><path d="M273.56,76.34A13.5,13.5,0,0,1,270.38,71c-.09-.31-.13-.75.18-.87s.47.08.66.25a14.51,14.51,0,0,1,3.53,4.86c-.75-1.57-1.51-3.37-.86-5a3.66,3.66,0,0,1,1.74,2.17,12.4,12.4,0,0,0,1.1,2.62,5.58,5.58,0,0,1-.72-3.25c0-.47.36-1.07.8-.9a.8.8,0,0,1,.34.34,6.8,6.8,0,0,1,1,4.33,15.54,15.54,0,0,0-4.87,1.2Z" transform="translate(-120.62 -46.17)" style="fill:#8c4c18"/><path d="M222.79,62.11a30.48,30.48,0,0,0-.81,7.25c0,.67,0,1.35.08,2a.3.3,0,0,0,.29.28.29.29,0,0,0,.28-.28,30.48,30.48,0,0,1,.3-7.14c.11-.66.25-1.33.4-2a.28.28,0,1,0-.54-.15Z" transform="translate(-120.62 -46.17)" style="fill:#152151"/><path d="M223.26,69.71a1.06,1.06,0,0,1,1.11-.16,3.14,3.14,0,0,1,1.09.72,4.88,4.88,0,0,0,1.13.84,2.71,2.71,0,0,0,1.37.26c2-.16,3.28-1.88,4.62-3.16a5.12,5.12,0,0,1,2.22-1.41,2.61,2.61,0,0,1,2,.28,10.37,10.37,0,0,1,2.66,2.86,5.06,5.06,0,0,0,3.31,2.22c1.62.17,3.13-.65,4.71-.79a2.3,2.3,0,0,1,1.92.58,6.06,6.06,0,0,1,1,2A2.56,2.56,0,0,0,252,75.49a7.07,7.07,0,0,0,3-.35,9.86,9.86,0,0,1,6.09.62,6.48,6.48,0,0,1,3.38,3.79,5.22,5.22,0,0,1,.23,1.24c0,.36.58.37.56,0a6.47,6.47,0,0,0-2.47-4.6,8.76,8.76,0,0,0-5.63-1.82,14.4,14.4,0,0,0-3.2.42c-.88.21-1.9.43-2.58-.34a9.27,9.27,0,0,1-1-2,2.8,2.8,0,0,0-1.64-1.51,4.55,4.55,0,0,0-2.26,0c-.82.18-1.62.44-2.44.58a3.74,3.74,0,0,1-2.17-.19,4.93,4.93,0,0,1-1.52-1.2A28.62,28.62,0,0,0,237.67,67a3.71,3.71,0,0,0-1.74-.83,3.65,3.65,0,0,0-2.54.64c-1.63,1.07-2.63,2.91-4.45,3.71a2.91,2.91,0,0,1-1.29.27,2.27,2.27,0,0,1-1.29-.5c-.39-.3-.73-.66-1.13-1a2.37,2.37,0,0,0-1.25-.45,1.39,1.39,0,0,0-1.11.4c-.26.26.14.66.39.4Z" transform="translate(-120.62 -46.17)" style="fill:#152151"/><path d="M230.46,63.12a7.17,7.17,0,0,1,6.84-.44,6.91,6.91,0,0,1,1.53,1c.49.42.95.88,1.41,1.34a11.17,11.17,0,0,0,1.5,1.25,6.12,6.12,0,0,0,1.62.75c2.29.68,4.72.16,7,.21a7.09,7.09,0,0,1,3.21.69,8.73,8.73,0,0,1,2.68,2.73,6.63,6.63,0,0,0,2.91,2.49,2.9,2.9,0,0,0,3-.65,2.27,2.27,0,0,0,.42-.68.29.29,0,0,0-.55-.15,2.11,2.11,0,0,1-2.42,1,5.32,5.32,0,0,1-2.84-2.28,10,10,0,0,0-2.68-2.83,7.09,7.09,0,0,0-3.24-.89c-2.31-.13-4.67.43-7-.09a5.52,5.52,0,0,1-1.57-.59,7.82,7.82,0,0,1-1.51-1.17,14.62,14.62,0,0,0-2.9-2.43,7.83,7.83,0,0,0-7-.19,6.93,6.93,0,0,0-.75.43c-.31.2,0,.69.28.49Z" transform="translate(-120.62 -46.17)" style="fill:#152151"/><path d="M256.17,78.58a.77.77,0,0,1,.3-.15l.1,0h0s0,0,0,0h.22a1.57,1.57,0,0,1,.74.28,1.68,1.68,0,0,1,.56.67,3.19,3.19,0,0,1,.29,1c.11.74.07,1.49.17,2.23a3,3,0,0,0,.9,1.94,1.85,1.85,0,0,0,2.09.35c.32-.17,0-.66-.29-.48a1,1,0,0,1-.73.08,1.74,1.74,0,0,1-.74-.41,2.88,2.88,0,0,1-.71-1.88c-.12-1.39.05-3.19-1.32-4a1.74,1.74,0,0,0-2,0,.28.28,0,0,0,0,.4.3.3,0,0,0,.4,0Z" transform="translate(-120.62 -46.17)" style="fill:#152151"/><path d="M257.88,66.23a6.2,6.2,0,0,1,6.58,3.23,6.48,6.48,0,0,1,.66,2,.27.27,0,0,0,.34.19.28.28,0,0,0,.2-.34,6.75,6.75,0,0,0-5.44-5.64,7,7,0,0,0-2.49,0,.28.28,0,0,0-.2.34.29.29,0,0,0,.35.2Z" transform="translate(-120.62 -46.17)" style="fill:#152151"/><path d="M232.08,58.16a4.58,4.58,0,0,1,3.1-1.25,6.76,6.76,0,0,1,3.56.92,14.76,14.76,0,0,1,3.18,2.49c.92.9,1.89,2,3.26,2.06a11.45,11.45,0,0,0,1.17-.05,3.49,3.49,0,0,1,.91.11,3.62,3.62,0,0,1,1.92,1.21.28.28,0,0,0,.4-.4A4.23,4.23,0,0,0,248,62.08a4.31,4.31,0,0,0-2-.29,3.54,3.54,0,0,1-1.08,0,2.74,2.74,0,0,1-.84-.36,8.37,8.37,0,0,1-1.46-1.26,17.67,17.67,0,0,0-3.26-2.65,7.62,7.62,0,0,0-3.78-1.16A5.46,5.46,0,0,0,232,57.46l-.33.3a.28.28,0,0,0,.4.4Z" transform="translate(-120.62 -46.17)" style="fill:#152151"/><path d="M220.07,70.28c-1.7.3-2.3,2.28-2.2,3.78.13,2.09,1.47,4.08.57,6.17-.66,1.54-2,2.68-2.68,4.19a3.44,3.44,0,0,0-.32,2.18,4.3,4.3,0,0,0,1.39,2.14,5.89,5.89,0,0,1,1.71,2.13,4.38,4.38,0,0,1-.22,3.1,12,12,0,0,1-1.84,2.8,24.1,24.1,0,0,0-1.85,2.53,9.34,9.34,0,0,0-1.66,5.82,5.59,5.59,0,0,0,1.06,2.65c.53.73,1.16,1.36,1.7,2.07a3.43,3.43,0,0,1,.87,2.37,7.41,7.41,0,0,1-1.2,2.73,4.85,4.85,0,0,0-.52,1.27,3.34,3.34,0,0,0,0,1.18,2.38,2.38,0,0,0,1.1,1.76,1.47,1.47,0,0,0,1,.11c.35-.08.2-.62-.15-.54-.67.14-1.12-.46-1.31-1a2.85,2.85,0,0,1,.25-2.23,14.31,14.31,0,0,0,1.29-2.6,3.38,3.38,0,0,0-.31-2.51c-.84-1.58-2.47-2.62-3-4.38a7.44,7.44,0,0,1,1-5.62,16.73,16.73,0,0,1,1.7-2.56,24.4,24.4,0,0,0,1.93-2.58c1-1.7,1.47-3.93.14-5.61-1-1.23-2.77-2.18-2.49-4a5,5,0,0,1,.92-2c.47-.68,1-1.32,1.45-2a5.9,5.9,0,0,0,.94-2.2,7.72,7.72,0,0,0-.4-3.33,7.63,7.63,0,0,1-.43-2.8,3.15,3.15,0,0,1,.87-2,1.73,1.73,0,0,1,.91-.44c.36-.06.21-.61-.15-.55Z" transform="translate(-120.62 -46.17)" style="fill:#152151"/><path d="M211.76,97.48a11,11,0,0,0-1.21,8.12,11.41,11.41,0,0,0,1,2.63,10.35,10.35,0,0,1,1.13,2.63,3.16,3.16,0,0,1,0,1.3,4,4,0,0,1-.48,1.1c-.45.74-1,1.38-1.47,2.11A5.1,5.1,0,0,0,210,118a10.58,10.58,0,0,0,2,5.5c.13.2.26.41.4.61a.29.29,0,0,0,.38.1.28.28,0,0,0,.1-.39,20.53,20.53,0,0,1-1.5-2.57,8.34,8.34,0,0,1-.81-2.67A4.6,4.6,0,0,1,211,116a22.7,22.7,0,0,1,1.43-2.09,4.29,4.29,0,0,0,.87-2.4,6,6,0,0,0-.82-2.72,18.34,18.34,0,0,1-1.19-2.54,10.14,10.14,0,0,1-.49-2.67,10.27,10.27,0,0,1,1.09-5.22q.15-.3.33-.6c.19-.31-.3-.59-.49-.28Z" transform="translate(-120.62 -46.17)" style="fill:#152151"/><path d="M207.87,111a5.89,5.89,0,0,0-.6,5.43,5.81,5.81,0,0,0,.81,1.41.28.28,0,0,0,.4-.4,5.33,5.33,0,0,1-.78-4.87,4.89,4.89,0,0,1,.65-1.29.27.27,0,0,0-.1-.38.28.28,0,0,0-.38.1Z" transform="translate(-120.62 -46.17)" style="fill:#152151"/><path d="M210.72,82.86a6.47,6.47,0,0,0-1.55,3.76,6.25,6.25,0,0,0,1,3.79,6.5,6.5,0,0,0,1.52,1.66.29.29,0,0,0,.39-.1.3.3,0,0,0-.1-.39,5.92,5.92,0,0,1-2-2.9,5.74,5.74,0,0,1,.12-3.64,5.59,5.59,0,0,1,1-1.78.28.28,0,1,0-.4-.4Z" transform="translate(-120.62 -46.17)" style="fill:#152151"/><path d="M211.91,87.11a4.74,4.74,0,0,0,.79,3.19.29.29,0,0,0,.38.1.28.28,0,0,0,.1-.39,4.19,4.19,0,0,1-.7-2.9c0-.15-.15-.28-.28-.28a.3.3,0,0,0-.29.28Z" transform="translate(-120.62 -46.17)" style="fill:#152151"/><path d="M219.48,66.4a4,4,0,0,0-3,.82,5.42,5.42,0,0,0-1.9,2.71,8.7,8.7,0,0,0-.2,3.83,17.74,17.74,0,0,0,.42,1.92,10.52,10.52,0,0,1,.41,1.93,3.25,3.25,0,0,1-.27,1.72,1.92,1.92,0,0,1-1.09,1,.29.29,0,0,0-.2.35.28.28,0,0,0,.35.19,2.82,2.82,0,0,0,1.76-2.42,11,11,0,0,0-.64-3.84,9.53,9.53,0,0,1-.2-3.72,5.1,5.1,0,0,1,1.45-2.88,3.71,3.71,0,0,1,3-1.11.3.3,0,0,0,.35-.2.29.29,0,0,0-.2-.34Z" transform="translate(-120.62 -46.17)" style="fill:#152151"/><path d="M213,71.49l-.57,1.35a.3.3,0,0,0,.2.35.29.29,0,0,0,.35-.2l.56-1.35a.27.27,0,0,0-.2-.34.28.28,0,0,0-.34.19Z" transform="translate(-120.62 -46.17)" style="fill:#152151"/><path d="M211.3,68.32A7.33,7.33,0,0,0,210,66.87a6.45,6.45,0,0,0-.78-.56,2.44,2.44,0,0,0-.92-.4c-.79-.09-1,.87-.88,1.45a2.8,2.8,0,0,0,.89,1.68,6.93,6.93,0,0,0,1.92,1.19l.15-.52a7.91,7.91,0,0,0-1.59.34,5.7,5.7,0,0,0-.78.3,3.82,3.82,0,0,0-.64.32.88.88,0,0,0-.42.59.85.85,0,0,0,.22.71,3,3,0,0,0,1.23.82,5.75,5.75,0,0,0,1.72.45v-.56c-1.06.11-2.34.31-2.77,1.44a1.53,1.53,0,0,0,.08,1.35,1.42,1.42,0,0,0,1.48.54,5.14,5.14,0,0,0,2-.72.29.29,0,0,0-.29-.49,4.54,4.54,0,0,1-1.5.6,2.59,2.59,0,0,1-.73.07.74.74,0,0,1-.28-.08l-.05,0s-.08,0,0,0l-.1-.09s-.05-.07,0,0l0,0-.06-.11s0-.06,0-.08,0,0,0-.06,0-.09,0,0a1.22,1.22,0,0,1,0-.27s0,0,0-.07,0,0,0,0a1,1,0,0,1,0-.17.93.93,0,0,1,.08-.2l.07-.12L208,74a1.7,1.7,0,0,1,.5-.38,4.6,4.6,0,0,1,1.55-.35.28.28,0,0,0,0-.56,5.3,5.3,0,0,1-1.25-.3,3.77,3.77,0,0,1-1.1-.59.74.74,0,0,1-.28-.4s0,0,0,0a.21.21,0,0,1,0-.07,1,1,0,0,1,.15-.14,5.52,5.52,0,0,1,1.2-.52,7.75,7.75,0,0,1,1.5-.34.3.3,0,0,0,.27-.21.28.28,0,0,0-.13-.31c-1-.47-2.11-1-2.47-2.11a1.72,1.72,0,0,1-.08-.75,1.18,1.18,0,0,1,.08-.31c0-.09.08-.12.18-.12a1.92,1.92,0,0,1,.68.32,7,7,0,0,1,.65.46,6.61,6.61,0,0,1,1.28,1.36.28.28,0,0,0,.39.1.28.28,0,0,0,.1-.38Z" transform="translate(-120.62 -46.17)" style="fill:#152151"/><path d="M234.11,53.43a3.32,3.32,0,0,1-.94-1.19,2.24,2.24,0,0,1-.25-1.3.69.69,0,0,1,.29-.47.46.46,0,0,1,.24-.08h.11l.15,0a1.88,1.88,0,0,1,1.08.72A5,5,0,0,0,236,52.34a.29.29,0,0,0,.42-.32c-.13-.71-.27-1.68.43-2.13a.83.83,0,0,1,.42-.13.7.7,0,0,1,.34.12s0,0,0,0l0,0,.06.07s0,0,0,0l0,0,.06.11a.3.3,0,0,1,0,.08l0,.07.06.22a.59.59,0,0,1,0,.13s0,0,0,0a.22.22,0,0,1,0,.08,2.44,2.44,0,0,1,0,.27,2.17,2.17,0,0,1,0,.26.66.66,0,0,1,0,.14v.05s0,0,0,0a.29.29,0,0,0,.16.33.27.27,0,0,0,.35-.12,4.23,4.23,0,0,1,.74-1.08,1.12,1.12,0,0,1,.22-.16.57.57,0,0,1,.22-.11.91.91,0,0,1,.46,0h0l.07,0,.11,0c.05,0,0,0,0,0s0,0,.06,0l.06,0,0,0,.07.07h0l0,.06,0,.06s0,0,0,0a.76.76,0,0,1,0,.16,1.49,1.49,0,0,1-.16.69,4.42,4.42,0,0,1-.32.61,5,5,0,0,1-1,1.22.28.28,0,0,0,.4.4,5.52,5.52,0,0,0,1.08-1.28,5.45,5.45,0,0,0,.39-.76,2.26,2.26,0,0,0,.2-.88c-.07-1.08-1.4-1.34-2.17-.8a3.72,3.72,0,0,0-1.08,1.4l.51.22a2.37,2.37,0,0,0-.49-2.17,1.2,1.2,0,0,0-1.26-.17,1.68,1.68,0,0,0-.89,1,3.9,3.9,0,0,0,0,1.83l.42-.31a5,5,0,0,1-1.13-1.17,2.34,2.34,0,0,0-1.36-.85A1.28,1.28,0,0,0,233,50a1.16,1.16,0,0,0-.55.64,2.38,2.38,0,0,0,.12,1.62,3.9,3.9,0,0,0,1.16,1.61.3.3,0,0,0,.4,0,.28.28,0,0,0,0-.4Z" transform="translate(-120.62 -46.17)" style="fill:#152151"/><path d="M231.45,54.26a26.94,26.94,0,0,0,8,.73c.76,0,1.51-.12,2.27-.23.17,0,.1-.3-.08-.27a26.62,26.62,0,0,1-7.92-.06c-.73-.11-1.47-.26-2.19-.44-.18,0-.25.23-.08.27Z" transform="translate(-120.62 -46.17)" style="fill:#b03537"/><path d="M231.27,54.83a21,21,0,0,0,8.16.69,21.89,21.89,0,0,0,2.29-.39.14.14,0,0,0-.07-.27,20.6,20.6,0,0,1-8.09.21,21,21,0,0,1-2.22-.51.14.14,0,0,0-.07.27Z" transform="translate(-120.62 -46.17)" style="fill:#b03537"/><path d="M231.27,53.84a39.14,39.14,0,0,0,7.95.28c.75,0,1.5-.12,2.25-.22.18,0,.18-.3,0-.28a39.27,39.27,0,0,1-7.89.19c-.75-.06-1.5-.14-2.24-.24a.15.15,0,0,0-.17.1.14.14,0,0,0,.1.17Z" transform="translate(-120.62 -46.17)" style="fill:#b03537"/><path d="M212.86,66.73a34.25,34.25,0,0,0-1,7.67c0,.73,0,1.45,0,2.18,0,.18.29.18.28,0a33.69,33.69,0,0,1,.51-7.64c.13-.72.28-1.43.46-2.13a.15.15,0,0,0-.28-.08Z" transform="translate(-120.62 -46.17)" style="fill:#b03537"/><path d="M212.71,65.83c.18,2.69.27,5.38.25,8.07,0,.76,0,1.53,0,2.29,0,.18.27.18.28,0,.08-2.69.05-5.39-.08-8.08,0-.76-.08-1.52-.13-2.28,0-.18-.29-.18-.28,0Z" transform="translate(-120.62 -46.17)" style="fill:#b03537"/><path d="M213.34,66a52.52,52.52,0,0,1,.07,7.63c0,.71-.1,1.43-.17,2.15,0,.18.26.18.28,0a52.5,52.5,0,0,0,.23-7.63c0-.72-.07-1.43-.13-2.15,0-.18-.3-.18-.28,0Z" transform="translate(-120.62 -46.17)" style="fill:#b03537"/><path d="M229.43,85.27a6.12,6.12,0,0,1,.8,5.27,5.67,5.67,0,0,1-.66,1.41.29.29,0,0,0,.1.38,5.11,5.11,0,0,0,4.48-.12.28.28,0,0,0,.1-.39.29.29,0,0,0-.38-.1,4.47,4.47,0,0,1-3.91.12l.1.39a6.66,6.66,0,0,0,.62-5.75,6,6,0,0,0-.76-1.49.28.28,0,0,0-.49.28Z" transform="translate(-120.62 -46.17)" style="fill:#996441"/><path d="M249.37,83.61l2.09-3.46c.19-.31-.3-.6-.49-.29l-2.08,3.47a.28.28,0,0,0,.48.28Z" transform="translate(-120.62 -46.17)" style="fill:#996441"/><path d="M250.14,82.49l1.11,1.38a.28.28,0,0,0,.4-.4l-1.11-1.37a.28.28,0,0,0-.4,0,.28.28,0,0,0,0,.39Z" transform="translate(-120.62 -46.17)" style="fill:#996441"/><path d="M244,74.67a3.1,3.1,0,0,0,.4,3.14c.6.94,1.44,1.7,2,2.67a2.85,2.85,0,0,1,.06,3.14,4.28,4.28,0,0,0,.88-4.72,7.91,7.91,0,0,1-.62-1.36,4.07,4.07,0,0,1,.94-3Z" transform="translate(-120.62 -46.17)" style="fill:#6b74b5"/><path d="M235.5,95.55A7.17,7.17,0,0,0,238,89.32a9.68,9.68,0,0,1-4,4.92Z" transform="translate(-120.62 -46.17)" style="fill:#fff"/><path d="M235.7,95.75a7.51,7.51,0,0,0,2.61-4.86,6.87,6.87,0,0,0,0-1.57.28.28,0,0,0-.55-.07,9.45,9.45,0,0,1-2.8,4,8.6,8.6,0,0,1-1.11.79.29.29,0,0,0-.06.45c.51.43,1,.87,1.51,1.31a.29.29,0,0,0,.4,0,.28.28,0,0,0,0-.4L234.19,94l-.06.44a9.93,9.93,0,0,0,3.56-3.72,10.29,10.29,0,0,0,.61-1.36l-.55-.08a7,7,0,0,1-1.39,5,6.77,6.77,0,0,1-1.06,1.08.28.28,0,0,0,.4.4Z" transform="translate(-120.62 -46.17)" style="fill:#996441"/><path d="M235,84.44a2.19,2.19,0,0,1,.91-1.81,2.09,2.09,0,0,1,2-.21,2.15,2.15,0,0,1,.89.69.3.3,0,0,0,.39.1.29.29,0,0,0,.1-.39,2.78,2.78,0,0,0-2.28-1.13,2.73,2.73,0,0,0-2.6,2.75.29.29,0,0,0,.57,0Z" transform="translate(-120.62 -46.17)"/><path d="M224.21,89.7a2.2,2.2,0,0,1,.92-1.81,2.09,2.09,0,0,1,2-.21,2.18,2.18,0,0,1,.9.69.3.3,0,0,0,.39.1.29.29,0,0,0,.1-.39A2.78,2.78,0,0,0,226.24,87a2.65,2.65,0,0,0-2.2,1.32,2.68,2.68,0,0,0-.39,1.43.28.28,0,0,0,.56,0Z" transform="translate(-120.62 -46.17)"/><path d="M231.75,78.88c-.25.33,0,.84.43,1a2.11,2.11,0,0,0,1.21-.1,19.51,19.51,0,0,1,5.54-.66,4.63,4.63,0,0,0-3.18-.79h-3.2a1.32,1.32,0,0,0-.68.13.44.44,0,0,0-.15.6Z" transform="translate(-120.62 -46.17)" style="fill:#6b74b5"/><path d="M226.2,81.82c.4.06.56.62.37,1a2.1,2.1,0,0,1-.93.78A19.21,19.21,0,0,0,221.23,87a4.62,4.62,0,0,1,1.7-2.79L225.22,82a1.28,1.28,0,0,1,.57-.38.42.42,0,0,1,.52.32Z" transform="translate(-120.62 -46.17)" style="fill:#6b74b5"/><path d="M222.1,72.49a2.72,2.72,0,0,1,1.6.56,3.28,3.28,0,0,1,1,1.45,5.85,5.85,0,0,0,.41.88A3.61,3.61,0,0,0,227,76.89a3.45,3.45,0,0,0,1.83.17c.18,0,.1-.3-.08-.27a3.4,3.4,0,0,1-2.94-1,4.78,4.78,0,0,1-.89-1.55,3.28,3.28,0,0,0-1.06-1.41,3,3,0,0,0-1.77-.62c-.18,0-.18.28,0,.28Z" transform="translate(-120.62 -46.17)" style="fill:#6b74b5"/><path d="M233.43,71.58a5.14,5.14,0,0,1,3.12-.31,6.53,6.53,0,0,1,2.74,1.32,10,10,0,0,1,2,2.28,8.31,8.31,0,0,0,1.95,2.34,2.67,2.67,0,0,0,2.92.28c.15-.1,0-.34-.14-.24a2.4,2.4,0,0,1-2.58-.24,7.93,7.93,0,0,1-1.95-2.35,10.11,10.11,0,0,0-2-2.27A7,7,0,0,0,236.78,71a5.5,5.5,0,0,0-3.49.31c-.17.07,0,.31.14.24Z" transform="translate(-120.62 -46.17)" style="fill:#6b74b5"/><path d="M242.06,56a17.59,17.59,0,0,1,5.85,2.39,18.47,18.47,0,0,1,2.49,1.91,11.22,11.22,0,0,0,2.34,1.78,3.83,3.83,0,0,0,1.32.41,3.52,3.52,0,0,0,1.51-.2c1-.33,1.84-.94,2.8-1.32a11.31,11.31,0,0,1,10.73,1.39c.19.14.37.29.55.44s.34-.08.2-.2a11.29,11.29,0,0,0-5.05-2.44,11.67,11.67,0,0,0-5.6.23,10.41,10.41,0,0,0-1.32.48c-.47.22-.93.48-1.4.72a5.83,5.83,0,0,1-1.52.58,3,3,0,0,1-1.46-.09,6.73,6.73,0,0,1-2.44-1.57,28.1,28.1,0,0,0-2.4-2,17.53,17.53,0,0,0-5.76-2.64c-.25-.07-.51-.13-.77-.18a.14.14,0,0,0-.07.27Z" transform="translate(-120.62 -46.17)" style="fill:#6b74b5"/><path d="M212.55,76.56a4.92,4.92,0,0,1-2.4,4,35.09,35.09,0,0,1-4.45,2.37,8,8,0,0,0-3.55,3.1,4.25,4.25,0,0,0-.47,2.27,6.28,6.28,0,0,0,.65,2.2c.72,1.5,1.79,2.85,2.24,4.47a4.92,4.92,0,0,1,.08,2.44,6.72,6.72,0,0,1-.94,2.14,41,41,0,0,1-3.23,4,14.29,14.29,0,0,0-1.46,2.07,10.44,10.44,0,0,0-.91,2.28,11.23,11.23,0,0,0,1.76,9.53,8.9,8.9,0,0,0,.8.93c.12.13.32-.07.19-.2a10.82,10.82,0,0,1-2.67-9.38,10.62,10.62,0,0,1,2.09-4.53c1-1.34,2.25-2.54,3.25-3.91A6.69,6.69,0,0,0,205,96a10.85,10.85,0,0,0-1.86-4.51c-.79-1.39-1.54-2.93-1.09-4.56a6.3,6.3,0,0,1,3.15-3.43c1.45-.85,3-1.4,4.46-2.3a6.42,6.42,0,0,0,3-3.49,4,4,0,0,0,.13-1.14.14.14,0,0,0-.28,0Z" transform="translate(-120.62 -46.17)" style="fill:#6b74b5"/><path d="M220.87,97.67a4.37,4.37,0,0,1,2.31,4.09,7.27,7.27,0,0,1-.8,2.66c-.43.87-.92,1.7-1.35,2.56a8.18,8.18,0,0,0-.8,2.4,5,5,0,0,0,.1,2.41,3.73,3.73,0,0,0,.57,1.08,3.68,3.68,0,0,0,.94.82,7.07,7.07,0,0,1,1.93,1.36,3,3,0,0,1,.31,2.51c-.23,1-.69,1.9-.84,2.91a4.35,4.35,0,0,0-.05.81.28.28,0,0,0,.56,0,9.65,9.65,0,0,1,.72-3,4.55,4.55,0,0,0,.14-2.8,2.62,2.62,0,0,0-.74-1.11,5.75,5.75,0,0,0-1.05-.72,7.78,7.78,0,0,1-1-.65,2.86,2.86,0,0,1-.73-.89,3.49,3.49,0,0,1-.33-1,5.69,5.69,0,0,1,0-1.17,8,8,0,0,1,.66-2.32c.8-1.74,2-3.34,2.31-5.29a5,5,0,0,0-.36-2.72,4.92,4.92,0,0,0-1.63-2,3.77,3.77,0,0,0-.54-.34c-.32-.17-.61.32-.29.49Z" transform="translate(-120.62 -46.17)" style="fill:#152151"/><path d="M226,106.2a3.52,3.52,0,0,0-.75,4.11,9.79,9.79,0,0,0,1.52,1.88,4.14,4.14,0,0,1,1,2,3.87,3.87,0,0,1-.33,2.48.3.3,0,0,0,.11.39.28.28,0,0,0,.38-.1,4.5,4.5,0,0,0-.35-4.6c-.46-.64-1.07-1.15-1.54-1.78a2.87,2.87,0,0,1-.63-2,3,3,0,0,1,.94-2,.28.28,0,0,0-.4-.4Z" transform="translate(-120.62 -46.17)" style="fill:#152151"/><path d="M233.24,122.16a33.88,33.88,0,0,1,5.46,5.51,49.89,49.89,0,0,1,4.34,6.52,77.52,77.52,0,0,1,3.57,7.19c1,2.21,1.77,4.47,2.64,6.72a54,54,0,0,0,3.1,6.74l.54.93a.28.28,0,0,0,.48-.28,50.36,50.36,0,0,1-3.33-6.9c-.87-2.2-1.65-4.43-2.56-6.6a79.44,79.44,0,0,0-3.53-7.32,53.4,53.4,0,0,0-4.22-6.59,34.89,34.89,0,0,0-5.35-5.71l-.74-.61a.3.3,0,0,0-.4,0,.28.28,0,0,0,0,.4Z" transform="translate(-120.62 -46.17)" style="fill:#6d181d"/><path d="M250.69,150.27q2.17-2.43,4.29-4.92t4.14-5c1.37-1.67,2.71-3.35,4.05-5s2.67-3.42,4-5.14,2.64-3.45,3.95-5.19l.48-.63a.29.29,0,0,0-.1-.39.3.3,0,0,0-.39.1q-2,2.6-3.93,5.18t-4,5.09c-1.32,1.68-2.66,3.36-4,5s-2.74,3.33-4.13,5-2.82,3.29-4.26,4.91l-.53.59c-.24.27.16.67.4.4Z" transform="translate(-120.62 -46.17)" style="fill:#6d181d"/><path d="M269.1,109.79c-4,6-11.72,10.87-16.37,16.33A29.4,29.4,0,0,0,246.46,151a11,11,0,0,0,2.35,5.21A5,5,0,0,0,254,157.8a5.45,5.45,0,0,0,3.06-3.89,31.09,31.09,0,0,0,.56-5.11,22,22,0,0,1,2.23-7.81c.82-1.66,1.85-3.2,2.64-4.87a38.34,38.34,0,0,0,2.63-9.64c.45-2.48.89-5,1.34-7.44Z" transform="translate(-120.62 -46.17)" style="fill:#8c4c18"/><path d="M249.28,149.48c-.14,2.31,0,4.87,1.62,6.66a4.55,4.55,0,0,0,1.4,1,.3.3,0,0,0,.39-.1.29.29,0,0,0-.1-.39,4.29,4.29,0,0,1-2-2,7.24,7.24,0,0,1-.77-3.14,18.22,18.22,0,0,1,0-2.09.28.28,0,0,0-.28-.28.29.29,0,0,0-.28.28Z" transform="translate(-120.62 -46.17)"/><path d="M252.12,148.83a6.63,6.63,0,0,0,1.59,6,6.09,6.09,0,0,0,1.4,1.13.28.28,0,0,0,.29-.48,6.06,6.06,0,0,1-2.88-4.81,5.35,5.35,0,0,1,.14-1.65c.09-.35-.46-.5-.54-.15Z" transform="translate(-120.62 -46.17)"/><path d="M248.81,142.73a9.73,9.73,0,0,0-.58,3.11c0,.18.28.18.28,0a9.2,9.2,0,0,1,.58-3c.06-.17-.21-.25-.28-.08Z" transform="translate(-120.62 -46.17)" style="fill:#bc681d"/><path d="M249.72,143.49c-.11.71-.23,1.41-.35,2.12,0,.18.24.25.27.07l.36-2.11c0-.18-.25-.26-.28-.08Z" transform="translate(-120.62 -46.17)" style="fill:#bc681d"/><path d="M251.5,143.11a3.71,3.71,0,0,0-.18,1.81c0,.07.11.11.17.1a.16.16,0,0,0,.1-.18,3.44,3.44,0,0,1,.18-1.65c.06-.17-.21-.24-.27-.08Z" transform="translate(-120.62 -46.17)" style="fill:#bc681d"/><path d="M251.69,132.52a8.85,8.85,0,0,0-.78,3.15c0,.18.27.18.28,0a8.19,8.19,0,0,1,.75-3c.07-.17-.17-.31-.25-.15Z" transform="translate(-120.62 -46.17)" style="fill:#bc681d"/><path d="M254,134.29c-.11.45-.23.9-.35,1.35a.14.14,0,0,0,.27.07l.36-1.35a.14.14,0,0,0-.28-.07Z" transform="translate(-120.62 -46.17)" style="fill:#bc681d"/><path d="M255.54,135.6a2.34,2.34,0,0,0-.19,1.45.13.13,0,0,0,.17.1.15.15,0,0,0,.1-.17,2,2,0,0,1,.16-1.24.14.14,0,0,0-.05-.19.13.13,0,0,0-.19,0Z" transform="translate(-120.62 -46.17)" style="fill:#bc681d"/><path d="M260.63,125.44c-.24.84-.48,1.67-.71,2.51a.14.14,0,0,0,.27.08c.23-.84.47-1.68.71-2.52.05-.17-.22-.24-.27-.07Z" transform="translate(-120.62 -46.17)" style="fill:#bc681d"/><path d="M262.61,127l-.94,1.73c-.09.16.16.31.24.15l.95-1.74c.08-.16-.16-.3-.25-.14Z" transform="translate(-120.62 -46.17)" style="fill:#bc681d"/><path d="M309.06,125.19a20.14,20.14,0,0,1-3,26.14,11.84,11.84,0,0,1-5.33,3,6.49,6.49,0,0,1-5.78-1.36c-2.2-2.06-2.18-5.72-.72-8.35s4-4.45,6.56-6a11.92,11.92,0,0,0,2.8-2.13,10.37,10.37,0,0,0,1.33-2.1,54.49,54.49,0,0,0,3.82-9.45Z" transform="translate(-120.62 -46.17)" style="fill:#8c4c18"/><path d="M269.42,126.86c1.17,1.08,2.36,2.14,3.63,3.1a18.44,18.44,0,0,0,4.05,2.41,12,12,0,0,0,2.5.76.28.28,0,1,0,.15-.54,13.24,13.24,0,0,1-4.23-1.64,26.23,26.23,0,0,1-3.73-2.73c-.67-.58-1.32-1.17-2-1.76a.28.28,0,0,0-.4.4Z" transform="translate(-120.62 -46.17)" style="fill:#6d181d"/><path d="M294,118.79a34.08,34.08,0,0,0,5.4,1,32.12,32.12,0,0,0,5.46.13c1-.06,2.06-.17,3.08-.32a.28.28,0,1,0-.15-.54,33,33,0,0,1-5.35.35,31.54,31.54,0,0,1-5.32-.51c-1-.18-2-.41-3-.68a.28.28,0,0,0-.15.54Z" transform="translate(-120.62 -46.17)" style="fill:#6d181d"/><path d="M293.65,150.07a10.57,10.57,0,0,0,5.72-2.35,9.68,9.68,0,0,0,1.25-1.23.28.28,0,0,0-.4-.4,10,10,0,0,1-5,3.13,9.82,9.82,0,0,1-1.62.29.29.29,0,0,0-.28.28.28.28,0,0,0,.28.28Z" transform="translate(-120.62 -46.17)"/><path d="M296.24,153.24a19.31,19.31,0,0,0,5.17-2.65q.68-.5,1.32-1.05a.28.28,0,0,0-.4-.4,18.77,18.77,0,0,1-4.77,3q-.72.31-1.47.57a.28.28,0,0,0-.2.34.29.29,0,0,0,.35.2Z" transform="translate(-120.62 -46.17)"/><path d="M306,136.56c-.37.84-.75,1.67-1.13,2.51-.07.16.17.3.25.14.37-.84.75-1.67,1.13-2.51.07-.16-.17-.3-.25-.14Z" transform="translate(-120.62 -46.17)" style="fill:#bc681d"/><path d="M307.53,137.74l-.6,1.72c-.06.18.22.25.28.08.19-.57.39-1.15.59-1.72.06-.17-.21-.25-.27-.08Z" transform="translate(-120.62 -46.17)" style="fill:#bc681d"/><path d="M308.29,138.78a2,2,0,0,1-.36,1.42.14.14,0,1,0,.24.14,2.22,2.22,0,0,0,.39-1.64.13.13,0,0,0-.17-.09.14.14,0,0,0-.1.17Z" transform="translate(-120.62 -46.17)" style="fill:#bc681d"/><path d="M309,132.36c-.1.58-.21,1.16-.32,1.74,0,.18.24.26.27.08l.33-1.74c0-.18-.24-.25-.28-.08Z" transform="translate(-120.62 -46.17)" style="fill:#bc681d"/><path d="M309.46,141.93l-1.56,3c-.09.17.16.31.24.15l1.57-3.06c.08-.16-.16-.3-.25-.14Z" transform="translate(-120.62 -46.17)" style="fill:#bc681d"/><path d="M310.2,138.59a1.06,1.06,0,0,1,0,.43,1,1,0,0,1-.18.43.15.15,0,0,0,.05.19.16.16,0,0,0,.2,0,1.27,1.27,0,0,0,.17-1.07.13.13,0,0,0-.17-.1.15.15,0,0,0-.1.17Z" transform="translate(-120.62 -46.17)" style="fill:#bc681d"/><path d="M310.66,135.56l0,0h0s0,0,0,0l.06.08v0s0,0,0,0h0v0a.29.29,0,0,1,0,.1v0h0v.15h0a.11.11,0,0,0,0,0l0,.1a.15.15,0,0,0,.09.18.16.16,0,0,0,.18-.1.91.91,0,0,0-.19-.92.15.15,0,0,0-.2,0,.13.13,0,0,0,0,.2Z" transform="translate(-120.62 -46.17)" style="fill:#bc681d"/><path d="M311.35,142.2a21.75,21.75,0,0,1-.2,4.56c0,.18.24.25.27.07a23.12,23.12,0,0,0,.22-4.63c0-.18-.3-.19-.29,0Z" transform="translate(-120.62 -46.17)" style="fill:#8c4c18"/><path d="M310.3,144.31v3.26a.14.14,0,0,0,.28,0v-3.26a.15.15,0,0,0-.29,0Z" transform="translate(-120.62 -46.17)" style="fill:#8c4c18"/><path d="M245.79,134.61a24.42,24.42,0,0,1,3.62-3c.37-.25.75-.48,1.13-.7a.15.15,0,0,0-.15-.25,24.92,24.92,0,0,0-3.82,2.79c-.34.29-.67.6-1,.92-.13.12.07.32.2.19Z" transform="translate(-120.62 -46.17)" style="fill:#8c4c18"/><path d="M247.27,131.34a11.62,11.62,0,0,1,3.65-1.84c.17-.06.09-.33-.08-.28a11.92,11.92,0,0,0-3.71,1.88c-.15.11,0,.35.14.24Z" transform="translate(-120.62 -46.17)" style="fill:#8c4c18"/><path d="M247.05,154.86a12.34,12.34,0,0,0-2.42,4.6,22.48,22.48,0,0,0-.8,5.66c0,1.13,0,2.26,0,3.4a.29.29,0,0,0,.57,0,46.73,46.73,0,0,1,.19-5.92,15.69,15.69,0,0,1,1.36-5,10.46,10.46,0,0,1,1.52-2.36.29.29,0,0,0,0-.4.28.28,0,0,0-.4,0Z" transform="translate(-120.62 -46.17)" style="fill:#6d181d"/><path d="M251.06,87.35a1,1,0,0,0,.7-.29,1,1,0,0,0,.29-.7,1,1,0,0,0-1-1,1,1,0,0,0-.69.29,1,1,0,0,0-.29.7,1,1,0,0,0,1,1Z" transform="translate(-120.62 -46.17)" style="fill:#d15259"/><path d="M275.21,135.16a58,58,0,0,1,12.13,10.07,3.21,3.21,0,0,1,.69,1,3.46,3.46,0,0,1,0,1.78,23.31,23.31,0,0,0,.2,8.45,67.21,67.21,0,0,1-19.12-5.57q1.29-6.09,2.59-12.2Z" transform="translate(-120.62 -46.17)" style="fill:#d15259"/><path d="M286.66,149.82a23.7,23.7,0,0,0-.18,5.05,24.58,24.58,0,0,0,.89,5,24,24,0,0,0,1,2.69.28.28,0,1,0,.48-.28A23.25,23.25,0,0,1,287,152.7a22.65,22.65,0,0,1,.21-2.73.3.3,0,0,0-.2-.35.29.29,0,0,0-.34.2Z" transform="translate(-120.62 -46.17)" style="fill:#6d181d"/><path d="M281.56,131q-1.74,3.87-3.63,7.66-1.79,3.57-3.71,7.06c-1.28,2.33-2.6,4.64-3.94,6.94s-2.87,4.85-4.31,7.27q-2.43,4-4.84,8.08l-.63,1.07a.28.28,0,0,0,.48.29c1.63-2.75,3.27-5.48,4.91-8.22q2.21-3.66,4.37-7.34c1.35-2.31,2.68-4.62,4-7s2.53-4.65,3.73-7,2.47-5,3.63-7.56l.44-1a.29.29,0,0,0-.1-.38.28.28,0,0,0-.38.1Z" transform="translate(-120.62 -46.17)" style="fill:#6d181d"/><path d="M293.45,121.28a31.66,31.66,0,0,1-.92,5.29q-.66,2.69-1.34,5.36t-1.36,5.39q-.68,2.72-1.36,5.42l-1.35,5.4c-.06.22-.11.44-.17.66s.46.51.54.15q.69-2.7,1.36-5.42c.46-1.8.91-3.61,1.37-5.42s.9-3.61,1.36-5.42.91-3.59,1.35-5.39a37.69,37.69,0,0,0,1-5.35c0-.22,0-.44.05-.67a.28.28,0,0,0-.28-.28.29.29,0,0,0-.28.28Z" transform="translate(-120.62 -46.17)" style="fill:#6d181d"/><path d="M306.24,68a8.43,8.43,0,0,1,3-2.29c.17-.07,0-.31-.14-.24A8.54,8.54,0,0,0,306,67.84c-.12.14.08.34.2.2Z" transform="translate(-120.62 -46.17)"/><path d="M307.71,69.54,310.39,68a.14.14,0,0,0-.14-.25c-.89.52-1.79,1-2.69,1.54-.15.09,0,.33.15.24Z" transform="translate(-120.62 -46.17)"/><path d="M279.15,52.17l-.69,2.71c0,.17.23.25.27.07l.69-2.7c.05-.18-.23-.25-.27-.08Z" transform="translate(-120.62 -46.17)"/><path d="M280.61,52.54c-.13.9-.26,1.79-.4,2.69,0,.17.25.25.28.07l.39-2.68c0-.18-.24-.26-.27-.08Z" transform="translate(-120.62 -46.17)"/><path d="M288.05,66.82a9.18,9.18,0,0,1,2.25,2.71c.08.16.33,0,.24-.14a9.13,9.13,0,0,0-2.29-2.77c-.14-.11-.34.08-.2.2Z" transform="translate(-120.62 -46.17)"/><path d="M290,67.15a3.07,3.07,0,0,1,2.15,1.65c.07.16.32,0,.24-.15a3.33,3.33,0,0,0-2.32-1.77c-.17,0-.25.23-.07.27Z" transform="translate(-120.62 -46.17)"/><path d="M246.23,114.11a2.4,2.4,0,1,1-2.4-2.39A2.41,2.41,0,0,1,246.23,114.11Z" transform="translate(-120.62 -46.17)" style="fill:#fff"/><path d="M251.72,114.16a2.4,2.4,0,1,1-2.39-2.4A2.39,2.39,0,0,1,251.72,114.16Z" transform="translate(-120.62 -46.17)" style="fill:#fff"/><path d="M257.08,112.75a2.4,2.4,0,1,1-2.4-2.4A2.4,2.4,0,0,1,257.08,112.75Z" transform="translate(-120.62 -46.17)" style="fill:#fff"/><path d="M244.47,113.48c.07-.18.28-.16.44-.13a4.27,4.27,0,0,1,.61.18,11.51,11.51,0,0,0,1.38.33,13.34,13.34,0,0,0,2.82.2,13.7,13.7,0,0,0,5.44-1.37,12.94,12.94,0,0,0,2.65-1.75c.14-.12-.06-.32-.2-.2a12.81,12.81,0,0,1-5,2.6,13.21,13.21,0,0,1-5.63.25,11.86,11.86,0,0,1-1.56-.39c-.35-.11-1-.34-1.2.13-.07.17.18.31.25.15Z" transform="translate(-120.62 -46.17)" style="fill:#fff"/></svg>